<svg width="125" height="68" viewBox="0 0 125 68" fill="none" xmlns="http://www.w3.org/2000/svg">
<path d="M19.2637 54.7734H15.6895L14.8867 57H13.7266L16.9844 48.4688H17.9688L21.2324 57H20.0781L19.2637 54.7734ZM16.0293 53.8477H18.9297L17.4766 49.8574L16.0293 53.8477ZM26.0547 56.373C25.6328 56.8691 25.0137 57.1172 24.1973 57.1172C23.5215 57.1172 23.0059 56.9219 22.6504 56.5312C22.2988 56.1367 22.1211 55.5547 22.1172 54.7852V50.6602H23.2012V54.7559C23.2012 55.7168 23.5918 56.1973 24.373 56.1973C25.2012 56.1973 25.752 55.8887 26.0254 55.2715V50.6602H27.1094V57H26.0781L26.0547 56.373ZM30.2324 49.125V50.6602H31.416V51.498H30.2324V55.4297C30.2324 55.6836 30.2852 55.875 30.3906 56.0039C30.4961 56.1289 30.6758 56.1914 30.9297 56.1914C31.0547 56.1914 31.2266 56.168 31.4453 56.1211V57C31.1602 57.0781 30.8828 57.1172 30.6133 57.1172C30.1289 57.1172 29.7637 56.9707 29.5176 56.6777C29.2715 56.3848 29.1484 55.9688 29.1484 55.4297V51.498H27.9941V50.6602H29.1484V49.125H30.2324ZM32.2832 53.7715C32.2832 53.1504 32.4043 52.5918 32.6465 52.0957C32.8926 51.5996 33.2324 51.2168 33.666 50.9473C34.1035 50.6777 34.6016 50.543 35.1602 50.543C36.0234 50.543 36.7207 50.8418 37.252 51.4395C37.7871 52.0371 38.0547 52.832 38.0547 53.8242V53.9004C38.0547 54.5176 37.9355 55.0723 37.6973 55.5645C37.4629 56.0527 37.125 56.4336 36.6836 56.707C36.2461 56.9805 35.7422 57.1172 35.1719 57.1172C34.3125 57.1172 33.6152 56.8184 33.0801 56.2207C32.5488 55.623 32.2832 54.832 32.2832 53.8477V53.7715ZM33.373 53.9004C33.373 54.6035 33.5352 55.168 33.8594 55.5938C34.1875 56.0195 34.625 56.2324 35.1719 56.2324C35.7227 56.2324 36.1602 56.0176 36.4844 55.5879C36.8086 55.1543 36.9707 54.5488 36.9707 53.7715C36.9707 53.0762 36.8047 52.5137 36.4727 52.084C36.1445 51.6504 35.707 51.4336 35.1602 51.4336C34.625 51.4336 34.1934 51.6465 33.8652 52.0723C33.5371 52.498 33.373 53.1074 33.373 53.9004ZM44.2949 54.7734H40.7207L39.918 57H38.7578L42.0156 48.4688H43L46.2637 57H45.1094L44.2949 54.7734ZM41.0605 53.8477H43.9609L42.5078 49.8574L41.0605 53.8477ZM46.9785 53.7773C46.9785 52.8047 47.209 52.0234 47.6699 51.4336C48.1309 50.8398 48.7344 50.543 49.4805 50.543C50.2227 50.543 50.8105 50.7969 51.2441 51.3047V48H52.3281V57H51.332L51.2793 56.3203C50.8457 56.8516 50.2422 57.1172 49.4688 57.1172C48.7344 57.1172 48.1348 56.8164 47.6699 56.2148C47.209 55.6133 46.9785 54.8281 46.9785 53.8594V53.7773ZM48.0625 53.9004C48.0625 54.6191 48.2109 55.1816 48.5078 55.5879C48.8047 55.9941 49.2148 56.1973 49.7383 56.1973C50.4258 56.1973 50.9277 55.8887 51.2441 55.2715V52.3594C50.9199 51.7617 50.4219 51.4629 49.75 51.4629C49.2188 51.4629 48.8047 51.668 48.5078 52.0781C48.2109 52.4883 48.0625 53.0957 48.0625 53.9004ZM57.707 55.3184C57.707 55.0254 57.5957 54.7988 57.373 54.6387C57.1543 54.4746 56.7695 54.334 56.2188 54.2168C55.6719 54.0996 55.2363 53.959 54.9121 53.7949C54.5918 53.6309 54.3535 53.4355 54.1973 53.209C54.0449 52.9824 53.9688 52.7129 53.9688 52.4004C53.9688 51.8809 54.1875 51.4414 54.625 51.082C55.0664 50.7227 55.6289 50.543 56.3125 50.543C57.0312 50.543 57.6133 50.7285 58.0586 51.0996C58.5078 51.4707 58.7324 51.9453 58.7324 52.5234H57.6426C57.6426 52.2266 57.5156 51.9707 57.2617 51.7559C57.0117 51.541 56.6953 51.4336 56.3125 51.4336C55.918 51.4336 55.6094 51.5195 55.3867 51.6914C55.1641 51.8633 55.0527 52.0879 55.0527 52.3652C55.0527 52.627 55.1562 52.8242 55.3633 52.957C55.5703 53.0898 55.9434 53.2168 56.4824 53.3379C57.0254 53.459 57.4648 53.6035 57.8008 53.7715C58.1367 53.9395 58.3848 54.1426 58.5449 54.3809C58.709 54.6152 58.791 54.9023 58.791 55.2422C58.791 55.8086 58.5645 56.2637 58.1113 56.6074C57.6582 56.9473 57.0703 57.1172 56.3477 57.1172C55.8398 57.1172 55.3906 57.0273 55 56.8477C54.6094 56.668 54.3027 56.418 54.0801 56.0977C53.8613 55.7734 53.752 55.4238 53.752 55.0488H54.8359C54.8555 55.4121 55 55.7012 55.2695 55.916C55.543 56.127 55.9023 56.2324 56.3477 56.2324C56.7578 56.2324 57.0859 56.1504 57.332 55.9863C57.582 55.8184 57.707 55.5957 57.707 55.3184ZM64.8027 48.4688L67.5918 55.4297L70.3809 48.4688H71.8398V57H70.7148V53.6777L70.8203 50.0918L68.0195 57H67.1582L64.3633 50.1094L64.4746 53.6777V57H63.3496V48.4688H64.8027ZM77.5703 57C77.5078 56.875 77.457 56.6523 77.418 56.332C76.9141 56.8555 76.3125 57.1172 75.6133 57.1172C74.9883 57.1172 74.4746 56.9414 74.0723 56.5898C73.6738 56.2344 73.4746 55.7852 73.4746 55.2422C73.4746 54.582 73.7246 54.0703 74.2246 53.707C74.7285 53.3398 75.4355 53.1562 76.3457 53.1562H77.4004V52.6582C77.4004 52.2793 77.2871 51.9785 77.0605 51.7559C76.834 51.5293 76.5 51.416 76.0586 51.416C75.6719 51.416 75.3477 51.5137 75.0859 51.709C74.8242 51.9043 74.6934 52.1406 74.6934 52.418H73.6035C73.6035 52.1016 73.7148 51.7969 73.9375 51.5039C74.1641 51.207 74.4688 50.9727 74.8516 50.8008C75.2383 50.6289 75.6621 50.543 76.123 50.543C76.8535 50.543 77.4258 50.7266 77.8398 51.0938C78.2539 51.457 78.4688 51.959 78.4844 52.5996V55.5176C78.4844 56.0996 78.5586 56.5625 78.707 56.9062V57H77.5703ZM75.7715 56.1738C76.1113 56.1738 76.4336 56.0859 76.7383 55.9102C77.043 55.7344 77.2637 55.5059 77.4004 55.2246V53.9238H76.5508C75.2227 53.9238 74.5586 54.3125 74.5586 55.0898C74.5586 55.4297 74.6719 55.6953 74.8984 55.8867C75.125 56.0781 75.416 56.1738 75.7715 56.1738ZM82.3105 52.9746L83.7168 50.6602H84.9824L82.9082 53.7949L85.0469 57H83.793L82.3281 54.627L80.8633 57H79.6035L81.7422 53.7949L79.668 50.6602H80.9219L82.3105 52.9746ZM87.4375 56.0801H91.4805V57H86.3066V48.4688H87.4375V56.0801ZM95.2246 57.1172C94.3652 57.1172 93.666 56.8359 93.127 56.2734C92.5879 55.707 92.3184 54.9512 92.3184 54.0059V53.8066C92.3184 53.1777 92.4375 52.6172 92.6758 52.125C92.918 51.6289 93.2539 51.2422 93.6836 50.9648C94.1172 50.6836 94.5859 50.543 95.0898 50.543C95.9141 50.543 96.5547 50.8145 97.0117 51.3574C97.4688 51.9004 97.6973 52.6777 97.6973 53.6895V54.1406H93.4023C93.418 54.7656 93.5996 55.2715 93.9473 55.6582C94.2988 56.041 94.7441 56.2324 95.2832 56.2324C95.666 56.2324 95.9902 56.1543 96.2559 55.998C96.5215 55.8418 96.7539 55.6348 96.9531 55.377L97.6152 55.8926C97.084 56.709 96.2871 57.1172 95.2246 57.1172ZM95.0898 51.4336C94.6523 51.4336 94.2852 51.5938 93.9883 51.9141C93.6914 52.2305 93.5078 52.6758 93.4375 53.25H96.6133V53.168C96.582 52.6172 96.4336 52.1914 96.168 51.8906C95.9023 51.5859 95.543 51.4336 95.0898 51.4336ZM102.871 57C102.809 56.875 102.758 56.6523 102.719 56.332C102.215 56.8555 101.613 57.1172 100.914 57.1172C100.289 57.1172 99.7754 56.9414 99.373 56.5898C98.9746 56.2344 98.7754 55.7852 98.7754 55.2422C98.7754 54.582 99.0254 54.0703 99.5254 53.707C100.029 53.3398 100.736 53.1562 101.646 53.1562H102.701V52.6582C102.701 52.2793 102.588 51.9785 102.361 51.7559C102.135 51.5293 101.801 51.416 101.359 51.416C100.973 51.416 100.648 51.5137 100.387 51.709C100.125 51.9043 99.9941 52.1406 99.9941 52.418H98.9043C98.9043 52.1016 99.0156 51.7969 99.2383 51.5039C99.4648 51.207 99.7695 50.9727 100.152 50.8008C100.539 50.6289 100.963 50.543 101.424 50.543C102.154 50.543 102.727 50.7266 103.141 51.0938C103.555 51.457 103.77 51.959 103.785 52.5996V55.5176C103.785 56.0996 103.859 56.5625 104.008 56.9062V57H102.871ZM101.072 56.1738C101.412 56.1738 101.734 56.0859 102.039 55.9102C102.344 55.7344 102.564 55.5059 102.701 55.2246V53.9238H101.852C100.523 53.9238 99.8594 54.3125 99.8594 55.0898C99.8594 55.4297 99.9727 55.6953 100.199 55.8867C100.426 56.0781 100.717 56.1738 101.072 56.1738ZM105.221 53.7773C105.221 52.8047 105.451 52.0234 105.912 51.4336C106.373 50.8398 106.977 50.543 107.723 50.543C108.465 50.543 109.053 50.7969 109.486 51.3047V48H110.57V57H109.574L109.521 56.3203C109.088 56.8516 108.484 57.1172 107.711 57.1172C106.977 57.1172 106.377 56.8164 105.912 56.2148C105.451 55.6133 105.221 54.8281 105.221 53.8594V53.7773ZM106.305 53.9004C106.305 54.6191 106.453 55.1816 106.75 55.5879C107.047 55.9941 107.457 56.1973 107.98 56.1973C108.668 56.1973 109.17 55.8887 109.486 55.2715V52.3594C109.162 51.7617 108.664 51.4629 107.992 51.4629C107.461 51.4629 107.047 51.668 106.75 52.0781C106.453 52.4883 106.305 53.0957 106.305 53.9004Z" fill="#1E243C"/>
<path d="M61.8615 40.2268C55.3037 40.1268 50.0957 34.654 50.0957 28.0957V28.7754C50.0957 35.3339 55.3037 40.8068 61.8615 40.9064C68.5361 41.0082 73.998 35.6083 73.998 28.9566V28.277C73.998 34.9286 68.5361 40.3285 61.8615 40.2268Z" fill="white"/>
<path d="M73.998 19.5733V15.9421C73.998 15.6918 73.7953 15.489 73.5449 15.489H69.9199C69.6696 15.489 69.4668 15.6918 69.4668 15.9421V19.5733H73.998Z" fill="#B9256A"/>
<path d="M54.627 19.5733V15.9421C54.627 15.6918 54.4242 15.489 54.1738 15.489H50.5488C50.2985 15.489 50.0957 15.6918 50.0957 15.9421V19.5733H54.627Z" fill="#E38FB5"/>
<path d="M73.5449 15.2625H69.9199C69.5452 15.2625 69.2402 15.5674 69.2402 15.9421V28.9568C69.2402 32.8562 66.0693 36.0826 62.1713 36.149C60.2711 36.1821 58.4615 35.4489 57.0759 34.0864C55.6635 32.6978 54.8535 30.7743 54.8535 28.8088V15.9421C54.8535 15.5674 54.5486 15.2625 54.1738 15.2625H50.5488C50.1741 15.2625 49.8691 15.5674 49.8691 15.9421V28.7753C49.8691 35.4886 55.2473 41.0324 61.8581 41.1329C61.9218 41.1339 61.9852 41.1343 62.0487 41.1343C65.2625 41.1343 68.2884 39.8939 70.5874 37.6294C72.933 35.3193 74.2246 32.2392 74.2246 28.9566V25.0484C74.2246 24.9233 74.1233 24.8218 73.998 24.8218C73.8728 24.8218 73.7715 24.9233 73.7715 25.0484V28.9566C73.7715 32.1171 72.5279 35.0826 70.2695 37.3065C68.012 39.5305 65.0259 40.7344 61.8649 40.68C55.5001 40.5831 50.3223 35.2428 50.3223 28.7753V15.9421C50.3223 15.8173 50.424 15.7156 50.5488 15.7156H54.1738C54.2987 15.7156 54.4004 15.8173 54.4004 15.9421V28.8091C54.4004 30.8953 55.2597 32.9366 56.7582 34.4097C58.2313 35.8581 60.1546 36.6341 62.179 36.6021C66.3223 36.5317 69.6934 33.102 69.6934 28.9568V15.9421C69.6934 15.8173 69.7949 15.7156 69.9199 15.7156H73.5449C73.67 15.7156 73.7715 15.8173 73.7715 15.9421V21.1594C73.7715 21.2845 73.8728 21.386 73.998 21.386C74.1233 21.386 74.2246 21.2845 74.2246 21.1594V15.9421C74.2246 15.5674 73.9197 15.2625 73.5449 15.2625Z" fill="#1E243C" stroke="#1E243C" stroke-width="0.5"/>
<path d="M73.998 21.9144C73.8728 21.9144 73.7715 22.0159 73.7715 22.141V24.0289C73.7715 24.154 73.8728 24.2555 73.998 24.2555C74.1233 24.2555 74.2246 24.154 74.2246 24.0289V22.141C74.2246 22.0157 74.1233 21.9144 73.998 21.9144Z" fill="#1E243C" stroke="#1E243C" stroke-width="0.5"/>
<path d="M64.8376 17L58 25.6987H63.0471L60.4792 32L68 22.913H62.2896L64.8376 17Z" fill="#B9256A"/>
<path d="M60.494 32.9549C60.5503 32.9855 60.6116 33 60.6721 33C60.7916 33 60.9084 32.9428 60.9827 32.8377L67.9274 23.0142C68.0117 22.895 68.0235 22.7374 67.958 22.6061C67.8925 22.4752 67.7608 22.3924 67.6167 22.3924H62.8976L65.0549 16.5306C65.1235 16.3452 65.0457 16.1367 64.8737 16.0449C64.701 15.9524 64.4903 16.0069 64.3808 16.1704L58.0674 25.5737C57.9869 25.6936 57.9777 25.8496 58.044 25.9782C58.1103 26.1072 58.2409 26.1876 58.383 26.1876H62.5L60.3113 32.4763C60.2473 32.6601 60.3254 32.864 60.494 32.9549ZM63.404 25.9273C63.4457 25.8073 63.4277 25.674 63.3561 25.5697C63.2841 25.4655 63.1676 25.4035 63.0432 25.4035H59.1112L63.2262 19.274L61.9852 22.6461C61.9407 22.7664 61.9572 22.9017 62.0288 23.0071C62.1005 23.113 62.2181 23.1761 62.3437 23.1761H66.8667L61.9316 30.1575L63.404 25.9273Z" fill="#1E243C" stroke="#1E243C" stroke-width="0.5"/>
</svg>
