<svg width="125" height="68" viewBox="0 0 125 68" fill="none" xmlns="http://www.w3.org/2000/svg">
<path d="M34.0762 54.293C33.9707 55.1953 33.6367 55.8926 33.0742 56.3848C32.5156 56.873 31.7715 57.1172 30.8418 57.1172C29.834 57.1172 29.0254 56.7559 28.416 56.0332C27.8105 55.3105 27.5078 54.3438 27.5078 53.1328V52.3125C27.5078 51.5195 27.6484 50.8223 27.9297 50.2207C28.2148 49.6191 28.6172 49.1582 29.1367 48.8379C29.6562 48.5137 30.2578 48.3516 30.9414 48.3516C31.8477 48.3516 32.5742 48.6055 33.1211 49.1133C33.668 49.6172 33.9863 50.3164 34.0762 51.2109H32.9453C32.8477 50.5312 32.6348 50.0391 32.3066 49.7344C31.9824 49.4297 31.5273 49.2773 30.9414 49.2773C30.2227 49.2773 29.6582 49.543 29.248 50.0742C28.8418 50.6055 28.6387 51.3613 28.6387 52.3418V53.168C28.6387 54.0938 28.832 54.8301 29.2188 55.377C29.6055 55.9238 30.1465 56.1973 30.8418 56.1973C31.4668 56.1973 31.9453 56.0566 32.2773 55.7754C32.6133 55.4902 32.8359 54.9961 32.9453 54.293H34.0762ZM36.5312 51.4277C37.0117 50.8379 37.6367 50.543 38.4062 50.543C39.7461 50.543 40.4219 51.2988 40.4336 52.8105V57H39.3496V52.8047C39.3457 52.3477 39.2402 52.0098 39.0332 51.791C38.8301 51.5723 38.5117 51.4629 38.0781 51.4629C37.7266 51.4629 37.418 51.5566 37.1523 51.7441C36.8867 51.9316 36.6797 52.1777 36.5312 52.4824V57H35.4473V48H36.5312V51.4277ZM45.9707 57C45.9082 56.875 45.8574 56.6523 45.8184 56.332C45.3145 56.8555 44.7129 57.1172 44.0137 57.1172C43.3887 57.1172 42.875 56.9414 42.4727 56.5898C42.0742 56.2344 41.875 55.7852 41.875 55.2422C41.875 54.582 42.125 54.0703 42.625 53.707C43.1289 53.3398 43.8359 53.1562 44.7461 53.1562H45.8008V52.6582C45.8008 52.2793 45.6875 51.9785 45.4609 51.7559C45.2344 51.5293 44.9004 51.416 44.459 51.416C44.0723 51.416 43.748 51.5137 43.4863 51.709C43.2246 51.9043 43.0938 52.1406 43.0938 52.418H42.0039C42.0039 52.1016 42.1152 51.7969 42.3379 51.5039C42.5645 51.207 42.8691 50.9727 43.252 50.8008C43.6387 50.6289 44.0625 50.543 44.5234 50.543C45.2539 50.543 45.8262 50.7266 46.2402 51.0938C46.6543 51.457 46.8691 51.959 46.8848 52.5996V55.5176C46.8848 56.0996 46.959 56.5625 47.1074 56.9062V57H45.9707ZM44.1719 56.1738C44.5117 56.1738 44.834 56.0859 45.1387 55.9102C45.4434 55.7344 45.6641 55.5059 45.8008 55.2246V53.9238H44.9512C43.623 53.9238 42.959 54.3125 42.959 55.0898C42.959 55.4297 43.0723 55.6953 43.2988 55.8867C43.5254 56.0781 43.8164 56.1738 44.1719 56.1738ZM46.3984 48.2344C46.3984 48.707 46.2363 49.0879 45.9121 49.377C45.5918 49.6621 45.1699 49.8047 44.6465 49.8047C44.123 49.8047 43.6992 49.6602 43.375 49.3711C43.0508 49.082 42.8887 48.7031 42.8887 48.2344H43.7734C43.7734 48.5078 43.8477 48.7227 43.9961 48.8789C44.1445 49.0312 44.3613 49.1074 44.6465 49.1074C44.9199 49.1074 45.1328 49.0312 45.2852 48.8789C45.4414 48.7266 45.5195 48.5117 45.5195 48.2344H46.3984ZM43.498 58.4355C43.498 58.2598 43.5508 58.1113 43.6562 57.9902C43.7656 57.8691 43.9258 57.8086 44.1367 57.8086C44.3477 57.8086 44.5078 57.8691 44.6172 57.9902C44.7266 58.1113 44.7812 58.2598 44.7812 58.4355C44.7812 58.6113 44.7266 58.7578 44.6172 58.875C44.5078 58.9922 44.3477 59.0508 44.1367 59.0508C43.9258 59.0508 43.7656 58.9922 43.6562 58.875C43.5508 58.7578 43.498 58.6113 43.498 58.4355ZM49.6094 50.6602L49.6445 51.457C50.1289 50.8477 50.7617 50.543 51.543 50.543C52.8828 50.543 53.5586 51.2988 53.5703 52.8105V57H52.4863V52.8047C52.4824 52.3477 52.377 52.0098 52.1699 51.791C51.9668 51.5723 51.6484 51.4629 51.2148 51.4629C50.8633 51.4629 50.5547 51.5566 50.2891 51.7441C50.0234 51.9316 49.8164 52.1777 49.668 52.4824V57H48.584V50.6602H49.6094ZM60.7246 56.2324C61.1113 56.2324 61.4492 56.1152 61.7383 55.8809C62.0273 55.6465 62.1875 55.3535 62.2188 55.002H63.2441C63.2246 55.3652 63.0996 55.7109 62.8691 56.0391C62.6387 56.3672 62.3301 56.6289 61.9434 56.8242C61.5605 57.0195 61.1543 57.1172 60.7246 57.1172C59.8613 57.1172 59.1738 56.8301 58.6621 56.2559C58.1543 55.6777 57.9004 54.8887 57.9004 53.8887V53.707C57.9004 53.0898 58.0137 52.541 58.2402 52.0605C58.4668 51.5801 58.791 51.207 59.2129 50.9414C59.6387 50.6758 60.1406 50.543 60.7188 50.543C61.4297 50.543 62.0195 50.7559 62.4883 51.1816C62.9609 51.6074 63.2129 52.1602 63.2441 52.8398H62.2188C62.1875 52.4297 62.0312 52.0938 61.75 51.832C61.4727 51.5664 61.1289 51.4336 60.7188 51.4336C60.168 51.4336 59.7402 51.6328 59.4355 52.0312C59.1348 52.4258 58.9844 52.998 58.9844 53.748V53.9531C58.9844 54.6836 59.1348 55.2461 59.4355 55.6406C59.7363 56.0352 60.166 56.2324 60.7246 56.2324ZM65.6406 57H64.5566V48H65.6406V57ZM68.5586 57H67.4746V50.6602H68.5586V57ZM67.3867 48.9785C67.3867 48.8027 67.4395 48.6543 67.5449 48.5332C67.6543 48.4121 67.8145 48.3516 68.0254 48.3516C68.2363 48.3516 68.3965 48.4121 68.5059 48.5332C68.6152 48.6543 68.6699 48.8027 68.6699 48.9785C68.6699 49.1543 68.6152 49.3008 68.5059 49.418C68.3965 49.5352 68.2363 49.5938 68.0254 49.5938C67.8145 49.5938 67.6543 49.5352 67.5449 49.418C67.4395 49.3008 67.3867 49.1543 67.3867 48.9785ZM72.8418 56.2324C73.2285 56.2324 73.5664 56.1152 73.8555 55.8809C74.1445 55.6465 74.3047 55.3535 74.3359 55.002H75.3613C75.3418 55.3652 75.2168 55.7109 74.9863 56.0391C74.7559 56.3672 74.4473 56.6289 74.0605 56.8242C73.6777 57.0195 73.2715 57.1172 72.8418 57.1172C71.9785 57.1172 71.291 56.8301 70.7793 56.2559C70.2715 55.6777 70.0176 54.8887 70.0176 53.8887V53.707C70.0176 53.0898 70.1309 52.541 70.3574 52.0605C70.584 51.5801 70.9082 51.207 71.3301 50.9414C71.7559 50.6758 72.2578 50.543 72.8359 50.543C73.5469 50.543 74.1367 50.7559 74.6055 51.1816C75.0781 51.6074 75.3301 52.1602 75.3613 52.8398H74.3359C74.3047 52.4297 74.1484 52.0938 73.8672 51.832C73.5898 51.5664 73.2461 51.4336 72.8359 51.4336C72.2852 51.4336 71.8574 51.6328 71.5527 52.0312C71.252 52.4258 71.1016 52.998 71.1016 53.748V53.9531C71.1016 54.6836 71.252 55.2461 71.5527 55.6406C71.8535 56.0352 72.2832 56.2324 72.8418 56.2324ZM78.3496 54.0645L77.6699 54.7734V57H76.5859V48H77.6699V53.4434L78.25 52.7461L80.2246 50.6602H81.543L79.0762 53.3086L81.8301 57H80.5586L78.3496 54.0645ZM89.5527 57C89.4902 56.875 89.4395 56.6523 89.4004 56.332C88.8965 56.8555 88.2949 57.1172 87.5957 57.1172C86.9707 57.1172 86.457 56.9414 86.0547 56.5898C85.6562 56.2344 85.457 55.7852 85.457 55.2422C85.457 54.582 85.707 54.0703 86.207 53.707C86.7109 53.3398 87.418 53.1562 88.3281 53.1562H89.3828V52.6582C89.3828 52.2793 89.2695 51.9785 89.043 51.7559C88.8164 51.5293 88.4824 51.416 88.041 51.416C87.6543 51.416 87.3301 51.5137 87.0684 51.709C86.8066 51.9043 86.6758 52.1406 86.6758 52.418H85.5859C85.5859 52.1016 85.6973 51.7969 85.9199 51.5039C86.1465 51.207 86.4512 50.9727 86.834 50.8008C87.2207 50.6289 87.6445 50.543 88.1055 50.543C88.8359 50.543 89.4082 50.7266 89.8223 51.0938C90.2363 51.457 90.4512 51.959 90.4668 52.5996V55.5176C90.4668 56.0996 90.541 56.5625 90.6895 56.9062V57H89.5527ZM87.7539 56.1738C88.0938 56.1738 88.416 56.0859 88.7207 55.9102C89.0254 55.7344 89.2461 55.5059 89.3828 55.2246V53.9238H88.5332C87.2051 53.9238 86.541 54.3125 86.541 55.0898C86.541 55.4297 86.6543 55.6953 86.8809 55.8867C87.1074 56.0781 87.3984 56.1738 87.7539 56.1738ZM87.8594 49.6348L87.8535 48.7383C88.1465 48.7188 88.3613 48.6797 88.498 48.6211C88.6348 48.5625 88.7031 48.457 88.7031 48.3047C88.7031 48.1523 88.6133 48.0391 88.4336 47.9648C88.2578 47.8867 88.0234 47.8477 87.7305 47.8477L87.7715 47.2266C88.3535 47.2266 88.7949 47.3281 89.0957 47.5312C89.3965 47.7305 89.5469 47.9961 89.5469 48.3281C89.5469 48.5664 89.4707 48.7637 89.3184 48.9199C89.166 49.0762 88.9395 49.1758 88.6387 49.2188L88.6328 49.6348H87.8594ZM91.8789 53.7715C91.8789 53.1504 92 52.5918 92.2422 52.0957C92.4883 51.5996 92.8281 51.2168 93.2617 50.9473C93.6992 50.6777 94.1973 50.543 94.7559 50.543C95.6191 50.543 96.3164 50.8418 96.8477 51.4395C97.3828 52.0371 97.6504 52.832 97.6504 53.8242V53.9004C97.6504 54.5176 97.5312 55.0723 97.293 55.5645C97.0586 56.0527 96.7207 56.4336 96.2793 56.707C95.8418 56.9805 95.3379 57.1172 94.7676 57.1172C93.9082 57.1172 93.2109 56.8184 92.6758 56.2207C92.1445 55.623 91.8789 54.832 91.8789 53.8477V53.7715ZM92.9688 53.9004C92.9688 54.6035 93.1309 55.168 93.4551 55.5938C93.7832 56.0195 94.2207 56.2324 94.7676 56.2324C95.3184 56.2324 95.7559 56.0176 96.0801 55.5879C96.4043 55.1543 96.5664 54.5488 96.5664 53.7715C96.5664 53.0762 96.4004 52.5137 96.0684 52.084C95.7402 51.6504 95.3027 51.4336 94.7559 51.4336C94.2207 51.4336 93.7891 51.6465 93.4609 52.0723C93.1328 52.498 92.9688 53.1074 92.9688 53.9004Z" fill="#1E243C"/>
<path d="M63.1491 14.1358L63.1522 14.1373L73.1267 18.7956C73.4032 18.9314 73.6331 19.1455 73.7879 19.411C73.9444 19.6795 74.017 19.9883 73.9966 20.298L73.9964 20.3015C73.8085 23.2332 73.1175 28.4917 70.7812 32.382L70.7811 32.3822C67.7704 37.3968 64.0942 38.6612 62.8531 38.9622L62.8517 38.9626C62.6468 39.0125 62.4329 39.0125 62.228 38.9626L62.2267 38.9623C61.7374 38.8436 60.3133 38.2903 58.6808 37.1493C57.0757 36.0276 55.394 34.4234 54.2412 32.2867L54.225 32.2567L54.2078 32.2274C53.3636 30.7823 52.6461 28.5829 52.0912 26.2406C51.5482 23.9487 51.199 21.6889 51.0261 20.2163C51.006 20.0095 50.9938 19.8765 51.003 19.7133C51.009 19.6074 51.0251 19.4879 51.0625 19.354C51.1061 19.2978 51.1204 19.2844 51.1441 19.2622L51.1476 19.259C51.2392 19.1732 51.4273 19.0215 51.9929 18.6173C52.2257 18.4508 52.8644 18.1065 53.8756 17.6277C54.831 17.1753 55.9776 16.6677 57.1104 16.1792C58.232 15.6955 59.3902 15.2102 60.2978 14.83C61.1161 14.4871 61.7306 14.2296 61.9306 14.1358L61.9306 14.1358C62.1211 14.0464 62.3292 14 62.5398 14C62.7505 14 62.9585 14.0464 63.1491 14.1358Z" stroke="#1E243C" stroke-width="4"/>
<path d="M62.5007 39C62.2836 38.9997 62.0673 38.9749 61.8562 38.9262C60.3309 38.569 56.4402 37.1977 53.3103 32.1795C50.8596 28.2502 50.1889 23.0739 50.0068 20.3381C49.9668 19.7727 50.1033 19.2088 50.3989 18.7186C50.6945 18.2284 51.1356 17.8344 51.6657 17.5871L61.2976 13.2567C61.6745 13.0876 62.0853 13 62.5012 13C62.9171 13 63.3279 13.0876 63.7048 13.2567L73.3338 17.5871C73.864 17.8343 74.3053 18.2283 74.6009 18.7185C74.8966 19.2087 75.0332 19.7727 74.9932 20.3381C74.8111 23.0743 74.1404 28.2512 71.6898 32.1795C68.5599 37.1977 64.6711 38.569 63.1442 38.9257C62.9335 38.9747 62.7175 38.9997 62.5007 39Z" fill="#E38FB5"/>
<path d="M61.8738 15.6524L53.7145 19.4702C53.3712 19.6368 53.0856 19.9027 52.8949 20.2335C52.7042 20.5643 52.6172 20.9448 52.645 21.3258C52.7879 23.548 53.3248 28.1031 55.3606 31.5014C57.9295 35.7875 61.1196 36.9096 62.2359 37.181C62.5047 37.2463 62.7851 37.2463 63.0539 37.181C64.1702 36.9096 67.3603 35.7875 69.9292 31.5014C71.9664 28.1031 72.5019 23.5475 72.6448 21.3258C72.6726 20.9448 72.5855 20.5643 72.3948 20.2335C72.2042 19.9027 71.9186 19.6368 71.5753 19.4702L63.4179 15.6524C63.1763 15.5388 62.9127 15.48 62.6458 15.48C62.379 15.48 62.1154 15.5388 61.8738 15.6524Z" fill="white"/>
<path d="M61.9256 32.01C61.6105 32.0091 61.3079 31.8878 61.0811 31.6713L56.8044 27.622C56.6849 27.513 56.5884 27.3816 56.5208 27.2354C56.4532 27.0891 56.4157 26.931 56.4105 26.7702C56.4054 26.6094 56.4327 26.4493 56.4908 26.2991C56.549 26.1489 56.6368 26.0117 56.7491 25.8955C56.8615 25.7793 56.9962 25.6864 57.1452 25.6224C57.2942 25.5584 57.4547 25.5244 57.6172 25.5225C57.7796 25.5206 57.9409 25.5508 58.0914 25.6113C58.2419 25.6718 58.3788 25.7615 58.4939 25.875L61.8513 29.0559L67.9112 22.2591C68.1268 22.0227 68.4278 21.88 68.749 21.8619C69.0702 21.8439 69.3856 21.952 69.6268 22.1628C69.8679 22.3736 70.0154 22.67 70.0371 22.9878C70.0589 23.3055 69.9531 23.6189 69.7429 23.86L62.8399 31.6007C62.7311 31.7228 62.5985 31.822 62.45 31.8921C62.3015 31.9623 62.1403 32.0021 61.9759 32.009L61.9256 32.01Z" fill="#B9256A"/>
<path d="M68.6367 21.4616C68.4159 21.4748 68.1998 21.5316 68.001 21.6288C67.8022 21.726 67.6247 21.8616 67.4787 22.0279L61.8432 28.4105L58.8997 25.5931C58.7418 25.4371 58.5535 25.3153 58.3467 25.2349C58.1398 25.1546 57.9187 25.1175 57.6969 25.1259C57.364 25.1334 57.0408 25.2394 56.7681 25.4305C56.4954 25.6217 56.2855 25.8894 56.165 26.1998C56.0445 26.5102 56.0186 26.8494 56.0908 27.1745C56.163 27.4995 56.33 27.7959 56.5706 28.0261L60.7804 32.0551C61.0933 32.3559 61.5107 32.5235 61.9448 32.5227H62.0164C62.2428 32.5125 62.4649 32.4569 62.6694 32.3593C62.874 32.2617 63.0568 32.1241 63.2072 31.9545L70.0031 24.2565C70.2987 23.9217 70.4492 23.4832 70.4215 23.0375C70.3938 22.5918 70.1902 22.1753 69.8554 21.8797C69.6904 21.7323 69.4976 21.6194 69.2883 21.5476C69.079 21.4758 68.8575 21.4465 68.6367 21.4616ZM69.2819 23.62L62.486 31.318C62.4223 31.3895 62.345 31.4476 62.2586 31.4889C62.1722 31.5302 62.0784 31.5539 61.9828 31.5586H61.9452C61.7592 31.5591 61.5802 31.4871 61.4463 31.3579L57.2364 27.3314C57.1335 27.2328 57.062 27.1059 57.0311 26.9668C57.0001 26.8277 57.0111 26.6825 57.0625 26.5495C57.114 26.4166 57.2037 26.3019 57.3202 26.2199C57.4368 26.1378 57.5751 26.0922 57.7176 26.0886H57.7339C57.9199 26.0884 58.0988 26.1603 58.2329 26.2893L61.5387 29.4531C61.5849 29.4987 61.6402 29.5341 61.7009 29.557C61.7617 29.5798 61.8265 29.5897 61.8913 29.5859C61.9561 29.5833 62.0197 29.5675 62.0782 29.5396C62.1368 29.5118 62.1891 29.4724 62.232 29.4238L68.2004 22.6644C68.2631 22.5935 68.3393 22.5358 68.4246 22.4945C68.5098 22.4532 68.6023 22.4292 68.6969 22.4239C68.8393 22.4152 68.9811 22.4489 69.1044 22.5207C69.2276 22.5926 69.3268 22.6993 69.3894 22.8275C69.452 22.9557 69.4752 23.0996 69.4561 23.241C69.437 23.3824 69.3764 23.5149 69.2819 23.6219V23.62Z" fill="#1E243C"/>
</svg>
