<svg width="125" height="68" viewBox="0 0 125 68" fill="none" xmlns="http://www.w3.org/2000/svg">
<path d="M68.4239 21.7341C68.4239 22.5129 67.7931 23.1448 67.0143 23.1448C66.9622 23.1448 66.9113 23.1421 66.8606 23.1365V20.3332C66.9113 20.3275 66.9622 20.3248 67.0143 20.3248C67.7931 20.3248 68.4239 20.9553 68.4239 21.7341Z" fill="#B9256A"/>
<path d="M60.6554 19.1935H58.0287C56.6151 19.1935 55.4692 20.3395 55.4692 21.753C55.4692 23.1667 56.6153 24.3125 58.0287 24.3125H60.6554V19.1935Z" fill="#B9256A" fill-opacity="0.49"/>
<path d="M65.2088 17.1664L60.6555 19.1938V24.3128L65.2088 26.34V17.1664Z" fill="#B9256A"/>
<path d="M66.8606 26.5988C66.8606 27.0546 66.4908 27.4255 66.0338 27.4255C65.578 27.4255 65.2085 27.0546 65.2085 26.5988V16.9076C65.2085 16.4517 65.5782 16.0823 66.0338 16.0823C66.2623 16.0823 66.4697 16.174 66.6192 16.3236C66.7688 16.4732 66.8606 16.679 66.8606 16.9076V17.5722V26.5988Z" fill="#B9256A" fill-opacity="0.5"/>
<path d="M61.9465 40.5197C58.5235 40.5197 55.7485 37.7447 55.7485 34.3218V35.0597C55.7485 38.4827 58.5235 41.2577 61.9465 41.2577C65.3694 41.2577 68.1444 38.4827 68.1444 35.0597V34.3218C68.1444 37.7447 65.3694 40.5197 61.9465 40.5197Z" fill="white"/>
<path d="M71.8997 26.8914C71.7745 26.839 71.6303 26.8966 71.5769 27.022C70.868 28.695 69.7566 30.1067 68.3882 31.1773C68.366 30.3832 67.7658 29.722 67.0015 29.663C66.6786 29.6386 66.3664 29.7161 66.1007 29.8792C66.0434 29.1225 65.4631 28.5002 64.7328 28.4365C64.305 28.3996 63.8955 28.5376 63.5803 28.8266C63.4871 28.9122 63.4057 29.0086 63.3376 29.1129C63.0682 28.7024 62.6038 28.4305 62.0769 28.4305C61.7194 28.4305 61.3819 28.5609 61.118 28.7818V24.8777C61.118 24.847 61.115 24.817 61.1133 24.7867L64.9623 26.5005V26.5992C64.9623 27.1908 65.443 27.6719 66.0336 27.6719C66.6249 27.6719 67.1061 27.1908 67.1061 26.5992V23.3866C67.9759 23.3381 68.6694 22.6169 68.6694 21.7345C68.6694 20.8529 67.9759 20.1319 67.1061 20.0837V16.908C67.1061 16.6211 66.9949 16.352 66.793 16.1498C66.5907 15.9479 66.3211 15.8367 66.0336 15.8367C65.443 15.8367 64.9623 16.3173 64.9623 16.908V17.0071L60.6027 18.9482H58.0286C56.4816 18.9482 55.2231 20.2067 55.2231 21.7537C55.2231 23.3007 56.4816 24.5592 58.0286 24.5592H58.0823C58.0604 24.662 58.0486 24.7685 58.0486 24.8777V29.9107C57.7959 29.6762 57.4712 29.5296 57.1197 29.5112C56.6907 29.4895 56.2892 29.6379 55.981 29.9303C55.6723 30.2231 55.5026 30.6186 55.5026 31.0437V31.1664C53.0643 29.2512 51.492 26.2809 51.492 22.9467C51.492 17.182 56.1817 12.4922 61.9465 12.4922C67.7112 12.4922 72.401 17.182 72.401 22.9467C72.401 23.0825 72.511 23.1927 72.647 23.1927C72.783 23.1927 72.893 23.0825 72.893 22.9467C72.893 16.9107 67.9823 12.0002 61.9465 12.0002C55.9107 12.0002 51 16.9107 51 22.9467C51 26.5738 52.7773 29.7894 55.5026 31.7821V35.059C55.5026 38.612 58.3934 41.5029 61.9465 41.5029C65.4995 41.5029 68.3904 38.6123 68.3904 35.059V31.791C69.9615 30.6467 71.2365 29.0866 72.03 27.2141C72.0832 27.0889 72.0246 26.9445 71.8997 26.8914ZM68.1779 21.7343C68.1779 22.3455 67.7051 22.8483 67.1066 22.8956V20.5744C67.7051 20.6216 68.1779 21.124 68.1779 21.7343ZM65.4545 16.9077C65.4545 16.5882 65.7145 16.3284 66.0338 16.3284C66.19 16.3284 66.3362 16.3887 66.4454 16.4977C66.5543 16.6069 66.6146 16.7525 66.6146 16.9077V20.3333V23.1366V26.5989C66.6146 26.9192 66.3541 27.1797 66.0341 27.1797C65.7145 27.1797 65.4548 26.9192 65.4548 26.5989L65.4545 16.9077ZM64.9626 25.9618L60.9456 24.1732C60.9318 24.1467 60.9168 24.1208 60.9015 24.0952V19.3538L64.9628 17.5456L64.9626 25.9618ZM58.0286 24.0672C56.7527 24.0672 55.7151 23.0294 55.7151 21.7537C55.7151 20.478 56.7529 19.4402 58.0286 19.4402H60.4093V23.5861C60.1704 23.4328 59.8876 23.3428 59.5835 23.3428C59.035 23.3428 58.5541 23.633 58.2827 24.067L58.0286 24.0672ZM67.8984 35.0592C67.8984 38.3412 65.2285 41.0111 61.9465 41.0111C58.6645 41.0111 55.9945 38.3412 55.9945 35.0592V31.0439C55.9945 30.7551 56.1102 30.4863 56.3195 30.2875C56.5156 30.1015 56.7682 30.0012 57.037 30.0012C57.0557 30.0012 57.0747 30.0017 57.0936 30.0027C57.5509 30.0265 57.9406 30.3805 58.0486 30.8649V34.829C58.0486 34.9647 58.1585 35.0749 58.2945 35.0749C58.4306 35.0749 58.5405 34.9647 58.5405 34.829V30.8324V24.8777C58.5405 24.3029 59.0082 23.835 59.5833 23.835C60.1584 23.835 60.626 24.3029 60.626 24.8777V29.5857C60.626 29.5877 60.627 29.5892 60.627 29.5909V31.9514C60.627 32.0872 60.737 32.1974 60.873 32.1974C61.009 32.1974 61.119 32.0872 61.119 31.9514V29.6263C61.2555 29.2047 61.6358 28.9225 62.0771 28.9225C62.6367 28.9225 63.0921 29.3778 63.0921 29.9375V31.9514C63.0921 32.0872 63.202 32.1974 63.338 32.1974C63.4741 32.1974 63.584 32.0872 63.584 31.9514V29.9375C63.584 29.6538 63.7038 29.381 63.9132 29.1892C64.1252 28.9946 64.4029 28.9026 64.6902 28.9265C65.208 28.9717 65.6137 29.4443 65.6137 30.0027V30.2705V30.424V31.9511C65.6137 32.0869 65.7236 32.1971 65.8597 32.1971C65.9957 32.1971 66.1057 32.0869 66.1057 31.9511V30.5219C66.3172 30.2659 66.6333 30.1286 66.9637 30.1532C67.4879 30.1938 67.8984 30.6631 67.8984 31.2218V35.0592Z" fill="#3A2C60" stroke="#1E243C" stroke-width="0.5"/>
<path d="M72.6266 23.6544C72.4891 23.6428 72.372 23.7424 72.36 23.8777C72.2926 24.6415 72.1408 25.3977 71.9088 26.1253C71.8678 26.2547 71.9391 26.3932 72.0685 26.4343C72.0933 26.4421 72.1184 26.4461 72.1433 26.4461C72.2476 26.4461 72.3442 26.3794 72.3777 26.2746C72.6205 25.5126 72.7794 24.7207 72.85 23.921C72.862 23.7855 72.7619 23.6662 72.6266 23.6544Z" fill="#3A2C60" stroke="#1E243C" stroke-width="0.5"/>
<path d="M18.8301 54.7737H15.2559L14.4531 57.0002H13.293L16.5508 48.469H17.5352L20.7988 57.0002H19.6445L18.8301 54.7737ZM15.5957 53.8479H18.4961L17.043 49.8577L15.5957 53.8479ZM25.6211 56.3733C25.1992 56.8694 24.5801 57.1174 23.7637 57.1174C23.0879 57.1174 22.5723 56.9221 22.2168 56.5315C21.8652 56.137 21.6875 55.5549 21.6836 54.7854V50.6604H22.7676V54.7561C22.7676 55.717 23.1582 56.1975 23.9395 56.1975C24.7676 56.1975 25.3184 55.8889 25.5918 55.2717V50.6604H26.6758V57.0002H25.6445L25.6211 56.3733ZM29.7988 49.1252V50.6604H30.9824V51.4983H29.7988V55.4299C29.7988 55.6838 29.8516 55.8752 29.957 56.0042C30.0625 56.1292 30.2422 56.1917 30.4961 56.1917C30.6211 56.1917 30.793 56.1682 31.0117 56.1213V57.0002C30.7266 57.0784 30.4492 57.1174 30.1797 57.1174C29.6953 57.1174 29.3301 56.9709 29.084 56.678C28.8379 56.385 28.7148 55.969 28.7148 55.4299V51.4983H27.5605V50.6604H28.7148V49.1252H29.7988ZM31.8496 53.7717C31.8496 53.1506 31.9707 52.592 32.2129 52.0959C32.459 51.5999 32.7988 51.217 33.2324 50.9475C33.6699 50.678 34.168 50.5432 34.7266 50.5432C35.5898 50.5432 36.2871 50.842 36.8184 51.4397C37.3535 52.0374 37.6211 52.8323 37.6211 53.8245V53.9006C37.6211 54.5178 37.502 55.0725 37.2637 55.5647C37.0293 56.053 36.6914 56.4338 36.25 56.7073C35.8125 56.9807 35.3086 57.1174 34.7383 57.1174C33.8789 57.1174 33.1816 56.8186 32.6465 56.2209C32.1152 55.6233 31.8496 54.8323 31.8496 53.8479V53.7717ZM32.9395 53.9006C32.9395 54.6038 33.1016 55.1682 33.4258 55.594C33.7539 56.0198 34.1914 56.2327 34.7383 56.2327C35.2891 56.2327 35.7266 56.0178 36.0508 55.5881C36.375 55.1545 36.5371 54.5491 36.5371 53.7717C36.5371 53.0764 36.3711 52.5139 36.0391 52.0842C35.7109 51.6506 35.2734 51.4338 34.7266 51.4338C34.1914 51.4338 33.7598 51.6467 33.4316 52.0725C33.1035 52.4983 32.9395 53.1077 32.9395 53.9006ZM43.8613 54.7737H40.2871L39.4844 57.0002H38.3242L41.582 48.469H42.5664L45.8301 57.0002H44.6758L43.8613 54.7737ZM40.627 53.8479H43.5273L42.0742 49.8577L40.627 53.8479ZM46.5449 53.7776C46.5449 52.8049 46.7754 52.0237 47.2363 51.4338C47.6973 50.8401 48.3008 50.5432 49.0469 50.5432C49.7891 50.5432 50.377 50.7971 50.8105 51.3049V48.0002H51.8945V57.0002H50.8984L50.8457 56.3206C50.4121 56.8518 49.8086 57.1174 49.0352 57.1174C48.3008 57.1174 47.7012 56.8167 47.2363 56.2151C46.7754 55.6135 46.5449 54.8284 46.5449 53.8596V53.7776ZM47.6289 53.9006C47.6289 54.6194 47.7773 55.1819 48.0742 55.5881C48.3711 55.9944 48.7812 56.1975 49.3047 56.1975C49.9922 56.1975 50.4941 55.8889 50.8105 55.2717V52.3596C50.4863 51.762 49.9883 51.4631 49.3164 51.4631C48.7852 51.4631 48.3711 51.6682 48.0742 52.0784C47.7773 52.4885 47.6289 53.0959 47.6289 53.9006ZM57.2734 55.3186C57.2734 55.0256 57.1621 54.7991 56.9395 54.6389C56.7207 54.4749 56.3359 54.3342 55.7852 54.217C55.2383 54.0999 54.8027 53.9592 54.4785 53.7952C54.1582 53.6311 53.9199 53.4358 53.7637 53.2092C53.6113 52.9827 53.5352 52.7131 53.5352 52.4006C53.5352 51.8811 53.7539 51.4417 54.1914 51.0823C54.6328 50.7229 55.1953 50.5432 55.8789 50.5432C56.5977 50.5432 57.1797 50.7288 57.625 51.0999C58.0742 51.4709 58.2988 51.9456 58.2988 52.5237H57.209C57.209 52.2268 57.082 51.9709 56.8281 51.7561C56.5781 51.5413 56.2617 51.4338 55.8789 51.4338C55.4844 51.4338 55.1758 51.5198 54.9531 51.6917C54.7305 51.8635 54.6191 52.0881 54.6191 52.3655C54.6191 52.6272 54.7227 52.8245 54.9297 52.9573C55.1367 53.0901 55.5098 53.217 56.0488 53.3381C56.5918 53.4592 57.0312 53.6038 57.3672 53.7717C57.7031 53.9397 57.9512 54.1428 58.1113 54.3811C58.2754 54.6155 58.3574 54.9026 58.3574 55.2424C58.3574 55.8088 58.1309 56.2639 57.6777 56.6077C57.2246 56.9475 56.6367 57.1174 55.9141 57.1174C55.4062 57.1174 54.957 57.0276 54.5664 56.8479C54.1758 56.6682 53.8691 56.4182 53.6465 56.0979C53.4277 55.7737 53.3184 55.4241 53.3184 55.0491H54.4023C54.4219 55.4124 54.5664 55.7014 54.8359 55.9163C55.1094 56.1272 55.4688 56.2327 55.9141 56.2327C56.3242 56.2327 56.6523 56.1506 56.8984 55.9866C57.1484 55.8186 57.2734 55.5959 57.2734 55.3186ZM64.3691 48.469L67.1582 55.4299L69.9473 48.469H71.4062V57.0002H70.2812V53.678L70.3867 50.092L67.5859 57.0002H66.7246L63.9297 50.1096L64.041 53.678V57.0002H62.916V48.469H64.3691ZM77.1367 57.0002C77.0742 56.8752 77.0234 56.6526 76.9844 56.3323C76.4805 56.8557 75.8789 57.1174 75.1797 57.1174C74.5547 57.1174 74.041 56.9417 73.6387 56.5901C73.2402 56.2346 73.041 55.7854 73.041 55.2424C73.041 54.5823 73.291 54.0706 73.791 53.7073C74.2949 53.3401 75.002 53.1565 75.9121 53.1565H76.9668V52.6584C76.9668 52.2795 76.8535 51.9788 76.627 51.7561C76.4004 51.5295 76.0664 51.4163 75.625 51.4163C75.2383 51.4163 74.9141 51.5139 74.6523 51.7092C74.3906 51.9045 74.2598 52.1409 74.2598 52.4182H73.1699C73.1699 52.1018 73.2812 51.7971 73.5039 51.5042C73.7305 51.2073 74.0352 50.9729 74.418 50.801C74.8047 50.6292 75.2285 50.5432 75.6895 50.5432C76.4199 50.5432 76.9922 50.7268 77.4062 51.094C77.8203 51.4573 78.0352 51.9592 78.0508 52.5999V55.5178C78.0508 56.0999 78.125 56.5627 78.2734 56.9065V57.0002H77.1367ZM75.3379 56.1741C75.6777 56.1741 76 56.0862 76.3047 55.9104C76.6094 55.7346 76.8301 55.5061 76.9668 55.2249V53.9241H76.1172C74.7891 53.9241 74.125 54.3127 74.125 55.0901C74.125 55.4299 74.2383 55.6956 74.4648 55.887C74.6914 56.0784 74.9824 56.1741 75.3379 56.1741ZM81.877 52.9749L83.2832 50.6604H84.5488L82.4746 53.7952L84.6133 57.0002H83.3594L81.8945 54.6272L80.4297 57.0002H79.1699L81.3086 53.7952L79.2344 50.6604H80.4883L81.877 52.9749ZM86.998 53.6604V57.0002H85.873V48.469H89.0195C89.9531 48.469 90.6836 48.7073 91.2109 49.1838C91.7422 49.6604 92.0078 50.2913 92.0078 51.0764C92.0078 51.9045 91.748 52.5432 91.2285 52.9924C90.7129 53.4377 89.9727 53.6604 89.0078 53.6604H86.998ZM86.998 52.7405H89.0195C89.6211 52.7405 90.082 52.5999 90.4023 52.3186C90.7227 52.0334 90.8828 51.6233 90.8828 51.0881C90.8828 50.5803 90.7227 50.1741 90.4023 49.8694C90.082 49.5647 89.6426 49.4065 89.084 49.3948H86.998V52.7405ZM97.1875 56.3733C96.7656 56.8694 96.1465 57.1174 95.3301 57.1174C94.6543 57.1174 94.1387 56.9221 93.7832 56.5315C93.4316 56.137 93.2539 55.5549 93.25 54.7854V50.6604H94.334V54.7561C94.334 55.717 94.7246 56.1975 95.5059 56.1975C96.334 56.1975 96.8848 55.8889 97.1582 55.2717V50.6604H98.2422V57.0002H97.2109L97.1875 56.3733ZM103.586 55.3186C103.586 55.0256 103.475 54.7991 103.252 54.6389C103.033 54.4749 102.648 54.3342 102.098 54.217C101.551 54.0999 101.115 53.9592 100.791 53.7952C100.471 53.6311 100.232 53.4358 100.076 53.2092C99.9238 52.9827 99.8477 52.7131 99.8477 52.4006C99.8477 51.8811 100.066 51.4417 100.504 51.0823C100.945 50.7229 101.508 50.5432 102.191 50.5432C102.91 50.5432 103.492 50.7288 103.938 51.0999C104.387 51.4709 104.611 51.9456 104.611 52.5237H103.521C103.521 52.2268 103.395 51.9709 103.141 51.7561C102.891 51.5413 102.574 51.4338 102.191 51.4338C101.797 51.4338 101.488 51.5198 101.266 51.6917C101.043 51.8635 100.932 52.0881 100.932 52.3655C100.932 52.6272 101.035 52.8245 101.242 52.9573C101.449 53.0901 101.822 53.217 102.361 53.3381C102.904 53.4592 103.344 53.6038 103.68 53.7717C104.016 53.9397 104.264 54.1428 104.424 54.3811C104.588 54.6155 104.67 54.9026 104.67 55.2424C104.67 55.8088 104.443 56.2639 103.99 56.6077C103.537 56.9475 102.949 57.1174 102.227 57.1174C101.719 57.1174 101.27 57.0276 100.879 56.8479C100.488 56.6682 100.182 56.4182 99.959 56.0979C99.7402 55.7737 99.6309 55.4241 99.6309 55.0491H100.715C100.734 55.4124 100.879 55.7014 101.148 55.9163C101.422 56.1272 101.781 56.2327 102.227 56.2327C102.637 56.2327 102.965 56.1506 103.211 55.9866C103.461 55.8186 103.586 55.5959 103.586 55.3186ZM107.166 51.428C107.646 50.8381 108.271 50.5432 109.041 50.5432C110.381 50.5432 111.057 51.2991 111.068 52.8108V57.0002H109.984V52.8049C109.98 52.3479 109.875 52.01 109.668 51.7913C109.465 51.5725 109.146 51.4631 108.713 51.4631C108.361 51.4631 108.053 51.5569 107.787 51.7444C107.521 51.9319 107.314 52.178 107.166 52.4827V57.0002H106.082V48.0002H107.166V51.428Z" fill="#1E243C"/>
</svg>
