<svg width="175" height="15" viewBox="0 0 175 15" fill="none" xmlns="http://www.w3.org/2000/svg">
<path d="M50.377 9.22266C50.291 10.1328 49.9551 10.8438 49.3691 11.3555C48.7832 11.8633 48.0039 12.1172 47.0312 12.1172C46.3516 12.1172 45.752 11.957 45.2324 11.6367C44.7168 11.3125 44.3184 10.8535 44.0371 10.2598C43.7559 9.66602 43.6094 8.97656 43.5977 8.19141V7.39453C43.5977 6.58984 43.7402 5.88086 44.0254 5.26758C44.3105 4.6543 44.7188 4.18164 45.25 3.84961C45.7852 3.51758 46.4023 3.35156 47.1016 3.35156C48.043 3.35156 48.8008 3.60742 49.375 4.11914C49.9492 4.63086 50.2832 5.35352 50.377 6.28711H48.9004C48.8301 5.67383 48.6504 5.23242 48.3613 4.96289C48.0762 4.68945 47.6562 4.55273 47.1016 4.55273C46.457 4.55273 45.9609 4.78906 45.6133 5.26172C45.2695 5.73047 45.0938 6.41992 45.0859 7.33008V8.08594C45.0859 9.00781 45.25 9.71094 45.5781 10.1953C45.9102 10.6797 46.3945 10.9219 47.0312 10.9219C47.6133 10.9219 48.0508 10.791 48.3438 10.5293C48.6367 10.2676 48.8223 9.83203 48.9004 9.22266H50.377ZM58.4805 12H57.0039V8.20898H53.1895V12H51.707V3.46875H53.1895V7.01953H57.0039V3.46875H58.4805V12ZM66.4785 3.46875V9.16992C66.4785 10.0762 66.1875 10.7949 65.6055 11.3262C65.0273 11.8535 64.2559 12.1172 63.291 12.1172C62.3145 12.1172 61.5391 11.8574 60.9648 11.3379C60.3906 10.8145 60.1035 10.0898 60.1035 9.16406V3.46875H61.5801V9.17578C61.5801 9.74609 61.7246 10.1816 62.0137 10.4824C62.3027 10.7832 62.7285 10.9336 63.291 10.9336C64.4316 10.9336 65.002 10.332 65.002 9.12891V3.46875H66.4785ZM70.8496 7.51172L72.8125 3.46875H74.4531L71.5938 8.85938V12H70.1055V8.85938L67.2402 3.46875H68.8867L70.8496 7.51172ZM80.3652 8.19141H76.8613V10.8164H80.957V12H75.3789V3.46875H80.916V4.66406H76.8613V7.01953H80.3652V8.19141ZM80.3477 2.99414H79.2168L78.168 2.04492L77.125 2.99414H75.9941L77.623 1.5293H78.7188L80.3477 2.99414ZM79.8027 2.20898L79.7617 1.47656C80.0078 1.45703 80.1855 1.42383 80.2949 1.37695C80.4043 1.33008 80.459 1.25 80.459 1.13672C80.459 0.894531 80.207 0.773438 79.7031 0.773438L79.7441 0.158203C80.2793 0.158203 80.6836 0.246094 80.957 0.421875C81.2305 0.59375 81.3672 0.826172 81.3672 1.11914C81.3672 1.33398 81.2949 1.50586 81.1504 1.63477C81.0098 1.75977 80.8301 1.83594 80.6113 1.86328L80.6055 2.20898H79.8027ZM88.9316 12H87.4492L83.6465 5.94727V12H82.1641V3.46875H83.6465L87.4609 9.54492V3.46875H88.9316V12ZM93.8477 12V8.17969H92.752V7.18359H93.8477V3.46875H96.3672C97.1211 3.46875 97.7891 3.63672 98.3711 3.97266C98.957 4.30859 99.4102 4.78516 99.7305 5.40234C100.051 6.01953 100.211 6.72656 100.211 7.52344V7.95117C100.211 8.75977 100.049 9.4707 99.7246 10.084C99.4043 10.6973 98.9453 11.1699 98.3477 11.502C97.7539 11.834 97.0723 12 96.3027 12H93.8477ZM96.6719 8.17969H95.3301V10.8164H96.2852C97.0781 10.8164 97.6816 10.5703 98.0957 10.0781C98.5137 9.58203 98.7227 8.86523 98.7227 7.92773V7.51758C98.7227 6.5918 98.5215 5.88477 98.1191 5.39648C97.7168 4.9082 97.1328 4.66406 96.3672 4.66406H95.3301V7.18359H96.6719V8.17969ZM108.496 7.95703C108.496 8.79297 108.352 9.52734 108.062 10.1602C107.773 10.7891 107.359 11.2734 106.82 11.6133C106.285 11.9492 105.668 12.1172 104.969 12.1172C104.277 12.1172 103.66 11.9492 103.117 11.6133C102.578 11.2734 102.16 10.791 101.863 10.166C101.57 9.54102 101.422 8.82031 101.418 8.00391V7.52344C101.418 6.69141 101.564 5.95703 101.857 5.32031C102.154 4.68359 102.57 4.19727 103.105 3.86133C103.645 3.52148 104.262 3.35156 104.957 3.35156C105.652 3.35156 106.268 3.51953 106.803 3.85547C107.342 4.1875 107.758 4.66797 108.051 5.29688C108.344 5.92188 108.492 6.65039 108.496 7.48242V7.95703ZM107.014 7.51172C107.014 6.56641 106.834 5.8418 106.475 5.33789C106.119 4.83398 105.613 4.58203 104.957 4.58203C104.316 4.58203 103.814 4.83398 103.451 5.33789C103.092 5.83789 102.908 6.54688 102.9 7.46484V7.95703C102.9 8.89453 103.082 9.61914 103.445 10.1309C103.812 10.6426 104.32 10.8984 104.969 10.8984C105.625 10.8984 106.129 10.6484 106.48 10.1484C106.836 9.64844 107.014 8.91797 107.014 7.95703V7.51172ZM107.137 3.03516H106.006L104.957 2.08594L103.914 3.03516H102.783L104.412 1.57031H105.508L107.137 3.03516ZM106.592 2.25L106.551 1.51758C106.797 1.49805 106.975 1.46484 107.084 1.41797C107.193 1.37109 107.248 1.29102 107.248 1.17773C107.248 0.935547 106.996 0.814453 106.492 0.814453L106.533 0.199219C107.068 0.199219 107.473 0.287109 107.746 0.462891C108.02 0.634766 108.156 0.867188 108.156 1.16016C108.156 1.375 108.084 1.54688 107.939 1.67578C107.799 1.80078 107.619 1.87695 107.4 1.9043L107.395 2.25H106.592ZM111.537 12H110.061V3.46875H111.537V12ZM120.807 9.80273C120.807 9.42773 120.674 9.13867 120.408 8.93555C120.146 8.73242 119.672 8.52734 118.984 8.32031C118.297 8.11328 117.75 7.88281 117.344 7.62891C116.566 7.14062 116.178 6.50391 116.178 5.71875C116.178 5.03125 116.457 4.46484 117.016 4.01953C117.578 3.57422 118.307 3.35156 119.201 3.35156C119.795 3.35156 120.324 3.46094 120.789 3.67969C121.254 3.89844 121.619 4.21094 121.885 4.61719C122.15 5.01953 122.283 5.4668 122.283 5.95898H120.807C120.807 5.51367 120.666 5.16602 120.385 4.91602C120.107 4.66211 119.709 4.53516 119.189 4.53516C118.705 4.53516 118.328 4.63867 118.059 4.8457C117.793 5.05273 117.66 5.3418 117.66 5.71289C117.66 6.02539 117.805 6.28711 118.094 6.49805C118.383 6.70508 118.859 6.9082 119.523 7.10742C120.188 7.30273 120.721 7.52734 121.123 7.78125C121.525 8.03125 121.82 8.32031 122.008 8.64844C122.195 8.97266 122.289 9.35352 122.289 9.79102C122.289 10.502 122.016 11.0684 121.469 11.4902C120.926 11.9082 120.188 12.1172 119.254 12.1172C118.637 12.1172 118.068 12.0039 117.549 11.7773C117.033 11.5469 116.631 11.2305 116.342 10.8281C116.057 10.4258 115.914 9.95703 115.914 9.42188H117.396C117.396 9.90625 117.557 10.2812 117.877 10.5469C118.197 10.8125 118.656 10.9453 119.254 10.9453C119.77 10.9453 120.156 10.8418 120.414 10.6348C120.676 10.4238 120.807 10.1465 120.807 9.80273ZM130.398 7.95703C130.398 8.79297 130.254 9.52734 129.965 10.1602C129.676 10.7891 129.262 11.2734 128.723 11.6133C128.188 11.9492 127.57 12.1172 126.871 12.1172C126.18 12.1172 125.562 11.9492 125.02 11.6133C124.48 11.2734 124.062 10.791 123.766 10.166C123.473 9.54102 123.324 8.82031 123.32 8.00391V7.52344C123.32 6.69141 123.467 5.95703 123.76 5.32031C124.057 4.68359 124.473 4.19727 125.008 3.86133C125.547 3.52148 126.164 3.35156 126.859 3.35156C127.555 3.35156 128.17 3.51953 128.705 3.85547C129.244 4.1875 129.66 4.66797 129.953 5.29688C130.246 5.92188 130.395 6.65039 130.398 7.48242V7.95703ZM128.916 7.51172C128.916 6.56641 128.736 5.8418 128.377 5.33789C128.021 4.83398 127.516 4.58203 126.859 4.58203C126.219 4.58203 125.717 4.83398 125.354 5.33789C124.994 5.83789 124.811 6.54688 124.803 7.46484V7.95703C124.803 8.89453 124.984 9.61914 125.348 10.1309C125.715 10.6426 126.223 10.8984 126.871 10.8984C127.527 10.8984 128.031 10.6484 128.383 10.1484C128.738 9.64844 128.916 8.91797 128.916 7.95703V7.51172ZM126.396 1.48828H127.34L129.045 2.95312H127.803L126.871 2.12109L125.939 2.95312H124.691L126.396 1.48828ZM129.49 0.462891H130.791L129.525 2.02734H128.605L129.49 0.462891Z" fill="#1E243C"/>
<rect y="9" width="33" height="1" rx="0.5" fill="#E6E7E8"/>
<rect x="142" y="9" width="33" height="1" rx="0.5" fill="#E6E7E8"/>
</svg>
