<svg width="125" height="68" viewBox="0 0 125 68" fill="none" xmlns="http://www.w3.org/2000/svg">
<path d="M14.418 57V48.4688H16.8262C17.5684 48.4688 18.2246 48.6328 18.7949 48.9609C19.3652 49.2891 19.8047 49.7559 20.1133 50.3613C20.4258 50.9668 20.584 51.6621 20.5879 52.4473V52.9922C20.5879 53.7969 20.4316 54.502 20.1191 55.1074C19.8105 55.7129 19.3672 56.1777 18.7891 56.502C18.2148 56.8262 17.5449 56.9922 16.7793 57H14.418ZM15.543 49.3945V56.0801H16.7266C17.5938 56.0801 18.2676 55.8105 18.748 55.2715C19.2324 54.7324 19.4746 53.9648 19.4746 52.9688V52.4707C19.4746 51.502 19.2461 50.75 18.7891 50.2148C18.3359 49.6758 17.6914 49.4023 16.8555 49.3945H15.543ZM23.3008 57H22.2168V50.6602H23.3008V57ZM22.1289 48.9785C22.1289 48.8027 22.1816 48.6543 22.2871 48.5332C22.3965 48.4121 22.5566 48.3516 22.7676 48.3516C22.9785 48.3516 23.1387 48.4121 23.248 48.5332C23.3574 48.6543 23.4121 48.8027 23.4121 48.9785C23.4121 49.1543 23.3574 49.3008 23.248 49.418C23.1387 49.5352 22.9785 49.5938 22.7676 49.5938C22.5566 49.5938 22.3965 49.5352 22.2871 49.418C22.1816 49.3008 22.1289 49.1543 22.1289 48.9785ZM22.082 58.377C22.082 58.2012 22.1348 58.0527 22.2402 57.9316C22.3496 57.8105 22.5098 57.75 22.7207 57.75C22.9316 57.75 23.0918 57.8105 23.2012 57.9316C23.3105 58.0527 23.3652 58.2012 23.3652 58.377C23.3652 58.5527 23.3105 58.6992 23.2012 58.8164C23.0918 58.9336 22.9316 58.9922 22.7207 58.9922C22.5098 58.9922 22.3496 58.9336 22.2402 58.8164C22.1348 58.6992 22.082 58.5527 22.082 58.377ZM27.584 56.2324C27.9707 56.2324 28.3086 56.1152 28.5977 55.8809C28.8867 55.6465 29.0469 55.3535 29.0781 55.002H30.1035C30.084 55.3652 29.959 55.7109 29.7285 56.0391C29.498 56.3672 29.1895 56.6289 28.8027 56.8242C28.4199 57.0195 28.0137 57.1172 27.584 57.1172C26.7207 57.1172 26.0332 56.8301 25.5215 56.2559C25.0137 55.6777 24.7598 54.8887 24.7598 53.8887V53.707C24.7598 53.0898 24.873 52.541 25.0996 52.0605C25.3262 51.5801 25.6504 51.207 26.0723 50.9414C26.498 50.6758 27 50.543 27.5781 50.543C28.2891 50.543 28.8789 50.7559 29.3477 51.1816C29.8203 51.6074 30.0723 52.1602 30.1035 52.8398H29.0781C29.0469 52.4297 28.8906 52.0938 28.6094 51.832C28.332 51.5664 27.9883 51.4336 27.5781 51.4336C27.0273 51.4336 26.5996 51.6328 26.2949 52.0312C25.9941 52.4258 25.8438 52.998 25.8438 53.748V53.9531C25.8438 54.6836 25.9941 55.2461 26.2949 55.6406C26.5957 56.0352 27.0254 56.2324 27.584 56.2324ZM32.4062 51.4277C32.8867 50.8379 33.5117 50.543 34.2812 50.543C35.6211 50.543 36.2969 51.2988 36.3086 52.8105V57H35.2246V52.8047C35.2207 52.3477 35.1152 52.0098 34.9082 51.791C34.7051 51.5723 34.3867 51.4629 33.9531 51.4629C33.6016 51.4629 33.293 51.5566 33.0273 51.7441C32.7617 51.9316 32.5547 52.1777 32.4062 52.4824V57H31.3223V48H32.4062V51.4277ZM43 55.5293L44.5703 50.6602H45.6777L43.4043 57H42.5781L40.2812 50.6602H41.3887L43 55.5293ZM50.6348 56.373C50.2129 56.8691 49.5938 57.1172 48.7773 57.1172C48.1016 57.1172 47.5859 56.9219 47.2305 56.5312C46.8789 56.1367 46.7012 55.5547 46.6973 54.7852V50.6602H47.7812V54.7559C47.7812 55.7168 48.1719 56.1973 48.9531 56.1973C49.7812 56.1973 50.332 55.8887 50.6055 55.2715V50.6602H51.6895V57H50.6582L50.6348 56.373ZM48.2031 58.4355C48.2031 58.2598 48.2559 58.1113 48.3613 57.9902C48.4707 57.8691 48.6309 57.8086 48.8418 57.8086C49.0527 57.8086 49.2129 57.8691 49.3223 57.9902C49.4316 58.1113 49.4863 58.2598 49.4863 58.4355C49.4863 58.6113 49.4316 58.7578 49.3223 58.875C49.2129 58.9922 49.0527 59.0508 48.8418 59.0508C48.6309 59.0508 48.4707 58.9922 48.3613 58.875C48.2559 58.7578 48.2031 58.6113 48.2031 58.4355ZM63.0508 53.0098C63.0508 53.8457 62.9102 54.5762 62.6289 55.2012C62.3477 55.8223 61.9492 56.2969 61.4336 56.625C60.918 56.9531 60.3164 57.1172 59.6289 57.1172C58.957 57.1172 58.3613 56.9531 57.8418 56.625C57.3223 56.293 56.918 55.8223 56.6289 55.2129C56.3438 54.5996 56.1973 53.8906 56.1895 53.0859V52.4707C56.1895 51.6504 56.332 50.9258 56.6172 50.2969C56.9023 49.668 57.3047 49.1875 57.8242 48.8555C58.3477 48.5195 58.9453 48.3516 59.6172 48.3516C60.3008 48.3516 60.9023 48.5176 61.4219 48.8496C61.9453 49.1777 62.3477 49.6562 62.6289 50.2852C62.9102 50.9102 63.0508 51.6387 63.0508 52.4707V53.0098ZM61.9316 52.459C61.9316 51.4473 61.7285 50.6719 61.3223 50.1328C60.916 49.5898 60.3477 49.3184 59.6172 49.3184C58.9062 49.3184 58.3457 49.5898 57.9355 50.1328C57.5293 50.6719 57.3203 51.4219 57.3086 52.3828V53.0098C57.3086 53.9902 57.5137 54.7617 57.9238 55.3242C58.3379 55.8828 58.9062 56.1621 59.6289 56.1621C60.3555 56.1621 60.918 55.8984 61.3164 55.3711C61.7148 54.8398 61.9199 54.0801 61.9316 53.0918V52.459ZM65.5938 50.6602L65.6289 51.457C66.1133 50.8477 66.7461 50.543 67.5273 50.543C68.8672 50.543 69.543 51.2988 69.5547 52.8105V57H68.4707V52.8047C68.4668 52.3477 68.3613 52.0098 68.1543 51.791C67.9512 51.5723 67.6328 51.4629 67.1992 51.4629C66.8477 51.4629 66.5391 51.5566 66.2734 51.7441C66.0078 51.9316 65.8008 52.1777 65.6523 52.4824V57H64.5684V50.6602H65.5938ZM73.4453 53.8184H70.5859V52.9336H73.4453V53.8184ZM80.9746 55.8809C80.6855 56.2949 80.2812 56.6055 79.7617 56.8125C79.2461 57.0156 78.6445 57.1172 77.957 57.1172C77.2617 57.1172 76.6445 56.9551 76.1055 56.6309C75.5664 56.3027 75.1484 55.8379 74.8516 55.2363C74.5586 54.6348 74.4082 53.9375 74.4004 53.1445V52.4004C74.4004 51.1152 74.6992 50.1191 75.2969 49.4121C75.8984 48.7051 76.7422 48.3516 77.8281 48.3516C78.7188 48.3516 79.4355 48.5801 79.9785 49.0371C80.5215 49.4902 80.8535 50.1348 80.9746 50.9707H79.8496C79.6387 49.8418 78.9668 49.2773 77.834 49.2773C77.0801 49.2773 76.5078 49.543 76.1172 50.0742C75.7305 50.6016 75.5352 51.3672 75.5312 52.3711V53.0684C75.5312 54.0254 75.75 54.7871 76.1875 55.3535C76.625 55.916 77.2168 56.1973 77.9629 56.1973C78.3848 56.1973 78.7539 56.1504 79.0703 56.0566C79.3867 55.9629 79.6484 55.8047 79.8555 55.582V53.666H77.8809V52.752H80.9746V55.8809ZM82.3984 53.7715C82.3984 53.1504 82.5195 52.5918 82.7617 52.0957C83.0078 51.5996 83.3477 51.2168 83.7812 50.9473C84.2188 50.6777 84.7168 50.543 85.2754 50.543C86.1387 50.543 86.8359 50.8418 87.3672 51.4395C87.9023 52.0371 88.1699 52.832 88.1699 53.8242V53.9004C88.1699 54.5176 88.0508 55.0723 87.8125 55.5645C87.5781 56.0527 87.2402 56.4336 86.7988 56.707C86.3613 56.9805 85.8574 57.1172 85.2871 57.1172C84.4277 57.1172 83.7305 56.8184 83.1953 56.2207C82.6641 55.623 82.3984 54.832 82.3984 53.8477V53.7715ZM83.4883 53.9004C83.4883 54.6035 83.6504 55.168 83.9746 55.5938C84.3027 56.0195 84.7402 56.2324 85.2871 56.2324C85.8379 56.2324 86.2754 56.0176 86.5996 55.5879C86.9238 55.1543 87.0859 54.5488 87.0859 53.7715C87.0859 53.0762 86.9199 52.5137 86.5879 52.084C86.2598 51.6504 85.8223 51.4336 85.2754 51.4336C84.7402 51.4336 84.3086 51.6465 83.9805 52.0723C83.6523 52.498 83.4883 53.1074 83.4883 53.9004ZM89.2422 53.7715C89.2422 53.1504 89.3633 52.5918 89.6055 52.0957C89.8516 51.5996 90.1914 51.2168 90.625 50.9473C91.0625 50.6777 91.5605 50.543 92.1191 50.543C92.9824 50.543 93.6797 50.8418 94.2109 51.4395C94.7461 52.0371 95.0137 52.832 95.0137 53.8242V53.9004C95.0137 54.5176 94.8945 55.0723 94.6562 55.5645C94.4219 56.0527 94.084 56.4336 93.6426 56.707C93.2051 56.9805 92.7012 57.1172 92.1309 57.1172C91.2715 57.1172 90.5742 56.8184 90.0391 56.2207C89.5078 55.623 89.2422 54.832 89.2422 53.8477V53.7715ZM90.332 53.9004C90.332 54.6035 90.4941 55.168 90.8184 55.5938C91.1465 56.0195 91.584 56.2324 92.1309 56.2324C92.6816 56.2324 93.1191 56.0176 93.4434 55.5879C93.7676 55.1543 93.9297 54.5488 93.9297 53.7715C93.9297 53.0762 93.7637 52.5137 93.4316 52.084C93.1035 51.6504 92.666 51.4336 92.1191 51.4336C91.584 51.4336 91.1523 51.6465 90.8242 52.0723C90.4961 52.498 90.332 53.1074 90.332 53.9004ZM96.1152 53.7773C96.1152 52.7891 96.3438 52.0039 96.8008 51.4219C97.2578 50.8359 97.8633 50.543 98.6172 50.543C99.3906 50.543 99.9941 50.8164 100.428 51.3633L100.48 50.6602H101.471V56.8477C101.471 57.668 101.227 58.3145 100.738 58.7871C100.254 59.2598 99.6016 59.4961 98.7812 59.4961C98.3242 59.4961 97.877 59.3984 97.4395 59.2031C97.002 59.0078 96.668 58.7402 96.4375 58.4004L97 57.75C97.4648 58.3242 98.0332 58.6113 98.7051 58.6113C99.2324 58.6113 99.6426 58.4629 99.9355 58.166C100.232 57.8691 100.381 57.4512 100.381 56.9121V56.3672C99.9473 56.8672 99.3555 57.1172 98.6055 57.1172C97.8633 57.1172 97.2617 56.8184 96.8008 56.2207C96.3438 55.623 96.1152 54.8086 96.1152 53.7773ZM97.2051 53.9004C97.2051 54.6152 97.3516 55.1777 97.6445 55.5879C97.9375 55.9941 98.3477 56.1973 98.875 56.1973C99.5586 56.1973 100.061 55.8867 100.381 55.2656V52.3711C100.049 51.7656 99.5508 51.4629 98.8867 51.4629C98.3594 51.4629 97.9473 51.668 97.6504 52.0781C97.3535 52.4883 97.2051 53.0957 97.2051 53.9004ZM104.289 57H103.205V48H104.289V57ZM108.66 57.1172C107.801 57.1172 107.102 56.8359 106.562 56.2734C106.023 55.707 105.754 54.9512 105.754 54.0059V53.8066C105.754 53.1777 105.873 52.6172 106.111 52.125C106.354 51.6289 106.689 51.2422 107.119 50.9648C107.553 50.6836 108.021 50.543 108.525 50.543C109.35 50.543 109.99 50.8145 110.447 51.3574C110.904 51.9004 111.133 52.6777 111.133 53.6895V54.1406H106.838C106.854 54.7656 107.035 55.2715 107.383 55.6582C107.734 56.041 108.18 56.2324 108.719 56.2324C109.102 56.2324 109.426 56.1543 109.691 55.998C109.957 55.8418 110.189 55.6348 110.389 55.377L111.051 55.8926C110.52 56.709 109.723 57.1172 108.66 57.1172ZM108.525 51.4336C108.088 51.4336 107.721 51.5938 107.424 51.9141C107.127 52.2305 106.943 52.6758 106.873 53.25H110.049V53.168C110.018 52.6172 109.869 52.1914 109.604 51.8906C109.338 51.5859 108.979 51.4336 108.525 51.4336Z" fill="#1E243C"/>
<path d="M75.0621 39.7254L67.4584 16.7145C67.2738 16.1557 66.6411 15.6984 66.0525 15.6984H63.1817C62.593 15.6984 62.2626 16.1557 62.4472 16.7145L69.2791 37.3897C69.2793 37.3901 69.2793 37.3905 69.2795 37.3907L69.6149 38.4058C70.0753 39.7999 71.3782 40.7415 72.8465 40.7415H74.3277C74.9163 40.7415 75.2468 40.2842 75.0621 39.7254Z" fill="#B9256A"/>
<path d="M59.5114 38.4058L59.8469 37.3905L62.8268 28.372L64.1222 24.4519L66.6789 16.7145C66.8635 16.1557 66.5331 15.6984 65.9445 15.6984H63.0858C62.4972 15.6984 61.8645 16.1557 61.6799 16.7145L54.0761 39.7256C53.8915 40.2844 54.2219 40.7417 54.8106 40.7417H56.2794C57.7479 40.7417 59.0507 39.8001 59.5114 38.4058Z" fill="#E38FB5"/>
<path d="M75.5682 39.5583L67.9645 16.5476C67.7086 15.7727 66.8687 15.1657 66.0526 15.1657C66.0411 15.1657 59.5933 15.1655 59.5933 15.1655C58.7772 15.1655 57.9374 15.7725 57.6812 16.5474L50.0777 39.5583C49.9353 39.9892 49.9904 40.4254 50.2289 40.7555C50.4673 41.0854 50.8643 41.2746 51.3179 41.2746H56.2793C57.9812 41.2746 59.4831 40.189 60.017 38.5731L62.8229 30.0818L65.6287 38.5731C66.1624 40.189 67.6643 41.2746 69.3663 41.2746H74.3279C74.7816 41.2746 75.1784 41.0854 75.4169 40.7555C75.6555 40.4254 75.7107 39.9892 75.5682 39.5583ZM59.0053 38.2386C58.6158 39.4171 57.5205 40.2089 56.2793 40.2089H51.3179C51.2105 40.2089 51.1282 40.1806 51.0926 40.1312C51.0569 40.0816 51.0557 39.9948 51.0894 39.8928L58.6931 16.8818C58.8057 16.5412 59.2347 16.2312 59.5933 16.2312H65.9443C66.0518 16.2312 66.1339 16.2595 66.1696 16.3089C66.2054 16.3585 66.2064 16.4454 66.1727 16.5474L59.0053 38.2386ZM74.5533 40.1312C74.5175 40.1806 74.4354 40.2089 74.3279 40.2089H69.3663C68.1253 40.2089 67.0299 39.4173 66.6407 38.2388L63.3842 28.3834L67.0687 17.2328L74.5565 39.8928C74.5902 39.9948 74.589 40.0816 74.5533 40.1312Z" fill="#1E243C"/>
<path d="M57.7526 25.2285C57.4729 25.1363 57.1717 25.2879 57.0793 25.5672L55.3618 30.7648C55.2694 31.0443 55.4212 31.3457 55.7004 31.4379C55.756 31.4562 55.8124 31.465 55.8678 31.465C56.0915 31.465 56.2996 31.3232 56.3737 31.0993L58.0912 25.9016C58.1836 25.6222 58.0318 25.3208 57.7526 25.2285Z" fill="#3A2C60"/>
<path d="M58.4037 23.2575C58.1242 23.1652 57.8229 23.3168 57.7304 23.5963L57.6514 23.8359C57.5589 24.1152 57.7107 24.4166 57.99 24.509C58.0456 24.5274 58.1019 24.5361 58.1573 24.5361C58.381 24.5361 58.5892 24.3941 58.6633 24.1702L58.7424 23.9306C58.8348 23.6511 58.683 23.3499 58.4037 23.2575Z" fill="black"/>
</svg>

