<svg width="203" height="14" viewBox="0 0 203 14" fill="none" xmlns="http://www.w3.org/2000/svg">
<path d="M43.8672 11V2.46875H46.3867C47.1406 2.46875 47.8086 2.63672 48.3906 2.97266C48.9766 3.30859 49.4297 3.78516 49.75 4.40234C50.0703 5.01953 50.2305 5.72656 50.2305 6.52344V6.95117C50.2305 7.75977 50.0684 8.4707 49.7441 9.08398C49.4238 9.69727 48.9648 10.1699 48.3672 10.502C47.7734 10.834 47.0918 11 46.3223 11H43.8672ZM45.3496 3.66406V9.81641H46.3164C47.0938 9.81641 47.6895 9.57422 48.1035 9.08984C48.5215 8.60156 48.7344 7.90234 48.7422 6.99219V6.51758C48.7422 5.5918 48.541 4.88477 48.1387 4.39648C47.7363 3.9082 47.1523 3.66406 46.3867 3.66406H45.3496ZM53.2715 11H51.7949V2.46875H53.2715V11ZM61.6328 9.89258C61.3242 10.2949 60.8965 10.5996 60.3496 10.8066C59.8027 11.0137 59.1816 11.1172 58.4863 11.1172C57.7715 11.1172 57.1387 10.9551 56.5879 10.6309C56.0371 10.3066 55.6113 9.84375 55.3105 9.24219C55.0137 8.63672 54.8594 7.93164 54.8477 7.12695V6.45898C54.8477 5.16992 55.1562 4.16406 55.7734 3.44141C56.3906 2.71484 57.252 2.35156 58.3574 2.35156C59.3066 2.35156 60.0605 2.58594 60.6191 3.05469C61.1777 3.52344 61.5137 4.19922 61.627 5.08203H60.1738C60.0098 4.05469 59.4141 3.54102 58.3867 3.54102C57.7227 3.54102 57.2168 3.78125 56.8691 4.26172C56.5254 4.73828 56.3477 5.43945 56.3359 6.36523V7.02148C56.3359 7.94336 56.5293 8.66016 56.916 9.17188C57.3066 9.67969 57.8477 9.93359 58.5391 9.93359C59.2969 9.93359 59.8359 9.76172 60.1562 9.41797V7.74805H58.3984V6.62305H61.6328V9.89258ZM64.8262 11H63.3496V2.46875H64.8262V11ZM72.6367 3.66406H69.9766V11H68.5059V3.66406H65.8691V2.46875H72.6367V3.66406ZM77.834 9.01367H74.5293L73.8379 11H72.2969L75.5195 2.46875H76.8496L80.0781 11H78.5312L77.834 9.01367ZM74.9453 7.81836H77.418L76.1816 4.2793L74.9453 7.81836ZM82.5332 9.81641H86.4062V11H81.0508V2.46875H82.5332V9.81641ZM92.4531 2.46875L94.9141 9.00781L97.3691 2.46875H99.2852V11H97.8086V8.1875L97.9551 4.42578L95.4355 11H94.375L91.8613 4.43164L92.0078 8.1875V11H90.5312V2.46875H92.4531ZM105.924 9.01367H102.619L101.928 11H100.387L103.609 2.46875H104.939L108.168 11H106.621L105.924 9.01367ZM103.035 7.81836H105.508L104.271 4.2793L103.035 7.81836ZM112.275 7.71289H110.623V11H109.141V2.46875H112.141C113.125 2.46875 113.885 2.68945 114.42 3.13086C114.955 3.57227 115.223 4.21094 115.223 5.04688C115.223 5.61719 115.084 6.0957 114.807 6.48242C114.533 6.86523 114.15 7.16016 113.658 7.36719L115.574 10.9238V11H113.986L112.275 7.71289ZM110.623 6.52344H112.146C112.646 6.52344 113.037 6.39844 113.318 6.14844C113.6 5.89453 113.74 5.54883 113.74 5.11133C113.74 4.6543 113.609 4.30078 113.348 4.05078C113.09 3.80078 112.703 3.67187 112.188 3.66406H110.623V6.52344ZM119.078 7.31445L118.111 8.33984V11H116.629V2.46875H118.111V6.4707L118.932 5.45703L121.428 2.46875H123.221L120.051 6.24805L123.402 11H121.645L119.078 7.31445ZM129.186 7.19141H125.682V9.81641H129.777V11H124.199V2.46875H129.736V3.66406H125.682V6.01953H129.186V7.19141ZM137.266 3.66406H134.605V11H133.135V3.66406H130.498V2.46875H137.266V3.66406ZM139.955 11H138.479V2.46875H139.955V11ZM148.545 11H147.062L143.26 4.94727V11H141.777V2.46875H143.26L147.074 8.54492V2.46875H148.545V11ZM156.836 9.89258C156.527 10.2949 156.1 10.5996 155.553 10.8066C155.006 11.0137 154.385 11.1172 153.689 11.1172C152.975 11.1172 152.342 10.9551 151.791 10.6309C151.24 10.3066 150.814 9.84375 150.514 9.24219C150.217 8.63672 150.062 7.93164 150.051 7.12695V6.45898C150.051 5.16992 150.359 4.16406 150.977 3.44141C151.594 2.71484 152.455 2.35156 153.561 2.35156C154.51 2.35156 155.264 2.58594 155.822 3.05469C156.381 3.52344 156.717 4.19922 156.83 5.08203H155.377C155.213 4.05469 154.617 3.54102 153.59 3.54102C152.926 3.54102 152.42 3.78125 152.072 4.26172C151.729 4.73828 151.551 5.43945 151.539 6.36523V7.02148C151.539 7.94336 151.732 8.66016 152.119 9.17188C152.51 9.67969 153.051 9.93359 153.742 9.93359C154.5 9.93359 155.039 9.76172 155.359 9.41797V7.74805H153.602V6.62305H156.836V9.89258Z" fill="#1E243C"/>
<rect y="7" width="33" height="1" rx="0.5" fill="#E6E7E8"/>
<rect x="170" y="7" width="33" height="1" rx="0.5" fill="#E6E7E8"/>
</svg>
