<svg width="24" height="24" viewBox="0 0 24 24" fill="none" xmlns="http://www.w3.org/2000/svg">
<g opacity="0.65">
<path d="M13.3054 11.9977L19.2773 6.03052C19.6382 5.66958 19.6382 5.08599 19.2773 4.72739C18.9164 4.36646 18.3328 4.36646 17.9742 4.72739L12 10.6922L6.02573 4.72505C5.66479 4.36411 5.0812 4.36411 4.72261 4.72505C4.36167 5.08599 4.36167 5.66958 4.72261 6.02817L10.6945 11.9954L4.72261 17.9649C4.36167 18.3258 4.36167 18.9094 4.72261 19.268C4.90308 19.4485 5.13979 19.5375 5.37417 19.5375C5.61089 19.5375 5.84526 19.4485 6.02573 19.268L12 13.3008L17.9742 19.2704C18.1546 19.4508 18.389 19.5399 18.6257 19.5399C18.8625 19.5399 19.0968 19.4508 19.2773 19.2704C19.6382 18.9094 19.6382 18.3258 19.2773 17.9672L13.3054 11.9977Z" fill="black"/>
</g>
</svg>

