<svg width="125" height="68" viewBox="0 0 125 68" fill="none" xmlns="http://www.w3.org/2000/svg">
<path d="M24.1914 55.8809C23.9023 56.2949 23.498 56.6055 22.9785 56.8125C22.4629 57.0156 21.8613 57.1172 21.1738 57.1172C20.4785 57.1172 19.8613 56.9551 19.3223 56.6309C18.7832 56.3027 18.3652 55.8379 18.0684 55.2363C17.7754 54.6348 17.625 53.9375 17.6172 53.1445V52.4004C17.6172 51.1152 17.916 50.1191 18.5137 49.4121C19.1152 48.7051 19.959 48.3516 21.0449 48.3516C21.9355 48.3516 22.6523 48.5801 23.1953 49.0371C23.7383 49.4902 24.0703 50.1348 24.1914 50.9707H23.0664C22.8555 49.8418 22.1836 49.2773 21.0508 49.2773C20.2969 49.2773 19.7246 49.543 19.334 50.0742C18.9473 50.6016 18.752 51.3672 18.748 52.3711V53.0684C18.748 54.0254 18.9668 54.7871 19.4043 55.3535C19.8418 55.916 20.4336 56.1973 21.1797 56.1973C21.6016 56.1973 21.9707 56.1504 22.2871 56.0566C22.6035 55.9629 22.8652 55.8047 23.0723 55.582V53.666H21.0977V52.752H24.1914V55.8809ZM25.6152 53.7715C25.6152 53.1504 25.7363 52.5918 25.9785 52.0957C26.2246 51.5996 26.5645 51.2168 26.998 50.9473C27.4355 50.6777 27.9336 50.543 28.4922 50.543C29.3555 50.543 30.0527 50.8418 30.584 51.4395C31.1191 52.0371 31.3867 52.832 31.3867 53.8242V53.9004C31.3867 54.5176 31.2676 55.0723 31.0293 55.5645C30.7949 56.0527 30.457 56.4336 30.0156 56.707C29.5781 56.9805 29.0742 57.1172 28.5039 57.1172C27.6445 57.1172 26.9473 56.8184 26.4121 56.2207C25.8809 55.623 25.6152 54.832 25.6152 53.8477V53.7715ZM26.7051 53.9004C26.7051 54.6035 26.8672 55.168 27.1914 55.5938C27.5195 56.0195 27.957 56.2324 28.5039 56.2324C29.0547 56.2324 29.4922 56.0176 29.8164 55.5879C30.1406 55.1543 30.3027 54.5488 30.3027 53.7715C30.3027 53.0762 30.1367 52.5137 29.8047 52.084C29.4766 51.6504 29.0391 51.4336 28.4922 51.4336C27.957 51.4336 27.5254 51.6465 27.1973 52.0723C26.8691 52.498 26.7051 53.1074 26.7051 53.9004ZM32.459 53.7715C32.459 53.1504 32.5801 52.5918 32.8223 52.0957C33.0684 51.5996 33.4082 51.2168 33.8418 50.9473C34.2793 50.6777 34.7773 50.543 35.3359 50.543C36.1992 50.543 36.8965 50.8418 37.4277 51.4395C37.9629 52.0371 38.2305 52.832 38.2305 53.8242V53.9004C38.2305 54.5176 38.1113 55.0723 37.873 55.5645C37.6387 56.0527 37.3008 56.4336 36.8594 56.707C36.4219 56.9805 35.918 57.1172 35.3477 57.1172C34.4883 57.1172 33.791 56.8184 33.2559 56.2207C32.7246 55.623 32.459 54.832 32.459 53.8477V53.7715ZM33.5488 53.9004C33.5488 54.6035 33.7109 55.168 34.0352 55.5938C34.3633 56.0195 34.8008 56.2324 35.3477 56.2324C35.8984 56.2324 36.3359 56.0176 36.6602 55.5879C36.9844 55.1543 37.1465 54.5488 37.1465 53.7715C37.1465 53.0762 36.9805 52.5137 36.6484 52.084C36.3203 51.6504 35.8828 51.4336 35.3359 51.4336C34.8008 51.4336 34.3691 51.6465 34.041 52.0723C33.7129 52.498 33.5488 53.1074 33.5488 53.9004ZM39.332 53.7773C39.332 52.7891 39.5605 52.0039 40.0176 51.4219C40.4746 50.8359 41.0801 50.543 41.834 50.543C42.6074 50.543 43.2109 50.8164 43.6445 51.3633L43.6973 50.6602H44.6875V56.8477C44.6875 57.668 44.4434 58.3145 43.9551 58.7871C43.4707 59.2598 42.8184 59.4961 41.998 59.4961C41.541 59.4961 41.0938 59.3984 40.6562 59.2031C40.2188 59.0078 39.8848 58.7402 39.6543 58.4004L40.2168 57.75C40.6816 58.3242 41.25 58.6113 41.9219 58.6113C42.4492 58.6113 42.8594 58.4629 43.1523 58.166C43.4492 57.8691 43.5977 57.4512 43.5977 56.9121V56.3672C43.1641 56.8672 42.5723 57.1172 41.8223 57.1172C41.0801 57.1172 40.4785 56.8184 40.0176 56.2207C39.5605 55.623 39.332 54.8086 39.332 53.7773ZM40.4219 53.9004C40.4219 54.6152 40.5684 55.1777 40.8613 55.5879C41.1543 55.9941 41.5645 56.1973 42.0918 56.1973C42.7754 56.1973 43.2773 55.8867 43.5977 55.2656V52.3711C43.2656 51.7656 42.7676 51.4629 42.1035 51.4629C41.5762 51.4629 41.1641 51.668 40.8672 52.0781C40.5703 52.4883 40.4219 53.0957 40.4219 53.9004ZM47.5059 57H46.4219V48H47.5059V57ZM51.877 57.1172C51.0176 57.1172 50.3184 56.8359 49.7793 56.2734C49.2402 55.707 48.9707 54.9512 48.9707 54.0059V53.8066C48.9707 53.1777 49.0898 52.6172 49.3281 52.125C49.5703 51.6289 49.9062 51.2422 50.3359 50.9648C50.7695 50.6836 51.2383 50.543 51.7422 50.543C52.5664 50.543 53.207 50.8145 53.6641 51.3574C54.1211 51.9004 54.3496 52.6777 54.3496 53.6895V54.1406H50.0547C50.0703 54.7656 50.252 55.2715 50.5996 55.6582C50.9512 56.041 51.3965 56.2324 51.9355 56.2324C52.3184 56.2324 52.6426 56.1543 52.9082 55.998C53.1738 55.8418 53.4062 55.6348 53.6055 55.377L54.2676 55.8926C53.7363 56.709 52.9395 57.1172 51.877 57.1172ZM51.7422 51.4336C51.3047 51.4336 50.9375 51.5938 50.6406 51.9141C50.3438 52.2305 50.1602 52.6758 50.0898 53.25H53.2656V53.168C53.2344 52.6172 53.0859 52.1914 52.8203 51.8906C52.5547 51.5859 52.1953 51.4336 51.7422 51.4336ZM61.2695 53.1973C60.3047 52.9199 59.6016 52.5801 59.1602 52.1777C58.7227 51.7715 58.5039 51.2715 58.5039 50.6777C58.5039 50.0059 58.7715 49.4512 59.3066 49.0137C59.8457 48.5723 60.5449 48.3516 61.4043 48.3516C61.9902 48.3516 62.5117 48.4648 62.9688 48.6914C63.4297 48.918 63.7852 49.2305 64.0352 49.6289C64.2891 50.0273 64.416 50.4629 64.416 50.9355H63.2852C63.2852 50.4199 63.1211 50.0156 62.793 49.7227C62.4648 49.4258 62.002 49.2773 61.4043 49.2773C60.8496 49.2773 60.416 49.4004 60.1035 49.6465C59.7949 49.8887 59.6406 50.2266 59.6406 50.6602C59.6406 51.0078 59.7871 51.3027 60.0801 51.5449C60.377 51.7832 60.8789 52.002 61.5859 52.2012C62.2969 52.4004 62.8516 52.6211 63.25 52.8633C63.6523 53.1016 63.9492 53.3809 64.1406 53.7012C64.3359 54.0215 64.4336 54.3984 64.4336 54.832C64.4336 55.5234 64.1641 56.0781 63.625 56.4961C63.0859 56.9102 62.3652 57.1172 61.4629 57.1172C60.877 57.1172 60.3301 57.0059 59.8223 56.7832C59.3145 56.5566 58.9219 56.248 58.6445 55.8574C58.3711 55.4668 58.2344 55.0234 58.2344 54.5273H59.3652C59.3652 55.043 59.5547 55.4512 59.9336 55.752C60.3164 56.0488 60.8262 56.1973 61.4629 56.1973C62.0566 56.1973 62.5117 56.0762 62.8281 55.834C63.1445 55.5918 63.3027 55.2617 63.3027 54.8438C63.3027 54.4258 63.1562 54.1035 62.8633 53.877C62.5703 53.6465 62.0391 53.4199 61.2695 53.1973ZM66.7949 51.4277C67.2754 50.8379 67.9004 50.543 68.6699 50.543C70.0098 50.543 70.6855 51.2988 70.6973 52.8105V57H69.6133V52.8047C69.6094 52.3477 69.5039 52.0098 69.2969 51.791C69.0938 51.5723 68.7754 51.4629 68.3418 51.4629C67.9902 51.4629 67.6816 51.5566 67.416 51.7441C67.1504 51.9316 66.9434 52.1777 66.7949 52.4824V57H65.7109V48H66.7949V51.4277ZM72.0332 53.7715C72.0332 53.1504 72.1543 52.5918 72.3965 52.0957C72.6426 51.5996 72.9824 51.2168 73.416 50.9473C73.8535 50.6777 74.3516 50.543 74.9102 50.543C75.7734 50.543 76.4707 50.8418 77.002 51.4395C77.5371 52.0371 77.8047 52.832 77.8047 53.8242V53.9004C77.8047 54.5176 77.6855 55.0723 77.4473 55.5645C77.2129 56.0527 76.875 56.4336 76.4336 56.707C75.9961 56.9805 75.4922 57.1172 74.9219 57.1172C74.0625 57.1172 73.3652 56.8184 72.8301 56.2207C72.2988 55.623 72.0332 54.832 72.0332 53.8477V53.7715ZM73.123 53.9004C73.123 54.6035 73.2852 55.168 73.6094 55.5938C73.9375 56.0195 74.375 56.2324 74.9219 56.2324C75.4727 56.2324 75.9102 56.0176 76.2344 55.5879C76.5586 55.1543 76.7207 54.5488 76.7207 53.7715C76.7207 53.0762 76.5547 52.5137 76.2227 52.084C75.8945 51.6504 75.457 51.4336 74.9102 51.4336C74.375 51.4336 73.9434 51.6465 73.6152 52.0723C73.2871 52.498 73.123 53.1074 73.123 53.9004ZM84.5195 53.9004C84.5195 54.8652 84.2988 55.6426 83.8574 56.2324C83.416 56.8223 82.8184 57.1172 82.0645 57.1172C81.2949 57.1172 80.6895 56.873 80.248 56.3848V59.4375H79.1641V50.6602H80.1543L80.207 51.3633C80.6484 50.8164 81.2617 50.543 82.0469 50.543C82.8086 50.543 83.4102 50.8301 83.8516 51.4043C84.2969 51.9785 84.5195 52.7773 84.5195 53.8008V53.9004ZM83.4355 53.7773C83.4355 53.0625 83.2832 52.498 82.9785 52.084C82.6738 51.6699 82.2559 51.4629 81.7246 51.4629C81.0684 51.4629 80.5762 51.7539 80.248 52.3359V55.3652C80.5723 55.9434 81.0684 56.2324 81.7363 56.2324C82.2559 56.2324 82.668 56.0273 82.9727 55.6172C83.2812 55.2031 83.4355 54.5898 83.4355 53.7773ZM91.2578 53.9004C91.2578 54.8652 91.0371 55.6426 90.5957 56.2324C90.1543 56.8223 89.5566 57.1172 88.8027 57.1172C88.0332 57.1172 87.4277 56.873 86.9863 56.3848V59.4375H85.9023V50.6602H86.8926L86.9453 51.3633C87.3867 50.8164 88 50.543 88.7852 50.543C89.5469 50.543 90.1484 50.8301 90.5898 51.4043C91.0352 51.9785 91.2578 52.7773 91.2578 53.8008V53.9004ZM90.1738 53.7773C90.1738 53.0625 90.0215 52.498 89.7168 52.084C89.4121 51.6699 88.9941 51.4629 88.4629 51.4629C87.8066 51.4629 87.3145 51.7539 86.9863 52.3359V55.3652C87.3105 55.9434 87.8066 56.2324 88.4746 56.2324C88.9941 56.2324 89.4062 56.0273 89.7109 55.6172C90.0195 55.2031 90.1738 54.5898 90.1738 53.7773ZM93.8184 57H92.7344V50.6602H93.8184V57ZM92.6465 48.9785C92.6465 48.8027 92.6992 48.6543 92.8047 48.5332C92.9141 48.4121 93.0742 48.3516 93.2852 48.3516C93.4961 48.3516 93.6562 48.4121 93.7656 48.5332C93.875 48.6543 93.9297 48.8027 93.9297 48.9785C93.9297 49.1543 93.875 49.3008 93.7656 49.418C93.6562 49.5352 93.4961 49.5938 93.2852 49.5938C93.0742 49.5938 92.9141 49.5352 92.8047 49.418C92.6992 49.3008 92.6465 49.1543 92.6465 48.9785ZM96.584 50.6602L96.6191 51.457C97.1035 50.8477 97.7363 50.543 98.5176 50.543C99.8574 50.543 100.533 51.2988 100.545 52.8105V57H99.4609V52.8047C99.457 52.3477 99.3516 52.0098 99.1445 51.791C98.9414 51.5723 98.623 51.4629 98.1895 51.4629C97.8379 51.4629 97.5293 51.5566 97.2637 51.7441C96.998 51.9316 96.791 52.1777 96.6426 52.4824V57H95.5586V50.6602H96.584ZM101.922 53.7773C101.922 52.7891 102.15 52.0039 102.607 51.4219C103.064 50.8359 103.67 50.543 104.424 50.543C105.197 50.543 105.801 50.8164 106.234 51.3633L106.287 50.6602H107.277V56.8477C107.277 57.668 107.033 58.3145 106.545 58.7871C106.061 59.2598 105.408 59.4961 104.588 59.4961C104.131 59.4961 103.684 59.3984 103.246 59.2031C102.809 59.0078 102.475 58.7402 102.244 58.4004L102.807 57.75C103.271 58.3242 103.84 58.6113 104.512 58.6113C105.039 58.6113 105.449 58.4629 105.742 58.166C106.039 57.8691 106.188 57.4512 106.188 56.9121V56.3672C105.754 56.8672 105.162 57.1172 104.412 57.1172C103.67 57.1172 103.068 56.8184 102.607 56.2207C102.15 55.623 101.922 54.8086 101.922 53.7773ZM103.012 53.9004C103.012 54.6152 103.158 55.1777 103.451 55.5879C103.744 55.9941 104.154 56.1973 104.682 56.1973C105.365 56.1973 105.867 55.8867 106.188 55.2656V52.3711C105.855 51.7656 105.357 51.4629 104.693 51.4629C104.166 51.4629 103.754 51.668 103.457 52.0781C103.16 52.4883 103.012 53.0957 103.012 53.9004Z" fill="#1E243C"/>
<g clip-path="url(#clip0)">
<path d="M72.752 40.244H52.248C50.8426 40.244 49.6992 39.1006 49.6992 37.6951V25.346C49.6992 25.0709 49.8324 24.8129 50.0566 24.6535L62.0077 16.1574C62.3025 15.9479 62.6976 15.9479 62.9923 16.1574L74.9435 24.6535C75.1677 24.8129 75.3008 25.0709 75.3008 25.346V37.6951C75.3008 39.1006 74.1574 40.244 72.752 40.244V40.244Z" stroke="#1E243C"/>
<path d="M72.752 40.2438C74.1574 40.2438 75.3008 39.1004 75.3008 37.695V25.3458C75.3008 25.0708 75.1676 24.8127 74.9434 24.6533L62.9923 16.1572C62.8449 16.0525 62.6724 16.0001 62.5 16.0001V40.2438H72.752Z" stroke="#1E243C"/>
<path d="M55.2199 23.0441C55.2199 25.0358 53.6039 26.6502 51.61 26.6502C49.6161 26.6502 48 25.0358 48 23.0441H55.2199Z" fill="#E38FB5" stroke="#3A2C60" stroke-width="0.5"/>
<path d="M62.5 23.0441C62.5 25.0358 60.8238 26.6502 58.8299 26.6502C56.836 26.6502 55.22 25.0359 55.22 23.0441H62.5Z" fill="#B9256A" stroke="#3A2C60" stroke-width="0.5"/>
<path d="M77.0001 23.044H69.7802L67.915 14.756H72.2747C72.9582 14.756 73.5833 15.1418 73.8889 15.7525L77.0001 23.044Z" fill="#B9256A" stroke="#3A2C60" stroke-width="0.5"/>
<path d="M69.7801 23.044H62.5V14.756H67.915L69.7801 23.044Z" fill="#E38FB5" stroke="#3A2C60" stroke-width="0.5"/>
<path d="M62.5 14.756V23.044H55.22L57.0249 14.756H62.5Z" fill="#B9256A" stroke="#3A2C60" stroke-width="0.5"/>
<path d="M57.0249 14.756L55.2199 23.044H48L51.1112 15.7525C51.4168 15.1419 52.0419 14.756 52.7254 14.756H57.0249V14.756Z" fill="#E38FB5" stroke="#3A2C60" stroke-width="0.5"/>
<path d="M69.7801 23.0441C69.7801 25.0358 68.164 26.6502 66.1701 26.6502C64.1763 26.6502 62.5 25.0358 62.5 23.0441H69.7801Z" fill="#C71E6B" fill-opacity="0.5" stroke="#3A2C60" stroke-width="0.5"/>
<path d="M76.9999 23.0441C76.9999 25.0358 75.3838 26.6502 73.39 26.6502C71.3961 26.6502 69.78 25.0359 69.78 23.0441H76.9999Z" fill="#B9256A" stroke="#3A2C60" stroke-width="0.5"/>
<path d="M72.1116 31.7479H69.5627C69.0935 31.7479 68.7131 32.1283 68.7131 32.5975C68.7131 33.0667 69.0935 33.4471 69.5627 33.4471H71.1158C70.7651 34.4359 69.8207 35.1463 68.7131 35.1463C67.3077 35.1463 66.1643 34.0029 66.1643 32.5975C66.1643 31.1921 67.3077 30.0487 68.7131 30.0487C69.394 30.0487 70.034 30.3138 70.5154 30.7952C70.8472 31.127 71.3852 31.127 71.717 30.7952C72.0488 30.4634 72.0487 29.9255 71.717 29.5937C70.9146 28.7913 69.8478 28.3495 68.7131 28.3495C66.3708 28.3495 64.4651 30.2552 64.4651 32.5975C64.4651 34.9399 66.3708 36.8456 68.7131 36.8456C71.0555 36.8456 72.9612 34.9399 72.9612 32.5975C72.9612 32.1282 72.5808 31.7479 72.1116 31.7479Z" fill="white" stroke="#1E243C"/>
</g>
<defs>
<clipPath id="clip0">
<rect width="29" height="29" fill="white" transform="translate(48 13)"/>
</clipPath>
</defs>
</svg>

