<svg width="125" height="68" viewBox="0 0 125 68" fill="none" xmlns="http://www.w3.org/2000/svg">
<path d="M23.0957 57H21.9648L17.6699 50.4258V57H16.5391V48.4688H17.6699L21.9766 55.0723V48.4688H23.0957V57ZM24.6367 53.7715C24.6367 53.1504 24.7578 52.5918 25 52.0957C25.2461 51.5996 25.5859 51.2168 26.0195 50.9473C26.457 50.6777 26.9551 50.543 27.5137 50.543C28.377 50.543 29.0742 50.8418 29.6055 51.4395C30.1406 52.0371 30.4082 52.832 30.4082 53.8242V53.9004C30.4082 54.5176 30.2891 55.0723 30.0508 55.5645C29.8164 56.0527 29.4785 56.4336 29.0371 56.707C28.5996 56.9805 28.0957 57.1172 27.5254 57.1172C26.666 57.1172 25.9688 56.8184 25.4336 56.2207C24.9023 55.623 24.6367 54.832 24.6367 53.8477V53.7715ZM25.7266 53.9004C25.7266 54.6035 25.8887 55.168 26.2129 55.5938C26.541 56.0195 26.9785 56.2324 27.5254 56.2324C28.0762 56.2324 28.5137 56.0176 28.8379 55.5879C29.1621 55.1543 29.3242 54.5488 29.3242 53.7715C29.3242 53.0762 29.1582 52.5137 28.8262 52.084C28.498 51.6504 28.0605 51.4336 27.5137 51.4336C26.9785 51.4336 26.5469 51.6465 26.2188 52.0723C25.8906 52.498 25.7266 53.1074 25.7266 53.9004ZM33.7656 55.5293L35.3359 50.6602H36.4434L34.1699 57H33.3438L31.0469 50.6602H32.1543L33.7656 55.5293ZM41.3066 57C41.2441 56.875 41.1934 56.6523 41.1543 56.332C40.6504 56.8555 40.0488 57.1172 39.3496 57.1172C38.7246 57.1172 38.2109 56.9414 37.8086 56.5898C37.4102 56.2344 37.2109 55.7852 37.2109 55.2422C37.2109 54.582 37.4609 54.0703 37.9609 53.707C38.4648 53.3398 39.1719 53.1562 40.082 53.1562H41.1367V52.6582C41.1367 52.2793 41.0234 51.9785 40.7969 51.7559C40.5703 51.5293 40.2363 51.416 39.7949 51.416C39.4082 51.416 39.084 51.5137 38.8223 51.709C38.5605 51.9043 38.4297 52.1406 38.4297 52.418H37.3398C37.3398 52.1016 37.4512 51.7969 37.6738 51.5039C37.9004 51.207 38.2051 50.9727 38.5879 50.8008C38.9746 50.6289 39.3984 50.543 39.8594 50.543C40.5898 50.543 41.1621 50.7266 41.5762 51.0938C41.9902 51.457 42.2051 51.959 42.2207 52.5996V55.5176C42.2207 56.0996 42.2949 56.5625 42.4434 56.9062V57H41.3066ZM39.5078 56.1738C39.8477 56.1738 40.1699 56.0859 40.4746 55.9102C40.7793 55.7344 41 55.5059 41.1367 55.2246V53.9238H40.2871C38.959 53.9238 38.2949 54.3125 38.2949 55.0898C38.2949 55.4297 38.4082 55.6953 38.6348 55.8867C38.8613 56.0781 39.1523 56.1738 39.5078 56.1738ZM43.6328 53.7715C43.6328 53.1504 43.7539 52.5918 43.9961 52.0957C44.2422 51.5996 44.582 51.2168 45.0156 50.9473C45.4531 50.6777 45.9512 50.543 46.5098 50.543C47.373 50.543 48.0703 50.8418 48.6016 51.4395C49.1367 52.0371 49.4043 52.832 49.4043 53.8242V53.9004C49.4043 54.5176 49.2852 55.0723 49.0469 55.5645C48.8125 56.0527 48.4746 56.4336 48.0332 56.707C47.5957 56.9805 47.0918 57.1172 46.5215 57.1172C45.6621 57.1172 44.9648 56.8184 44.4297 56.2207C43.8984 55.623 43.6328 54.832 43.6328 53.8477V53.7715ZM44.7227 53.9004C44.7227 54.6035 44.8848 55.168 45.209 55.5938C45.5371 56.0195 45.9746 56.2324 46.5215 56.2324C47.0723 56.2324 47.5098 56.0176 47.834 55.5879C48.1582 55.1543 48.3203 54.5488 48.3203 53.7715C48.3203 53.0762 48.1543 52.5137 47.8223 52.084C47.4941 51.6504 47.0566 51.4336 46.5098 51.4336C45.9746 51.4336 45.543 51.6465 45.2148 52.0723C44.8867 52.498 44.7227 53.1074 44.7227 53.9004ZM51.7891 50.6602L51.8242 51.457C52.3086 50.8477 52.9414 50.543 53.7227 50.543C55.0625 50.543 55.7383 51.2988 55.75 52.8105V57H54.666V52.8047C54.6621 52.3477 54.5566 52.0098 54.3496 51.791C54.1465 51.5723 53.8281 51.4629 53.3945 51.4629C53.043 51.4629 52.7344 51.5566 52.4688 51.7441C52.2031 51.9316 51.9961 52.1777 51.8477 52.4824V57H50.7637V50.6602H51.7891ZM60.3379 51.7383L62.3828 48.4688H63.707L61.0117 52.6992L63.7715 57H62.4355L60.3379 53.6719L58.2285 57H56.8984L59.6641 52.6992L56.9629 48.4688H58.2812L60.3379 51.7383ZM74.3301 54.293C74.2246 55.1953 73.8906 55.8926 73.3281 56.3848C72.7695 56.873 72.0254 57.1172 71.0957 57.1172C70.0879 57.1172 69.2793 56.7559 68.6699 56.0332C68.0645 55.3105 67.7617 54.3438 67.7617 53.1328V52.3125C67.7617 51.5195 67.9023 50.8223 68.1836 50.2207C68.4688 49.6191 68.8711 49.1582 69.3906 48.8379C69.9102 48.5137 70.5117 48.3516 71.1953 48.3516C72.1016 48.3516 72.8281 48.6055 73.375 49.1133C73.9219 49.6172 74.2402 50.3164 74.3301 51.2109H73.1992C73.1016 50.5312 72.8887 50.0391 72.5605 49.7344C72.2363 49.4297 71.7812 49.2773 71.1953 49.2773C70.4766 49.2773 69.9121 49.543 69.502 50.0742C69.0957 50.6055 68.8926 51.3613 68.8926 52.3418V53.168C68.8926 54.0938 69.0859 54.8301 69.4727 55.377C69.8594 55.9238 70.4004 56.1973 71.0957 56.1973C71.7207 56.1973 72.1992 56.0566 72.5312 55.7754C72.8672 55.4902 73.0898 54.9961 73.1992 54.293H74.3301ZM76.7852 51.4277C77.2656 50.8379 77.8906 50.543 78.6602 50.543C80 50.543 80.6758 51.2988 80.6875 52.8105V57H79.6035V52.8047C79.5996 52.3477 79.4941 52.0098 79.2871 51.791C79.084 51.5723 78.7656 51.4629 78.332 51.4629C77.9805 51.4629 77.6719 51.5566 77.4062 51.7441C77.1406 51.9316 76.9336 52.1777 76.7852 52.4824V57H75.7012V48H76.7852V51.4277ZM86.2246 57C86.1621 56.875 86.1113 56.6523 86.0723 56.332C85.5684 56.8555 84.9668 57.1172 84.2676 57.1172C83.6426 57.1172 83.1289 56.9414 82.7266 56.5898C82.3281 56.2344 82.1289 55.7852 82.1289 55.2422C82.1289 54.582 82.3789 54.0703 82.8789 53.707C83.3828 53.3398 84.0898 53.1562 85 53.1562H86.0547V52.6582C86.0547 52.2793 85.9414 51.9785 85.7148 51.7559C85.4883 51.5293 85.1543 51.416 84.7129 51.416C84.3262 51.416 84.002 51.5137 83.7402 51.709C83.4785 51.9043 83.3477 52.1406 83.3477 52.418H82.2578C82.2578 52.1016 82.3691 51.7969 82.5918 51.5039C82.8184 51.207 83.123 50.9727 83.5059 50.8008C83.8926 50.6289 84.3164 50.543 84.7773 50.543C85.5078 50.543 86.0801 50.7266 86.4941 51.0938C86.9082 51.457 87.123 51.959 87.1387 52.5996V55.5176C87.1387 56.0996 87.2129 56.5625 87.3613 56.9062V57H86.2246ZM84.4258 56.1738C84.7656 56.1738 85.0879 56.0859 85.3926 55.9102C85.6973 55.7344 85.918 55.5059 86.0547 55.2246V53.9238H85.2051C83.877 53.9238 83.2129 54.3125 83.2129 55.0898C83.2129 55.4297 83.3262 55.6953 83.5527 55.8867C83.7793 56.0781 84.0703 56.1738 84.4258 56.1738ZM90.3086 49.125V50.6602H91.4922V51.498H90.3086V55.4297C90.3086 55.6836 90.3613 55.875 90.4668 56.0039C90.5723 56.1289 90.752 56.1914 91.0059 56.1914C91.1309 56.1914 91.3027 56.168 91.5215 56.1211V57C91.2363 57.0781 90.959 57.1172 90.6895 57.1172C90.2051 57.1172 89.8398 56.9707 89.5938 56.6777C89.3477 56.3848 89.2246 55.9688 89.2246 55.4297V51.498H88.0703V50.6602H89.2246V49.125H90.3086ZM98.1309 53.9004C98.1309 54.8691 97.9082 55.6484 97.4629 56.2383C97.0176 56.8242 96.4199 57.1172 95.6699 57.1172C94.8691 57.1172 94.25 56.834 93.8125 56.2676L93.7598 57H92.7637V48H93.8477V51.3574C94.2852 50.8145 94.8887 50.543 95.6582 50.543C96.4277 50.543 97.0312 50.834 97.4688 51.416C97.9102 51.998 98.1309 52.7949 98.1309 53.8066V53.9004ZM97.0469 53.7773C97.0469 53.0391 96.9043 52.4688 96.6191 52.0664C96.334 51.6641 95.9238 51.4629 95.3887 51.4629C94.6738 51.4629 94.1602 51.7949 93.8477 52.459V55.2012C94.1797 55.8652 94.6973 56.1973 95.4004 56.1973C95.9199 56.1973 96.3242 55.9961 96.6133 55.5938C96.9023 55.1914 97.0469 54.5859 97.0469 53.7773ZM99.2148 53.7715C99.2148 53.1504 99.3359 52.5918 99.5781 52.0957C99.8242 51.5996 100.164 51.2168 100.598 50.9473C101.035 50.6777 101.533 50.543 102.092 50.543C102.955 50.543 103.652 50.8418 104.184 51.4395C104.719 52.0371 104.986 52.832 104.986 53.8242V53.9004C104.986 54.5176 104.867 55.0723 104.629 55.5645C104.395 56.0527 104.057 56.4336 103.615 56.707C103.178 56.9805 102.674 57.1172 102.104 57.1172C101.244 57.1172 100.547 56.8184 100.012 56.2207C99.4805 55.623 99.2148 54.832 99.2148 53.8477V53.7715ZM100.305 53.9004C100.305 54.6035 100.467 55.168 100.791 55.5938C101.119 56.0195 101.557 56.2324 102.104 56.2324C102.654 56.2324 103.092 56.0176 103.416 55.5879C103.74 55.1543 103.902 54.5488 103.902 53.7715C103.902 53.0762 103.736 52.5137 103.404 52.084C103.076 51.6504 102.639 51.4336 102.092 51.4336C101.557 51.4336 101.125 51.6465 100.797 52.0723C100.469 52.498 100.305 53.1074 100.305 53.9004ZM107.816 49.125V50.6602H109V51.498H107.816V55.4297C107.816 55.6836 107.869 55.875 107.975 56.0039C108.08 56.1289 108.26 56.1914 108.514 56.1914C108.639 56.1914 108.811 56.168 109.029 56.1211V57C108.744 57.0781 108.467 57.1172 108.197 57.1172C107.713 57.1172 107.348 56.9707 107.102 56.6777C106.855 56.3848 106.732 55.9688 106.732 55.4297V51.498H105.578V50.6602H106.732V49.125H107.816Z" fill="#1E243C"/>
<path d="M23.0957 57H21.9648L17.6699 50.4258V57H16.5391V48.4688H17.6699L21.9766 55.0723V48.4688H23.0957V57ZM24.6367 53.7715C24.6367 53.1504 24.7578 52.5918 25 52.0957C25.2461 51.5996 25.5859 51.2168 26.0195 50.9473C26.457 50.6777 26.9551 50.543 27.5137 50.543C28.377 50.543 29.0742 50.8418 29.6055 51.4395C30.1406 52.0371 30.4082 52.832 30.4082 53.8242V53.9004C30.4082 54.5176 30.2891 55.0723 30.0508 55.5645C29.8164 56.0527 29.4785 56.4336 29.0371 56.707C28.5996 56.9805 28.0957 57.1172 27.5254 57.1172C26.666 57.1172 25.9688 56.8184 25.4336 56.2207C24.9023 55.623 24.6367 54.832 24.6367 53.8477V53.7715ZM25.7266 53.9004C25.7266 54.6035 25.8887 55.168 26.2129 55.5938C26.541 56.0195 26.9785 56.2324 27.5254 56.2324C28.0762 56.2324 28.5137 56.0176 28.8379 55.5879C29.1621 55.1543 29.3242 54.5488 29.3242 53.7715C29.3242 53.0762 29.1582 52.5137 28.8262 52.084C28.498 51.6504 28.0605 51.4336 27.5137 51.4336C26.9785 51.4336 26.5469 51.6465 26.2188 52.0723C25.8906 52.498 25.7266 53.1074 25.7266 53.9004ZM33.7656 55.5293L35.3359 50.6602H36.4434L34.1699 57H33.3438L31.0469 50.6602H32.1543L33.7656 55.5293ZM41.3066 57C41.2441 56.875 41.1934 56.6523 41.1543 56.332C40.6504 56.8555 40.0488 57.1172 39.3496 57.1172C38.7246 57.1172 38.2109 56.9414 37.8086 56.5898C37.4102 56.2344 37.2109 55.7852 37.2109 55.2422C37.2109 54.582 37.4609 54.0703 37.9609 53.707C38.4648 53.3398 39.1719 53.1562 40.082 53.1562H41.1367V52.6582C41.1367 52.2793 41.0234 51.9785 40.7969 51.7559C40.5703 51.5293 40.2363 51.416 39.7949 51.416C39.4082 51.416 39.084 51.5137 38.8223 51.709C38.5605 51.9043 38.4297 52.1406 38.4297 52.418H37.3398C37.3398 52.1016 37.4512 51.7969 37.6738 51.5039C37.9004 51.207 38.2051 50.9727 38.5879 50.8008C38.9746 50.6289 39.3984 50.543 39.8594 50.543C40.5898 50.543 41.1621 50.7266 41.5762 51.0938C41.9902 51.457 42.2051 51.959 42.2207 52.5996V55.5176C42.2207 56.0996 42.2949 56.5625 42.4434 56.9062V57H41.3066ZM39.5078 56.1738C39.8477 56.1738 40.1699 56.0859 40.4746 55.9102C40.7793 55.7344 41 55.5059 41.1367 55.2246V53.9238H40.2871C38.959 53.9238 38.2949 54.3125 38.2949 55.0898C38.2949 55.4297 38.4082 55.6953 38.6348 55.8867C38.8613 56.0781 39.1523 56.1738 39.5078 56.1738ZM43.6328 53.7715C43.6328 53.1504 43.7539 52.5918 43.9961 52.0957C44.2422 51.5996 44.582 51.2168 45.0156 50.9473C45.4531 50.6777 45.9512 50.543 46.5098 50.543C47.373 50.543 48.0703 50.8418 48.6016 51.4395C49.1367 52.0371 49.4043 52.832 49.4043 53.8242V53.9004C49.4043 54.5176 49.2852 55.0723 49.0469 55.5645C48.8125 56.0527 48.4746 56.4336 48.0332 56.707C47.5957 56.9805 47.0918 57.1172 46.5215 57.1172C45.6621 57.1172 44.9648 56.8184 44.4297 56.2207C43.8984 55.623 43.6328 54.832 43.6328 53.8477V53.7715ZM44.7227 53.9004C44.7227 54.6035 44.8848 55.168 45.209 55.5938C45.5371 56.0195 45.9746 56.2324 46.5215 56.2324C47.0723 56.2324 47.5098 56.0176 47.834 55.5879C48.1582 55.1543 48.3203 54.5488 48.3203 53.7715C48.3203 53.0762 48.1543 52.5137 47.8223 52.084C47.4941 51.6504 47.0566 51.4336 46.5098 51.4336C45.9746 51.4336 45.543 51.6465 45.2148 52.0723C44.8867 52.498 44.7227 53.1074 44.7227 53.9004ZM51.7891 50.6602L51.8242 51.457C52.3086 50.8477 52.9414 50.543 53.7227 50.543C55.0625 50.543 55.7383 51.2988 55.75 52.8105V57H54.666V52.8047C54.6621 52.3477 54.5566 52.0098 54.3496 51.791C54.1465 51.5723 53.8281 51.4629 53.3945 51.4629C53.043 51.4629 52.7344 51.5566 52.4688 51.7441C52.2031 51.9316 51.9961 52.1777 51.8477 52.4824V57H50.7637V50.6602H51.7891ZM60.3379 51.7383L62.3828 48.4688H63.707L61.0117 52.6992L63.7715 57H62.4355L60.3379 53.6719L58.2285 57H56.8984L59.6641 52.6992L56.9629 48.4688H58.2812L60.3379 51.7383ZM74.3301 54.293C74.2246 55.1953 73.8906 55.8926 73.3281 56.3848C72.7695 56.873 72.0254 57.1172 71.0957 57.1172C70.0879 57.1172 69.2793 56.7559 68.6699 56.0332C68.0645 55.3105 67.7617 54.3438 67.7617 53.1328V52.3125C67.7617 51.5195 67.9023 50.8223 68.1836 50.2207C68.4688 49.6191 68.8711 49.1582 69.3906 48.8379C69.9102 48.5137 70.5117 48.3516 71.1953 48.3516C72.1016 48.3516 72.8281 48.6055 73.375 49.1133C73.9219 49.6172 74.2402 50.3164 74.3301 51.2109H73.1992C73.1016 50.5312 72.8887 50.0391 72.5605 49.7344C72.2363 49.4297 71.7812 49.2773 71.1953 49.2773C70.4766 49.2773 69.9121 49.543 69.502 50.0742C69.0957 50.6055 68.8926 51.3613 68.8926 52.3418V53.168C68.8926 54.0938 69.0859 54.8301 69.4727 55.377C69.8594 55.9238 70.4004 56.1973 71.0957 56.1973C71.7207 56.1973 72.1992 56.0566 72.5312 55.7754C72.8672 55.4902 73.0898 54.9961 73.1992 54.293H74.3301ZM76.7852 51.4277C77.2656 50.8379 77.8906 50.543 78.6602 50.543C80 50.543 80.6758 51.2988 80.6875 52.8105V57H79.6035V52.8047C79.5996 52.3477 79.4941 52.0098 79.2871 51.791C79.084 51.5723 78.7656 51.4629 78.332 51.4629C77.9805 51.4629 77.6719 51.5566 77.4062 51.7441C77.1406 51.9316 76.9336 52.1777 76.7852 52.4824V57H75.7012V48H76.7852V51.4277ZM86.2246 57C86.1621 56.875 86.1113 56.6523 86.0723 56.332C85.5684 56.8555 84.9668 57.1172 84.2676 57.1172C83.6426 57.1172 83.1289 56.9414 82.7266 56.5898C82.3281 56.2344 82.1289 55.7852 82.1289 55.2422C82.1289 54.582 82.3789 54.0703 82.8789 53.707C83.3828 53.3398 84.0898 53.1562 85 53.1562H86.0547V52.6582C86.0547 52.2793 85.9414 51.9785 85.7148 51.7559C85.4883 51.5293 85.1543 51.416 84.7129 51.416C84.3262 51.416 84.002 51.5137 83.7402 51.709C83.4785 51.9043 83.3477 52.1406 83.3477 52.418H82.2578C82.2578 52.1016 82.3691 51.7969 82.5918 51.5039C82.8184 51.207 83.123 50.9727 83.5059 50.8008C83.8926 50.6289 84.3164 50.543 84.7773 50.543C85.5078 50.543 86.0801 50.7266 86.4941 51.0938C86.9082 51.457 87.123 51.959 87.1387 52.5996V55.5176C87.1387 56.0996 87.2129 56.5625 87.3613 56.9062V57H86.2246ZM84.4258 56.1738C84.7656 56.1738 85.0879 56.0859 85.3926 55.9102C85.6973 55.7344 85.918 55.5059 86.0547 55.2246V53.9238H85.2051C83.877 53.9238 83.2129 54.3125 83.2129 55.0898C83.2129 55.4297 83.3262 55.6953 83.5527 55.8867C83.7793 56.0781 84.0703 56.1738 84.4258 56.1738ZM90.3086 49.125V50.6602H91.4922V51.498H90.3086V55.4297C90.3086 55.6836 90.3613 55.875 90.4668 56.0039C90.5723 56.1289 90.752 56.1914 91.0059 56.1914C91.1309 56.1914 91.3027 56.168 91.5215 56.1211V57C91.2363 57.0781 90.959 57.1172 90.6895 57.1172C90.2051 57.1172 89.8398 56.9707 89.5938 56.6777C89.3477 56.3848 89.2246 55.9688 89.2246 55.4297V51.498H88.0703V50.6602H89.2246V49.125H90.3086ZM98.1309 53.9004C98.1309 54.8691 97.9082 55.6484 97.4629 56.2383C97.0176 56.8242 96.4199 57.1172 95.6699 57.1172C94.8691 57.1172 94.25 56.834 93.8125 56.2676L93.7598 57H92.7637V48H93.8477V51.3574C94.2852 50.8145 94.8887 50.543 95.6582 50.543C96.4277 50.543 97.0312 50.834 97.4688 51.416C97.9102 51.998 98.1309 52.7949 98.1309 53.8066V53.9004ZM97.0469 53.7773C97.0469 53.0391 96.9043 52.4688 96.6191 52.0664C96.334 51.6641 95.9238 51.4629 95.3887 51.4629C94.6738 51.4629 94.1602 51.7949 93.8477 52.459V55.2012C94.1797 55.8652 94.6973 56.1973 95.4004 56.1973C95.9199 56.1973 96.3242 55.9961 96.6133 55.5938C96.9023 55.1914 97.0469 54.5859 97.0469 53.7773ZM99.2148 53.7715C99.2148 53.1504 99.3359 52.5918 99.5781 52.0957C99.8242 51.5996 100.164 51.2168 100.598 50.9473C101.035 50.6777 101.533 50.543 102.092 50.543C102.955 50.543 103.652 50.8418 104.184 51.4395C104.719 52.0371 104.986 52.832 104.986 53.8242V53.9004C104.986 54.5176 104.867 55.0723 104.629 55.5645C104.395 56.0527 104.057 56.4336 103.615 56.707C103.178 56.9805 102.674 57.1172 102.104 57.1172C101.244 57.1172 100.547 56.8184 100.012 56.2207C99.4805 55.623 99.2148 54.832 99.2148 53.8477V53.7715ZM100.305 53.9004C100.305 54.6035 100.467 55.168 100.791 55.5938C101.119 56.0195 101.557 56.2324 102.104 56.2324C102.654 56.2324 103.092 56.0176 103.416 55.5879C103.74 55.1543 103.902 54.5488 103.902 53.7715C103.902 53.0762 103.736 52.5137 103.404 52.084C103.076 51.6504 102.639 51.4336 102.092 51.4336C101.557 51.4336 101.125 51.6465 100.797 52.0723C100.469 52.498 100.305 53.1074 100.305 53.9004ZM107.816 49.125V50.6602H109V51.498H107.816V55.4297C107.816 55.6836 107.869 55.875 107.975 56.0039C108.08 56.1289 108.26 56.1914 108.514 56.1914C108.639 56.1914 108.811 56.168 109.029 56.1211V57C108.744 57.0781 108.467 57.1172 108.197 57.1172C107.713 57.1172 107.348 56.9707 107.102 56.6777C106.855 56.3848 106.732 55.9688 106.732 55.4297V51.498H105.578V50.6602H106.732V49.125H107.816Z" fill="#1E243C"/>
<path fill-rule="evenodd" clip-rule="evenodd" d="M69 11C67.8954 11 67 11.8954 67 13V19C67 20.1046 67.8954 21 69 21H69.5V23.5L72.8333 21H79.5C80.6046 21 81.5 20.1046 81.5 19V13C81.5 11.8954 80.6046 11 79.5 11H69Z" fill="#E38FB5"/>
<path d="M81.1278 11H68.8716C67.8397 11 67 11.7641 67 12.7031V19.3792C67 20.3185 67.8397 21.0829 68.8716 21.0829H69.455V23.7291C69.455 23.8359 69.5235 23.9323 69.6306 23.9762C69.6699 23.9921 69.7113 24 69.7526 24C69.8241 24 69.8946 23.9767 69.95 23.9317L73.4804 21.0829H81.1275C82.1597 21.0829 82.9994 20.3188 82.9994 19.3792V17.9913C82.9994 17.8418 82.8664 17.7205 82.7018 17.7205C82.5372 17.7205 82.4041 17.8418 82.4041 17.9913V19.3792C82.4041 20.0198 81.8314 20.5412 81.1275 20.5412H73.3676C73.2949 20.5412 73.2247 20.5653 73.1702 20.6094L70.0506 23.1268V20.812C70.0506 20.6625 69.9175 20.5412 69.7529 20.5412H68.8719C68.1683 20.5412 67.5956 20.02 67.5956 19.3792V12.7031C67.5956 12.0628 68.1683 11.5417 68.8719 11.5417H81.1281C81.832 11.5417 82.4047 12.0626 82.4047 12.7031V14.0699C82.4047 14.2194 82.5378 14.3407 82.7024 14.3407C82.867 14.3407 83 14.2194 83 14.0699V12.7031C82.9997 11.7641 82.16 11 81.1278 11Z" fill="#1E243C" stroke="#1E243C" stroke-width="0.5"/>
<path d="M82.689 15.5C82.5291 15.5 82.3999 15.5498 82.3999 15.6112V16.3888C82.3999 16.4502 82.5291 16.5 82.689 16.5C82.8488 16.5 82.978 16.4502 82.978 16.3888V15.6112C82.978 15.5498 82.8488 15.5 82.689 15.5Z" fill="#1E243C" stroke="#1E243C" stroke-width="0.5"/>
<mask id="mask0" mask-type="alpha" maskUnits="userSpaceOnUse" x="46" y="31" width="3" height="5">
<rect x="46" y="36" width="5" height="3" transform="rotate(-90 46 36)" fill="#C4C4C4"/>
</mask>
<g mask="url(#mask0)">
<circle cx="48.5" cy="33.5" r="2" transform="rotate(-90 48.5 33.5)" fill="#E38FB5" stroke="#1E243C"/>
</g>
<mask id="mask1" mask-type="alpha" maskUnits="userSpaceOnUse" x="58" y="23" width="5" height="3">
<rect x="58" y="23" width="5" height="3" fill="white"/>
</mask>
<g mask="url(#mask1)">
<circle cx="60.5" cy="25.5" r="2" stroke="#1E243C"/>
</g>
<mask id="mask2" mask-type="alpha" maskUnits="userSpaceOnUse" x="71" y="31" width="3" height="5">
<rect x="74" y="31" width="5" height="3" transform="rotate(90 74 31)" fill="#C4C4C4"/>
</mask>
<g mask="url(#mask2)">
<circle cx="71.5" cy="33.5" r="2" transform="rotate(90 71.5 33.5)" fill="#E38FB5" stroke="#1E243C"/>
</g>
<path d="M74.876 16.5295C75.414 16.5295 75.8501 16.0933 75.8501 15.5553C75.8501 15.0173 75.414 14.5812 74.876 14.5812C74.338 14.5812 73.9019 15.0173 73.9019 15.5553C73.9019 16.0933 74.338 16.5295 74.876 16.5295Z" fill="#B9256A" stroke="#1E243C"/>
<path d="M70.9741 16.5295C71.5121 16.5295 71.9483 16.0933 71.9483 15.5553C71.9483 15.0173 71.5121 14.5812 70.9741 14.5812C70.4361 14.5812 70 15.0173 70 15.5553C70 16.0933 70.4361 16.5295 70.9741 16.5295Z" fill="#B9256A" stroke="#1E243C"/>
<path d="M78.7779 16.5295C79.3159 16.5295 79.752 16.0933 79.752 15.5553C79.752 15.0173 79.3159 14.5812 78.7779 14.5812C78.2398 14.5812 77.8037 15.0173 77.8037 15.5553C77.8037 16.0933 78.2398 16.5295 78.7779 16.5295Z" fill="#B9256A" stroke="#1E243C"/>
<rect x="48.5" y="25.5" width="23" height="15" rx="7.5" stroke="#1E243C"/>
<rect x="50.5" y="27.5" width="19" height="11" rx="5.5" fill="white" stroke="#1E243C"/>
<path d="M61.577 35.113C61.562 35.1321 61.2038 35.5816 60.5477 35.5816C59.8793 35.5816 59.5397 35.141 59.5223 35.1185C59.4287 34.9904 59.2492 34.9615 59.12 35.0546C58.9905 35.148 58.9613 35.3286 59.0546 35.4581C59.0752 35.4868 59.5718 36.1597 60.5474 36.1597C61.4981 36.1597 62.0146 35.492 62.036 35.4636C62.132 35.337 62.1071 35.1575 61.9814 35.0607C61.8562 34.9647 61.6747 34.9873 61.577 35.113Z" fill="#1E243C"/>
<line x1="60.5" y1="20" x2="60.5" y2="24" stroke="#1E243C"/>
<circle cx="60.5" cy="20.5" r="1" fill="#B9256A" stroke="#1E243C"/>
<circle cx="55.25" cy="32.25" r="1.25" fill="#1E243C"/>
<circle cx="65.25" cy="32.25" r="1.25" fill="#1E243C"/>
</svg>
