<svg width="125" height="68" viewBox="0 0 125 68" fill="none" xmlns="http://www.w3.org/2000/svg">
<path d="M27.9824 57H26.8516L22.5566 50.4258V57H21.4258V48.4688H22.5566L26.8633 55.0723V48.4688H27.9824V57ZM29.5234 53.7715C29.5234 53.1504 29.6445 52.5918 29.8867 52.0957C30.1328 51.5996 30.4727 51.2168 30.9062 50.9473C31.3438 50.6777 31.8418 50.543 32.4004 50.543C33.2637 50.543 33.9609 50.8418 34.4922 51.4395C35.0273 52.0371 35.2949 52.832 35.2949 53.8242V53.9004C35.2949 54.5176 35.1758 55.0723 34.9375 55.5645C34.7031 56.0527 34.3652 56.4336 33.9238 56.707C33.4863 56.9805 32.9824 57.1172 32.4121 57.1172C31.5527 57.1172 30.8555 56.8184 30.3203 56.2207C29.7891 55.623 29.5234 54.832 29.5234 53.8477V53.7715ZM30.6133 53.9004C30.6133 54.6035 30.7754 55.168 31.0996 55.5938C31.4277 56.0195 31.8652 56.2324 32.4121 56.2324C32.9629 56.2324 33.4004 56.0176 33.7246 55.5879C34.0488 55.1543 34.2109 54.5488 34.2109 53.7715C34.2109 53.0762 34.0449 52.5137 33.7129 52.084C33.3848 51.6504 32.9473 51.4336 32.4004 51.4336C31.8652 51.4336 31.4336 51.6465 31.1055 52.0723C30.7773 52.498 30.6133 53.1074 30.6133 53.9004ZM38.6523 55.5293L40.2227 50.6602H41.3301L39.0566 57H38.2305L35.9336 50.6602H37.041L38.6523 55.5293ZM46.1934 57C46.1309 56.875 46.0801 56.6523 46.041 56.332C45.5371 56.8555 44.9355 57.1172 44.2363 57.1172C43.6113 57.1172 43.0977 56.9414 42.6953 56.5898C42.2969 56.2344 42.0977 55.7852 42.0977 55.2422C42.0977 54.582 42.3477 54.0703 42.8477 53.707C43.3516 53.3398 44.0586 53.1562 44.9688 53.1562H46.0234V52.6582C46.0234 52.2793 45.9102 51.9785 45.6836 51.7559C45.457 51.5293 45.123 51.416 44.6816 51.416C44.2949 51.416 43.9707 51.5137 43.709 51.709C43.4473 51.9043 43.3164 52.1406 43.3164 52.418H42.2266C42.2266 52.1016 42.3379 51.7969 42.5605 51.5039C42.7871 51.207 43.0918 50.9727 43.4746 50.8008C43.8613 50.6289 44.2852 50.543 44.7461 50.543C45.4766 50.543 46.0488 50.7266 46.4629 51.0938C46.877 51.457 47.0918 51.959 47.1074 52.5996V55.5176C47.1074 56.0996 47.1816 56.5625 47.3301 56.9062V57H46.1934ZM44.3945 56.1738C44.7344 56.1738 45.0566 56.0859 45.3613 55.9102C45.666 55.7344 45.8867 55.5059 46.0234 55.2246V53.9238H45.1738C43.8457 53.9238 43.1816 54.3125 43.1816 55.0898C43.1816 55.4297 43.2949 55.6953 43.5215 55.8867C43.748 56.0781 44.0391 56.1738 44.3945 56.1738ZM48.5195 53.7715C48.5195 53.1504 48.6406 52.5918 48.8828 52.0957C49.1289 51.5996 49.4688 51.2168 49.9023 50.9473C50.3398 50.6777 50.8379 50.543 51.3965 50.543C52.2598 50.543 52.957 50.8418 53.4883 51.4395C54.0234 52.0371 54.291 52.832 54.291 53.8242V53.9004C54.291 54.5176 54.1719 55.0723 53.9336 55.5645C53.6992 56.0527 53.3613 56.4336 52.9199 56.707C52.4824 56.9805 51.9785 57.1172 51.4082 57.1172C50.5488 57.1172 49.8516 56.8184 49.3164 56.2207C48.7852 55.623 48.5195 54.832 48.5195 53.8477V53.7715ZM49.6094 53.9004C49.6094 54.6035 49.7715 55.168 50.0957 55.5938C50.4238 56.0195 50.8613 56.2324 51.4082 56.2324C51.959 56.2324 52.3965 56.0176 52.7207 55.5879C53.0449 55.1543 53.207 54.5488 53.207 53.7715C53.207 53.0762 53.041 52.5137 52.709 52.084C52.3809 51.6504 51.9434 51.4336 51.3965 51.4336C50.8613 51.4336 50.4297 51.6465 50.1016 52.0723C49.7734 52.498 49.6094 53.1074 49.6094 53.9004ZM56.6758 50.6602L56.7109 51.457C57.1953 50.8477 57.8281 50.543 58.6094 50.543C59.9492 50.543 60.625 51.2988 60.6367 52.8105V57H59.5527V52.8047C59.5488 52.3477 59.4434 52.0098 59.2363 51.791C59.0332 51.5723 58.7148 51.4629 58.2812 51.4629C57.9297 51.4629 57.6211 51.5566 57.3555 51.7441C57.0898 51.9316 56.8828 52.1777 56.7344 52.4824V57H55.6504V50.6602H56.6758ZM65.2246 51.7383L67.2695 48.4688H68.5938L65.8984 52.6992L68.6582 57H67.3223L65.2246 53.6719L63.1152 57H61.7852L64.5508 52.6992L61.8496 48.4688H63.168L65.2246 51.7383ZM75.4551 53.1973C74.4902 52.9199 73.7871 52.5801 73.3457 52.1777C72.9082 51.7715 72.6895 51.2715 72.6895 50.6777C72.6895 50.0059 72.957 49.4512 73.4922 49.0137C74.0312 48.5723 74.7305 48.3516 75.5898 48.3516C76.1758 48.3516 76.6973 48.4648 77.1543 48.6914C77.6152 48.918 77.9707 49.2305 78.2207 49.6289C78.4746 50.0273 78.6016 50.4629 78.6016 50.9355H77.4707C77.4707 50.4199 77.3066 50.0156 76.9785 49.7227C76.6504 49.4258 76.1875 49.2773 75.5898 49.2773C75.0352 49.2773 74.6016 49.4004 74.2891 49.6465C73.9805 49.8887 73.8262 50.2266 73.8262 50.6602C73.8262 51.0078 73.9727 51.3027 74.2656 51.5449C74.5625 51.7832 75.0645 52.002 75.7715 52.2012C76.4824 52.4004 77.0371 52.6211 77.4355 52.8633C77.8379 53.1016 78.1348 53.3809 78.3262 53.7012C78.5215 54.0215 78.6191 54.3984 78.6191 54.832C78.6191 55.5234 78.3496 56.0781 77.8105 56.4961C77.2715 56.9102 76.5508 57.1172 75.6484 57.1172C75.0625 57.1172 74.5156 57.0059 74.0078 56.7832C73.5 56.5566 73.1074 56.248 72.8301 55.8574C72.5566 55.4668 72.4199 55.0234 72.4199 54.5273H73.5508C73.5508 55.043 73.7402 55.4512 74.1191 55.752C74.502 56.0488 75.0117 56.1973 75.6484 56.1973C76.2422 56.1973 76.6973 56.0762 77.0137 55.834C77.3301 55.5918 77.4883 55.2617 77.4883 54.8438C77.4883 54.4258 77.3418 54.1035 77.0488 53.877C76.7559 53.6465 76.2246 53.4199 75.4551 53.1973ZM79.6094 53.7715C79.6094 53.1504 79.7305 52.5918 79.9727 52.0957C80.2188 51.5996 80.5586 51.2168 80.9922 50.9473C81.4297 50.6777 81.9277 50.543 82.4863 50.543C83.3496 50.543 84.0469 50.8418 84.5781 51.4395C85.1133 52.0371 85.3809 52.832 85.3809 53.8242V53.9004C85.3809 54.5176 85.2617 55.0723 85.0234 55.5645C84.7891 56.0527 84.4512 56.4336 84.0098 56.707C83.5723 56.9805 83.0684 57.1172 82.498 57.1172C81.6387 57.1172 80.9414 56.8184 80.4062 56.2207C79.875 55.623 79.6094 54.832 79.6094 53.8477V53.7715ZM80.6992 53.9004C80.6992 54.6035 80.8613 55.168 81.1855 55.5938C81.5137 56.0195 81.9512 56.2324 82.498 56.2324C83.0488 56.2324 83.4863 56.0176 83.8105 55.5879C84.1348 55.1543 84.2969 54.5488 84.2969 53.7715C84.2969 53.0762 84.1309 52.5137 83.7988 52.084C83.4707 51.6504 83.0332 51.4336 82.4863 51.4336C81.9512 51.4336 81.5195 51.6465 81.1914 52.0723C80.8633 52.498 80.6992 53.1074 80.6992 53.9004ZM89.2832 56.2324C89.6699 56.2324 90.0078 56.1152 90.2969 55.8809C90.5859 55.6465 90.7461 55.3535 90.7773 55.002H91.8027C91.7832 55.3652 91.6582 55.7109 91.4277 56.0391C91.1973 56.3672 90.8887 56.6289 90.502 56.8242C90.1191 57.0195 89.7129 57.1172 89.2832 57.1172C88.4199 57.1172 87.7324 56.8301 87.2207 56.2559C86.7129 55.6777 86.459 54.8887 86.459 53.8887V53.707C86.459 53.0898 86.5723 52.541 86.7988 52.0605C87.0254 51.5801 87.3496 51.207 87.7715 50.9414C88.1973 50.6758 88.6992 50.543 89.2773 50.543C89.9883 50.543 90.5781 50.7559 91.0469 51.1816C91.5195 51.6074 91.7715 52.1602 91.8027 52.8398H90.7773C90.7461 52.4297 90.5898 52.0938 90.3086 51.832C90.0312 51.5664 89.6875 51.4336 89.2773 51.4336C88.7266 51.4336 88.2988 51.6328 87.9941 52.0312C87.6934 52.4258 87.543 52.998 87.543 53.748V53.9531C87.543 54.6836 87.6934 55.2461 87.9941 55.6406C88.2949 56.0352 88.7246 56.2324 89.2832 56.2324ZM94.1992 57H93.1152V50.6602H94.1992V57ZM93.0273 48.9785C93.0273 48.8027 93.0801 48.6543 93.1855 48.5332C93.2949 48.4121 93.4551 48.3516 93.666 48.3516C93.877 48.3516 94.0371 48.4121 94.1465 48.5332C94.2559 48.6543 94.3105 48.8027 94.3105 48.9785C94.3105 49.1543 94.2559 49.3008 94.1465 49.418C94.0371 49.5352 93.877 49.5938 93.666 49.5938C93.4551 49.5938 93.2949 49.5352 93.1855 49.418C93.0801 49.3008 93.0273 49.1543 93.0273 48.9785ZM99.8535 57C99.791 56.875 99.7402 56.6523 99.7012 56.332C99.1973 56.8555 98.5957 57.1172 97.8965 57.1172C97.2715 57.1172 96.7578 56.9414 96.3555 56.5898C95.957 56.2344 95.7578 55.7852 95.7578 55.2422C95.7578 54.582 96.0078 54.0703 96.5078 53.707C97.0117 53.3398 97.7188 53.1562 98.6289 53.1562H99.6836V52.6582C99.6836 52.2793 99.5703 51.9785 99.3438 51.7559C99.1172 51.5293 98.7832 51.416 98.3418 51.416C97.9551 51.416 97.6309 51.5137 97.3691 51.709C97.1074 51.9043 96.9766 52.1406 96.9766 52.418H95.8867C95.8867 52.1016 95.998 51.7969 96.2207 51.5039C96.4473 51.207 96.752 50.9727 97.1348 50.8008C97.5215 50.6289 97.9453 50.543 98.4062 50.543C99.1367 50.543 99.709 50.7266 100.123 51.0938C100.537 51.457 100.752 51.959 100.768 52.5996V55.5176C100.768 56.0996 100.842 56.5625 100.99 56.9062V57H99.8535ZM98.0547 56.1738C98.3945 56.1738 98.7168 56.0859 99.0215 55.9102C99.3262 55.7344 99.5469 55.5059 99.6836 55.2246V53.9238H98.834C97.5059 53.9238 96.8418 54.3125 96.8418 55.0898C96.8418 55.4297 96.9551 55.6953 97.1816 55.8867C97.4082 56.0781 97.6992 56.1738 98.0547 56.1738ZM103.645 57H102.561V48H103.645V57Z" fill="#1E243C"/>
<path d="M58.4848 18.0001H51.1611C49.4623 18.0001 48.085 19.7225 48.085 21.8468V27.7199C48.085 29.8442 49.4623 31.5666 51.1611 31.5666H58.4848C60.1836 31.5666 61.561 29.8442 61.561 27.7199V21.8468C61.5606 19.7225 60.1836 18.0001 58.4848 18.0001Z" fill="#E38FB5"/>
<path d="M76.9775 9.47937H69.5745C67.7861 9.47937 66.3362 10.9391 66.3362 12.7394V19.3396C66.3362 21.1399 67.7861 22.5996 69.5745 22.5996H76.9775C78.7658 22.5996 80.2158 21.1399 80.2158 19.3396V12.7394C80.2158 10.9391 78.7663 9.47937 76.9775 9.47937Z" fill="#B9256A"/>
<path d="M75.1915 16.8078H75.6877C76.0474 16.8078 76.3308 16.7629 76.535 16.6737C76.7401 16.5839 76.8429 16.3728 76.8429 16.04C76.8429 15.5729 76.4577 15.3394 75.6877 15.3394H75.1915V14.855C75.1915 14.4525 75.2433 14.143 75.347 13.9269C75.4507 13.7108 75.6849 13.6027 76.0501 13.6027C76.1839 13.6027 76.3467 13.6178 76.5391 13.6476C76.7315 13.6774 76.867 13.6925 76.9466 13.6925C77.114 13.6925 77.2595 13.6256 77.3832 13.4915C77.5069 13.3573 77.5683 13.1957 77.5683 13.007C77.5683 12.426 76.9789 12.1353 75.7991 12.1353C75.1328 12.1353 74.6084 12.2209 74.2259 12.3926C73.8434 12.5638 73.5723 12.8372 73.4113 13.2122C73.2512 13.5876 73.1712 14.0931 73.1712 14.7291V15.3399H72.6895C72.0137 15.3399 71.6753 15.5835 71.6753 16.0702C71.6753 16.289 71.7567 16.4662 71.9195 16.6031C72.0824 16.74 72.3148 16.8083 72.6158 16.8083H73.1707V22.0651H75.1919V16.8078H75.1915Z" fill="white"/>
<path d="M58.3745 18.0848H51.4402C49.6368 18.0848 48.1692 19.8962 48.1692 22.1231V27.613C48.1692 29.84 49.6368 31.6513 51.4402 31.6513H58.3745C60.178 31.6513 61.6452 29.84 61.6452 27.613V22.1231C61.6452 19.8967 60.178 18.0848 58.3745 18.0848ZM60.9282 27.613C60.9282 29.3518 59.7826 30.7662 58.3745 30.7662H51.4402C50.0318 30.7662 48.8861 29.3518 48.8861 27.613V22.1231C48.8861 20.3848 50.0318 18.9699 51.4402 18.9699H58.3745C59.7826 18.9699 60.9282 20.3843 60.9282 22.1231V27.613Z" fill="#1E243C" stroke="#1E243C" stroke-width="0.5"/>
<path d="M74.7787 26.1763H67.4551C65.7563 26.1763 64.3789 27.8987 64.3789 30.023V35.896C64.3789 38.0204 65.7563 39.7428 67.4551 39.7428H74.7787C76.4775 39.7428 77.8549 38.0204 77.8549 35.896V30.023C77.8545 27.8987 76.4775 26.1763 74.7787 26.1763Z" fill="#E38FB5"/>
<path d="M73.9116 37.621H68.8146C67.8024 37.621 66.9788 36.7919 66.9788 35.7728V30.6415C66.9788 29.6226 67.8023 28.7933 68.8146 28.7933H73.9116C74.9238 28.7933 75.7475 29.6224 75.7475 30.6415V35.7728C75.7475 36.7919 74.924 37.621 73.9116 37.621ZM68.8146 29.426C68.1488 29.426 67.607 29.9714 67.607 30.6417V35.7729C67.607 36.4432 68.1486 36.9886 68.8146 36.9886H73.9116C74.5775 36.9886 75.1192 36.4432 75.1192 35.7729V30.6417C75.1192 29.9714 74.5776 29.426 73.9116 29.426H68.8146Z" fill="white" stroke="white" stroke-width="0.1"/>
<path d="M71.3453 35.348C70.1068 35.348 69.0994 34.3743 69.0994 33.1774C69.0994 31.9804 70.1068 31.0067 71.3453 31.0067C72.5838 31.0067 73.5914 31.9804 73.5914 33.1774C73.5914 34.3743 72.5838 35.348 71.3453 35.348ZM71.3453 31.634C70.4647 31.634 69.7484 32.3263 69.7484 33.1774C69.7484 34.0284 70.4647 34.7207 71.3453 34.7207C72.226 34.7207 72.9423 34.0284 72.9423 33.1774C72.9423 32.3263 72.2258 31.634 71.3453 31.634Z" fill="white" stroke="white" stroke-width="0.1"/>
<path d="M73.7384 30.2977C74.0229 30.2977 74.2535 30.5299 74.2535 30.8162C74.2535 31.1026 74.0229 31.3347 73.7384 31.3347C73.454 31.3347 73.2234 31.1026 73.2234 30.8162C73.2232 30.5299 73.4538 30.2977 73.7384 30.2977Z" fill="white"/>
<path d="M74.6687 26.261H67.7344C65.931 26.261 64.4634 28.0724 64.4634 30.2993V35.7892C64.4634 38.0161 65.931 39.8275 67.7344 39.8275H74.6687C76.4721 39.8275 77.9394 38.0161 77.9394 35.7892V30.2993C77.9394 28.0728 76.4721 26.261 74.6687 26.261ZM77.2224 35.7892C77.2224 37.528 76.0768 38.9424 74.6687 38.9424H67.7344C66.326 38.9424 65.1803 37.528 65.1803 35.7892V30.2993C65.1803 28.5609 66.326 27.1461 67.7344 27.1461H74.6687C76.0768 27.1461 77.2224 28.5605 77.2224 30.2993V35.7892Z" fill="#1E243C" stroke="#1E243C" stroke-width="0.5"/>
<path d="M76.8735 9.17236H69.6619C67.7863 9.17236 66.26 11.0562 66.26 13.3722V19.0817C66.26 21.3977 67.7863 23.2815 69.6619 23.2815H76.8735C78.7491 23.2815 80.275 21.3977 80.275 19.0817V13.3722C80.275 11.0567 78.7491 9.17236 76.8735 9.17236ZM79.5294 19.0817C79.5294 20.89 78.3379 22.361 76.8735 22.361H69.6619C68.1971 22.361 67.0056 20.89 67.0056 19.0817V13.3722C67.0056 11.5643 68.1971 10.0929 69.6619 10.0929H76.8735C78.3379 10.0929 79.5294 11.5639 79.5294 13.3722V19.0817Z" fill="#1E243C" stroke="#1E243C" stroke-width="0.5"/>
<path d="M52.9653 28.4316C52.6458 28.4316 52.3171 28.32 52.1691 28.0367C52.0998 27.8876 52.0652 27.7209 52.0652 27.5366C52.0652 27.3699 52.0998 27.2119 52.1691 27.0627C52.247 26.9048 52.3423 26.7556 52.4549 26.6152L54.8968 23.6669H52.6838C52.4641 23.6669 52.2628 23.5422 52.1821 23.3378C52.1388 23.1974 52.1171 23.0483 52.1171 22.8903C52.1171 22.6095 52.1778 22.4077 52.299 22.2849C52.4289 22.162 52.5934 22.1006 52.7926 22.1006H56.3996C56.7191 22.1006 57.0478 22.2122 57.1958 22.4955C57.2737 22.6446 57.3127 22.8157 57.3127 23.0088C57.3127 23.1667 57.2737 23.3247 57.1958 23.4826C57.1265 23.6318 57.0356 23.7766 56.923 23.917L54.5201 26.8785H56.8879C57.1125 26.8785 57.3244 26.9929 57.3906 27.2075C57.4339 27.3479 57.4556 27.4927 57.4556 27.6419C57.4556 27.9227 57.3906 28.1245 57.2607 28.2473C57.1395 28.3702 56.9793 28.4316 56.7802 28.4316H52.9653Z" fill="white"/>
</svg>
