<svg width="125" height="68" viewBox="0 0 125 68" fill="none" xmlns="http://www.w3.org/2000/svg">
<path d="M36.502 53.0098C36.502 53.8457 36.3613 54.5762 36.0801 55.2012C35.7988 55.8223 35.4004 56.2969 34.8848 56.625C34.3691 56.9531 33.7676 57.1172 33.0801 57.1172C32.4082 57.1172 31.8125 56.9531 31.293 56.625C30.7734 56.293 30.3691 55.8223 30.0801 55.2129C29.7949 54.5996 29.6484 53.8906 29.6406 53.0859V52.4707C29.6406 51.6504 29.7832 50.9258 30.0684 50.2969C30.3535 49.668 30.7559 49.1875 31.2754 48.8555C31.7988 48.5195 32.3965 48.3516 33.0684 48.3516C33.752 48.3516 34.3535 48.5176 34.873 48.8496C35.3965 49.1777 35.7988 49.6562 36.0801 50.2852C36.3613 50.9102 36.502 51.6387 36.502 52.4707V53.0098ZM35.3828 52.459C35.3828 51.4473 35.1797 50.6719 34.7734 50.1328C34.3672 49.5898 33.7988 49.3184 33.0684 49.3184C32.3574 49.3184 31.7969 49.5898 31.3867 50.1328C30.9805 50.6719 30.7715 51.4219 30.7598 52.3828V53.0098C30.7598 53.9902 30.9648 54.7617 31.375 55.3242C31.7891 55.8828 32.3574 56.1621 33.0801 56.1621C33.8066 56.1621 34.3691 55.8984 34.7676 55.3711C35.166 54.8398 35.3711 54.0801 35.3828 53.0918V52.459ZM39.0449 50.6602L39.0801 51.457C39.5645 50.8477 40.1973 50.543 40.9785 50.543C42.3184 50.543 42.9941 51.2988 43.0059 52.8105V57H41.9219V52.8047C41.918 52.3477 41.8125 52.0098 41.6055 51.791C41.4023 51.5723 41.084 51.4629 40.6504 51.4629C40.2988 51.4629 39.9902 51.5566 39.7246 51.7441C39.459 51.9316 39.252 52.1777 39.1035 52.4824V57H38.0195V50.6602H39.0449ZM51.0859 54.293C50.9805 55.1953 50.6465 55.8926 50.084 56.3848C49.5254 56.873 48.7812 57.1172 47.8516 57.1172C46.8438 57.1172 46.0352 56.7559 45.4258 56.0332C44.8203 55.3105 44.5176 54.3438 44.5176 53.1328V52.3125C44.5176 51.5195 44.6582 50.8223 44.9395 50.2207C45.2246 49.6191 45.627 49.1582 46.1465 48.8379C46.666 48.5137 47.2676 48.3516 47.9512 48.3516C48.8574 48.3516 49.584 48.6055 50.1309 49.1133C50.6777 49.6172 50.9961 50.3164 51.0859 51.2109H49.9551C49.8574 50.5312 49.6445 50.0391 49.3164 49.7344C48.9922 49.4297 48.5371 49.2773 47.9512 49.2773C47.2324 49.2773 46.668 49.543 46.2578 50.0742C45.8516 50.6055 45.6484 51.3613 45.6484 52.3418V53.168C45.6484 54.0938 45.8418 54.8301 46.2285 55.377C46.6152 55.9238 47.1562 56.1973 47.8516 56.1973C48.4766 56.1973 48.9551 56.0566 49.2871 55.7754C49.623 55.4902 49.8457 54.9961 49.9551 54.293H51.0859ZM56.3711 56.373C55.9492 56.8691 55.3301 57.1172 54.5137 57.1172C53.8379 57.1172 53.3223 56.9219 52.9668 56.5312C52.6152 56.1367 52.4375 55.5547 52.4336 54.7852V50.6602H53.5176V54.7559C53.5176 55.7168 53.9082 56.1973 54.6895 56.1973C55.5176 56.1973 56.0684 55.8887 56.3418 55.2715V50.6602H57.4258V57H56.3945L56.3711 56.373ZM62.7695 55.3184C62.7695 55.0254 62.6582 54.7988 62.4355 54.6387C62.2168 54.4746 61.832 54.334 61.2812 54.2168C60.7344 54.0996 60.2988 53.959 59.9746 53.7949C59.6543 53.6309 59.416 53.4355 59.2598 53.209C59.1074 52.9824 59.0312 52.7129 59.0312 52.4004C59.0312 51.8809 59.25 51.4414 59.6875 51.082C60.1289 50.7227 60.6914 50.543 61.375 50.543C62.0938 50.543 62.6758 50.7285 63.1211 51.0996C63.5703 51.4707 63.7949 51.9453 63.7949 52.5234H62.7051C62.7051 52.2266 62.5781 51.9707 62.3242 51.7559C62.0742 51.541 61.7578 51.4336 61.375 51.4336C60.9805 51.4336 60.6719 51.5195 60.4492 51.6914C60.2266 51.8633 60.1152 52.0879 60.1152 52.3652C60.1152 52.627 60.2188 52.8242 60.4258 52.957C60.6328 53.0898 61.0059 53.2168 61.5449 53.3379C62.0879 53.459 62.5273 53.6035 62.8633 53.7715C63.1992 53.9395 63.4473 54.1426 63.6074 54.3809C63.7715 54.6152 63.8535 54.9023 63.8535 55.2422C63.8535 55.8086 63.627 56.2637 63.1738 56.6074C62.7207 56.9473 62.1328 57.1172 61.4102 57.1172C60.9023 57.1172 60.4531 57.0273 60.0625 56.8477C59.6719 56.668 59.3652 56.418 59.1426 56.0977C58.9238 55.7734 58.8145 55.4238 58.8145 55.0488H59.8984C59.918 55.4121 60.0625 55.7012 60.332 55.916C60.6055 56.127 60.9648 56.2324 61.4102 56.2324C61.8203 56.2324 62.1484 56.1504 62.3945 55.9863C62.6445 55.8184 62.7695 55.5957 62.7695 55.3184ZM66.7363 49.125V50.6602H67.9199V51.498H66.7363V55.4297C66.7363 55.6836 66.7891 55.875 66.8945 56.0039C67 56.1289 67.1797 56.1914 67.4336 56.1914C67.5586 56.1914 67.7305 56.168 67.9492 56.1211V57C67.6641 57.0781 67.3867 57.1172 67.1172 57.1172C66.6328 57.1172 66.2676 56.9707 66.0215 56.6777C65.7754 56.3848 65.6523 55.9688 65.6523 55.4297V51.498H64.498V50.6602H65.6523V49.125H66.7363ZM68.7871 53.7715C68.7871 53.1504 68.9082 52.5918 69.1504 52.0957C69.3965 51.5996 69.7363 51.2168 70.1699 50.9473C70.6074 50.6777 71.1055 50.543 71.6641 50.543C72.5273 50.543 73.2246 50.8418 73.7559 51.4395C74.291 52.0371 74.5586 52.832 74.5586 53.8242V53.9004C74.5586 54.5176 74.4395 55.0723 74.2012 55.5645C73.9668 56.0527 73.6289 56.4336 73.1875 56.707C72.75 56.9805 72.2461 57.1172 71.6758 57.1172C70.8164 57.1172 70.1191 56.8184 69.584 56.2207C69.0527 55.623 68.7871 54.832 68.7871 53.8477V53.7715ZM69.877 53.9004C69.877 54.6035 70.0391 55.168 70.3633 55.5938C70.6914 56.0195 71.1289 56.2324 71.6758 56.2324C72.2266 56.2324 72.6641 56.0176 72.9883 55.5879C73.3125 55.1543 73.4746 54.5488 73.4746 53.7715C73.4746 53.0762 73.3086 52.5137 72.9766 52.084C72.6484 51.6504 72.2109 51.4336 71.6641 51.4336C71.1289 51.4336 70.6973 51.6465 70.3691 52.0723C70.041 52.498 69.877 53.1074 69.877 53.9004ZM76.9375 50.6602L76.9668 51.3633C77.4316 50.8164 78.0586 50.543 78.8477 50.543C79.7344 50.543 80.3379 50.8828 80.6582 51.5625C80.8691 51.2578 81.1426 51.0117 81.4785 50.8242C81.8184 50.6367 82.2188 50.543 82.6797 50.543C84.0703 50.543 84.7773 51.2793 84.8008 52.752V57H83.7168V52.8164C83.7168 52.3633 83.6133 52.0254 83.4062 51.8027C83.1992 51.5762 82.8516 51.4629 82.3633 51.4629C81.9609 51.4629 81.627 51.584 81.3613 51.8262C81.0957 52.0645 80.9414 52.3867 80.8984 52.793V57H79.8086V52.8457C79.8086 51.9238 79.3574 51.4629 78.4551 51.4629C77.7441 51.4629 77.2578 51.7656 76.9961 52.3711V57H75.9121V50.6602H76.9375ZM89.0723 57.1172C88.2129 57.1172 87.5137 56.8359 86.9746 56.2734C86.4355 55.707 86.166 54.9512 86.166 54.0059V53.8066C86.166 53.1777 86.2852 52.6172 86.5234 52.125C86.7656 51.6289 87.1016 51.2422 87.5312 50.9648C87.9648 50.6836 88.4336 50.543 88.9375 50.543C89.7617 50.543 90.4023 50.8145 90.8594 51.3574C91.3164 51.9004 91.5449 52.6777 91.5449 53.6895V54.1406H87.25C87.2656 54.7656 87.4473 55.2715 87.7949 55.6582C88.1465 56.041 88.5918 56.2324 89.1309 56.2324C89.5137 56.2324 89.8379 56.1543 90.1035 55.998C90.3691 55.8418 90.6016 55.6348 90.8008 55.377L91.4629 55.8926C90.9316 56.709 90.1348 57.1172 89.0723 57.1172ZM88.9375 51.4336C88.5 51.4336 88.1328 51.5938 87.8359 51.9141C87.5391 52.2305 87.3555 52.6758 87.2852 53.25H90.4609V53.168C90.4297 52.6172 90.2812 52.1914 90.0156 51.8906C89.75 51.5859 89.3906 51.4336 88.9375 51.4336ZM95.8691 51.6328C95.7051 51.6055 95.5273 51.5918 95.3359 51.5918C94.625 51.5918 94.1426 51.8945 93.8887 52.5V57H92.8047V50.6602H93.8594L93.877 51.3926C94.2324 50.8262 94.7363 50.543 95.3887 50.543C95.5996 50.543 95.7598 50.5703 95.8691 50.625V51.6328Z" fill="#1E243C"/>
<circle cx="63.3816" cy="25.0732" r="12.4292" fill="#E38FB5"/>
<path d="M75.5497 25.2747C75.5497 24.8234 75.5244 24.378 75.4777 23.9393C74.8111 30.1952 69.518 35.0683 63.0854 35.0683C56.6528 35.0683 51.3597 30.1949 50.6931 23.9393C50.6464 24.3783 50.6208 24.8236 50.6208 25.2747C50.6208 32.1587 56.2015 37.7393 63.0854 37.7393C65.6824 37.7393 68.0933 36.9443 70.0895 35.5854L70.0893 35.5859L75.2826 37.4389L73.4797 32.0502C75.2826 28.6987 75.4777 27.8298 75.5497 25.2747Z" fill="#E38FB5"/>
<path d="M52.1885 18.8029C51.9634 19.1941 51.7631 19.5927 51.5848 19.9962C55.2832 14.9068 62.3016 13.3239 67.8767 16.5328C73.4518 19.7417 75.6082 26.6058 73.0653 32.36C73.3247 32.0028 73.5691 31.6296 73.7941 31.2386C77.2281 25.2724 75.1754 17.6519 69.2091 14.2178C66.9583 12.9223 64.4723 12.4086 62.0643 12.5906L62.0647 12.5903L59.9052 12.7467L57.3625 13.9633C54.1281 15.9686 53.5255 16.6244 52.1885 18.8029Z" fill="white"/>
<path d="M74.1146 32.3181C75.4606 30.2151 76.1704 27.7869 76.1704 25.2748C76.1704 18.0596 70.3003 12.1896 63.0852 12.1896C55.8701 12.1896 50 18.0596 50 25.2748C50 32.4899 55.8701 38.3597 63.0852 38.3597C65.6154 38.3597 68.0591 37.6398 70.173 36.2746L75.0741 38.0233C75.2995 38.104 75.552 38.0474 75.7213 37.8776C75.8911 37.708 75.9475 37.4561 75.867 37.2302L74.1146 32.3181ZM70.2976 35.0013C70.1117 34.9345 69.9039 34.9613 69.74 35.0728C67.7731 36.4114 65.4722 37.1187 63.0852 37.1187C56.5543 37.1187 51.2413 31.8057 51.2413 25.275C51.2413 18.7443 56.5543 13.4311 63.0852 13.4311C69.6161 13.4311 74.9291 18.7443 74.9291 25.275C74.9291 27.6449 74.2318 29.9319 72.9118 31.8889C72.8015 32.0525 72.7752 32.2588 72.8418 32.4445L74.2581 36.4146L70.2976 35.0013Z" fill="#1E243C"/>
<mask id="path-6-inside-1" fill="white">
<path d="M71.4029 26.92C70.5568 30.9371 67.2865 33.9309 63.3813 33.9309C59.4761 33.9309 56.2059 30.9371 55.3598 26.92C55.2819 26.5503 55.5507 26.2162 55.9284 26.2162C56.2346 26.2162 56.5167 26.4395 56.5844 26.7381C57.3451 30.0925 60.0997 32.5774 63.3813 32.5774C66.6629 32.5774 69.4176 30.0925 70.1783 26.7381C70.246 26.4395 70.5028 26.2162 70.809 26.2162C71.1868 26.2162 71.4808 26.5503 71.4029 26.92Z"/>
</mask>
<path d="M71.4029 26.92L61.6176 24.8589L61.6176 24.8589L71.4029 26.92ZM55.3598 26.92L45.5745 28.9811L55.3598 26.92ZM56.5844 26.7381L66.3368 24.5265V24.5265L56.5844 26.7381ZM70.1783 26.7381L79.9306 28.9498L79.9306 28.9498L70.1783 26.7381ZM70.809 26.2162L70.8091 36.2162L70.809 26.2162ZM63.3813 43.9309C72.7405 43.9309 79.5252 36.8762 81.1882 28.9811L61.6176 24.8589C61.6236 24.8304 61.6663 24.6609 61.9077 24.4471C62.1745 24.2106 62.6963 23.9309 63.3813 23.9309V43.9309ZM45.5745 28.9811C47.2374 36.8762 54.0221 43.9309 63.3813 43.9309V23.9309C64.0663 23.9309 64.5881 24.2106 64.855 24.4471C65.0964 24.6609 65.139 24.8304 65.145 24.8589L45.5745 28.9811ZM63.3813 22.5774C64.3445 22.5774 65.128 22.9589 65.6076 23.3769C66.0615 23.7724 66.2627 24.1998 66.3368 24.5265L46.832 28.9498C48.4593 36.1255 54.716 42.5774 63.3813 42.5774V22.5774ZM60.4259 24.5265C60.5 24.1997 60.7012 23.7724 61.155 23.3769C61.6347 22.9589 62.4182 22.5774 63.3813 22.5774V42.5774C72.0467 42.5774 78.3033 36.1255 79.9306 28.9498L60.4259 24.5265ZM70.8091 36.2162C65.3917 36.2162 60.2738 31.2387 61.6176 24.8589L81.1882 28.9811C82.6877 21.8619 76.9818 16.2161 70.8089 16.2162L70.8091 36.2162ZM70.8089 16.2162C65.4191 16.2162 61.4325 20.0881 60.4259 24.5265L79.9306 28.9498C79.0595 32.791 75.5865 36.2162 70.8091 36.2162L70.8089 16.2162ZM55.9284 16.2162C49.1412 16.2162 44.1992 22.4519 45.5745 28.9811L65.145 24.8589C66.3646 30.6487 61.9602 36.2162 55.9284 36.2162V16.2162ZM55.9284 36.2162C51.6068 36.2162 47.8068 33.248 46.832 28.9498L66.3368 24.5265C65.2266 19.631 60.8624 16.2162 55.9284 16.2162V36.2162Z" fill="#1E243C" mask="url(#path-6-inside-1)"/>
</svg>
