<svg width="125" height="68" viewBox="0 0 125 68" fill="none" xmlns="http://www.w3.org/2000/svg">
<path d="M58.1008 34.5392L57.5507 34.9058C57.6719 34.526 57.6454 34.1144 57.4763 33.7533C57.3072 33.3922 57.0081 33.1082 56.6387 32.9581C56.2693 32.808 55.8568 32.8029 55.4838 32.9437C55.1108 33.0845 54.8047 33.361 54.6266 33.7177L53.579 35.813C53.5524 35.8662 53.5366 35.9242 53.5324 35.9836C53.5282 36.043 53.5357 36.1026 53.5546 36.1591C53.5926 36.2731 53.6745 36.3674 53.782 36.4211C53.8896 36.4748 54.0141 36.4836 54.1281 36.4455C54.1846 36.4267 54.2368 36.3969 54.2817 36.3579C54.3267 36.3188 54.3635 36.2713 54.3901 36.2181L55.4377 34.1228C55.5144 33.9701 55.646 33.8521 55.8061 33.7924C55.9662 33.7328 56.143 33.7359 56.3009 33.8012C56.4588 33.8665 56.5861 33.9891 56.6573 34.1444C56.7285 34.2997 56.7383 34.4762 56.6847 34.6385L56.2733 35.8723C56.2438 35.9617 56.2429 36.058 56.2707 36.1479C56.2985 36.2378 56.3535 36.3168 56.4283 36.374C56.503 36.4312 56.5936 36.4637 56.6877 36.467C56.7817 36.4703 56.8744 36.4443 56.953 36.3925L58.6015 35.2932C58.6619 35.253 58.7311 35.2278 58.8033 35.2198C58.8755 35.2119 58.9486 35.2215 59.0163 35.2477C59.0841 35.2739 59.1445 35.316 59.1926 35.3704C59.2406 35.4249 59.2749 35.4901 59.2925 35.5606L59.4338 36.1256C59.4585 36.2239 59.5153 36.3111 59.5953 36.3733C59.6753 36.4355 59.7739 36.4691 59.8752 36.4687H62.1408C62.261 36.4687 62.3762 36.4209 62.4612 36.3359C62.5462 36.251 62.5939 36.1357 62.5939 36.0155C62.5939 35.8954 62.5462 35.7801 62.4612 35.6951C62.3762 35.6101 62.261 35.5624 62.1408 35.5624H60.2291L60.1738 35.3408C60.121 35.1294 60.0182 34.9338 59.874 34.7705C59.7298 34.6072 59.5484 34.4809 59.3452 34.4023C59.142 34.3238 58.9228 34.2952 58.7063 34.319C58.4897 34.3428 58.282 34.4184 58.1008 34.5392Z" fill="#B9256A"/>
<path d="M22.4629 52.0098C22.4629 52.8457 22.3223 53.5762 22.041 54.2012C21.7598 54.8223 21.3613 55.2969 20.8457 55.625C20.3301 55.9531 19.7285 56.1172 19.041 56.1172C18.3691 56.1172 17.7734 55.9531 17.2539 55.625C16.7344 55.293 16.3301 54.8223 16.041 54.2129C15.7559 53.5996 15.6094 52.8906 15.6016 52.0859V51.4707C15.6016 50.6504 15.7441 49.9258 16.0293 49.2969C16.3145 48.668 16.7168 48.1875 17.2363 47.8555C17.7598 47.5195 18.3574 47.3516 19.0293 47.3516C19.7129 47.3516 20.3145 47.5176 20.834 47.8496C21.3574 48.1777 21.7598 48.6562 22.041 49.2852C22.3223 49.9102 22.4629 50.6387 22.4629 51.4707V52.0098ZM21.3438 51.459C21.3438 50.4473 21.1406 49.6719 20.7344 49.1328C20.3281 48.5898 19.7598 48.3184 19.0293 48.3184C18.3184 48.3184 17.7578 48.5898 17.3477 49.1328C16.9414 49.6719 16.7324 50.4219 16.7207 51.3828V52.0098C16.7207 52.9902 16.9258 53.7617 17.3359 54.3242C17.75 54.8828 18.3184 55.1621 19.041 55.1621C19.7676 55.1621 20.3301 54.8984 20.7285 54.3711C21.127 53.8398 21.332 53.0801 21.3438 52.0918V51.459ZM25.0059 49.6602L25.041 50.457C25.5254 49.8477 26.1582 49.543 26.9395 49.543C28.2793 49.543 28.9551 50.2988 28.9668 51.8105V56H27.8828V51.8047C27.8789 51.3477 27.7734 51.0098 27.5664 50.791C27.3633 50.5723 27.0449 50.4629 26.6113 50.4629C26.2598 50.4629 25.9512 50.5566 25.6855 50.7441C25.4199 50.9316 25.2129 51.1777 25.0645 51.4824V56H23.9805V49.6602H25.0059ZM30.9648 56V50.498H29.9629V49.6602H30.9648V49.1211C30.9648 48.4141 31.166 47.8633 31.5684 47.4688C31.9746 47.0742 32.5469 46.877 33.2852 46.877C33.7227 46.877 34.2754 46.9961 34.9434 47.2344L34.7617 48.1484C34.2734 47.9531 33.8086 47.8555 33.3672 47.8555C32.9023 47.8555 32.5664 47.9609 32.3594 48.1719C32.1562 48.3789 32.0547 48.6914 32.0547 49.1094V49.6602H33.3496V50.498H32.0547V56H30.9648ZM35.4824 56H34.3926V49.6602H35.4824V56ZM38.2715 49.6602L38.3066 50.457C38.791 49.8477 39.4238 49.543 40.2051 49.543C41.5449 49.543 42.2207 50.2988 42.2324 51.8105V56H41.1484V51.8047C41.1445 51.3477 41.0391 51.0098 40.832 50.791C40.6289 50.5723 40.3105 50.4629 39.877 50.4629C39.5254 50.4629 39.2168 50.5566 38.9512 50.7441C38.6855 50.9316 38.4785 51.1777 38.3301 51.4824V56H37.2461V49.6602H38.2715ZM47.7812 56C47.7188 55.875 47.668 55.6523 47.6289 55.332C47.125 55.8555 46.5234 56.1172 45.8242 56.1172C45.1992 56.1172 44.6855 55.9414 44.2832 55.5898C43.8848 55.2344 43.6855 54.7852 43.6855 54.2422C43.6855 53.582 43.9355 53.0703 44.4355 52.707C44.9395 52.3398 45.6465 52.1562 46.5566 52.1562H47.6113V51.6582C47.6113 51.2793 47.498 50.9785 47.2715 50.7559C47.0449 50.5293 46.7109 50.416 46.2695 50.416C45.8828 50.416 45.5586 50.5137 45.2969 50.709C45.0352 50.9043 44.9043 51.1406 44.9043 51.418H43.8145C43.8145 51.1016 43.9258 50.7969 44.1484 50.5039C44.375 50.207 44.6797 49.9727 45.0625 49.8008C45.4492 49.6289 45.873 49.543 46.334 49.543C47.0645 49.543 47.6367 49.7266 48.0508 50.0938C48.4648 50.457 48.6797 50.959 48.6953 51.5996V54.5176C48.6953 55.0996 48.7695 55.5625 48.918 55.9062V56H47.7812ZM45.9824 55.1738C46.3223 55.1738 46.6445 55.0859 46.9492 54.9102C47.2539 54.7344 47.4746 54.5059 47.6113 54.2246V52.9238H46.7617C45.4336 52.9238 44.7695 53.3125 44.7695 54.0898C44.7695 54.4297 44.8828 54.6953 45.1094 54.8867C45.3359 55.0781 45.627 55.1738 45.9824 55.1738ZM51.4199 49.6602L51.4551 50.457C51.9395 49.8477 52.5723 49.543 53.3535 49.543C54.6934 49.543 55.3691 50.2988 55.3809 51.8105V56H54.2969V51.8047C54.293 51.3477 54.1875 51.0098 53.9805 50.791C53.7773 50.5723 53.459 50.4629 53.0254 50.4629C52.6738 50.4629 52.3652 50.5566 52.0996 50.7441C51.834 50.9316 51.627 51.1777 51.4785 51.4824V56H50.3945V49.6602H51.4199ZM59.5586 55.2324C59.9453 55.2324 60.2832 55.1152 60.5723 54.8809C60.8613 54.6465 61.0215 54.3535 61.0527 54.002H62.0781C62.0586 54.3652 61.9336 54.7109 61.7031 55.0391C61.4727 55.3672 61.1641 55.6289 60.7773 55.8242C60.3945 56.0195 59.9883 56.1172 59.5586 56.1172C58.6953 56.1172 58.0078 55.8301 57.4961 55.2559C56.9883 54.6777 56.7344 53.8887 56.7344 52.8887V52.707C56.7344 52.0898 56.8477 51.541 57.0742 51.0605C57.3008 50.5801 57.625 50.207 58.0469 49.9414C58.4727 49.6758 58.9746 49.543 59.5527 49.543C60.2637 49.543 60.8535 49.7559 61.3223 50.1816C61.7949 50.6074 62.0469 51.1602 62.0781 51.8398H61.0527C61.0215 51.4297 60.8652 51.0938 60.584 50.832C60.3066 50.5664 59.9629 50.4336 59.5527 50.4336C59.002 50.4336 58.5742 50.6328 58.2695 51.0312C57.9688 51.4258 57.8184 51.998 57.8184 52.748V52.9531C57.8184 53.6836 57.9688 54.2461 58.2695 54.6406C58.5703 55.0352 59 55.2324 59.5586 55.2324ZM65.9277 56.1172C65.0684 56.1172 64.3691 55.8359 63.8301 55.2734C63.291 54.707 63.0215 53.9512 63.0215 53.0059V52.8066C63.0215 52.1777 63.1406 51.6172 63.3789 51.125C63.6211 50.6289 63.957 50.2422 64.3867 49.9648C64.8203 49.6836 65.2891 49.543 65.793 49.543C66.6172 49.543 67.2578 49.8145 67.7148 50.3574C68.1719 50.9004 68.4004 51.6777 68.4004 52.6895V53.1406H64.1055C64.1211 53.7656 64.3027 54.2715 64.6504 54.6582C65.002 55.041 65.4473 55.2324 65.9863 55.2324C66.3691 55.2324 66.6934 55.1543 66.959 54.998C67.2246 54.8418 67.457 54.6348 67.6562 54.377L68.3184 54.8926C67.7871 55.709 66.9902 56.1172 65.9277 56.1172ZM65.793 50.4336C65.3555 50.4336 64.9883 50.5938 64.6914 50.9141C64.3945 51.2305 64.2109 51.6758 64.1406 52.25H67.3164V52.168C67.2852 51.6172 67.1367 51.1914 66.8711 50.8906C66.6055 50.5859 66.2461 50.4336 65.793 50.4336ZM79.3691 52.0098C79.3691 52.8457 79.2285 53.5762 78.9473 54.2012C78.666 54.8223 78.2676 55.2969 77.752 55.625C77.2363 55.9531 76.6348 56.1172 75.9473 56.1172C75.2754 56.1172 74.6797 55.9531 74.1602 55.625C73.6406 55.293 73.2363 54.8223 72.9473 54.2129C72.6621 53.5996 72.5156 52.8906 72.5078 52.0859V51.4707C72.5078 50.6504 72.6504 49.9258 72.9355 49.2969C73.2207 48.668 73.623 48.1875 74.1426 47.8555C74.666 47.5195 75.2637 47.3516 75.9355 47.3516C76.6191 47.3516 77.2207 47.5176 77.7402 47.8496C78.2637 48.1777 78.666 48.6562 78.9473 49.2852C79.2285 49.9102 79.3691 50.6387 79.3691 51.4707V52.0098ZM78.25 51.459C78.25 50.4473 78.0469 49.6719 77.6406 49.1328C77.2344 48.5898 76.666 48.3184 75.9355 48.3184C75.2246 48.3184 74.6641 48.5898 74.2539 49.1328C73.8477 49.6719 73.6387 50.4219 73.627 51.3828V52.0098C73.627 52.9902 73.832 53.7617 74.2422 54.3242C74.6562 54.8828 75.2246 55.1621 75.9473 55.1621C76.6738 55.1621 77.2363 54.8984 77.6348 54.3711C78.0332 53.8398 78.2383 53.0801 78.25 52.0918V51.459ZM81.9121 49.6602L81.9473 50.457C82.4316 49.8477 83.0645 49.543 83.8457 49.543C85.1855 49.543 85.8613 50.2988 85.873 51.8105V56H84.7891V51.8047C84.7852 51.3477 84.6797 51.0098 84.4727 50.791C84.2695 50.5723 83.9512 50.4629 83.5176 50.4629C83.166 50.4629 82.8574 50.5566 82.5918 50.7441C82.3262 50.9316 82.1191 51.1777 81.9707 51.4824V56H80.8867V49.6602H81.9121ZM90.1914 52.1973C89.2266 51.9199 88.5234 51.5801 88.082 51.1777C87.6445 50.7715 87.4258 50.2715 87.4258 49.6777C87.4258 49.0059 87.6934 48.4512 88.2285 48.0137C88.7676 47.5723 89.4668 47.3516 90.3262 47.3516C90.9121 47.3516 91.4336 47.4648 91.8906 47.6914C92.3516 47.918 92.707 48.2305 92.957 48.6289C93.2109 49.0273 93.3379 49.4629 93.3379 49.9355H92.207C92.207 49.4199 92.043 49.0156 91.7148 48.7227C91.3867 48.4258 90.9238 48.2773 90.3262 48.2773C89.7715 48.2773 89.3379 48.4004 89.0254 48.6465C88.7168 48.8887 88.5625 49.2266 88.5625 49.6602C88.5625 50.0078 88.709 50.3027 89.002 50.5449C89.2988 50.7832 89.8008 51.002 90.5078 51.2012C91.2188 51.4004 91.7734 51.6211 92.1719 51.8633C92.5742 52.1016 92.8711 52.3809 93.0625 52.7012C93.2578 53.0215 93.3555 53.3984 93.3555 53.832C93.3555 54.5234 93.0859 55.0781 92.5469 55.4961C92.0078 55.9102 91.2871 56.1172 90.3848 56.1172C89.7988 56.1172 89.252 56.0059 88.7441 55.7832C88.2363 55.5566 87.8438 55.248 87.5664 54.8574C87.293 54.4668 87.1562 54.0234 87.1562 53.5273H88.2871C88.2871 54.043 88.4766 54.4512 88.8555 54.752C89.2383 55.0488 89.748 55.1973 90.3848 55.1973C90.9785 55.1973 91.4336 55.0762 91.75 54.834C92.0664 54.5918 92.2246 54.2617 92.2246 53.8438C92.2246 53.4258 92.0781 53.1035 91.7852 52.877C91.4922 52.6465 90.9609 52.4199 90.1914 52.1973ZM95.8105 56H94.7266V49.6602H95.8105V56ZM94.6387 47.9785C94.6387 47.8027 94.6914 47.6543 94.7969 47.5332C94.9062 47.4121 95.0664 47.3516 95.2773 47.3516C95.4883 47.3516 95.6484 47.4121 95.7578 47.5332C95.8672 47.6543 95.9219 47.8027 95.9219 47.9785C95.9219 48.1543 95.8672 48.3008 95.7578 48.418C95.6484 48.5352 95.4883 48.5938 95.2773 48.5938C95.0664 48.5938 94.9062 48.5352 94.7969 48.418C94.6914 48.3008 94.6387 48.1543 94.6387 47.9785ZM97.293 52.7773C97.293 51.7891 97.5215 51.0039 97.9785 50.4219C98.4355 49.8359 99.041 49.543 99.7949 49.543C100.568 49.543 101.172 49.8164 101.605 50.3633L101.658 49.6602H102.648V55.8477C102.648 56.668 102.404 57.3145 101.916 57.7871C101.432 58.2598 100.779 58.4961 99.959 58.4961C99.502 58.4961 99.0547 58.3984 98.6172 58.2031C98.1797 58.0078 97.8457 57.7402 97.6152 57.4004L98.1777 56.75C98.6426 57.3242 99.2109 57.6113 99.8828 57.6113C100.41 57.6113 100.82 57.4629 101.113 57.166C101.41 56.8691 101.559 56.4512 101.559 55.9121V55.3672C101.125 55.8672 100.533 56.1172 99.7832 56.1172C99.041 56.1172 98.4395 55.8184 97.9785 55.2207C97.5215 54.623 97.293 53.8086 97.293 52.7773ZM98.3828 52.9004C98.3828 53.6152 98.5293 54.1777 98.8223 54.5879C99.1152 54.9941 99.5254 55.1973 100.053 55.1973C100.736 55.1973 101.238 54.8867 101.559 54.2656V51.3711C101.227 50.7656 100.729 50.4629 100.064 50.4629C99.5371 50.4629 99.125 50.668 98.8281 51.0781C98.5312 51.4883 98.3828 52.0957 98.3828 52.9004ZM105.314 49.6602L105.35 50.457C105.834 49.8477 106.467 49.543 107.248 49.543C108.588 49.543 109.264 50.2988 109.275 51.8105V56H108.191V51.8047C108.188 51.3477 108.082 51.0098 107.875 50.791C107.672 50.5723 107.354 50.4629 106.92 50.4629C106.568 50.4629 106.26 50.5566 105.994 50.7441C105.729 50.9316 105.521 51.1777 105.373 51.4824V56H104.289V49.6602H105.314Z" fill="#1E243C"/>
<path d="M64 13.4H51C49.6052 13.4 48.4 14.4626 48.4 15.8621V39.1379C48.4 40.5374 49.6052 41.6 51 41.6H64C65.3948 41.6 66.6 40.5374 66.6 39.1379V15.8621C66.6 14.4626 65.3948 13.4 64 13.4Z" stroke="#1E243C" stroke-width="1.2"/>
<path d="M54.0378 16.25H54.0385L60.9615 16.25L60.9622 16.25C61.3234 16.2491 61.6754 16.1246 61.9402 15.8952C62.1404 15.7216 62.2795 15.497 62.3365 15.25H64.4231C64.5204 15.25 64.6078 15.2838 64.6673 15.3354L64.8307 15.1468L64.6673 15.3354C64.7256 15.3859 64.75 15.4462 64.75 15.5V39.5C64.75 39.5538 64.7256 39.6141 64.6673 39.6646C64.6078 39.7162 64.5204 39.75 64.4231 39.75H50.5769C50.4796 39.75 50.3922 39.7162 50.3327 39.6646C50.2744 39.6141 50.25 39.5538 50.25 39.5V15.5C50.25 15.4462 50.2744 15.3859 50.3327 15.3354C50.3922 15.2838 50.4796 15.25 50.5769 15.25H52.6635C52.7205 15.497 52.8596 15.7216 53.0598 15.8952C53.3246 16.1246 53.6766 16.2491 54.0378 16.25Z" stroke="#1E243C" stroke-width="0.5"/>
<path d="M67.578 26.9532C67.7036 26.9524 67.8276 26.9257 67.9423 26.8747C68.057 26.8237 68.1599 26.7496 68.2447 26.657C68.3294 26.5644 68.3941 26.4553 68.4347 26.3365C68.4753 26.2177 68.491 26.0919 68.4807 25.9668C68.4524 25.7354 68.3392 25.5228 68.1631 25.3701C67.9869 25.2175 67.7603 25.1357 67.5273 25.1407H67.2518L66.2051 26.9532H67.578Z" fill="white"/>
<mask id="path-6-outside-1" maskUnits="userSpaceOnUse" x="58.6001" y="14.7849" width="15" height="22" fill="black">
<rect fill="white" x="58.6001" y="14.7849" width="15" height="22"/>
<path fill-rule="evenodd" clip-rule="evenodd" d="M68.9375 16.7849L71.2938 18.1443L69.3453 21.5155L67.2519 25.1405L64.5 30L64.4525 29.9921L63.5907 31.4843L60.6001 33.9448L61.2345 30.1249L61.5 29.5L64.8594 23.8446L66.2052 21.5155L68.9375 16.7849Z"/>
</mask>
<path fill-rule="evenodd" clip-rule="evenodd" d="M68.9375 16.7849L71.2938 18.1443L69.3453 21.5155L67.2519 25.1405L64.5 30L64.4525 29.9921L63.5907 31.4843L60.6001 33.9448L61.2345 30.1249L61.5 29.5L64.8594 23.8446L66.2052 21.5155L68.9375 16.7849Z" fill="white"/>
<path d="M71.2938 18.1443L72.1596 18.6447L72.6604 17.7782L71.7935 17.2781L71.2938 18.1443ZM68.9375 16.7849L69.4373 15.9187L68.5715 15.4193L68.0716 16.2848L68.9375 16.7849ZM69.3453 21.5155L68.4795 21.0151L68.4794 21.0154L69.3453 21.5155ZM67.2519 25.1405L66.3859 24.6404L66.3817 24.6478L67.2519 25.1405ZM64.5 30L64.3356 30.9864L65.0255 31.1014L65.3702 30.4928L64.5 30ZM64.4525 29.9921L64.6169 29.0057L63.9332 28.8917L63.5865 29.492L64.4525 29.9921ZM63.5907 31.4843L64.2261 32.2565L64.366 32.1414L64.4567 31.9844L63.5907 31.4843ZM60.6001 33.9448L59.6136 33.7809L59.1769 36.4106L61.2354 34.717L60.6001 33.9448ZM61.2345 30.1249L60.3141 29.7339L60.2675 29.8435L60.248 29.9611L61.2345 30.1249ZM61.5 29.5L60.6402 28.9893L60.6059 29.0471L60.5796 29.1089L61.5 29.5ZM64.8594 23.8446L65.7192 24.3553L65.7253 24.3449L64.8594 23.8446ZM66.2052 21.5155L67.071 22.0158L67.0711 22.0157L66.2052 21.5155ZM71.7935 17.2781L69.4373 15.9187L68.4378 17.6511L70.7941 19.0105L71.7935 17.2781ZM70.2111 22.0159L72.1596 18.6447L70.428 17.6439L68.4795 21.0151L70.2111 22.0159ZM68.1179 25.6406L70.2113 22.0156L68.4794 21.0154L66.3859 24.6404L68.1179 25.6406ZM65.3702 30.4928L68.1221 25.6333L66.3817 24.6478L63.6298 29.5072L65.3702 30.4928ZM64.2881 30.9785L64.3356 30.9864L64.6644 29.0136L64.6169 29.0057L64.2881 30.9785ZM64.4567 31.9844L65.3185 30.4922L63.5865 29.492L62.7248 30.9842L64.4567 31.9844ZM61.2354 34.717L64.2261 32.2565L62.9554 30.7121L59.9648 33.1725L61.2354 34.717ZM60.248 29.9611L59.6136 33.7809L61.5866 34.1086L62.221 30.2888L60.248 29.9611ZM60.5796 29.1089L60.3141 29.7339L62.1548 30.516L62.4204 29.8911L60.5796 29.1089ZM63.9996 23.3339L60.6402 28.9893L62.3598 30.0107L65.7192 24.3553L63.9996 23.3339ZM65.3393 21.0152L63.9936 23.3443L65.7253 24.3449L67.071 22.0158L65.3393 21.0152ZM68.0716 16.2848L65.3392 21.0154L67.0711 22.0157L69.8035 17.2851L68.0716 16.2848Z" fill="#1E243C" mask="url(#path-6-outside-1)"/>
<path d="M68.5045 16.5327L68.2544 16.9659L68.6876 17.2158L71.0439 18.5752L71.4768 18.825L71.7268 18.3921L72.8596 16.4301L72.8597 16.4299C72.9817 16.2184 73.0609 15.9848 73.0927 15.7426C73.1245 15.5004 73.1083 15.2543 73.045 15.0184C72.9817 14.7824 72.8726 14.5613 72.7238 14.3675C72.575 14.1738 72.3896 14.0112 72.178 13.8892C71.7507 13.6426 71.2429 13.576 70.7664 13.7038C70.29 13.8316 69.8838 14.1435 69.6373 14.5707C69.6373 14.5707 69.6372 14.5708 69.6372 14.5708L68.5045 16.5327Z" fill="white" stroke="#1E243C"/>
<path d="M60 18H53C52.4477 18 52 18.4477 52 19V22C52 22.5523 52.4477 23 53 23H60C60.5523 23 61 22.5523 61 22V19C61 18.4477 60.5523 18 60 18Z" fill="#E38FB5" stroke="#1E243C" stroke-width="0.5"/>
<path d="M59.3846 25H52.6154C52.4522 25 52.2956 25.0527 52.1802 25.1464C52.0648 25.2402 52 25.3674 52 25.5C52 25.6326 52.0648 25.7598 52.1802 25.8536C52.2956 25.9473 52.4522 26 52.6154 26H59.3846C59.5478 26 59.7044 25.9473 59.8198 25.8536C59.9352 25.7598 60 25.6326 60 25.5C60 25.3674 59.9352 25.2402 59.8198 25.1464C59.7044 25.0527 59.5478 25 59.3846 25Z" fill="#E38FB5" stroke="#1E243C" stroke-width="0.5"/>
<path d="M52.6 28H57.4C57.5591 28 57.7117 27.9473 57.8243 27.8536C57.9368 27.7598 58 27.6326 58 27.5C58 27.3674 57.9368 27.2402 57.8243 27.1464C57.7117 27.0527 57.5591 27 57.4 27H52.6C52.4409 27 52.2883 27.0527 52.1757 27.1464C52.0632 27.2402 52 27.3674 52 27.5C52 27.6326 52.0632 27.7598 52.1757 27.8536C52.2883 27.9473 52.4409 28 52.6 28Z" fill="#E38FB5" stroke="#1E243C" stroke-width="0.5"/>
<path d="M52.4 30H55.6C55.7061 30 55.8078 29.9473 55.8828 29.8536C55.9579 29.7598 56 29.6326 56 29.5C56 29.3674 55.9579 29.2402 55.8828 29.1464C55.8078 29.0527 55.7061 29 55.6 29H52.4C52.2939 29 52.1922 29.0527 52.1172 29.1464C52.0421 29.2402 52 29.3674 52 29.5C52 29.6326 52.0421 29.7598 52.1172 29.8536C52.1922 29.9473 52.2939 30 52.4 30Z" fill="#E38FB5" stroke="#1E243C" stroke-width="0.5"/>
</svg>

