<svg width="125" height="68" viewBox="0 0 125 68" fill="none" xmlns="http://www.w3.org/2000/svg">
<path d="M22.5918 52.0098C22.5918 52.8457 22.4512 53.5762 22.1699 54.2012C21.8887 54.8223 21.4902 55.2969 20.9746 55.625C20.459 55.9531 19.8574 56.1172 19.1699 56.1172C18.498 56.1172 17.9023 55.9531 17.3828 55.625C16.8633 55.293 16.459 54.8223 16.1699 54.2129C15.8848 53.5996 15.7383 52.8906 15.7305 52.0859V51.4707C15.7305 50.6504 15.873 49.9258 16.1582 49.2969C16.4434 48.668 16.8457 48.1875 17.3652 47.8555C17.8887 47.5195 18.4863 47.3516 19.1582 47.3516C19.8418 47.3516 20.4434 47.5176 20.9629 47.8496C21.4863 48.1777 21.8887 48.6562 22.1699 49.2852C22.4512 49.9102 22.5918 50.6387 22.5918 51.4707V52.0098ZM21.4727 51.459C21.4727 50.4473 21.2695 49.6719 20.8633 49.1328C20.457 48.5898 19.8887 48.3184 19.1582 48.3184C18.4473 48.3184 17.8867 48.5898 17.4766 49.1328C17.0703 49.6719 16.8613 50.4219 16.8496 51.3828V52.0098C16.8496 52.9902 17.0547 53.7617 17.4648 54.3242C17.8789 54.8828 18.4473 55.1621 19.1699 55.1621C19.8965 55.1621 20.459 54.8984 20.8574 54.3711C21.2559 53.8398 21.4609 53.0801 21.4727 52.0918V51.459ZM25.1348 49.6602L25.1699 50.457C25.6543 49.8477 26.2871 49.543 27.0684 49.543C28.4082 49.543 29.084 50.2988 29.0957 51.8105V56H28.0117V51.8047C28.0078 51.3477 27.9023 51.0098 27.6953 50.791C27.4922 50.5723 27.1738 50.4629 26.7402 50.4629C26.3887 50.4629 26.0801 50.5566 25.8145 50.7441C25.5488 50.9316 25.3418 51.1777 25.1934 51.4824V56H24.1094V49.6602H25.1348ZM31.0938 56V50.498H30.0918V49.6602H31.0938V49.1211C31.0938 48.4141 31.2949 47.8633 31.6973 47.4688C32.1035 47.0742 32.6758 46.877 33.4141 46.877C33.8516 46.877 34.4043 46.9961 35.0723 47.2344L34.8906 48.1484C34.4023 47.9531 33.9375 47.8555 33.4961 47.8555C33.0312 47.8555 32.6953 47.9609 32.4883 48.1719C32.2852 48.3789 32.1836 48.6914 32.1836 49.1094V49.6602H33.4785V50.498H32.1836V56H31.0938ZM35.6113 56H34.5215V49.6602H35.6113V56ZM38.4004 49.6602L38.4355 50.457C38.9199 49.8477 39.5527 49.543 40.334 49.543C41.6738 49.543 42.3496 50.2988 42.3613 51.8105V56H41.2773V51.8047C41.2734 51.3477 41.168 51.0098 40.9609 50.791C40.7578 50.5723 40.4395 50.4629 40.0059 50.4629C39.6543 50.4629 39.3457 50.5566 39.0801 50.7441C38.8145 50.9316 38.6074 51.1777 38.459 51.4824V56H37.375V49.6602H38.4004ZM47.9102 56C47.8477 55.875 47.7969 55.6523 47.7578 55.332C47.2539 55.8555 46.6523 56.1172 45.9531 56.1172C45.3281 56.1172 44.8145 55.9414 44.4121 55.5898C44.0137 55.2344 43.8145 54.7852 43.8145 54.2422C43.8145 53.582 44.0645 53.0703 44.5645 52.707C45.0684 52.3398 45.7754 52.1562 46.6855 52.1562H47.7402V51.6582C47.7402 51.2793 47.627 50.9785 47.4004 50.7559C47.1738 50.5293 46.8398 50.416 46.3984 50.416C46.0117 50.416 45.6875 50.5137 45.4258 50.709C45.1641 50.9043 45.0332 51.1406 45.0332 51.418H43.9434C43.9434 51.1016 44.0547 50.7969 44.2773 50.5039C44.5039 50.207 44.8086 49.9727 45.1914 49.8008C45.5781 49.6289 46.002 49.543 46.4629 49.543C47.1934 49.543 47.7656 49.7266 48.1797 50.0938C48.5938 50.457 48.8086 50.959 48.8242 51.5996V54.5176C48.8242 55.0996 48.8984 55.5625 49.0469 55.9062V56H47.9102ZM46.1113 55.1738C46.4512 55.1738 46.7734 55.0859 47.0781 54.9102C47.3828 54.7344 47.6035 54.5059 47.7402 54.2246V52.9238H46.8906C45.5625 52.9238 44.8984 53.3125 44.8984 54.0898C44.8984 54.4297 45.0117 54.6953 45.2383 54.8867C45.4648 55.0781 45.7559 55.1738 46.1113 55.1738ZM51.5488 49.6602L51.584 50.457C52.0684 49.8477 52.7012 49.543 53.4824 49.543C54.8223 49.543 55.498 50.2988 55.5098 51.8105V56H54.4258V51.8047C54.4219 51.3477 54.3164 51.0098 54.1094 50.791C53.9062 50.5723 53.5879 50.4629 53.1543 50.4629C52.8027 50.4629 52.4941 50.5566 52.2285 50.7441C51.9629 50.9316 51.7559 51.1777 51.6074 51.4824V56H50.5234V49.6602H51.5488ZM59.6875 55.2324C60.0742 55.2324 60.4121 55.1152 60.7012 54.8809C60.9902 54.6465 61.1504 54.3535 61.1816 54.002H62.207C62.1875 54.3652 62.0625 54.7109 61.832 55.0391C61.6016 55.3672 61.293 55.6289 60.9062 55.8242C60.5234 56.0195 60.1172 56.1172 59.6875 56.1172C58.8242 56.1172 58.1367 55.8301 57.625 55.2559C57.1172 54.6777 56.8633 53.8887 56.8633 52.8887V52.707C56.8633 52.0898 56.9766 51.541 57.2031 51.0605C57.4297 50.5801 57.7539 50.207 58.1758 49.9414C58.6016 49.6758 59.1035 49.543 59.6816 49.543C60.3926 49.543 60.9824 49.7559 61.4512 50.1816C61.9238 50.6074 62.1758 51.1602 62.207 51.8398H61.1816C61.1504 51.4297 60.9941 51.0938 60.7129 50.832C60.4355 50.5664 60.0918 50.4336 59.6816 50.4336C59.1309 50.4336 58.7031 50.6328 58.3984 51.0312C58.0977 51.4258 57.9473 51.998 57.9473 52.748V52.9531C57.9473 53.6836 58.0977 54.2461 58.3984 54.6406C58.6992 55.0352 59.1289 55.2324 59.6875 55.2324ZM66.0566 56.1172C65.1973 56.1172 64.498 55.8359 63.959 55.2734C63.4199 54.707 63.1504 53.9512 63.1504 53.0059V52.8066C63.1504 52.1777 63.2695 51.6172 63.5078 51.125C63.75 50.6289 64.0859 50.2422 64.5156 49.9648C64.9492 49.6836 65.418 49.543 65.9219 49.543C66.7461 49.543 67.3867 49.8145 67.8438 50.3574C68.3008 50.9004 68.5293 51.6777 68.5293 52.6895V53.1406H64.2344C64.25 53.7656 64.4316 54.2715 64.7793 54.6582C65.1309 55.041 65.5762 55.2324 66.1152 55.2324C66.498 55.2324 66.8223 55.1543 67.0879 54.998C67.3535 54.8418 67.5859 54.6348 67.7852 54.377L68.4473 54.8926C67.916 55.709 67.1191 56.1172 66.0566 56.1172ZM65.9219 50.4336C65.4844 50.4336 65.1172 50.5938 64.8203 50.9141C64.5234 51.2305 64.3398 51.6758 64.2695 52.25H67.4453V52.168C67.4141 51.6172 67.2656 51.1914 67 50.8906C66.7344 50.5859 66.375 50.4336 65.9219 50.4336ZM74.1426 56H73.0176V47.4688H74.1426V56ZM77.0605 49.6602L77.0957 50.457C77.5801 49.8477 78.2129 49.543 78.9941 49.543C80.334 49.543 81.0098 50.2988 81.0215 51.8105V56H79.9375V51.8047C79.9336 51.3477 79.8281 51.0098 79.6211 50.791C79.418 50.5723 79.0996 50.4629 78.666 50.4629C78.3145 50.4629 78.0059 50.5566 77.7402 50.7441C77.4746 50.9316 77.2676 51.1777 77.1191 51.4824V56H76.0352V49.6602H77.0605ZM84.748 54.5293L86.3184 49.6602H87.4258L85.1523 56H84.3262L82.0293 49.6602H83.1367L84.748 54.5293ZM88.0879 52.7715C88.0879 52.1504 88.209 51.5918 88.4512 51.0957C88.6973 50.5996 89.0371 50.2168 89.4707 49.9473C89.9082 49.6777 90.4062 49.543 90.9648 49.543C91.8281 49.543 92.5254 49.8418 93.0566 50.4395C93.5918 51.0371 93.8594 51.832 93.8594 52.8242V52.9004C93.8594 53.5176 93.7402 54.0723 93.502 54.5645C93.2676 55.0527 92.9297 55.4336 92.4883 55.707C92.0508 55.9805 91.5469 56.1172 90.9766 56.1172C90.1172 56.1172 89.4199 55.8184 88.8848 55.2207C88.3535 54.623 88.0879 53.832 88.0879 52.8477V52.7715ZM89.1777 52.9004C89.1777 53.6035 89.3398 54.168 89.6641 54.5938C89.9922 55.0195 90.4297 55.2324 90.9766 55.2324C91.5273 55.2324 91.9648 55.0176 92.2891 54.5879C92.6133 54.1543 92.7754 53.5488 92.7754 52.7715C92.7754 52.0762 92.6094 51.5137 92.2773 51.084C91.9492 50.6504 91.5117 50.4336 90.9648 50.4336C90.4297 50.4336 89.998 50.6465 89.6699 51.0723C89.3418 51.498 89.1777 52.1074 89.1777 52.9004ZM96.3965 56H95.3125V49.6602H96.3965V56ZM95.2246 47.9785C95.2246 47.8027 95.2773 47.6543 95.3828 47.5332C95.4922 47.4121 95.6523 47.3516 95.8633 47.3516C96.0742 47.3516 96.2344 47.4121 96.3438 47.5332C96.4531 47.6543 96.5078 47.8027 96.5078 47.9785C96.5078 48.1543 96.4531 48.3008 96.3438 48.418C96.2344 48.5352 96.0742 48.5938 95.8633 48.5938C95.6523 48.5938 95.4922 48.5352 95.3828 48.418C95.2773 48.3008 95.2246 48.1543 95.2246 47.9785ZM100.68 55.2324C101.066 55.2324 101.404 55.1152 101.693 54.8809C101.982 54.6465 102.143 54.3535 102.174 54.002H103.199C103.18 54.3652 103.055 54.7109 102.824 55.0391C102.594 55.3672 102.285 55.6289 101.898 55.8242C101.516 56.0195 101.109 56.1172 100.68 56.1172C99.8164 56.1172 99.1289 55.8301 98.6172 55.2559C98.1094 54.6777 97.8555 53.8887 97.8555 52.8887V52.707C97.8555 52.0898 97.9688 51.541 98.1953 51.0605C98.4219 50.5801 98.7461 50.207 99.168 49.9414C99.5938 49.6758 100.096 49.543 100.674 49.543C101.385 49.543 101.975 49.7559 102.443 50.1816C102.916 50.6074 103.168 51.1602 103.199 51.8398H102.174C102.143 51.4297 101.986 51.0938 101.705 50.832C101.428 50.5664 101.084 50.4336 100.674 50.4336C100.123 50.4336 99.6953 50.6328 99.3906 51.0312C99.0898 51.4258 98.9395 51.998 98.9395 52.748V52.9531C98.9395 53.6836 99.0898 54.2461 99.3906 54.6406C99.6914 55.0352 100.121 55.2324 100.68 55.2324ZM107.049 56.1172C106.189 56.1172 105.49 55.8359 104.951 55.2734C104.412 54.707 104.143 53.9512 104.143 53.0059V52.8066C104.143 52.1777 104.262 51.6172 104.5 51.125C104.742 50.6289 105.078 50.2422 105.508 49.9648C105.941 49.6836 106.41 49.543 106.914 49.543C107.738 49.543 108.379 49.8145 108.836 50.3574C109.293 50.9004 109.521 51.6777 109.521 52.6895V53.1406H105.227C105.242 53.7656 105.424 54.2715 105.771 54.6582C106.123 55.041 106.568 55.2324 107.107 55.2324C107.49 55.2324 107.814 55.1543 108.08 54.998C108.346 54.8418 108.578 54.6348 108.777 54.377L109.439 54.8926C108.908 55.709 108.111 56.1172 107.049 56.1172ZM106.914 50.4336C106.477 50.4336 106.109 50.5938 105.812 50.9141C105.516 51.2305 105.332 51.6758 105.262 52.25H108.438V52.168C108.406 51.6172 108.258 51.1914 107.992 50.8906C107.727 50.5859 107.367 50.4336 106.914 50.4336Z" fill="#1E243C"/>
<g clip-path="url(#clip0)">
<path d="M68.7417 17.7051V17.8205C68.7189 17.814 68.6957 17.808 68.6724 17.802C68.6957 17.7446 68.7189 17.7116 68.7417 17.7051Z" fill="#D6F4FC"/>
<path d="M73.9417 31.4417V36.9667C73.9417 38.4025 72.7783 39.5667 71.3417 39.5667C69.9057 39.5667 68.7417 38.4027 68.7417 36.9667V30.1417H72.6417C73.3594 30.1417 73.9417 30.724 73.9417 31.4417Z" fill="#E38FB5"/>
<path d="M72.5874 22.8833C72.5874 25.7865 70.2333 28.1375 67.3332 28.1375C63.4093 28.1375 60.8755 23.9819 62.6494 20.5C63.5195 18.7942 65.2925 17.6292 67.3332 17.6292C70.2327 17.6292 72.5874 19.9796 72.5874 22.8833Z" fill="#B9256A"/>
<path d="M69.7233 18.1957C70.502 18.5891 70.2388 19.7741 69.3666 19.7974C66.5515 19.8727 64.3278 22.1254 64.2477 24.8978C64.2225 25.7698 63.0451 26.0426 62.649 25.2654C61.8884 23.7728 61.889 21.993 62.6496 20.5001C64.0578 17.7391 67.2954 16.9691 69.7233 18.1957Z" fill="#B9256A"/>
<path d="M61.6458 22.8833C61.6458 26.0194 64.1972 28.5708 67.3333 28.5708C70.4694 28.5708 73.0208 26.0194 73.0208 22.8833C73.0208 19.7472 70.4694 17.1958 67.3333 17.1958C64.1972 17.1958 61.6458 19.7472 61.6458 22.8833ZM72.1542 22.8833C72.1542 25.5416 69.9916 27.7042 67.3333 27.7042C64.6751 27.7042 62.5125 25.5416 62.5125 22.8833C62.5125 20.2251 64.6751 18.0625 67.3333 18.0625C69.9916 18.0625 72.1542 20.2251 72.1542 22.8833ZM67.3333 19.9583C67.5726 19.9583 67.7667 20.1524 67.7667 20.3917V20.5745C68.271 20.7534 68.6333 21.2351 68.6333 21.8C68.6333 22.0393 68.4393 22.2333 68.2 22.2333C67.9607 22.2333 67.7667 22.0393 67.7667 21.8C67.7667 21.5611 67.5723 21.3667 67.3333 21.3667C67.0944 21.3667 66.9 21.5611 66.9 21.8V21.9753C66.9 22.1659 67.0222 22.3321 67.2041 22.389L67.7211 22.5505C68.2667 22.721 68.6333 23.2197 68.6333 23.7913V23.9667C68.6333 24.5906 68.1914 25.1132 67.6042 25.2381V25.375C67.6042 25.6143 67.4101 25.8083 67.1708 25.8083C66.9315 25.8083 66.7375 25.6143 66.7375 25.375V25.1215C66.3197 24.9051 66.0333 24.4688 66.0333 23.9667C66.0333 23.7274 66.2274 23.5333 66.4667 23.5333C66.706 23.5333 66.9 23.7274 66.9 23.9667C66.9 24.2056 67.0944 24.4 67.3333 24.4C67.5723 24.4 67.7667 24.2056 67.7667 23.9667V23.7913C67.7667 23.6008 67.6445 23.4346 67.4626 23.3777L66.9456 23.2162C66.3999 23.0456 66.0333 22.547 66.0333 21.9753V21.8C66.0333 21.2351 66.3957 20.7534 66.9 20.5745V20.3917C66.9 20.1524 67.094 19.9583 67.3333 19.9583ZM74.375 31.4417V36.9667C74.375 38.6393 73.0142 40 71.3417 40H54.6583C52.9858 40 51.625 38.6393 51.625 36.9667V15.7333C51.625 14.7776 52.4026 14 53.3583 14H67.4417C68.3974 14 69.175 14.7776 69.175 15.7333C69.175 15.9726 68.981 16.1667 68.7417 16.1667C68.5024 16.1667 68.3083 15.9726 68.3083 15.7333C68.3083 15.2555 67.9195 14.8667 67.4417 14.8667H53.3583C52.8805 14.8667 52.4917 15.2555 52.4917 15.7333V36.9667C52.4917 38.1614 53.4636 39.1333 54.6583 39.1333H69.2217C68.6586 38.5823 68.3083 37.8148 68.3083 36.9667V30.1958C68.3083 29.9565 68.5024 29.7625 68.7417 29.7625C68.981 29.7625 69.175 29.9565 69.175 30.1958V36.9667C69.175 38.1614 70.147 39.1333 71.3417 39.1333C72.5364 39.1333 73.5083 38.1614 73.5083 36.9667V31.4417C73.5083 30.9638 73.1195 30.575 72.6417 30.575H70.8C70.5607 30.575 70.3667 30.381 70.3667 30.1417C70.3667 29.9024 70.5607 29.7083 70.8 29.7083H72.6417C73.5974 29.7083 74.375 30.4859 74.375 31.4417Z" fill="#1E243C" stroke="black" stroke-width="0.5"/>
<path d="M67.3333 19.9879C67.5799 19.9879 67.7798 20.1813 67.7798 20.4198V20.602C68.2994 20.7804 68.6727 21.2604 68.6727 21.8234C68.6727 22.0619 68.4728 22.2553 68.2262 22.2553C67.9797 22.2553 67.7798 22.0619 67.7798 21.8234C67.7798 21.5853 67.5795 21.3915 67.3333 21.3915C67.0871 21.3915 66.8868 21.5853 66.8868 21.8234V21.9981C66.8868 22.188 67.0127 22.3537 67.2001 22.4104L67.7328 22.5713C68.295 22.7413 68.6727 23.2383 68.6727 23.808V23.9828C68.6727 24.6046 68.2174 25.1254 67.6123 25.2499V25.3863C67.6123 25.6248 67.4124 25.8182 67.1659 25.8182C66.9193 25.8182 66.7194 25.6248 66.7194 25.3863V25.1337C66.2889 24.918 65.9939 24.4832 65.9939 23.9828C65.9939 23.7442 66.1938 23.5509 66.4404 23.5509C66.6869 23.5509 66.8868 23.7442 66.8868 23.9828C66.8868 24.2209 67.0871 24.4146 67.3333 24.4146C67.5795 24.4146 67.7798 24.2209 67.7798 23.9828V23.808C67.7798 23.6181 67.6539 23.4525 67.4665 23.3958L66.9338 23.2348C66.3716 23.0648 65.9939 22.5678 65.9939 21.9981V21.8234C65.9939 21.2604 66.3672 20.7804 66.8868 20.602V20.4198C66.8868 20.1813 67.0867 19.9879 67.3333 19.9879Z" fill="white"/>
<rect x="54.5348" y="19.8742" width="5.42727" height="1.72424" rx="0.862122" fill="#E38FB5" stroke="#1E243C" stroke-width="0.7"/>
<rect x="54.5348" y="24.6015" width="5.42727" height="1.72424" rx="0.862122" fill="#E38FB5" stroke="#1E243C" stroke-width="0.7"/>
<rect x="54.5348" y="29.1712" width="11.4151" height="1.72425" rx="0.862126" fill="#E38FB5" stroke="#1E243C" stroke-width="0.7"/>
<rect x="54.5348" y="33.6621" width="11.4151" height="1.72424" rx="0.862121" fill="#E38FB5" stroke="#1E243C" stroke-width="0.7"/>
</g>
<defs>
<clipPath id="clip0">
<rect width="26" height="26" fill="white" transform="translate(50 14)"/>
</clipPath>
</defs>
</svg>
