<svg width="125" height="68" viewBox="0 0 125 68" fill="none" xmlns="http://www.w3.org/2000/svg">
<path d="M20.6641 53.0098C20.6641 53.8457 20.5234 54.5762 20.2422 55.2012C19.9609 55.8223 19.5625 56.2969 19.0469 56.625C18.5312 56.9531 17.9297 57.1172 17.2422 57.1172C16.5703 57.1172 15.9746 56.9531 15.4551 56.625C14.9355 56.293 14.5312 55.8223 14.2422 55.2129C13.957 54.5996 13.8105 53.8906 13.8027 53.0859V52.4707C13.8027 51.6504 13.9453 50.9258 14.2305 50.2969C14.5156 49.668 14.918 49.1875 15.4375 48.8555C15.9609 48.5195 16.5586 48.3516 17.2305 48.3516C17.9141 48.3516 18.5156 48.5176 19.0352 48.8496C19.5586 49.1777 19.9609 49.6562 20.2422 50.2852C20.5234 50.9102 20.6641 51.6387 20.6641 52.4707V53.0098ZM19.5449 52.459C19.5449 51.4473 19.3418 50.6719 18.9355 50.1328C18.5293 49.5898 17.9609 49.3184 17.2305 49.3184C16.5195 49.3184 15.959 49.5898 15.5488 50.1328C15.1426 50.6719 14.9336 51.4219 14.9219 52.3828V53.0098C14.9219 53.9902 15.127 54.7617 15.5371 55.3242C15.9512 55.8828 16.5195 56.1621 17.2422 56.1621C17.9688 56.1621 18.5312 55.8984 18.9297 55.3711C19.3281 54.8398 19.5332 54.0801 19.5449 53.0918V52.459ZM23.207 50.6602L23.2422 51.457C23.7266 50.8477 24.3594 50.543 25.1406 50.543C26.4805 50.543 27.1562 51.2988 27.168 52.8105V57H26.084V52.8047C26.0801 52.3477 25.9746 52.0098 25.7676 51.791C25.5645 51.5723 25.2461 51.4629 24.8125 51.4629C24.4609 51.4629 24.1523 51.5566 23.8867 51.7441C23.6211 51.9316 23.4141 52.1777 23.2656 52.4824V57H22.1816V50.6602H23.207ZM32.7637 48.9199C32.2793 48.8418 31.8887 48.8027 31.5918 48.8027C30.8105 48.8027 30.4199 49.2129 30.4199 50.0332V50.6602H31.7734V51.498H30.4199V57H29.3359V51.498H28.334V50.6602H29.3359V49.9688C29.3398 49.293 29.5293 48.7754 29.9043 48.416C30.2793 48.0566 30.8125 47.877 31.5039 47.877C31.8984 47.877 32.6797 47.9961 33.8477 48.2344V57H32.7637V48.9199ZM39.5371 56.373C39.1152 56.8691 38.4961 57.1172 37.6797 57.1172C37.0039 57.1172 36.4883 56.9219 36.1328 56.5312C35.7812 56.1367 35.6035 55.5547 35.5996 54.7852V50.6602H36.6836V54.7559C36.6836 55.7168 37.0742 56.1973 37.8555 56.1973C38.6836 56.1973 39.2344 55.8887 39.5078 55.2715V50.6602H40.5918V57H39.5605L39.5371 56.373ZM44.875 57.1172C44.0156 57.1172 43.3164 56.8359 42.7773 56.2734C42.2383 55.707 41.9688 54.9512 41.9688 54.0059V53.8066C41.9688 53.1777 42.0879 52.6172 42.3262 52.125C42.5684 51.6289 42.9043 51.2422 43.334 50.9648C43.7676 50.6836 44.2363 50.543 44.7402 50.543C45.5645 50.543 46.2051 50.8145 46.6621 51.3574C47.1191 51.9004 47.3477 52.6777 47.3477 53.6895V54.1406H43.0527C43.0684 54.7656 43.25 55.2715 43.5977 55.6582C43.9492 56.041 44.3945 56.2324 44.9336 56.2324C45.3164 56.2324 45.6406 56.1543 45.9062 55.998C46.1719 55.8418 46.4043 55.6348 46.6035 55.377L47.2656 55.8926C46.7344 56.709 45.9375 57.1172 44.875 57.1172ZM44.7402 51.4336C44.3027 51.4336 43.9355 51.5938 43.6387 51.9141C43.3418 52.2305 43.1582 52.6758 43.0879 53.25H46.2637V53.168C46.2324 52.6172 46.084 52.1914 45.8184 51.8906C45.5527 51.5859 45.1934 51.4336 44.7402 51.4336ZM49.6328 50.6602L49.668 51.457C50.1523 50.8477 50.7852 50.543 51.5664 50.543C52.9062 50.543 53.582 51.2988 53.5938 52.8105V57H52.5098V52.8047C52.5059 52.3477 52.4004 52.0098 52.1934 51.791C51.9902 51.5723 51.6719 51.4629 51.2383 51.4629C50.8867 51.4629 50.5781 51.5566 50.3125 51.7441C50.0469 51.9316 49.8398 52.1777 49.6914 52.4824V57H48.6074V50.6602H49.6328ZM57.7715 56.2324C58.1582 56.2324 58.4961 56.1152 58.7852 55.8809C59.0742 55.6465 59.2344 55.3535 59.2656 55.002H60.291C60.2715 55.3652 60.1465 55.7109 59.916 56.0391C59.6855 56.3672 59.377 56.6289 58.9902 56.8242C58.6074 57.0195 58.2012 57.1172 57.7715 57.1172C56.9082 57.1172 56.2207 56.8301 55.709 56.2559C55.2012 55.6777 54.9473 54.8887 54.9473 53.8887V53.707C54.9473 53.0898 55.0605 52.541 55.2871 52.0605C55.5137 51.5801 55.8379 51.207 56.2598 50.9414C56.6855 50.6758 57.1875 50.543 57.7656 50.543C58.4766 50.543 59.0664 50.7559 59.5352 51.1816C60.0078 51.6074 60.2598 52.1602 60.291 52.8398H59.2656C59.2344 52.4297 59.0781 52.0938 58.7969 51.832C58.5195 51.5664 58.1758 51.4336 57.7656 51.4336C57.2148 51.4336 56.7871 51.6328 56.4824 52.0312C56.1816 52.4258 56.0312 52.998 56.0312 53.748V53.9531C56.0312 54.6836 56.1816 55.2461 56.4824 55.6406C56.7832 56.0352 57.2129 56.2324 57.7715 56.2324ZM64.1406 57.1172C63.2812 57.1172 62.582 56.8359 62.043 56.2734C61.5039 55.707 61.2344 54.9512 61.2344 54.0059V53.8066C61.2344 53.1777 61.3535 52.6172 61.5918 52.125C61.834 51.6289 62.1699 51.2422 62.5996 50.9648C63.0332 50.6836 63.502 50.543 64.0059 50.543C64.8301 50.543 65.4707 50.8145 65.9277 51.3574C66.3848 51.9004 66.6133 52.6777 66.6133 53.6895V54.1406H62.3184C62.334 54.7656 62.5156 55.2715 62.8633 55.6582C63.2148 56.041 63.6602 56.2324 64.1992 56.2324C64.582 56.2324 64.9062 56.1543 65.1719 55.998C65.4375 55.8418 65.6699 55.6348 65.8691 55.377L66.5312 55.8926C66 56.709 65.2031 57.1172 64.1406 57.1172ZM64.0059 51.4336C63.5684 51.4336 63.2012 51.5938 62.9043 51.9141C62.6074 52.2305 62.4238 52.6758 62.3535 53.25H65.5293V53.168C65.498 52.6172 65.3496 52.1914 65.084 51.8906C64.8184 51.5859 64.459 51.4336 64.0059 51.4336ZM70.9375 51.6328C70.7734 51.6055 70.5957 51.5918 70.4043 51.5918C69.6934 51.5918 69.2109 51.8945 68.957 52.5V57H67.873V50.6602H68.9277L68.9453 51.3926C69.3008 50.8262 69.8047 50.543 70.457 50.543C70.668 50.543 70.8281 50.5703 70.9375 50.625V51.6328ZM78.2148 53.5488H76.2109V57H75.0801V48.4688H77.9043C78.8652 48.4688 79.6035 48.6875 80.1191 49.125C80.6387 49.5625 80.8984 50.1992 80.8984 51.0352C80.8984 51.5664 80.7539 52.0293 80.4648 52.4238C80.1797 52.8184 79.7812 53.1133 79.2695 53.3086L81.2734 56.9297V57H80.0664L78.2148 53.5488ZM76.2109 52.6289H77.9395C78.498 52.6289 78.9414 52.4844 79.2695 52.1953C79.6016 51.9062 79.7676 51.5195 79.7676 51.0352C79.7676 50.5078 79.6094 50.1035 79.293 49.8223C78.9805 49.541 78.5273 49.3984 77.9336 49.3945H76.2109V52.6289ZM84.9414 57.1172C84.082 57.1172 83.3828 56.8359 82.8438 56.2734C82.3047 55.707 82.0352 54.9512 82.0352 54.0059V53.8066C82.0352 53.1777 82.1543 52.6172 82.3926 52.125C82.6348 51.6289 82.9707 51.2422 83.4004 50.9648C83.834 50.6836 84.3027 50.543 84.8066 50.543C85.6309 50.543 86.2715 50.8145 86.7285 51.3574C87.1855 51.9004 87.4141 52.6777 87.4141 53.6895V54.1406H83.1191C83.1348 54.7656 83.3164 55.2715 83.6641 55.6582C84.0156 56.041 84.4609 56.2324 85 56.2324C85.3828 56.2324 85.707 56.1543 85.9727 55.998C86.2383 55.8418 86.4707 55.6348 86.6699 55.377L87.332 55.8926C86.8008 56.709 86.0039 57.1172 84.9414 57.1172ZM84.8066 51.4336C84.3691 51.4336 84.002 51.5938 83.7051 51.9141C83.4082 52.2305 83.2246 52.6758 83.1543 53.25H86.3301V53.168C86.2988 52.6172 86.1504 52.1914 85.8848 51.8906C85.6191 51.5859 85.2598 51.4336 84.8066 51.4336ZM90.6836 55.5293L92.2539 50.6602H93.3613L91.0879 57H90.2617L87.9648 50.6602H89.0723L90.6836 55.5293ZM95.582 57H94.498V50.6602H95.582V57ZM94.4102 48.9785C94.4102 48.8027 94.4629 48.6543 94.5684 48.5332C94.6777 48.4121 94.8379 48.3516 95.0488 48.3516C95.2598 48.3516 95.4199 48.4121 95.5293 48.5332C95.6387 48.6543 95.6934 48.8027 95.6934 48.9785C95.6934 49.1543 95.6387 49.3008 95.5293 49.418C95.4199 49.5352 95.2598 49.5938 95.0488 49.5938C94.8379 49.5938 94.6777 49.5352 94.5684 49.418C94.4629 49.3008 94.4102 49.1543 94.4102 48.9785ZM99.9531 57.1172C99.0938 57.1172 98.3945 56.8359 97.8555 56.2734C97.3164 55.707 97.0469 54.9512 97.0469 54.0059V53.8066C97.0469 53.1777 97.166 52.6172 97.4043 52.125C97.6465 51.6289 97.9824 51.2422 98.4121 50.9648C98.8457 50.6836 99.3145 50.543 99.8184 50.543C100.643 50.543 101.283 50.8145 101.74 51.3574C102.197 51.9004 102.426 52.6777 102.426 53.6895V54.1406H98.1309C98.1465 54.7656 98.3281 55.2715 98.6758 55.6582C99.0273 56.041 99.4727 56.2324 100.012 56.2324C100.395 56.2324 100.719 56.1543 100.984 55.998C101.25 55.8418 101.482 55.6348 101.682 55.377L102.344 55.8926C101.812 56.709 101.016 57.1172 99.9531 57.1172ZM99.8184 51.4336C99.3809 51.4336 99.0137 51.5938 98.7168 51.9141C98.4199 52.2305 98.2363 52.6758 98.166 53.25H101.342V53.168C101.311 52.6172 101.162 52.1914 100.896 51.8906C100.631 51.5859 100.271 51.4336 99.8184 51.4336ZM109.299 55.5059L110.518 50.6602H111.602L109.756 57H108.877L107.336 52.1953L105.836 57H104.957L103.117 50.6602H104.195L105.443 55.4062L106.92 50.6602H107.793L109.299 55.5059Z" fill="#1E243C"/>
<path d="M61.8924 28.3462C61.829 28.8668 61.5772 29.3462 61.1846 29.694C60.7919 30.0417 60.2856 30.2337 59.7611 30.2337C59.2366 30.2337 58.7303 30.0417 58.3377 29.694C57.945 29.3462 57.6933 28.8668 57.6299 28.3462C55.8829 28.5076 54.2591 29.3156 53.0769 30.6119C51.8947 31.9081 51.2392 33.5992 51.239 35.3536V40.239C51.239 40.3675 51.29 40.4907 51.3809 40.5816C51.4717 40.6724 51.5949 40.7234 51.7234 40.7234H68.2825V35.3536C68.2823 33.5993 67.6269 31.9084 66.4448 30.6121C65.2628 29.3158 63.6392 28.5077 61.8924 28.3462Z" stroke="#1E243C"/>
<path d="M61.013 28.3152C60.6025 28.4116 60.1823 28.4604 59.7606 28.4605C59.339 28.4603 58.9187 28.4116 58.5083 28.3152H58.2775C57.8969 28.3152 57.517 28.3459 57.1414 28.407V40.7234H62.3799V28.407C62.0043 28.3459 61.6245 28.3152 61.244 28.3152H61.013Z" fill="#E38FB5" stroke="#1E243C"/>
<path d="M57.1414 39.9972H62.3799V40.7238H57.1414V39.9972Z" fill="white"/>
<path d="M59.6249 28.2612C58.982 28.262 58.3453 28.1374 57.7412 27.8946C57.8003 28.3849 57.9942 28.8389 58.2924 29.1861C58.6532 29.6063 59.1337 29.8333 59.6249 29.8333C60.1162 29.8333 60.5967 29.6063 60.9575 29.1861C61.2556 28.8389 61.4496 28.3849 61.5086 27.8946C60.9046 28.1374 60.2679 28.262 59.6249 28.2612ZM59.6249 28.2612C59.6248 28.2612 59.6247 28.2612 59.6246 28.2612L59.6249 28.0112L59.6252 28.2612C59.6251 28.2612 59.625 28.2612 59.6249 28.2612Z" fill="white" stroke="#1E243C" stroke-width="0.5"/>
<path d="M65.3653 22.9857V22.9854V22.0092C65.3893 22.004 65.4138 22.0013 65.4385 22.001C65.5606 22.0014 65.6957 22.0712 65.8103 22.233C65.9247 22.3945 66.0034 22.6306 66.0034 22.9031C66.0034 23.1755 65.9247 23.4116 65.8104 23.573C65.6965 23.7338 65.5623 23.8038 65.4405 23.8049C65.3953 23.8034 65.3511 23.7941 65.3097 23.7776C65.3464 23.5153 65.365 23.2507 65.3653 22.9857Z" fill="white" stroke="#1E243C" stroke-width="0.5"/>
<path d="M54.2169 22.9854L54.2169 22.9857C54.2172 23.2507 54.2358 23.5153 54.2725 23.7776C54.2311 23.794 54.1869 23.8034 54.1417 23.8049C54.0198 23.8037 53.8856 23.7337 53.7718 23.5731C53.6575 23.4116 53.5789 23.1755 53.5789 22.9031C53.5789 22.6306 53.6575 22.3944 53.7718 22.2329C53.8863 22.0713 54.0213 22.0014 54.1438 22.001C54.1685 22.0013 54.193 22.004 54.2169 22.0092L54.2169 22.9854Z" fill="white" stroke="#3A2C60" stroke-width="0.5"/>
<path d="M62.6724 18.5197V18.51C62.6724 18.51 58.957 17.2632 56.0163 19.3121C55.3344 19.8025 54.7479 20.4134 54.2856 21.1147V22.9854C54.2856 24.4375 54.8624 25.8302 55.8891 26.857C56.9158 27.8839 58.3084 28.4609 59.7605 28.461C61.2128 28.461 62.6055 27.8841 63.6324 26.8572C64.6593 25.8303 65.2362 24.4376 65.2362 22.9854V20.5635H64.7159C64.4475 20.5635 64.1818 20.5106 63.9338 20.4079C63.6859 20.3052 63.4606 20.1546 63.2708 19.9649C63.0811 19.7751 62.9305 19.5498 62.8278 19.3018C62.7252 19.0538 62.6723 18.7881 62.6724 18.5197Z" stroke="#1E243C"/>
<path d="M63.132 14.993H62.6118V18.5198C62.6118 19.0618 62.8271 19.5816 63.2104 19.9648C63.5936 20.3481 64.1134 20.5634 64.6554 20.5634H65.1756V17.0376C65.1757 16.7691 65.123 16.5033 65.0203 16.2552C64.9177 16.0072 64.7672 15.7818 64.5774 15.5919C64.3876 15.4021 64.1623 15.2515 63.9143 15.1487C63.6663 15.0459 63.4005 14.993 63.132 14.993V14.993Z" stroke="#1E243C"/>
<path d="M62.6724 18.51C62.6724 18.51 58.957 17.2632 56.0164 19.3121C53.4397 21.1067 52.6742 24.8824 52.6742 24.8824C52.0021 23.709 51.6931 22.3626 51.7861 21.0135C51.9229 19.4775 52.8968 18.0256 52.8968 18.0256C52.5403 18.1517 52.2062 18.3338 51.9072 18.5652C51.5146 18.9025 51.1563 19.2777 50.8374 19.6853C50.8374 19.6853 50.7684 14.1499 57.1413 13.3628C58.1256 13.2453 59.1235 13.3293 60.0744 13.6095C61.0252 13.8897 61.9092 14.3604 62.6724 14.993V18.51Z" stroke="#1E243C"/>
<path d="M57.3449 21.6715C57.2367 21.6715 57.1309 21.7036 57.0409 21.7637C56.9508 21.8238 56.8806 21.9093 56.8392 22.0093C56.7977 22.1093 56.7868 22.2193 56.8078 22.3255C56.8288 22.4317 56.8809 22.5292 56.9573 22.6059C57.0338 22.6825 57.1312 22.7347 57.2374 22.756C57.3435 22.7773 57.4536 22.7666 57.5537 22.7253C57.6537 22.6841 57.7393 22.6141 57.7997 22.5242C57.86 22.4343 57.8923 22.3286 57.8925 22.2203C57.8927 22.1483 57.8786 22.077 57.8512 22.0104C57.8238 21.9438 57.7834 21.8833 57.7326 21.8323C57.6817 21.7813 57.6213 21.7409 57.5548 21.7133C57.4883 21.6857 57.417 21.6715 57.3449 21.6715Z" fill="#1E243C"/>
<path d="M62.1765 21.6715C62.0683 21.6717 61.9626 21.7039 61.8727 21.7642C61.7828 21.8244 61.7127 21.9099 61.6714 22.0099C61.6301 22.1099 61.6193 22.2199 61.6404 22.3261C61.6616 22.4322 61.7137 22.5297 61.7902 22.6062C61.8667 22.6827 61.9641 22.7349 62.0703 22.7561C62.1764 22.7773 62.2864 22.7665 62.3864 22.7253C62.4864 22.684 62.572 22.614 62.6322 22.5241C62.6925 22.4342 62.7248 22.3285 62.7251 22.2203C62.7252 22.1482 62.7111 22.0768 62.6836 22.0102C62.6561 21.9435 62.6157 21.883 62.5648 21.832C62.5138 21.781 62.4533 21.7406 62.3866 21.713C62.32 21.6855 62.2486 21.6714 62.1765 21.6715Z" fill="#1E243C"/>
<path d="M59.7606 24.8984C59.99 24.8982 60.2099 24.8069 60.372 24.6447C60.5342 24.4826 60.6254 24.2627 60.6257 24.0333V23.6686C60.6257 23.6043 60.6002 23.5427 60.5548 23.4973C60.5093 23.4519 60.4477 23.4264 60.3835 23.4264C60.3193 23.4264 60.2577 23.4519 60.2123 23.4973C60.1668 23.5427 60.1413 23.6043 60.1413 23.6686V24.0333C60.1426 24.0841 60.1337 24.1346 60.1152 24.1819C60.0966 24.2292 60.0688 24.2723 60.0333 24.3087C59.9978 24.3451 59.9554 24.374 59.9086 24.3937C59.8618 24.4135 59.8115 24.4236 59.7607 24.4236C59.7099 24.4236 59.6596 24.4135 59.6128 24.3937C59.566 24.374 59.5236 24.3451 59.4881 24.3087C59.4527 24.2723 59.4248 24.2292 59.4063 24.1819C59.3877 24.1346 59.3788 24.0841 59.3801 24.0333V23.6686C59.3801 23.6043 59.3546 23.5427 59.3092 23.4973C59.2638 23.4519 59.2022 23.4264 59.1379 23.4264C59.0737 23.4264 59.0121 23.4519 58.9667 23.4973C58.9213 23.5427 58.8958 23.6043 58.8958 23.6686V24.0333C58.896 24.2626 58.9872 24.4825 59.1493 24.6447C59.3115 24.8068 59.5313 24.8981 59.7606 24.8984Z" fill="#1E243C"/>
<path d="M61.7597 21.1585L62.8319 21.3455C62.8457 21.3479 62.8598 21.3491 62.8738 21.3491C62.9346 21.3494 62.9933 21.3267 63.0382 21.2857C63.0831 21.2447 63.1109 21.1883 63.1161 21.1277C63.1214 21.0671 63.1036 21.0068 63.0664 20.9587C63.0291 20.9106 62.9752 20.8783 62.9152 20.8681L61.843 20.6814C61.7802 20.6713 61.7159 20.6864 61.6641 20.7233C61.6123 20.7603 61.5771 20.8162 61.5661 20.8789C61.5552 20.9416 61.5693 21.0061 61.6056 21.0584C61.6418 21.1107 61.6972 21.1467 61.7597 21.1585Z" fill="#1E243C"/>
<path d="M57.6785 20.6814L56.6064 20.8682C56.5464 20.8783 56.4924 20.9106 56.4552 20.9587C56.418 21.0068 56.4002 21.0671 56.4054 21.1277C56.4107 21.1883 56.4385 21.2447 56.4834 21.2858C56.5283 21.3268 56.587 21.3494 56.6478 21.3491C56.6618 21.3491 56.6758 21.3479 56.6897 21.3455L57.7616 21.1585C57.7934 21.1536 57.8239 21.1424 57.8514 21.1256C57.8788 21.1087 57.9026 21.0866 57.9214 21.0604C57.9401 21.0343 57.9535 21.0046 57.9607 20.9732C57.9679 20.9419 57.9687 20.9094 57.9632 20.8776C57.9577 20.8459 57.9459 20.8156 57.9285 20.7885C57.9112 20.7614 57.8886 20.7381 57.862 20.7198C57.8355 20.7015 57.8057 20.6887 57.7741 20.6821C57.7426 20.6755 57.7101 20.6753 57.6785 20.6814Z" fill="#1E243C"/>
<path d="M61.1671 25.6729C61.2059 25.6217 61.2228 25.5572 61.214 25.4936C61.2052 25.4299 61.1715 25.3724 61.1203 25.3336C61.0691 25.2948 61.0046 25.2779 60.941 25.2867C60.8774 25.2955 60.8198 25.3291 60.781 25.3803C60.6544 25.5266 60.4977 25.6439 60.3216 25.724C60.1455 25.8042 59.9542 25.8454 59.7607 25.8449C59.5676 25.8486 59.3761 25.8093 59.2001 25.7297C59.0242 25.6501 58.8682 25.5322 58.7435 25.3847C58.7053 25.3341 58.6487 25.3005 58.586 25.2912C58.5232 25.2818 58.4593 25.2975 58.408 25.3347C58.3567 25.372 58.322 25.4279 58.3115 25.4905C58.3009 25.553 58.3154 25.6172 58.3517 25.6693C58.5214 25.8787 58.7364 26.047 58.9806 26.1615C59.2247 26.276 59.4916 26.3336 59.7612 26.3302C60.0293 26.33 60.2941 26.271 60.537 26.1575C60.7799 26.0439 60.995 25.8785 61.1671 25.6729Z" fill="#1E243C"/>
<path d="M77.4432 23.2297L72.603 24.6449V30.0868L77.4434 31.5021L77.4432 23.2297Z" fill="#B9256A"/>
<path d="M80.8611 27.3453C80.8611 28.1731 80.1905 28.8452 79.3627 28.8452C79.3072 28.8452 79.2532 28.8422 79.1992 28.8362V25.8559C79.2532 25.8499 79.3072 25.8469 79.3627 25.8469C80.1907 25.8469 80.8611 26.5174 80.8611 27.3453Z" fill="#B9256A"/>
<path d="M72.6028 24.6448H69.0256C68.6987 24.6448 68.4336 24.9098 68.4336 25.2368V29.4949C68.4336 29.8218 68.6987 30.0869 69.0256 30.0869H72.6028V24.6448Z" fill="#B9256A"/>
<path d="M68.1573 25.3849H68.4335V29.3468H68.1573C67.0632 29.3468 66.1763 28.4599 66.1763 27.3658C66.1763 26.2718 67.0632 25.3849 68.1573 25.3849Z" fill="#B9256A"/>
<path d="M66.7055 27.3659C66.7055 26.3577 67.4593 25.5274 68.4335 25.4029V25.3849H68.1573C67.0632 25.3849 66.1763 26.2718 66.1763 27.3659C66.1763 28.4601 67.0632 29.347 68.1573 29.347H68.4335V29.329C67.4593 29.2045 66.7055 28.374 66.7055 27.3659Z" fill="white"/>
<path d="M78.3211 32.5551C77.8363 32.5549 77.4434 32.1618 77.4434 31.677V23.0544C77.4434 22.5694 77.8365 22.1763 78.3215 22.1763C78.8064 22.1763 79.1996 22.5694 79.1996 23.0544V31.677C79.1996 32.162 78.8063 32.5553 78.3211 32.5551Z" fill="white"/>
<path d="M69.6475 30.0867V32.6385C69.6475 32.8438 69.7007 33.0453 69.8023 33.2238L70.2173 33.9536C70.3226 34.1386 70.519 34.2529 70.7319 34.2529H71.9659C72.1929 34.2529 72.3354 34.0079 72.2232 33.8106L71.8121 33.0877C71.7613 32.9984 71.7347 32.8976 71.7347 32.7949V30.0865H69.6475V30.0867Z" fill="#B9256A"/>
<path d="M77.4432 25.5453C77.3459 25.5453 77.2668 25.6243 77.2668 25.7216V27.7203C77.2668 27.8177 77.3459 27.8967 77.4432 27.8967C77.5406 27.8967 77.6196 27.8177 77.6196 27.7203V25.7216C77.6196 25.6243 77.5407 25.5453 77.4432 25.5453Z" fill="#1E243C" stroke="#1E243C" stroke-width="0.5"/>
<path d="M68.1574 29.1705C67.1622 29.1705 66.3527 28.361 66.3527 27.3659C66.3527 26.3709 67.1622 25.5614 68.1574 25.5614H68.2572V29.1706L68.1574 29.1705ZM71.558 30.6577H70.9372C70.8399 30.6577 70.7608 30.7367 70.7608 30.8341C70.7608 30.9314 70.8399 31.0104 70.9372 31.0104H71.558V31.3977H70.9372C70.8399 31.3977 70.7608 31.4767 70.7608 31.5741C70.7608 31.6714 70.8399 31.7504 70.9372 31.7504H71.558V32.1377H70.9372C70.8399 32.1377 70.7608 32.2167 70.7608 32.3141C70.7608 32.4114 70.8399 32.4904 70.9372 32.4904H71.558V32.7952C71.558 32.9282 71.5927 33.0596 71.6585 33.1749L72.0696 33.8978C72.1003 33.9518 72.0795 33.9992 72.0691 34.017C72.0587 34.0348 72.0278 34.0765 71.9656 34.0765H70.7316C70.5824 34.0765 70.4439 33.9959 70.3702 33.8662L69.9551 33.1366C69.869 32.9851 69.8233 32.8128 69.8233 32.6384V30.2632H71.5578L71.558 30.6577ZM69.0256 29.9105C68.7964 29.9105 68.61 29.7241 68.61 29.4948V25.2369C68.61 25.0077 68.7964 24.8212 69.0256 24.8212H72.4264V29.9105H69.0256ZM79.023 31.6769C79.023 31.8644 78.95 32.0407 78.8173 32.1732C78.6847 32.3056 78.5085 32.3788 78.3212 32.3788C77.9345 32.3786 77.6195 32.0638 77.6195 31.6771V28.3964C77.6195 28.2991 77.5405 28.2201 77.4431 28.2201C77.3458 28.2201 77.2668 28.2991 77.2668 28.3964V31.2667L72.7793 29.9546V24.777L77.267 23.4648V25.0161C77.267 25.1135 77.346 25.1925 77.4433 25.1925C77.5407 25.1925 77.6197 25.1135 77.6197 25.0161V23.0545C77.6197 22.6675 77.9345 22.3527 78.3214 22.3527C78.7084 22.3527 79.0232 22.6675 79.0232 23.0545V25.8559V28.8363L79.023 31.6769ZM79.3757 28.6687V26.0233C80.0988 26.0304 80.6848 26.6206 80.6848 27.3453C80.6848 28.0709 80.0988 28.6618 79.3757 28.6687Z" stroke="#1E243C" stroke-width="0.5"/>
</svg>
