<svg width="125" height="68" viewBox="0 0 125 68" fill="none" xmlns="http://www.w3.org/2000/svg">
<path d="M24.6836 53.0098C24.6836 53.8457 24.543 54.5762 24.2617 55.2012C23.9805 55.8223 23.582 56.2969 23.0664 56.625C22.5508 56.9531 21.9492 57.1172 21.2617 57.1172C20.5898 57.1172 19.9941 56.9531 19.4746 56.625C18.9551 56.293 18.5508 55.8223 18.2617 55.2129C17.9766 54.5996 17.8301 53.8906 17.8223 53.0859V52.4707C17.8223 51.6504 17.9648 50.9258 18.25 50.2969C18.5352 49.668 18.9375 49.1875 19.457 48.8555C19.9805 48.5195 20.5781 48.3516 21.25 48.3516C21.9336 48.3516 22.5352 48.5176 23.0547 48.8496C23.5781 49.1777 23.9805 49.6562 24.2617 50.2852C24.543 50.9102 24.6836 51.6387 24.6836 52.4707V53.0098ZM23.5645 52.459C23.5645 51.4473 23.3613 50.6719 22.9551 50.1328C22.5488 49.5898 21.9805 49.3184 21.25 49.3184C20.5391 49.3184 19.9785 49.5898 19.5684 50.1328C19.1621 50.6719 18.9531 51.4219 18.9414 52.3828V53.0098C18.9414 53.9902 19.1465 54.7617 19.5566 55.3242C19.9707 55.8828 20.5391 56.1621 21.2617 56.1621C21.9883 56.1621 22.5508 55.8984 22.9492 55.3711C23.3477 54.8398 23.5527 54.0801 23.5645 53.0918V52.459ZM27.2266 50.6602L27.2617 51.457C27.7461 50.8477 28.3789 50.543 29.1602 50.543C30.5 50.543 31.1758 51.2988 31.1875 52.8105V57H30.1035V52.8047C30.0996 52.3477 29.9941 52.0098 29.7871 51.791C29.584 51.5723 29.2656 51.4629 28.832 51.4629C28.4805 51.4629 28.1719 51.5566 27.9062 51.7441C27.6406 51.9316 27.4336 52.1777 27.2852 52.4824V57H26.2012V50.6602H27.2266ZM36.7832 48.9199C36.2988 48.8418 35.9082 48.8027 35.6113 48.8027C34.8301 48.8027 34.4395 49.2129 34.4395 50.0332V50.6602H35.793V51.498H34.4395V57H33.3555V51.498H32.3535V50.6602H33.3555V49.9688C33.3594 49.293 33.5488 48.7754 33.9238 48.416C34.2988 48.0566 34.832 47.877 35.5234 47.877C35.918 47.877 36.6992 47.9961 37.8672 48.2344V57H36.7832V48.9199ZM43.5566 56.373C43.1348 56.8691 42.5156 57.1172 41.6992 57.1172C41.0234 57.1172 40.5078 56.9219 40.1523 56.5312C39.8008 56.1367 39.623 55.5547 39.6191 54.7852V50.6602H40.7031V54.7559C40.7031 55.7168 41.0938 56.1973 41.875 56.1973C42.7031 56.1973 43.2539 55.8887 43.5273 55.2715V50.6602H44.6113V57H43.5801L43.5566 56.373ZM48.8945 57.1172C48.0352 57.1172 47.3359 56.8359 46.7969 56.2734C46.2578 55.707 45.9883 54.9512 45.9883 54.0059V53.8066C45.9883 53.1777 46.1074 52.6172 46.3457 52.125C46.5879 51.6289 46.9238 51.2422 47.3535 50.9648C47.7871 50.6836 48.2559 50.543 48.7598 50.543C49.584 50.543 50.2246 50.8145 50.6816 51.3574C51.1387 51.9004 51.3672 52.6777 51.3672 53.6895V54.1406H47.0723C47.0879 54.7656 47.2695 55.2715 47.6172 55.6582C47.9688 56.041 48.4141 56.2324 48.9531 56.2324C49.3359 56.2324 49.6602 56.1543 49.9258 55.998C50.1914 55.8418 50.4238 55.6348 50.623 55.377L51.2852 55.8926C50.7539 56.709 49.957 57.1172 48.8945 57.1172ZM48.7598 51.4336C48.3223 51.4336 47.9551 51.5938 47.6582 51.9141C47.3613 52.2305 47.1777 52.6758 47.1074 53.25H50.2832V53.168C50.252 52.6172 50.1035 52.1914 49.8379 51.8906C49.5723 51.5859 49.2129 51.4336 48.7598 51.4336ZM53.6523 50.6602L53.6875 51.457C54.1719 50.8477 54.8047 50.543 55.5859 50.543C56.9258 50.543 57.6016 51.2988 57.6133 52.8105V57H56.5293V52.8047C56.5254 52.3477 56.4199 52.0098 56.2129 51.791C56.0098 51.5723 55.6914 51.4629 55.2578 51.4629C54.9062 51.4629 54.5977 51.5566 54.332 51.7441C54.0664 51.9316 53.8594 52.1777 53.7109 52.4824V57H52.627V50.6602H53.6523ZM61.791 56.2324C62.1777 56.2324 62.5156 56.1152 62.8047 55.8809C63.0938 55.6465 63.2539 55.3535 63.2852 55.002H64.3105C64.291 55.3652 64.166 55.7109 63.9355 56.0391C63.7051 56.3672 63.3965 56.6289 63.0098 56.8242C62.627 57.0195 62.2207 57.1172 61.791 57.1172C60.9277 57.1172 60.2402 56.8301 59.7285 56.2559C59.2207 55.6777 58.9668 54.8887 58.9668 53.8887V53.707C58.9668 53.0898 59.0801 52.541 59.3066 52.0605C59.5332 51.5801 59.8574 51.207 60.2793 50.9414C60.7051 50.6758 61.207 50.543 61.7852 50.543C62.4961 50.543 63.0859 50.7559 63.5547 51.1816C64.0273 51.6074 64.2793 52.1602 64.3105 52.8398H63.2852C63.2539 52.4297 63.0977 52.0938 62.8164 51.832C62.5391 51.5664 62.1953 51.4336 61.7852 51.4336C61.2344 51.4336 60.8066 51.6328 60.502 52.0312C60.2012 52.4258 60.0508 52.998 60.0508 53.748V53.9531C60.0508 54.6836 60.2012 55.2461 60.502 55.6406C60.8027 56.0352 61.2324 56.2324 61.791 56.2324ZM68.1602 57.1172C67.3008 57.1172 66.6016 56.8359 66.0625 56.2734C65.5234 55.707 65.2539 54.9512 65.2539 54.0059V53.8066C65.2539 53.1777 65.373 52.6172 65.6113 52.125C65.8535 51.6289 66.1895 51.2422 66.6191 50.9648C67.0527 50.6836 67.5215 50.543 68.0254 50.543C68.8496 50.543 69.4902 50.8145 69.9473 51.3574C70.4043 51.9004 70.6328 52.6777 70.6328 53.6895V54.1406H66.3379C66.3535 54.7656 66.5352 55.2715 66.8828 55.6582C67.2344 56.041 67.6797 56.2324 68.2188 56.2324C68.6016 56.2324 68.9258 56.1543 69.1914 55.998C69.457 55.8418 69.6895 55.6348 69.8887 55.377L70.5508 55.8926C70.0195 56.709 69.2227 57.1172 68.1602 57.1172ZM68.0254 51.4336C67.5879 51.4336 67.2207 51.5938 66.9238 51.9141C66.627 52.2305 66.4434 52.6758 66.373 53.25H69.5488V53.168C69.5176 52.6172 69.3691 52.1914 69.1035 51.8906C68.8379 51.5859 68.4785 51.4336 68.0254 51.4336ZM74.957 51.6328C74.793 51.6055 74.6152 51.5918 74.4238 51.5918C73.7129 51.5918 73.2305 51.8945 72.9766 52.5V57H71.8926V50.6602H72.9473L72.9648 51.3926C73.3203 50.8262 73.8242 50.543 74.4766 50.543C74.6875 50.543 74.8477 50.5703 74.957 50.625V51.6328ZM81.6191 53.1973C80.6543 52.9199 79.9512 52.5801 79.5098 52.1777C79.0723 51.7715 78.8535 51.2715 78.8535 50.6777C78.8535 50.0059 79.1211 49.4512 79.6562 49.0137C80.1953 48.5723 80.8945 48.3516 81.7539 48.3516C82.3398 48.3516 82.8613 48.4648 83.3184 48.6914C83.7793 48.918 84.1348 49.2305 84.3848 49.6289C84.6387 50.0273 84.7656 50.4629 84.7656 50.9355H83.6348C83.6348 50.4199 83.4707 50.0156 83.1426 49.7227C82.8145 49.4258 82.3516 49.2773 81.7539 49.2773C81.1992 49.2773 80.7656 49.4004 80.4531 49.6465C80.1445 49.8887 79.9902 50.2266 79.9902 50.6602C79.9902 51.0078 80.1367 51.3027 80.4297 51.5449C80.7266 51.7832 81.2285 52.002 81.9355 52.2012C82.6465 52.4004 83.2012 52.6211 83.5996 52.8633C84.002 53.1016 84.2988 53.3809 84.4902 53.7012C84.6855 54.0215 84.7832 54.3984 84.7832 54.832C84.7832 55.5234 84.5137 56.0781 83.9746 56.4961C83.4355 56.9102 82.7148 57.1172 81.8125 57.1172C81.2266 57.1172 80.6797 57.0059 80.1719 56.7832C79.6641 56.5566 79.2715 56.248 78.9941 55.8574C78.7207 55.4668 78.584 55.0234 78.584 54.5273H79.7148C79.7148 55.043 79.9043 55.4512 80.2832 55.752C80.666 56.0488 81.1758 56.1973 81.8125 56.1973C82.4062 56.1973 82.8613 56.0762 83.1777 55.834C83.4941 55.5918 83.6523 55.2617 83.6523 54.8438C83.6523 54.4258 83.5059 54.1035 83.2129 53.877C82.9199 53.6465 82.3887 53.4199 81.6191 53.1973ZM88.6914 57.1172C87.832 57.1172 87.1328 56.8359 86.5938 56.2734C86.0547 55.707 85.7852 54.9512 85.7852 54.0059V53.8066C85.7852 53.1777 85.9043 52.6172 86.1426 52.125C86.3848 51.6289 86.7207 51.2422 87.1504 50.9648C87.584 50.6836 88.0527 50.543 88.5566 50.543C89.3809 50.543 90.0215 50.8145 90.4785 51.3574C90.9355 51.9004 91.1641 52.6777 91.1641 53.6895V54.1406H86.8691C86.8848 54.7656 87.0664 55.2715 87.4141 55.6582C87.7656 56.041 88.2109 56.2324 88.75 56.2324C89.1328 56.2324 89.457 56.1543 89.7227 55.998C89.9883 55.8418 90.2207 55.6348 90.4199 55.377L91.082 55.8926C90.5508 56.709 89.7539 57.1172 88.6914 57.1172ZM88.5566 51.4336C88.1191 51.4336 87.752 51.5938 87.4551 51.9141C87.1582 52.2305 86.9746 52.6758 86.9043 53.25H90.0801V53.168C90.0488 52.6172 89.9004 52.1914 89.6348 51.8906C89.3691 51.5859 89.0098 51.4336 88.5566 51.4336ZM93.6016 57H92.5176V48H93.6016V57ZM96.5195 57H95.4355V48H96.5195V57ZM100.891 57.1172C100.031 57.1172 99.332 56.8359 98.793 56.2734C98.2539 55.707 97.9844 54.9512 97.9844 54.0059V53.8066C97.9844 53.1777 98.1035 52.6172 98.3418 52.125C98.584 51.6289 98.9199 51.2422 99.3496 50.9648C99.7832 50.6836 100.252 50.543 100.756 50.543C101.58 50.543 102.221 50.8145 102.678 51.3574C103.135 51.9004 103.363 52.6777 103.363 53.6895V54.1406H99.0684C99.084 54.7656 99.2656 55.2715 99.6133 55.6582C99.9648 56.041 100.41 56.2324 100.949 56.2324C101.332 56.2324 101.656 56.1543 101.922 55.998C102.188 55.8418 102.42 55.6348 102.619 55.377L103.281 55.8926C102.75 56.709 101.953 57.1172 100.891 57.1172ZM100.756 51.4336C100.318 51.4336 99.9512 51.5938 99.6543 51.9141C99.3574 52.2305 99.1738 52.6758 99.1035 53.25H102.279V53.168C102.248 52.6172 102.1 52.1914 101.834 51.8906C101.568 51.5859 101.209 51.4336 100.756 51.4336ZM107.688 51.6328C107.523 51.6055 107.346 51.5918 107.154 51.5918C106.443 51.5918 105.961 51.8945 105.707 52.5V57H104.623V50.6602H105.678L105.695 51.3926C106.051 50.8262 106.555 50.543 107.207 50.543C107.418 50.543 107.578 50.5703 107.688 50.625V51.6328Z" fill="#1E243C"/>
<g clip-path="url(#clip0)">
<path d="M61.8924 28.3462C61.829 28.8668 61.5772 29.3462 61.1846 29.694C60.7919 30.0417 60.2856 30.2337 59.7611 30.2337C59.2366 30.2337 58.7303 30.0417 58.3377 29.694C57.945 29.3462 57.6933 28.8668 57.6299 28.3462C55.8829 28.5076 54.2591 29.3156 53.0769 30.6119C51.8947 31.9081 51.2392 33.5992 51.239 35.3536V40.239C51.239 40.3675 51.29 40.4907 51.3809 40.5816C51.4717 40.6724 51.5949 40.7234 51.7234 40.7234H68.2825V35.3536C68.2823 33.5993 67.6269 31.9084 66.4448 30.6121C65.2628 29.3158 63.6392 28.5077 61.8924 28.3462Z" stroke="#1E243C"/>
<path d="M61.013 28.3152C60.6025 28.4116 60.1823 28.4604 59.7606 28.4605C59.339 28.4603 58.9187 28.4116 58.5083 28.3152H58.2775C57.8969 28.3152 57.517 28.3459 57.1414 28.407V40.7234H62.3799V28.407C62.0043 28.3459 61.6245 28.3152 61.244 28.3152H61.013Z" fill="#E38FB5" stroke="#1E243C"/>
<path d="M57.1414 39.9972H62.3799V40.7238H57.1414V39.9972Z" fill="white"/>
<path d="M59.6249 28.2612C58.982 28.262 58.3453 28.1374 57.7412 27.8946C57.8003 28.3849 57.9942 28.8389 58.2924 29.1861C58.6532 29.6063 59.1337 29.8333 59.6249 29.8333C60.1162 29.8333 60.5967 29.6063 60.9575 29.1861C61.2556 28.8389 61.4496 28.3849 61.5086 27.8946C60.9046 28.1374 60.2679 28.262 59.6249 28.2612ZM59.6249 28.2612C59.6248 28.2612 59.6247 28.2612 59.6246 28.2612L59.6249 28.0112L59.6252 28.2612C59.6251 28.2612 59.625 28.2612 59.6249 28.2612Z" fill="white" stroke="#1E243C" stroke-width="0.5"/>
<path d="M65.3653 22.9857V22.9854V22.0092C65.3893 22.004 65.4138 22.0013 65.4385 22.001C65.5606 22.0014 65.6957 22.0712 65.8103 22.233C65.9247 22.3945 66.0034 22.6306 66.0034 22.9031C66.0034 23.1755 65.9247 23.4116 65.8104 23.573C65.6965 23.7338 65.5623 23.8038 65.4405 23.8049C65.3953 23.8034 65.3511 23.7941 65.3097 23.7776C65.3464 23.5153 65.365 23.2507 65.3653 22.9857Z" fill="white" stroke="#1E243C" stroke-width="0.5"/>
<path d="M54.2169 22.9854L54.2169 22.9857C54.2172 23.2507 54.2358 23.5153 54.2725 23.7776C54.2311 23.794 54.1869 23.8034 54.1417 23.8049C54.0198 23.8037 53.8856 23.7337 53.7718 23.5731C53.6575 23.4116 53.5789 23.1755 53.5789 22.9031C53.5789 22.6306 53.6575 22.3944 53.7718 22.2329C53.8863 22.0713 54.0213 22.0014 54.1438 22.001C54.1685 22.0013 54.193 22.004 54.2169 22.0092L54.2169 22.9854Z" fill="white" stroke="#1E243C" stroke-width="0.5"/>
<path d="M62.6724 18.5197V18.51C62.6724 18.51 58.957 17.2632 56.0163 19.3121C55.3344 19.8025 54.7479 20.4134 54.2856 21.1147V22.9854C54.2856 24.4375 54.8624 25.8302 55.8891 26.857C56.9158 27.8839 58.3084 28.4609 59.7605 28.461C61.2128 28.461 62.6055 27.8841 63.6324 26.8572C64.6593 25.8303 65.2362 24.4376 65.2362 22.9854V20.5635H64.7159C64.4475 20.5635 64.1818 20.5106 63.9338 20.4079C63.6859 20.3052 63.4606 20.1546 63.2708 19.9649C63.0811 19.7751 62.9305 19.5498 62.8278 19.3018C62.7252 19.0538 62.6723 18.7881 62.6724 18.5197Z" fill="white" stroke="#1E243C"/>
<path d="M63.132 14.993H62.6118V18.5198C62.6118 19.0618 62.8271 19.5816 63.2104 19.9648C63.5936 20.3481 64.1134 20.5634 64.6554 20.5634H65.1756V17.0376C65.1757 16.7691 65.123 16.5033 65.0203 16.2552C64.9177 16.0072 64.7672 15.7818 64.5774 15.5919C64.3876 15.4021 64.1623 15.2515 63.9143 15.1487C63.6663 15.0459 63.4005 14.993 63.132 14.993V14.993Z" stroke="#1E243C"/>
<path d="M62.6724 18.51C62.6724 18.51 58.957 17.2632 56.0164 19.3121C53.4397 21.1067 52.6742 24.8824 52.6742 24.8824C52.0021 23.709 51.6931 22.3626 51.7861 21.0135C51.9229 19.4775 52.8968 18.0256 52.8968 18.0256C52.5403 18.1517 52.2062 18.3338 51.9072 18.5652C51.5146 18.9025 51.1563 19.2777 50.8374 19.6853C50.8374 19.6853 50.7684 14.1499 57.1413 13.3628C58.1256 13.2453 59.1235 13.3293 60.0744 13.6095C61.0252 13.8897 61.9092 14.3604 62.6724 14.993V18.51Z" stroke="#1E243C"/>
<path d="M57.3449 21.6715C57.2367 21.6715 57.1309 21.7036 57.0409 21.7637C56.9508 21.8238 56.8806 21.9093 56.8392 22.0093C56.7977 22.1093 56.7868 22.2193 56.8078 22.3255C56.8288 22.4317 56.8809 22.5292 56.9573 22.6059C57.0338 22.6825 57.1312 22.7347 57.2374 22.756C57.3435 22.7773 57.4536 22.7666 57.5537 22.7253C57.6537 22.6841 57.7393 22.6141 57.7997 22.5242C57.86 22.4343 57.8923 22.3286 57.8925 22.2203C57.8927 22.1483 57.8786 22.077 57.8512 22.0104C57.8238 21.9438 57.7834 21.8833 57.7326 21.8323C57.6817 21.7813 57.6213 21.7409 57.5548 21.7133C57.4883 21.6857 57.417 21.6715 57.3449 21.6715Z" fill="#1E243C"/>
<path d="M62.1765 21.6715C62.0683 21.6717 61.9626 21.7039 61.8727 21.7642C61.7828 21.8244 61.7127 21.9099 61.6714 22.0099C61.6301 22.1099 61.6193 22.2199 61.6404 22.3261C61.6616 22.4322 61.7137 22.5297 61.7902 22.6062C61.8667 22.6827 61.9641 22.7349 62.0703 22.7561C62.1764 22.7773 62.2864 22.7665 62.3864 22.7253C62.4864 22.684 62.572 22.614 62.6322 22.5241C62.6925 22.4342 62.7248 22.3285 62.7251 22.2203C62.7252 22.1482 62.7111 22.0768 62.6836 22.0102C62.6561 21.9435 62.6157 21.883 62.5648 21.832C62.5138 21.781 62.4533 21.7406 62.3866 21.713C62.32 21.6855 62.2486 21.6714 62.1765 21.6715Z" fill="#1E243C"/>
<path d="M59.7606 24.8984C59.99 24.8982 60.2099 24.8069 60.372 24.6447C60.5342 24.4826 60.6254 24.2627 60.6257 24.0333V23.6686C60.6257 23.6043 60.6002 23.5427 60.5548 23.4973C60.5093 23.4519 60.4477 23.4264 60.3835 23.4264C60.3193 23.4264 60.2577 23.4519 60.2123 23.4973C60.1668 23.5427 60.1413 23.6043 60.1413 23.6686V24.0333C60.1426 24.0841 60.1337 24.1346 60.1152 24.1819C60.0966 24.2292 60.0688 24.2723 60.0333 24.3087C59.9978 24.3451 59.9554 24.374 59.9086 24.3937C59.8618 24.4135 59.8115 24.4236 59.7607 24.4236C59.7099 24.4236 59.6596 24.4135 59.6128 24.3937C59.566 24.374 59.5236 24.3451 59.4881 24.3087C59.4527 24.2723 59.4248 24.2292 59.4063 24.1819C59.3877 24.1346 59.3788 24.0841 59.3801 24.0333V23.6686C59.3801 23.6043 59.3546 23.5427 59.3092 23.4973C59.2638 23.4519 59.2022 23.4264 59.1379 23.4264C59.0737 23.4264 59.0121 23.4519 58.9667 23.4973C58.9213 23.5427 58.8958 23.6043 58.8958 23.6686V24.0333C58.896 24.2626 58.9872 24.4825 59.1493 24.6447C59.3115 24.8068 59.5313 24.8981 59.7606 24.8984Z" fill="#1E243C"/>
<path d="M61.7597 21.1585L62.8319 21.3455C62.8457 21.3479 62.8598 21.3491 62.8738 21.3491C62.9346 21.3494 62.9933 21.3267 63.0382 21.2857C63.0831 21.2447 63.1109 21.1883 63.1161 21.1277C63.1214 21.0671 63.1036 21.0068 63.0664 20.9587C63.0291 20.9106 62.9752 20.8783 62.9152 20.8681L61.843 20.6814C61.7802 20.6713 61.7159 20.6864 61.6641 20.7233C61.6123 20.7603 61.5771 20.8162 61.5661 20.8789C61.5552 20.9416 61.5693 21.0061 61.6056 21.0584C61.6418 21.1107 61.6972 21.1467 61.7597 21.1585Z" fill="#1E243C"/>
<path d="M57.6785 20.6814L56.6064 20.8682C56.5464 20.8783 56.4924 20.9106 56.4552 20.9587C56.418 21.0068 56.4002 21.0671 56.4054 21.1277C56.4107 21.1883 56.4385 21.2447 56.4834 21.2858C56.5283 21.3268 56.587 21.3494 56.6478 21.3491C56.6618 21.3491 56.6758 21.3479 56.6897 21.3455L57.7616 21.1585C57.7934 21.1536 57.8239 21.1424 57.8514 21.1256C57.8788 21.1087 57.9026 21.0866 57.9214 21.0604C57.9401 21.0343 57.9535 21.0046 57.9607 20.9732C57.9679 20.9419 57.9687 20.9094 57.9632 20.8776C57.9577 20.8459 57.9459 20.8156 57.9285 20.7885C57.9112 20.7614 57.8886 20.7381 57.862 20.7198C57.8355 20.7015 57.8057 20.6887 57.7741 20.6821C57.7426 20.6755 57.7101 20.6753 57.6785 20.6814Z" fill="#1E243C"/>
<path d="M61.1671 25.6729C61.2059 25.6217 61.2228 25.5572 61.214 25.4936C61.2052 25.4299 61.1715 25.3724 61.1203 25.3336C61.0691 25.2948 61.0046 25.2779 60.941 25.2867C60.8774 25.2955 60.8198 25.3291 60.781 25.3803C60.6544 25.5266 60.4977 25.6439 60.3216 25.724C60.1455 25.8042 59.9542 25.8454 59.7607 25.8449C59.5676 25.8486 59.3761 25.8093 59.2001 25.7297C59.0242 25.6501 58.8682 25.5322 58.7435 25.3847C58.7053 25.3341 58.6487 25.3005 58.586 25.2912C58.5232 25.2818 58.4593 25.2975 58.408 25.3347C58.3567 25.372 58.322 25.4279 58.3115 25.4905C58.3009 25.553 58.3154 25.6172 58.3517 25.6693C58.5214 25.8787 58.7364 26.047 58.9806 26.1615C59.2247 26.276 59.4916 26.3336 59.7612 26.3302C60.0293 26.33 60.2941 26.271 60.537 26.1575C60.7799 26.0439 60.995 25.8785 61.1671 25.6729Z" fill="#1E243C"/>
<path d="M70.6643 26.406V27.5272C70.6643 27.5847 70.6414 27.64 70.6007 27.6807C70.56 27.7214 70.5048 27.7443 70.4472 27.7443C70.3896 27.7443 70.3344 27.7214 70.2937 27.6807C70.2529 27.64 70.2301 27.5847 70.2301 27.5272V26.406C70.2301 26.3484 70.2529 26.2932 70.2937 26.2524C70.3344 26.2117 70.3896 26.1888 70.4472 26.1888C70.5048 26.1888 70.56 26.2117 70.6007 26.2524C70.6414 26.2932 70.6643 26.3484 70.6643 26.406Z" fill="#E6E7E8"/>
<path d="M68.4932 26.406V27.9614C68.4932 28.019 68.4703 28.0742 68.4296 28.1149C68.3889 28.1556 68.3336 28.1785 68.276 28.1785C68.2185 28.1785 68.1632 28.1556 68.1225 28.1149C68.0818 28.0742 68.0589 28.019 68.0589 27.9614V26.406C68.0589 26.3484 68.0818 26.2932 68.1225 26.2524C68.1632 26.2117 68.2185 26.1888 68.276 26.1888C68.3336 26.1888 68.3889 26.2117 68.4296 26.2524C68.4703 26.2932 68.4932 26.3484 68.4932 26.406Z" fill="#E6E7E8"/>
<path d="M66.322 26.406V27.5272C66.322 27.5847 66.2991 27.64 66.2584 27.6807C66.2177 27.7214 66.1625 27.7443 66.1049 27.7443C66.0473 27.7443 65.9921 27.7214 65.9514 27.6807C65.9107 27.64 65.8878 27.5847 65.8878 27.5272V26.406C65.8878 26.3484 65.9107 26.2932 65.9514 26.2524C65.9921 26.2117 66.0473 26.1888 66.1049 26.1888C66.1625 26.1888 66.2177 26.2117 66.2584 26.2524C66.2991 26.2932 66.322 26.3484 66.322 26.406Z" fill="#E6E7E8"/>
<path d="M63.5279 34.0888L62.5378 28.6463C62.5214 28.5561 62.5249 28.4633 62.5482 28.3746C62.5716 28.2859 62.6141 28.2034 62.6729 28.133C62.7316 28.0626 62.8051 28.0059 62.8882 27.9671C62.9713 27.9282 63.0619 27.9081 63.1536 27.9081H75.7625L74.5446 34.602H64.143C63.9966 34.6019 63.8549 34.5505 63.7425 34.4567C63.6302 34.363 63.5542 34.2327 63.5279 34.0888Z" fill="#B9256A"/>
<path d="M63.1529 28.5599C63.0338 28.56 62.9172 28.5943 62.817 28.6586C62.7168 28.7229 62.6371 28.8147 62.5873 28.9229L62.5372 28.6463C62.5207 28.5561 62.5242 28.4633 62.5476 28.3746C62.5709 28.2859 62.6135 28.2034 62.6722 28.133C62.731 28.0626 62.8045 28.0059 62.8875 27.9671C62.9706 27.9282 63.0612 27.9081 63.1529 27.9081H75.7625L75.6439 28.5594L63.1529 28.5599Z" fill="white"/>
<path d="M71.7591 39.5711C71.1607 39.4741 70.7543 38.9104 70.8513 38.312C70.9483 37.7136 71.512 37.3072 72.1104 37.4042C72.7088 37.5012 73.1152 38.0649 73.0182 38.6633C72.9212 39.2617 72.3575 39.6682 71.7591 39.5711Z" fill="#B9256A"/>
<path d="M65.3358 38.9138C65.1036 38.3536 65.3695 37.7113 65.9297 37.4791C66.4899 37.2469 67.1323 37.5128 67.3645 38.073C67.5967 38.6332 67.3308 39.2755 66.7706 39.5077C66.2104 39.7399 65.568 39.474 65.3358 38.9138Z" fill="#B9256A"/>
<path d="M71.5332 25.5374V26.6586C71.5332 26.7162 71.5103 26.7714 71.4696 26.8122C71.4289 26.8529 71.3737 26.8757 71.3161 26.8757C71.2585 26.8757 71.2033 26.8529 71.1626 26.8122C71.1218 26.7714 71.099 26.7162 71.099 26.6586V25.5374C71.099 25.4798 71.1218 25.4246 71.1626 25.3839C71.2033 25.3432 71.2585 25.3203 71.3161 25.3203C71.3737 25.3203 71.4289 25.3432 71.4696 25.3839C71.5103 25.4246 71.5332 25.4798 71.5332 25.5374Z" fill="#3A2C60"/>
<path d="M69.3618 25.5374V27.0929C69.3618 27.1504 69.3389 27.2057 69.2982 27.2464C69.2575 27.2871 69.2023 27.31 69.1447 27.31C69.0871 27.31 69.0319 27.2871 68.9912 27.2464C68.9505 27.2057 68.9276 27.1504 68.9276 27.0929V25.5374C68.9276 25.4798 68.9505 25.4246 68.9912 25.3839C69.0319 25.3432 69.0871 25.3203 69.1447 25.3203C69.2023 25.3203 69.2575 25.3432 69.2982 25.3839C69.3389 25.4246 69.3618 25.4798 69.3618 25.5374Z" fill="#3A2C60"/>
<path d="M67.1907 25.5374V26.6586C67.1907 26.7162 67.1678 26.7714 67.1271 26.8122C67.0864 26.8529 67.0311 26.8757 66.9736 26.8757C66.916 26.8757 66.8607 26.8529 66.82 26.8122C66.7793 26.7714 66.7564 26.7162 66.7564 26.6586V25.5374C66.7564 25.4798 66.7793 25.4246 66.82 25.3839C66.8607 25.3432 66.916 25.3203 66.9736 25.3203C67.0311 25.3203 67.0864 25.3432 67.1271 25.3839C67.1678 25.4246 67.1907 25.4798 67.1907 25.5374Z" fill="#3A2C60"/>
<path d="M69.1447 34.385C69.2023 34.385 69.2575 34.4079 69.2982 34.4486C69.3389 34.4893 69.3618 34.5445 69.3618 34.6021C69.3618 34.6597 69.3389 34.7149 69.2982 34.7557C69.2575 34.7964 69.2023 34.8192 69.1447 34.8192H67.3292C67.2716 34.8192 67.2164 34.7964 67.1756 34.7557C67.1349 34.7149 67.112 34.6597 67.112 34.6021C67.112 34.5445 67.1349 34.4893 67.1756 34.4486C67.2164 34.4079 67.2716 34.385 67.3292 34.385H69.1447Z" fill="#3A2C60"/>
<path d="M62.5058 27.9941C62.5849 27.8993 62.6838 27.8231 62.7957 27.7708C62.9075 27.7184 63.0295 27.6914 63.153 27.6915H75.5814L75.9277 25.7871C75.9368 25.7371 75.9632 25.6919 76.0023 25.6593C76.0413 25.6267 76.0905 25.6089 76.1414 25.6089H78.5981C78.6557 25.6089 78.7109 25.6318 78.7516 25.6725C78.7923 25.7132 78.8152 25.7684 78.8152 25.826C78.8152 25.8836 78.7923 25.9388 78.7516 25.9795C78.7109 26.0202 78.6557 26.0431 78.5981 26.0431H76.3225L74.3782 36.7296C74.3691 36.7796 74.3427 36.8248 74.3037 36.8574C74.2647 36.89 74.2156 36.9078 74.1648 36.9079H64.0351C63.9776 36.9079 63.9223 36.885 63.8816 36.8443C63.8409 36.8036 63.818 36.7484 63.818 36.6908C63.818 36.6332 63.8409 36.578 63.8816 36.5372C63.9223 36.4965 63.9776 36.4737 64.0351 36.4737H73.9835L74.2844 34.8192H69.9618C69.9042 34.8192 69.849 34.7963 69.8083 34.7556C69.7676 34.7149 69.7447 34.6597 69.7447 34.6021C69.7447 34.5445 69.7676 34.4893 69.8083 34.4486C69.849 34.4079 69.9042 34.385 69.9618 34.385H74.3634L75.5022 28.1257H63.153C63.0931 28.1258 63.034 28.139 62.9798 28.1644C62.9256 28.1898 62.8776 28.2268 62.8392 28.2727C62.8009 28.3187 62.7731 28.3725 62.7578 28.4304C62.7425 28.4883 62.74 28.5488 62.7507 28.6077L63.7407 34.0502C63.758 34.1442 63.8078 34.2292 63.8813 34.2904C63.9548 34.3516 64.0474 34.385 64.1431 34.385H66.5333C66.5909 34.385 66.6461 34.4079 66.6868 34.4486C66.7275 34.4893 66.7504 34.5445 66.7504 34.6021C66.7504 34.6597 66.7275 34.7149 66.6868 34.7556C66.6461 34.7963 66.5909 34.8192 66.5333 34.8192H64.1431C63.9456 34.8193 63.7544 34.7501 63.6028 34.6236C63.4512 34.4971 63.3489 34.3213 63.3137 34.1271L62.3234 28.6846C62.3014 28.5632 62.3063 28.4384 62.3378 28.3191C62.3693 28.1998 62.4267 28.0888 62.5058 27.9941Z" fill="#1E243C" stroke="#1E243C" stroke-width="0.7"/>
<path d="M71.929 37.173C72.1891 37.173 72.4433 37.2501 72.6596 37.3946C72.8758 37.5391 73.0443 37.7444 73.1438 37.9847C73.2433 38.225 73.2694 38.4894 73.2186 38.7444C73.1679 38.9995 73.0426 39.2338 72.8587 39.4177C72.6748 39.6015 72.4405 39.7268 72.1854 39.7775C71.9303 39.8282 71.666 39.8021 71.4257 39.7026C71.1855 39.603 70.9801 39.4344 70.8357 39.2182C70.6912 39.0019 70.6141 38.7477 70.6142 38.4876C70.6146 38.1391 70.7533 37.8049 70.9998 37.5585C71.2463 37.312 71.5805 37.1734 71.929 37.173ZM71.929 39.3683C72.1032 39.3683 72.2735 39.3166 72.4183 39.2198C72.5631 39.1231 72.676 38.9855 72.7426 38.8246C72.8093 38.6637 72.8267 38.4866 72.7927 38.3158C72.7588 38.145 72.6749 37.9881 72.5517 37.8649C72.4286 37.7418 72.2717 37.6579 72.1008 37.6239C71.93 37.5899 71.7529 37.6074 71.592 37.674C71.4311 37.7407 71.2936 37.8536 71.1968 37.9984C71.1001 38.1432 71.0484 38.3134 71.0484 38.4876C71.0487 38.7211 71.1416 38.9449 71.3067 39.11C71.4717 39.2751 71.6956 39.368 71.929 39.3683Z" fill="#3A2C60"/>
<path d="M66.3587 37.173C66.6187 37.173 66.8729 37.2502 67.0892 37.3947C67.3054 37.5392 67.4739 37.7446 67.5733 37.9849C67.6728 38.2251 67.6988 38.4895 67.648 38.7446C67.5973 38.9996 67.472 39.2339 67.2881 39.4177C67.1042 39.6016 66.8698 39.7268 66.6148 39.7775C66.3597 39.8282 66.0953 39.8021 65.8551 39.7025C65.6149 39.603 65.4095 39.4344 65.2651 39.2182C65.1206 39.0019 65.0436 38.7477 65.0436 38.4876C65.0441 38.139 65.1828 37.8048 65.4293 37.5584C65.6759 37.3119 66.0101 37.1733 66.3587 37.173ZM66.3587 39.3683C66.5329 39.3682 66.7031 39.3165 66.8479 39.2197C66.9927 39.1229 67.1055 38.9854 67.1721 38.8245C67.2388 38.6636 67.2562 38.4865 67.2222 38.3157C67.1882 38.1449 67.1043 37.988 66.9811 37.8648C66.8579 37.7417 66.701 37.6579 66.5302 37.6239C66.3594 37.5899 66.1823 37.6074 66.0214 37.674C65.8605 37.7407 65.723 37.8536 65.6262 37.9984C65.5295 38.1432 65.4778 38.3135 65.4778 38.4876C65.4781 38.7211 65.571 38.945 65.7362 39.1101C65.9013 39.2752 66.1252 39.368 66.3587 39.3683Z" fill="#3A2C60"/>
</g>
<defs>
<clipPath id="clip0">
<rect width="31" height="31" fill="white" transform="translate(48 12)"/>
</clipPath>
</defs>
</svg>
