<svg width="125" height="68" viewBox="0 0 125 68" fill="none" xmlns="http://www.w3.org/2000/svg">
  <path d="M29.9336 53.0098C29.9336 53.8457 29.793 54.5762 29.5117 55.2012C29.2305 55.8223 28.832 56.2969 28.3164 56.625C27.8008 56.9531 27.1992 57.1172 26.5117 57.1172C25.8398 57.1172 25.2441 56.9531 24.7246 56.625C24.2051 56.293 23.8008 55.8223 23.5117 55.2129C23.2266 54.5996 23.0801 53.8906 23.0723 53.0859V52.4707C23.0723 51.6504 23.2148 50.9258 23.5 50.2969C23.7852 49.668 24.1875 49.1875 24.707 48.8555C25.2305 48.5195 25.8281 48.3516 26.5 48.3516C27.1836 48.3516 27.7852 48.5176 28.3047 48.8496C28.8281 49.1777 29.2305 49.6562 29.5117 50.2852C29.793 50.9102 29.9336 51.6387 29.9336 52.4707V53.0098ZM28.8145 52.459C28.8145 51.4473 28.6113 50.6719 28.2051 50.1328C27.7988 49.5898 27.2305 49.3184 26.5 49.3184C25.7891 49.3184 25.2285 49.5898 24.8184 50.1328C24.4121 50.6719 24.2031 51.4219 24.1914 52.3828V53.0098C24.1914 53.9902 24.3965 54.7617 24.8066 55.3242C25.2207 55.8828 25.7891 56.1621 26.5117 56.1621C27.2383 56.1621 27.8008 55.8984 28.1992 55.3711C28.5977 54.8398 28.8027 54.0801 28.8145 53.0918V52.459ZM32.4766 50.6602L32.5117 51.457C32.9961 50.8477 33.6289 50.543 34.4102 50.543C35.75 50.543 36.4258 51.2988 36.4375 52.8105V57H35.3535V52.8047C35.3496 52.3477 35.2441 52.0098 35.0371 51.791C34.834 51.5723 34.5156 51.4629 34.082 51.4629C33.7305 51.4629 33.4219 51.5566 33.1562 51.7441C32.8906 51.9316 32.6836 52.1777 32.5352 52.4824V57H31.4512V50.6602H32.4766ZM43.4277 53.9004C43.4277 54.8652 43.207 55.6426 42.7656 56.2324C42.3242 56.8223 41.7266 57.1172 40.9727 57.1172C40.2031 57.1172 39.5977 56.873 39.1562 56.3848V59.4375H38.0723V50.6602H39.0625L39.1152 51.3633C39.5566 50.8164 40.1699 50.543 40.9551 50.543C41.7168 50.543 42.3184 50.8301 42.7598 51.4043C43.2051 51.9785 43.4277 52.7773 43.4277 53.8008V53.9004ZM42.3438 53.7773C42.3438 53.0625 42.1914 52.498 41.8867 52.084C41.582 51.6699 41.1641 51.4629 40.6328 51.4629C39.9766 51.4629 39.4844 51.7539 39.1562 52.3359V55.3652C39.4805 55.9434 39.9766 56.2324 40.6445 56.2324C41.1641 56.2324 41.5762 56.0273 41.8809 55.6172C42.1895 55.2031 42.3438 54.5898 42.3438 53.7773ZM47.4414 57.1172C46.582 57.1172 45.8828 56.8359 45.3438 56.2734C44.8047 55.707 44.5352 54.9512 44.5352 54.0059V53.8066C44.5352 53.1777 44.6543 52.6172 44.8926 52.125C45.1348 51.6289 45.4707 51.2422 45.9004 50.9648C46.334 50.6836 46.8027 50.543 47.3066 50.543C48.1309 50.543 48.7715 50.8145 49.2285 51.3574C49.6855 51.9004 49.9141 52.6777 49.9141 53.6895V54.1406H45.6191C45.6348 54.7656 45.8164 55.2715 46.1641 55.6582C46.5156 56.041 46.9609 56.2324 47.5 56.2324C47.8828 56.2324 48.207 56.1543 48.4727 55.998C48.7383 55.8418 48.9707 55.6348 49.1699 55.377L49.832 55.8926C49.3008 56.709 48.5039 57.1172 47.4414 57.1172ZM47.3066 51.4336C46.8691 51.4336 46.502 51.5938 46.2051 51.9141C45.9082 52.2305 45.7246 52.6758 45.6543 53.25H48.8301V53.168C48.7988 52.6172 48.6504 52.1914 48.3848 51.8906C48.1191 51.5859 47.7598 51.4336 47.3066 51.4336ZM50.8867 53.7715C50.8867 53.1504 51.0078 52.5918 51.25 52.0957C51.4961 51.5996 51.8359 51.2168 52.2695 50.9473C52.707 50.6777 53.2051 50.543 53.7637 50.543C54.627 50.543 55.3242 50.8418 55.8555 51.4395C56.3906 52.0371 56.6582 52.832 56.6582 53.8242V53.9004C56.6582 54.5176 56.5391 55.0723 56.3008 55.5645C56.0664 56.0527 55.7285 56.4336 55.2871 56.707C54.8496 56.9805 54.3457 57.1172 53.7754 57.1172C52.916 57.1172 52.2188 56.8184 51.6836 56.2207C51.1523 55.623 50.8867 54.832 50.8867 53.8477V53.7715ZM51.9766 53.9004C51.9766 54.6035 52.1387 55.168 52.4629 55.5938C52.791 56.0195 53.2285 56.2324 53.7754 56.2324C54.3262 56.2324 54.7637 56.0176 55.0879 55.5879C55.4121 55.1543 55.5742 54.5488 55.5742 53.7715C55.5742 53.0762 55.4082 52.5137 55.0762 52.084C54.748 51.6504 54.3105 51.4336 53.7637 51.4336C53.2285 51.4336 52.7969 51.6465 52.4688 52.0723C52.1406 52.498 51.9766 53.1074 51.9766 53.9004ZM63.373 53.9004C63.373 54.8652 63.1523 55.6426 62.7109 56.2324C62.2695 56.8223 61.6719 57.1172 60.918 57.1172C60.1484 57.1172 59.543 56.873 59.1016 56.3848V59.4375H58.0176V50.6602H59.0078L59.0605 51.3633C59.502 50.8164 60.1152 50.543 60.9004 50.543C61.6621 50.543 62.2637 50.8301 62.7051 51.4043C63.1504 51.9785 63.373 52.7773 63.373 53.8008V53.9004ZM62.2891 53.7773C62.2891 53.0625 62.1367 52.498 61.832 52.084C61.5273 51.6699 61.1094 51.4629 60.5781 51.4629C59.9219 51.4629 59.4297 51.7539 59.1016 52.3359V55.3652C59.4258 55.9434 59.9219 56.2324 60.5898 56.2324C61.1094 56.2324 61.5215 56.0273 61.8262 55.6172C62.1348 55.2031 62.2891 54.5898 62.2891 53.7773ZM65.9336 57H64.8496V48H65.9336V57ZM70.3047 57.1172C69.4453 57.1172 68.7461 56.8359 68.207 56.2734C67.668 55.707 67.3984 54.9512 67.3984 54.0059V53.8066C67.3984 53.1777 67.5176 52.6172 67.7559 52.125C67.998 51.6289 68.334 51.2422 68.7637 50.9648C69.1973 50.6836 69.666 50.543 70.1699 50.543C70.9941 50.543 71.6348 50.8145 72.0918 51.3574C72.5488 51.9004 72.7773 52.6777 72.7773 53.6895V54.1406H68.4824C68.498 54.7656 68.6797 55.2715 69.0273 55.6582C69.3789 56.041 69.8242 56.2324 70.3633 56.2324C70.7461 56.2324 71.0703 56.1543 71.3359 55.998C71.6016 55.8418 71.834 55.6348 72.0332 55.377L72.6953 55.8926C72.1641 56.709 71.3672 57.1172 70.3047 57.1172ZM70.1699 51.4336C69.7324 51.4336 69.3652 51.5938 69.0684 51.9141C68.7715 52.2305 68.5879 52.6758 68.5176 53.25H71.6934V53.168C71.6621 52.6172 71.5137 52.1914 71.248 51.8906C70.9824 51.5859 70.623 51.4336 70.1699 51.4336ZM83.7402 57H82.6094V53.0566H78.3086V57H77.1836V48.4688H78.3086V52.1367H82.6094V48.4688H83.7402V57ZM88.8672 53.5488H86.8633V57H85.7324V48.4688H88.5566C89.5176 48.4688 90.2559 48.6875 90.7715 49.125C91.291 49.5625 91.5508 50.1992 91.5508 51.0352C91.5508 51.5664 91.4062 52.0293 91.1172 52.4238C90.832 52.8184 90.4336 53.1133 89.9219 53.3086L91.9258 56.9297V57H90.7188L88.8672 53.5488ZM86.8633 52.6289H88.5918C89.1504 52.6289 89.5938 52.4844 89.9219 52.1953C90.2539 51.9062 90.4199 51.5195 90.4199 51.0352C90.4199 50.5078 90.2617 50.1035 89.9453 49.8223C89.6328 49.541 89.1797 49.3984 88.5859 49.3945H86.8633V52.6289ZM94.5859 48.4688L97.375 55.4297L100.164 48.4688H101.623V57H100.498V53.6777L100.604 50.0918L97.8027 57H96.9414L94.1465 50.1094L94.2578 53.6777V57H93.1328V48.4688H94.5859Z" fill="#1E243C"/>
  <path d="M75.1502 13.4336H48.7563C48.2487 13.4336 47.7619 13.6353 47.4029 13.9942C47.0439 14.3532 46.8423 14.84 46.8423 15.3477V16.2686C46.8423 15.7343 47.0545 15.2218 47.4324 14.844C47.8102 14.4662 48.3226 14.2539 48.857 14.2539H75.0509C75.5853 14.2539 76.0977 14.4662 76.4755 14.844C76.8533 15.2218 77.0656 15.7343 77.0656 16.2686V15.3477C77.0656 15.0962 77.0161 14.8472 76.9198 14.6149C76.8235 14.3825 76.6824 14.1715 76.5045 13.9937C76.3266 13.816 76.1155 13.675 75.8831 13.5789C75.6507 13.4828 75.4017 13.4334 75.1502 13.4336Z" fill="white"/>
  <path d="M68.1104 39.2318H55.7956C55.47 39.2318 55.2061 39.4958 55.2061 39.8213V39.8834C55.2061 40.209 55.47 40.4729 55.7956 40.4729H68.1104C68.436 40.4729 68.6999 40.209 68.6999 39.8834V39.8213C68.6999 39.4958 68.436 39.2318 68.1104 39.2318Z" fill="white"/>
  <path d="M70.4918 32.8298C70.3779 32.8299 70.2666 32.8637 70.172 32.9271C70.0773 32.9904 70.0036 33.0804 69.9601 33.1857C69.9166 33.2909 69.9053 33.4067 69.9277 33.5184C69.95 33.6301 70.005 33.7326 70.0857 33.813C70.1663 33.8934 70.269 33.9481 70.3807 33.9701C70.4925 33.9922 70.6082 33.9806 70.7134 33.9368C70.8185 33.893 70.9083 33.819 70.9714 33.7242C71.0344 33.6294 71.0679 33.5179 71.0677 33.4041C71.0673 33.2516 71.0065 33.1055 70.8985 32.9978C70.7905 32.8902 70.6443 32.8298 70.4918 32.8298Z" fill="#E38FB5"/>
  <path d="M72.5077 32.8298C72.3938 32.8298 72.2825 32.8636 72.1878 32.9269C72.0931 32.9902 72.0193 33.0802 71.9758 33.1855C71.9323 33.2907 71.921 33.4065 71.9433 33.5182C71.9656 33.6299 72.0206 33.7325 72.1012 33.8129C72.1818 33.8934 72.2845 33.9481 72.3963 33.9701C72.508 33.9922 72.6238 33.9806 72.7289 33.9368C72.8341 33.893 72.9239 33.819 72.987 33.7242C73.05 33.6294 73.0836 33.518 73.0833 33.4041C73.0833 33.3285 73.0684 33.2538 73.0395 33.184C73.0105 33.1142 72.9681 33.0509 72.9146 32.9975C72.8612 32.9442 72.7977 32.9019 72.7279 32.8732C72.6581 32.8444 72.5832 32.8297 72.5077 32.8298Z" fill="#E38FB5"/>
  <path d="M74.5216 32.8298C74.4077 32.8299 74.2964 32.8637 74.2018 32.9271C74.1071 32.9904 74.0334 33.0804 73.9899 33.1857C73.9464 33.2909 73.9351 33.4067 73.9575 33.5184C73.9798 33.6301 74.0348 33.7326 74.1155 33.813C74.1961 33.8934 74.2988 33.9481 74.4105 33.9701C74.5223 33.9922 74.638 33.9806 74.7432 33.9368C74.8483 33.893 74.9381 33.819 75.0011 33.7242C75.0642 33.6294 75.0977 33.5179 75.0975 33.4041C75.0971 33.2516 75.0363 33.1055 74.9283 32.9978C74.8203 32.8902 74.6741 32.8298 74.5216 32.8298Z" fill="#B9256A"/>
  <path d="M69.9838 28.2284V27.5448C69.9838 27.3708 69.9146 27.2039 69.7916 27.0808C69.6685 26.9577 69.5016 26.8886 69.3275 26.8886H67.6374C67.4634 26.8886 67.2965 26.8195 67.1734 26.6964C67.0503 26.5733 66.9812 26.4064 66.9812 26.2323V24.9745C66.9812 24.9165 66.9581 24.8609 66.9171 24.8199C66.8761 24.7788 66.8204 24.7558 66.7624 24.7558H66.4649C66.3959 24.7557 66.3279 24.7393 66.2664 24.7079C66.2049 24.6766 66.1518 24.6311 66.1112 24.5752C66.0707 24.5193 66.0439 24.4547 66.0332 24.3865C66.0224 24.3183 66.0279 24.2486 66.0493 24.1829L66.7911 21.9134V21.4428C66.7913 20.3805 67.2133 19.3618 67.9645 18.6107C68.7157 17.8596 69.7344 17.4376 70.7967 17.4375C71.4031 17.4375 72.0015 17.5751 72.5469 17.8399C73.0923 18.1048 73.5705 18.49 73.9454 18.9666C74.3204 19.4431 74.5822 19.9985 74.7113 20.591C74.8403 21.1834 74.8332 21.7974 74.6905 22.3867L74.1111 24.7796C73.8959 25.6682 73.8617 26.591 74.0104 27.4932L74.1173 28.1404C74.1303 28.2187 74.126 28.2989 74.1048 28.3754C74.0837 28.4519 74.0461 28.5229 73.9947 28.5834C73.9434 28.6439 73.8795 28.6925 73.8074 28.7259C73.7354 28.7592 73.657 28.7764 73.5776 28.7764H70.5307C70.4588 28.7764 70.3876 28.7622 70.3211 28.7347C70.2547 28.7071 70.1944 28.6667 70.1436 28.6158C70.0928 28.5649 70.0525 28.5045 70.0251 28.4381C69.9977 28.3716 69.9836 28.3003 69.9838 28.2284Z" fill="#B9256A"/>
  <path d="M53.9223 28.2284V27.5448C53.9223 27.3708 53.9914 27.2039 54.1145 27.0808C54.2376 26.9577 54.4045 26.8886 54.5785 26.8886H56.2692C56.4433 26.8886 56.6102 26.8195 56.7332 26.6964C56.8563 26.5733 56.9255 26.4064 56.9255 26.2323V24.9745C56.9255 24.9165 56.9485 24.8609 56.9895 24.8199C57.0306 24.7788 57.0862 24.7558 57.1442 24.7558H57.4412C57.5102 24.7557 57.5782 24.7393 57.6397 24.7079C57.7012 24.6766 57.7543 24.6311 57.7949 24.5752C57.8354 24.5193 57.8621 24.4547 57.8729 24.3865C57.8837 24.3183 57.8781 24.2486 57.8568 24.1829L57.1152 21.9134V21.4428C57.115 20.3805 56.6929 19.3618 55.9417 18.6107C55.1904 17.8596 54.1717 17.4376 53.1094 17.4375C52.503 17.4375 51.9046 17.5751 51.3592 17.8399C50.8137 18.1048 50.3355 18.49 49.9606 18.9666C49.5857 19.4431 49.3239 19.9985 49.1948 20.591C49.0658 21.1834 49.0729 21.7974 49.2156 22.3867L49.795 24.7796C50.0102 25.6682 50.0444 26.591 49.8957 27.4932L49.789 28.1404C49.7761 28.2187 49.7803 28.2989 49.8015 28.3753C49.8226 28.4518 49.8602 28.5228 49.9115 28.5833C49.9629 28.6438 50.0267 28.6924 50.0987 28.7258C50.1708 28.7591 50.2492 28.7764 50.3285 28.7764H53.3754C53.4473 28.7764 53.5185 28.7622 53.585 28.7347C53.6514 28.7071 53.7117 28.6667 53.7625 28.6158C53.8133 28.5649 53.8536 28.5045 53.881 28.4381C53.9084 28.3716 53.9224 28.3003 53.9223 28.2284Z" fill="#E38FB5"/>
  <path d="M64.9609 22.6042L63.1051 21.0651V21.9587H58.9453V23.2496H63.1051V24.1434L64.9609 22.6042Z" fill="#E38FB5"/>
  <path d="M58.9453 19.438L60.8011 20.9772V20.0833H64.9609V18.7924H60.8011V17.8988L58.9453 19.438Z" fill="#B9256A"/>
  <path d="M62.3367 31.3706H60.6633C60.62 31.3706 60.5784 31.3994 60.5478 31.4507C60.5172 31.502 60.5 31.5715 60.5 31.644C60.5 31.7166 60.5172 31.7861 60.5478 31.8374C60.5784 31.8887 60.62 31.9175 60.6633 31.9175H62.3367C62.38 31.9175 62.4216 31.8887 62.4522 31.8374C62.4828 31.7861 62.5 31.7166 62.5 31.644C62.5 31.5715 62.4828 31.502 62.4522 31.4507C62.4216 31.3994 62.38 31.3706 62.3367 31.3706Z" fill="#1E243C" stroke="#1E243C" stroke-width="0.5"/>
  <path d="M66.4652 25.0323H66.7091V26.2354C66.7091 26.482 66.807 26.7184 66.9814 26.8928C67.1557 27.0671 67.3922 27.1651 67.6388 27.1651H69.3294C69.3797 27.1651 69.4295 27.175 69.4759 27.1942C69.5224 27.2135 69.5646 27.2417 69.6001 27.2772C69.6357 27.3128 69.6639 27.355 69.6831 27.4014C69.7023 27.4478 69.7123 27.4976 69.7123 27.5479V28.2315C69.7123 28.449 69.7987 28.6577 69.9525 28.8115C70.1064 28.9654 70.315 29.0518 70.5326 29.0518H73.5795C73.6985 29.0518 73.8161 29.026 73.9242 28.976C74.0322 28.926 74.1281 28.8531 74.2051 28.7624C74.2821 28.6716 74.3385 28.5652 74.3703 28.4505C74.4021 28.3358 74.4085 28.2155 74.3891 28.098L74.2822 27.4505C74.1383 26.5847 74.171 25.6987 74.3785 24.8458L74.9581 22.4529C75.1004 21.8651 75.1164 21.2539 75.0052 20.6594C74.894 20.065 74.6581 19.5009 74.3129 19.0043C73.9678 18.5077 73.5214 18.0898 73.003 17.7783C72.4847 17.4668 71.9062 17.2687 71.3057 17.197C70.7052 17.1254 70.0964 17.1818 69.5193 17.3626C68.9422 17.5434 68.4099 17.8444 67.9577 18.2459C67.5054 18.6473 67.1433 19.1401 66.8954 19.6917C66.6474 20.2432 66.5191 20.8411 66.519 21.4459V21.8768L65.7909 24.1039C65.7561 24.2106 65.7471 24.324 65.7645 24.4349C65.782 24.5457 65.8254 24.6509 65.8913 24.7417C65.9571 24.8325 66.0436 24.9065 66.1435 24.9575C66.2435 25.0085 66.3541 25.0352 66.4663 25.0353L66.4652 25.0323ZM66.3096 24.2707L67.0512 22.0012C67.0602 21.9739 67.0648 21.9452 67.0648 21.9164V21.4429C67.0649 20.9154 67.1768 20.3939 67.3931 19.9128C67.6094 19.4317 67.9252 19.0019 68.3197 18.6518C68.7142 18.3016 69.1784 18.0391 69.6817 17.8814C70.1851 17.7237 70.7162 17.6745 71.2399 17.737C71.7637 17.7995 72.2682 17.9724 72.7203 18.2441C73.1724 18.5158 73.5618 18.8802 73.8628 19.3134C74.1638 19.7466 74.3696 20.2386 74.4666 20.7571C74.5636 21.2756 74.5496 21.8087 74.4255 22.3214L73.8461 24.7143C73.6212 25.6383 73.5856 26.5983 73.7414 27.5364L73.848 28.1836C73.8545 28.2228 73.8523 28.2629 73.8417 28.3011C73.8312 28.3394 73.8124 28.3749 73.7867 28.4051C73.761 28.4354 73.7291 28.4597 73.693 28.4764C73.657 28.493 73.6178 28.5017 73.5781 28.5016H70.5309C70.4584 28.5016 70.3889 28.4728 70.3376 28.4216C70.2863 28.3703 70.2575 28.3007 70.2575 28.2282V27.5446C70.2575 27.298 70.1595 27.0616 69.9852 26.8872C69.8108 26.7129 69.5744 26.6149 69.3278 26.6149H67.6377C67.5362 26.6149 67.4388 26.5746 67.367 26.5028C67.2952 26.431 67.2549 26.3336 67.2549 26.2321V24.9743C67.2549 24.8438 67.203 24.7186 67.1107 24.6263C67.0184 24.534 66.8932 24.4821 66.7627 24.4821H66.4652C66.4393 24.482 66.4139 24.4759 66.3909 24.4641C66.3679 24.4523 66.348 24.4353 66.3328 24.4143C66.3177 24.3934 66.3077 24.3692 66.3036 24.3437C66.2996 24.3182 66.3016 24.292 66.3096 24.2675V24.2707Z" fill="#1E243C"/>
  <path d="M57.3892 21.8738V21.4428C57.3893 20.838 57.2612 20.24 57.0133 19.6883C56.7654 19.1366 56.4033 18.6437 55.951 18.2421C55.4987 17.8405 54.9664 17.5394 54.3893 17.3585C53.8121 17.1777 53.2031 17.1212 52.6025 17.1929C52.0019 17.2645 51.4234 17.4627 50.905 17.7743C50.3865 18.0859 49.9401 18.5039 49.595 19.0006C49.2499 19.4973 49.014 20.0616 48.9029 20.6562C48.7918 21.2507 48.808 21.8621 48.9504 22.4499L49.5295 24.8428C49.7372 25.6956 49.77 26.5817 49.6261 27.4475L49.5194 28.095C49.5001 28.2125 49.5065 28.3327 49.5382 28.4474C49.57 28.5621 49.6263 28.6685 49.7033 28.7592C49.7804 28.85 49.8762 28.9229 49.9842 28.9729C50.0922 29.0229 50.2098 29.0488 50.3288 29.0488H53.3757C53.5933 29.0488 53.8019 28.9623 53.9557 28.8085C54.1096 28.6547 54.196 28.446 54.196 28.2285V27.5449C54.196 27.4433 54.2363 27.346 54.3081 27.2742C54.3799 27.2024 54.4773 27.1621 54.5788 27.1621H56.2695C56.5161 27.1621 56.7525 27.0641 56.9269 26.8898C57.1012 26.7154 57.1992 26.4789 57.1992 26.2324V25.0292H57.4414C57.5537 25.0292 57.6643 25.0026 57.7643 24.9516C57.8643 24.9006 57.9507 24.8266 58.0166 24.7358C58.0825 24.6449 58.126 24.5398 58.1435 24.4289C58.1609 24.318 58.1519 24.2046 58.1171 24.0979L57.3892 21.8738ZM57.5746 24.4167C57.5596 24.4379 57.5397 24.455 57.5166 24.4668C57.4935 24.4785 57.4679 24.4845 57.442 24.4843H57.1434C57.0129 24.4843 56.8877 24.5361 56.7954 24.6284C56.7031 24.7207 56.6512 24.8459 56.6512 24.9765V26.2343C56.6512 26.3358 56.6109 26.4332 56.5391 26.505C56.4673 26.5768 56.3699 26.6171 56.2684 26.6171H54.5783C54.3317 26.6171 54.0952 26.715 53.9209 26.8894C53.7465 27.0637 53.6486 27.3002 53.6486 27.5468V28.2304C53.6486 28.3029 53.6198 28.3724 53.5685 28.4237C53.5172 28.475 53.4477 28.5038 53.3752 28.5038H50.3288C50.2889 28.5039 50.2494 28.4953 50.2132 28.4785C50.1769 28.4617 50.1448 28.4372 50.1191 28.4067C50.0933 28.3762 50.0746 28.3404 50.0641 28.3019C50.0537 28.2633 50.0518 28.223 50.0586 28.1836L50.1655 27.5361C50.3213 26.598 50.2857 25.638 50.0608 24.714L49.4817 22.3214C49.3576 21.8087 49.3436 21.2756 49.4406 20.7571C49.5376 20.2386 49.7434 19.7466 50.0443 19.3134C50.3453 18.8802 50.7347 18.5158 51.1868 18.2441C51.6389 17.9723 52.1435 17.7995 52.6673 17.737C53.191 17.6745 53.7221 17.7237 54.2254 17.8814C54.7288 18.0391 55.193 18.3016 55.5875 18.6518C55.982 19.0019 56.2978 19.4317 56.5141 19.9128C56.7304 20.3939 56.8423 20.9154 56.8423 21.4428V21.9175C56.8424 21.9463 56.847 21.9749 56.856 22.0023L57.5976 24.2718C57.6058 24.2962 57.608 24.3222 57.604 24.3476C57.6 24.3731 57.5899 24.3972 57.5746 24.4178V24.4167Z" fill="#1E243C"/>
  <path d="M75.1502 13.1602H48.7563C48.1764 13.1608 47.6204 13.3915 47.2103 13.8016C46.8002 14.2117 46.5695 14.7677 46.5688 15.3477V33.4656C46.5695 34.0456 46.8002 34.6016 47.2103 35.0117C47.6204 35.4218 48.1764 35.6525 48.7563 35.6531H58.8309L58.3368 38.9584H55.7957C55.5669 38.9586 55.3476 39.0496 55.1858 39.2114C55.0241 39.3732 54.9332 39.5926 54.933 39.8214V39.8835C54.9332 40.1122 55.0242 40.3315 55.1859 40.4932C55.3477 40.655 55.567 40.7459 55.7957 40.7462H68.1108C68.3396 40.7459 68.5589 40.655 68.7207 40.4933C68.8825 40.3315 68.9735 40.1122 68.9738 39.8835V39.8214C68.9736 39.5926 68.8826 39.3732 68.7208 39.2114C68.559 39.0496 68.3396 38.9586 68.1108 38.9584H65.5697L65.0756 35.6531H75.1502C75.7301 35.6525 76.2862 35.4218 76.6963 35.0117C77.1063 34.6016 77.337 34.0456 77.3377 33.4656V15.3477C77.337 14.7677 77.1063 14.2117 76.6963 13.8016C76.2862 13.3915 75.7301 13.1608 75.1502 13.1602ZM68.4269 39.8203V39.8824C68.4268 39.9661 68.3934 40.0464 68.3341 40.1056C68.2749 40.1648 68.1946 40.1981 68.1108 40.1982H55.7957C55.712 40.1981 55.6317 40.1648 55.5725 40.1056C55.5133 40.0464 55.48 39.9661 55.4799 39.8824V39.8203C55.4799 39.7365 55.5132 39.6562 55.5724 39.5969C55.6316 39.5376 55.7119 39.5043 55.7957 39.5042H68.1108C68.1524 39.5042 68.1936 39.5125 68.232 39.5285C68.2704 39.5444 68.3053 39.5678 68.3346 39.5973C68.364 39.6267 68.3872 39.6617 68.4031 39.7001C68.4189 39.7386 68.427 39.7798 68.4269 39.8214V39.8203ZM65.0158 38.9584H58.8908L59.3829 35.6531H64.5236L65.0158 38.9584ZM75.1494 35.1062H48.7563C48.3214 35.1057 47.9044 34.9327 47.5968 34.6252C47.2892 34.3176 47.1162 33.9006 47.1157 33.4656V31.9174H58.9454C59.018 31.9174 59.0875 31.8886 59.1388 31.8373C59.1901 31.786 59.2189 31.7165 59.2189 31.644C59.2189 31.5715 59.1901 31.5019 59.1388 31.4506C59.0875 31.3993 59.018 31.3705 58.9454 31.3705H47.1157V15.3471C47.1162 14.9121 47.2892 14.4951 47.5968 14.1876C47.9044 13.88 48.3214 13.707 48.7563 13.7065H75.1502C75.5852 13.7069 76.0022 13.8799 76.3098 14.1875C76.6174 14.4951 76.7904 14.9121 76.7908 15.3471V31.3705H64.3286C64.2561 31.3705 64.1865 31.3993 64.1353 31.4506C64.084 31.5019 64.0552 31.5715 64.0552 31.644C64.0552 31.7165 64.084 31.786 64.1353 31.8373C64.1865 31.8886 64.2561 31.9174 64.3286 31.9174H76.7908V33.4656C76.7904 33.9006 76.6174 34.3177 76.3098 34.6252C76.0022 34.9328 75.5843 35.1058 75.1494 35.1062Z" fill="#1E243C" stroke="#1E243C" stroke-width="0.5"/>
  <path d="M62.8317 24.1433C62.8317 24.1952 62.8465 24.2461 62.8743 24.2899C62.9022 24.3337 62.9419 24.3687 62.9889 24.3908C63.0253 24.4077 63.065 24.4166 63.1051 24.4167C63.1689 24.4167 63.2306 24.3943 63.2796 24.3536L65.1354 22.8144C65.1663 22.7887 65.1912 22.7566 65.2083 22.7202C65.2253 22.6838 65.2342 22.6442 65.2342 22.604C65.2342 22.5638 65.2253 22.5241 65.2083 22.4878C65.1912 22.4514 65.1663 22.4192 65.1354 22.3936L63.2796 20.8555C63.2396 20.8224 63.191 20.8013 63.1395 20.7948C63.0881 20.7882 63.0358 20.7965 62.9888 20.8186C62.9418 20.8407 62.9021 20.8757 62.8743 20.9195C62.8465 20.9633 62.8317 21.0141 62.8317 21.066V21.6862H58.9453C58.8728 21.6862 58.8032 21.715 58.752 21.7663C58.7007 21.8176 58.6719 21.8871 58.6719 21.9596V23.2505C58.6719 23.323 58.7007 23.3926 58.752 23.4439C58.8032 23.4952 58.8728 23.524 58.9453 23.524H62.8317V24.1433ZM59.2188 22.976V22.232H63.1051C63.1776 22.232 63.2472 22.2032 63.2985 22.1519C63.3497 22.1006 63.3786 22.0311 63.3786 21.9585V21.6468L64.5325 22.6038L63.3786 23.5609V23.2492C63.3786 23.1766 63.3497 23.1071 63.2985 23.0558C63.2472 23.0045 63.1776 22.9757 63.1051 22.9757L59.2188 22.976Z" fill="#1E243C"/>
  <path d="M60.627 21.1874C60.6669 21.2205 60.7155 21.2416 60.767 21.2481C60.8184 21.2547 60.8707 21.2464 60.9176 21.2244C60.9646 21.2023 61.0043 21.1674 61.0322 21.1236C61.06 21.0798 61.0748 21.029 61.0749 20.9772V20.3567H64.9613C65.0338 20.3567 65.1033 20.3279 65.1546 20.2766C65.2059 20.2254 65.2347 20.1558 65.2347 20.0833V18.7924C65.2347 18.7199 65.2059 18.6503 65.1546 18.599C65.1033 18.5478 65.0338 18.519 64.9613 18.519H61.0749V17.8988C61.0749 17.8469 61.0601 17.7961 61.0323 17.7522C61.0045 17.7084 60.9647 17.6734 60.9178 17.6513C60.8708 17.6293 60.8185 17.621 60.767 17.6275C60.7155 17.6341 60.667 17.6551 60.627 17.6882L58.7712 19.2274C58.7403 19.2531 58.7154 19.2852 58.6983 19.3216C58.6812 19.358 58.6724 19.3977 58.6724 19.4378C58.6724 19.478 58.6812 19.5177 58.6983 19.5541C58.7154 19.5904 58.7403 19.6226 58.7712 19.6482L60.627 21.1874ZM60.528 18.4804V18.7921C60.528 18.8646 60.5568 18.9342 60.6081 18.9855C60.6594 19.0367 60.7289 19.0656 60.8014 19.0656H64.6878V19.8096H60.8014C60.7289 19.8096 60.6594 19.8384 60.6081 19.8897C60.5568 19.9409 60.528 20.0105 60.528 20.083V20.3947L59.3738 19.4377L60.528 18.4804Z" fill="#1E243C"/>
</svg>
