<svg width="125" height="68" viewBox="0 0 125 68" fill="none" xmlns="http://www.w3.org/2000/svg">
<path d="M34.1934 53.0098C34.1934 53.8457 34.0527 54.5762 33.7715 55.2012C33.4902 55.8223 33.0918 56.2969 32.5762 56.625C32.0605 56.9531 31.459 57.1172 30.7715 57.1172C30.0996 57.1172 29.5039 56.9531 28.9844 56.625C28.4648 56.293 28.0605 55.8223 27.7715 55.2129C27.4863 54.5996 27.3398 53.8906 27.332 53.0859V52.4707C27.332 51.6504 27.4746 50.9258 27.7598 50.2969C28.0449 49.668 28.4473 49.1875 28.9668 48.8555C29.4902 48.5195 30.0879 48.3516 30.7598 48.3516C31.4434 48.3516 32.0449 48.5176 32.5645 48.8496C33.0879 49.1777 33.4902 49.6562 33.7715 50.2852C34.0527 50.9102 34.1934 51.6387 34.1934 52.4707V53.0098ZM33.0742 52.459C33.0742 51.4473 32.8711 50.6719 32.4648 50.1328C32.0586 49.5898 31.4902 49.3184 30.7598 49.3184C30.0488 49.3184 29.4883 49.5898 29.0781 50.1328C28.6719 50.6719 28.4629 51.4219 28.4512 52.3828V53.0098C28.4512 53.9902 28.6562 54.7617 29.0664 55.3242C29.4805 55.8828 30.0488 56.1621 30.7715 56.1621C31.498 56.1621 32.0605 55.8984 32.459 55.3711C32.8574 54.8398 33.0625 54.0801 33.0742 53.0918V52.459ZM36.7363 50.6602L36.7715 51.457C37.2559 50.8477 37.8887 50.543 38.6699 50.543C40.0098 50.543 40.6855 51.2988 40.6973 52.8105V57H39.6133V52.8047C39.6094 52.3477 39.5039 52.0098 39.2969 51.791C39.0938 51.5723 38.7754 51.4629 38.3418 51.4629C37.9902 51.4629 37.6816 51.5566 37.416 51.7441C37.1504 51.9316 36.9434 52.1777 36.7949 52.4824V57H35.7109V50.6602H36.7363ZM46.0234 55.3184C46.0234 55.0254 45.9121 54.7988 45.6895 54.6387C45.4707 54.4746 45.0859 54.334 44.5352 54.2168C43.9883 54.0996 43.5527 53.959 43.2285 53.7949C42.9082 53.6309 42.6699 53.4355 42.5137 53.209C42.3613 52.9824 42.2852 52.7129 42.2852 52.4004C42.2852 51.8809 42.5039 51.4414 42.9414 51.082C43.3828 50.7227 43.9453 50.543 44.6289 50.543C45.3477 50.543 45.9297 50.7285 46.375 51.0996C46.8242 51.4707 47.0488 51.9453 47.0488 52.5234H45.959C45.959 52.2266 45.832 51.9707 45.5781 51.7559C45.3281 51.541 45.0117 51.4336 44.6289 51.4336C44.2344 51.4336 43.9258 51.5195 43.7031 51.6914C43.4805 51.8633 43.3691 52.0879 43.3691 52.3652C43.3691 52.627 43.4727 52.8242 43.6797 52.957C43.8867 53.0898 44.2598 53.2168 44.7988 53.3379C45.3418 53.459 45.7812 53.6035 46.1172 53.7715C46.4531 53.9395 46.7012 54.1426 46.8613 54.3809C47.0254 54.6152 47.1074 54.9023 47.1074 55.2422C47.1074 55.8086 46.8809 56.2637 46.4277 56.6074C45.9746 56.9473 45.3867 57.1172 44.6641 57.1172C44.1562 57.1172 43.707 57.0273 43.3164 56.8477C42.9258 56.668 42.6191 56.418 42.3965 56.0977C42.1777 55.7734 42.0684 55.4238 42.0684 55.0488H43.1523C43.1719 55.4121 43.3164 55.7012 43.5859 55.916C43.8594 56.127 44.2188 56.2324 44.6641 56.2324C45.0742 56.2324 45.4023 56.1504 45.6484 55.9863C45.8984 55.8184 46.0234 55.5957 46.0234 55.3184ZM52.4336 57C52.3711 56.875 52.3203 56.6523 52.2812 56.332C51.7773 56.8555 51.1758 57.1172 50.4766 57.1172C49.8516 57.1172 49.3379 56.9414 48.9355 56.5898C48.5371 56.2344 48.3379 55.7852 48.3379 55.2422C48.3379 54.582 48.5879 54.0703 49.0879 53.707C49.5918 53.3398 50.2988 53.1562 51.209 53.1562H52.2637V52.6582C52.2637 52.2793 52.1504 51.9785 51.9238 51.7559C51.6973 51.5293 51.3633 51.416 50.9219 51.416C50.5352 51.416 50.2109 51.5137 49.9492 51.709C49.6875 51.9043 49.5566 52.1406 49.5566 52.418H48.4668C48.4668 52.1016 48.5781 51.7969 48.8008 51.5039C49.0273 51.207 49.332 50.9727 49.7148 50.8008C50.1016 50.6289 50.5254 50.543 50.9863 50.543C51.7168 50.543 52.2891 50.7266 52.7031 51.0938C53.1172 51.457 53.332 51.959 53.3477 52.5996V55.5176C53.3477 56.0996 53.4219 56.5625 53.5703 56.9062V57H52.4336ZM50.6348 56.1738C50.9746 56.1738 51.2969 56.0859 51.6016 55.9102C51.9062 55.7344 52.127 55.5059 52.2637 55.2246V53.9238H51.4141C50.0859 53.9238 49.4219 54.3125 49.4219 55.0898C49.4219 55.4297 49.5352 55.6953 49.7617 55.8867C49.9883 56.0781 50.2793 56.1738 50.6348 56.1738ZM56.2246 57H55.1406V48H56.2246V57ZM60.5957 57.1172C59.7363 57.1172 59.0371 56.8359 58.498 56.2734C57.959 55.707 57.6895 54.9512 57.6895 54.0059V53.8066C57.6895 53.1777 57.8086 52.6172 58.0469 52.125C58.2891 51.6289 58.625 51.2422 59.0547 50.9648C59.4883 50.6836 59.957 50.543 60.4609 50.543C61.2852 50.543 61.9258 50.8145 62.3828 51.3574C62.8398 51.9004 63.0684 52.6777 63.0684 53.6895V54.1406H58.7734C58.7891 54.7656 58.9707 55.2715 59.3184 55.6582C59.6699 56.041 60.1152 56.2324 60.6543 56.2324C61.0371 56.2324 61.3613 56.1543 61.627 55.998C61.8926 55.8418 62.125 55.6348 62.3242 55.377L62.9863 55.8926C62.4551 56.709 61.6582 57.1172 60.5957 57.1172ZM60.4609 51.4336C60.0234 51.4336 59.6562 51.5938 59.3594 51.9141C59.0625 52.2305 58.8789 52.6758 58.8086 53.25H61.9844V53.168C61.9531 52.6172 61.8047 52.1914 61.5391 51.8906C61.2734 51.5859 60.9141 51.4336 60.4609 51.4336ZM68.0195 55.3184C68.0195 55.0254 67.9082 54.7988 67.6855 54.6387C67.4668 54.4746 67.082 54.334 66.5312 54.2168C65.9844 54.0996 65.5488 53.959 65.2246 53.7949C64.9043 53.6309 64.666 53.4355 64.5098 53.209C64.3574 52.9824 64.2812 52.7129 64.2812 52.4004C64.2812 51.8809 64.5 51.4414 64.9375 51.082C65.3789 50.7227 65.9414 50.543 66.625 50.543C67.3438 50.543 67.9258 50.7285 68.3711 51.0996C68.8203 51.4707 69.0449 51.9453 69.0449 52.5234H67.9551C67.9551 52.2266 67.8281 51.9707 67.5742 51.7559C67.3242 51.541 67.0078 51.4336 66.625 51.4336C66.2305 51.4336 65.9219 51.5195 65.6992 51.6914C65.4766 51.8633 65.3652 52.0879 65.3652 52.3652C65.3652 52.627 65.4688 52.8242 65.6758 52.957C65.8828 53.0898 66.2559 53.2168 66.7949 53.3379C67.3379 53.459 67.7773 53.6035 68.1133 53.7715C68.4492 53.9395 68.6973 54.1426 68.8574 54.3809C69.0215 54.6152 69.1035 54.9023 69.1035 55.2422C69.1035 55.8086 68.877 56.2637 68.4238 56.6074C67.9707 56.9473 67.3828 57.1172 66.6602 57.1172C66.1523 57.1172 65.7031 57.0273 65.3125 56.8477C64.9219 56.668 64.6152 56.418 64.3926 56.0977C64.1738 55.7734 64.0645 55.4238 64.0645 55.0488H65.1484C65.168 55.4121 65.3125 55.7012 65.582 55.916C65.8555 56.127 66.2148 56.2324 66.6602 56.2324C67.0703 56.2324 67.3984 56.1504 67.6445 55.9863C67.8945 55.8184 68.0195 55.5957 68.0195 55.3184ZM79.9375 54.293C79.832 55.1953 79.498 55.8926 78.9355 56.3848C78.377 56.873 77.6328 57.1172 76.7031 57.1172C75.6953 57.1172 74.8867 56.7559 74.2773 56.0332C73.6719 55.3105 73.3691 54.3438 73.3691 53.1328V52.3125C73.3691 51.5195 73.5098 50.8223 73.791 50.2207C74.0762 49.6191 74.4785 49.1582 74.998 48.8379C75.5176 48.5137 76.1191 48.3516 76.8027 48.3516C77.709 48.3516 78.4355 48.6055 78.9824 49.1133C79.5293 49.6172 79.8477 50.3164 79.9375 51.2109H78.8066C78.709 50.5312 78.4961 50.0391 78.168 49.7344C77.8438 49.4297 77.3887 49.2773 76.8027 49.2773C76.084 49.2773 75.5195 49.543 75.1094 50.0742C74.7031 50.6055 74.5 51.3613 74.5 52.3418V53.168C74.5 54.0938 74.6934 54.8301 75.0801 55.377C75.4668 55.9238 76.0078 56.1973 76.7031 56.1973C77.3281 56.1973 77.8066 56.0566 78.1387 55.7754C78.4746 55.4902 78.6973 54.9961 78.8066 54.293H79.9375ZM84.6074 53.5488H82.6035V57H81.4727V48.4688H84.2969C85.2578 48.4688 85.9961 48.6875 86.5117 49.125C87.0312 49.5625 87.291 50.1992 87.291 51.0352C87.291 51.5664 87.1465 52.0293 86.8574 52.4238C86.5723 52.8184 86.1738 53.1133 85.6621 53.3086L87.666 56.9297V57H86.459L84.6074 53.5488ZM82.6035 52.6289H84.332C84.8906 52.6289 85.334 52.4844 85.6621 52.1953C85.9941 51.9062 86.1602 51.5195 86.1602 51.0352C86.1602 50.5078 86.002 50.1035 85.6855 49.8223C85.373 49.541 84.9199 49.3984 84.3262 49.3945H82.6035V52.6289ZM90.3262 48.4688L93.1152 55.4297L95.9043 48.4688H97.3633V57H96.2383V53.6777L96.3438 50.0918L93.543 57H92.6816L89.8867 50.1094L89.998 53.6777V57H88.873V48.4688H90.3262Z" fill="#1E243C"/>
<g clip-path="url(#clip0)">
<path d="M52.8445 27.3457C57.14 21.5436 61.7983 18.0127 70.6126 17.1788C69.7787 25.9931 66.119 30.5225 60.3169 34.8181C57.2522 31.7534 56.2029 30.7041 52.8445 27.3457Z" fill="#B9256A"/>
<path d="M60.3165 34.819L63.5528 38.0553C63.5528 38.0553 67.3529 33.7461 66.3051 29.1637C64.6971 31.2714 62.6855 33.0649 60.3165 34.819Z" fill="#E38FB5"/>
<path d="M58.5674 21.3887C53.9671 20.303 49.6278 24.1291 49.6278 24.1291L52.8446 27.3459C54.6045 24.969 56.4254 22.974 58.5674 21.3887Z" fill="#E38FB5"/>
<path d="M52.8555 27.3563L60.326 34.8268L58.9206 36.2323C58.4609 36.6919 57.7045 36.6809 57.2312 36.2077L51.4746 30.4511C51.0014 29.9778 50.9904 29.2214 51.45 28.7618L52.8555 27.3563Z" fill="#E38FB5"/>
<path d="M57.8552 35.5835L52.0986 29.8269C51.6253 29.3536 51.6143 28.5972 52.074 28.1376L51.4497 28.7618C50.99 29.2215 51.0011 29.9779 51.4743 30.4512L57.2309 36.2078C57.7042 36.681 58.4606 36.692 58.9202 36.2324L59.5445 35.6081C59.0848 36.0678 58.3284 36.0567 57.8552 35.5835Z" fill="white"/>
<path d="M60.0475 27.6348C61.2504 28.8378 63.1729 28.8658 64.3413 27.6973C65.5097 26.5289 65.4817 24.6065 64.2788 23.4035C63.0758 22.2005 61.1534 22.1725 59.9849 23.341C58.8165 24.5094 58.8445 26.4318 60.0475 27.6348Z" fill="#FFD7E5"/>
<path d="M59.6107 27.0849L64.7619 27.1599C65.0737 26.6527 65.2174 26.0698 65.1941 25.4868L59.1293 25.3986C59.1232 25.9814 59.2842 26.5686 59.6107 27.0849Z" fill="white"/>
<path d="M59.2211 24.6911L65.0817 24.7765C64.994 24.4632 64.858 24.1595 64.6696 23.8791L59.6072 23.8054C59.4269 24.0804 59.2999 24.38 59.2211 24.6911Z" fill="white"/>
<path d="M50.7214 32.4171L55.2656 36.9613C55.5023 37.198 55.8803 37.2035 56.1103 36.9736L57.0535 36.0303L51.6523 30.6292L50.7091 31.5724C50.4794 31.8021 50.4846 32.1803 50.7214 32.4171Z" fill="#B9256A"/>
<path d="M58.4899 32.5751L57.07 31.1552C56.9517 31.0369 56.7625 31.0341 56.6476 31.149C56.5328 31.2639 56.5355 31.4531 56.6538 31.5713L58.0738 32.9913C58.192 33.1096 58.3812 33.1123 58.4961 32.9975C58.6109 32.8826 58.6082 32.6934 58.4899 32.5751Z" fill="#1E243C" stroke="#1E243C" stroke-width="0.2"/>
<path d="M59.8392 27.8428C61.1583 29.1619 63.2739 29.1929 64.5553 27.9115C65.8367 26.6301 65.8059 24.5147 64.4866 23.1954C63.1674 21.8761 61.0519 21.8453 59.7705 23.1267C58.4891 24.4081 58.5201 26.5238 59.8392 27.8428ZM64.0705 23.6116C65.1532 24.6943 65.1787 26.4312 64.1268 27.483C63.0752 28.5347 61.3384 28.5096 60.2554 27.4267C59.1724 26.3437 59.1471 24.6071 60.199 23.5552C61.2507 22.5035 62.9877 22.5288 64.0705 23.6116Z" fill="#1E243C"/>
<path d="M53.8672 36.8034C53.6577 36.594 53.4018 36.5101 53.2959 36.616L52.1623 37.7496C52.0563 37.8555 52.1403 38.1115 52.3497 38.3209C52.5591 38.5303 52.8151 38.6143 52.921 38.5083L54.0546 37.3747C54.1605 37.2688 54.0766 37.0128 53.8672 36.8034Z" fill="#1E243C"/>
<path d="M51.5908 36.0446C51.3814 35.8352 51.1232 35.7535 51.0145 35.8622L49.1321 37.7446C49.0235 37.8533 49.1052 38.1114 49.3146 38.3208C49.524 38.5302 49.7822 38.612 49.8909 38.5033L51.7733 36.6209C51.8819 36.5122 51.8002 36.2541 51.5908 36.0446Z" fill="#1E243C"/>
<path d="M50.8322 33.7685C50.6228 33.5591 50.3669 33.4751 50.2609 33.5811L49.1274 34.7147C49.0214 34.8206 49.1054 35.0766 49.3148 35.286C49.5242 35.4954 49.7801 35.5794 49.8861 35.4734L51.0197 34.3398C51.1256 34.2339 51.042 33.9783 50.8322 33.7685Z" fill="#1E243C"/>
<path d="M51.8352 30.8746L51.6585 30.6978L51.4817 30.8746L50.7465 31.6098C50.5294 31.8269 50.5419 32.1749 50.7527 32.3857L51.1595 32.7925L54.8898 36.5228L55.2969 36.9299C55.5077 37.1407 55.8556 37.1532 56.0728 36.936L56.8079 36.2009L56.9847 36.0241L56.8079 35.8473L51.8352 30.8746ZM60.621 34.6562L60.3906 34.8291L60.5943 35.0329L63.3483 37.7869L63.5476 37.9861L63.7217 37.7646C64.0849 37.3026 64.8637 36.2327 65.4942 34.826C66.1239 33.4209 66.614 31.6612 66.3752 29.8276L66.2998 29.2494L65.933 29.7025C64.4405 31.5457 62.6499 33.133 60.621 34.6562ZM70.5268 17.5392L70.559 17.2322L70.252 17.2644C65.8837 17.7229 62.5653 18.878 59.8422 20.5863C57.1206 22.2937 55.0076 24.5449 53.0392 27.1745L52.9093 27.3479L53.0625 27.5011L55.8843 30.3228C55.9098 30.3483 55.9028 30.3792 55.8904 30.3916C55.878 30.404 55.8472 30.411 55.8216 30.3854L53.0382 27.6021L52.8615 27.4253L52.6847 27.6021L51.4874 28.7994C51.0407 29.246 51.0587 29.9728 51.5058 30.4199L51.6836 30.5978L57.0846 35.9987L57.2624 36.1765C57.7095 36.6236 58.4363 36.6416 58.8829 36.195L60.0803 34.9976L60.2571 34.8209L60.0803 34.6441L59.2597 33.8236C59.2342 33.798 59.2412 33.7672 59.2536 33.7548C59.266 33.7424 59.2968 33.7354 59.3224 33.7609L60.1618 34.6003L60.3148 34.7534L60.4882 34.6238C63.2343 32.5706 65.522 30.4489 67.2344 27.7602C68.9481 25.0694 70.0764 21.8254 70.5268 17.5392ZM52.9413 27.1014L52.9805 27.0768L53.0083 27.0398C54.5276 25.0175 56.1228 23.2358 57.9992 21.7535L58.4623 21.3877L57.8774 21.3095C56.0374 21.0637 54.2722 21.5528 52.8631 22.1834C51.4525 22.8148 50.38 23.5965 49.9174 23.9605L49.6961 24.1347L49.8952 24.3338L52.6293 27.0679L52.7702 27.2088L52.939 27.1029L52.9413 27.1014Z" stroke="#1E243C" stroke-width="0.5"/>
</g>
<defs>
<clipPath id="clip0">
<rect width="23.6061" height="31.1171" fill="white" transform="translate(62.9719 7.9718) rotate(45)"/>
</clipPath>
</defs>
</svg>
