<svg width="125" height="68" viewBox="0 0 125 68" fill="none" xmlns="http://www.w3.org/2000/svg">
<path d="M31.7324 53.0098C31.7324 53.8457 31.5918 54.5762 31.3105 55.2012C31.0293 55.8223 30.6309 56.2969 30.1152 56.625C29.5996 56.9531 28.998 57.1172 28.3105 57.1172C27.6387 57.1172 27.043 56.9531 26.5234 56.625C26.0039 56.293 25.5996 55.8223 25.3105 55.2129C25.0254 54.5996 24.8789 53.8906 24.8711 53.0859V52.4707C24.8711 51.6504 25.0137 50.9258 25.2988 50.2969C25.584 49.668 25.9863 49.1875 26.5059 48.8555C27.0293 48.5195 27.627 48.3516 28.2988 48.3516C28.9824 48.3516 29.584 48.5176 30.1035 48.8496C30.627 49.1777 31.0293 49.6562 31.3105 50.2852C31.5918 50.9102 31.7324 51.6387 31.7324 52.4707V53.0098ZM30.6133 52.459C30.6133 51.4473 30.4102 50.6719 30.0039 50.1328C29.5977 49.5898 29.0293 49.3184 28.2988 49.3184C27.5879 49.3184 27.0273 49.5898 26.6172 50.1328C26.2109 50.6719 26.002 51.4219 25.9902 52.3828V53.0098C25.9902 53.9902 26.1953 54.7617 26.6055 55.3242C27.0195 55.8828 27.5879 56.1621 28.3105 56.1621C29.0371 56.1621 29.5996 55.8984 29.998 55.3711C30.3965 54.8398 30.6016 54.0801 30.6133 53.0918V52.459ZM34.2754 50.6602L34.3105 51.457C34.7949 50.8477 35.4277 50.543 36.209 50.543C37.5488 50.543 38.2246 51.2988 38.2363 52.8105V57H37.1523V52.8047C37.1484 52.3477 37.043 52.0098 36.8359 51.791C36.6328 51.5723 36.3145 51.4629 35.8809 51.4629C35.5293 51.4629 35.2207 51.5566 34.9551 51.7441C34.6895 51.9316 34.4824 52.1777 34.334 52.4824V57H33.25V50.6602H34.2754ZM43.5625 55.3184C43.5625 55.0254 43.4512 54.7988 43.2285 54.6387C43.0098 54.4746 42.625 54.334 42.0742 54.2168C41.5273 54.0996 41.0918 53.959 40.7676 53.7949C40.4473 53.6309 40.209 53.4355 40.0527 53.209C39.9004 52.9824 39.8242 52.7129 39.8242 52.4004C39.8242 51.8809 40.043 51.4414 40.4805 51.082C40.9219 50.7227 41.4844 50.543 42.168 50.543C42.8867 50.543 43.4688 50.7285 43.9141 51.0996C44.3633 51.4707 44.5879 51.9453 44.5879 52.5234H43.498C43.498 52.2266 43.3711 51.9707 43.1172 51.7559C42.8672 51.541 42.5508 51.4336 42.168 51.4336C41.7734 51.4336 41.4648 51.5195 41.2422 51.6914C41.0195 51.8633 40.9082 52.0879 40.9082 52.3652C40.9082 52.627 41.0117 52.8242 41.2188 52.957C41.4258 53.0898 41.7988 53.2168 42.3379 53.3379C42.8809 53.459 43.3203 53.6035 43.6562 53.7715C43.9922 53.9395 44.2402 54.1426 44.4004 54.3809C44.5645 54.6152 44.6465 54.9023 44.6465 55.2422C44.6465 55.8086 44.4199 56.2637 43.9668 56.6074C43.5137 56.9473 42.9258 57.1172 42.2031 57.1172C41.6953 57.1172 41.2461 57.0273 40.8555 56.8477C40.4648 56.668 40.1582 56.418 39.9355 56.0977C39.7168 55.7734 39.6074 55.4238 39.6074 55.0488H40.6914C40.7109 55.4121 40.8555 55.7012 41.125 55.916C41.3984 56.127 41.7578 56.2324 42.2031 56.2324C42.6133 56.2324 42.9414 56.1504 43.1875 55.9863C43.4375 55.8184 43.5625 55.5957 43.5625 55.3184ZM49.9727 57C49.9102 56.875 49.8594 56.6523 49.8203 56.332C49.3164 56.8555 48.7148 57.1172 48.0156 57.1172C47.3906 57.1172 46.877 56.9414 46.4746 56.5898C46.0762 56.2344 45.877 55.7852 45.877 55.2422C45.877 54.582 46.127 54.0703 46.627 53.707C47.1309 53.3398 47.8379 53.1562 48.748 53.1562H49.8027V52.6582C49.8027 52.2793 49.6895 51.9785 49.4629 51.7559C49.2363 51.5293 48.9023 51.416 48.4609 51.416C48.0742 51.416 47.75 51.5137 47.4883 51.709C47.2266 51.9043 47.0957 52.1406 47.0957 52.418H46.0059C46.0059 52.1016 46.1172 51.7969 46.3398 51.5039C46.5664 51.207 46.8711 50.9727 47.2539 50.8008C47.6406 50.6289 48.0645 50.543 48.5254 50.543C49.2559 50.543 49.8281 50.7266 50.2422 51.0938C50.6562 51.457 50.8711 51.959 50.8867 52.5996V55.5176C50.8867 56.0996 50.9609 56.5625 51.1094 56.9062V57H49.9727ZM48.1738 56.1738C48.5137 56.1738 48.8359 56.0859 49.1406 55.9102C49.4453 55.7344 49.666 55.5059 49.8027 55.2246V53.9238H48.9531C47.625 53.9238 46.9609 54.3125 46.9609 55.0898C46.9609 55.4297 47.0742 55.6953 47.3008 55.8867C47.5273 56.0781 47.8184 56.1738 48.1738 56.1738ZM53.7637 57H52.6797V48H53.7637V57ZM58.1348 57.1172C57.2754 57.1172 56.5762 56.8359 56.0371 56.2734C55.498 55.707 55.2285 54.9512 55.2285 54.0059V53.8066C55.2285 53.1777 55.3477 52.6172 55.5859 52.125C55.8281 51.6289 56.1641 51.2422 56.5938 50.9648C57.0273 50.6836 57.4961 50.543 58 50.543C58.8242 50.543 59.4648 50.8145 59.9219 51.3574C60.3789 51.9004 60.6074 52.6777 60.6074 53.6895V54.1406H56.3125C56.3281 54.7656 56.5098 55.2715 56.8574 55.6582C57.209 56.041 57.6543 56.2324 58.1934 56.2324C58.5762 56.2324 58.9004 56.1543 59.166 55.998C59.4316 55.8418 59.6641 55.6348 59.8633 55.377L60.5254 55.8926C59.9941 56.709 59.1973 57.1172 58.1348 57.1172ZM58 51.4336C57.5625 51.4336 57.1953 51.5938 56.8984 51.9141C56.6016 52.2305 56.418 52.6758 56.3477 53.25H59.5234V53.168C59.4922 52.6172 59.3438 52.1914 59.0781 51.8906C58.8125 51.5859 58.4531 51.4336 58 51.4336ZM65.5586 55.3184C65.5586 55.0254 65.4473 54.7988 65.2246 54.6387C65.0059 54.4746 64.6211 54.334 64.0703 54.2168C63.5234 54.0996 63.0879 53.959 62.7637 53.7949C62.4434 53.6309 62.2051 53.4355 62.0488 53.209C61.8965 52.9824 61.8203 52.7129 61.8203 52.4004C61.8203 51.8809 62.0391 51.4414 62.4766 51.082C62.918 50.7227 63.4805 50.543 64.1641 50.543C64.8828 50.543 65.4648 50.7285 65.9102 51.0996C66.3594 51.4707 66.584 51.9453 66.584 52.5234H65.4941C65.4941 52.2266 65.3672 51.9707 65.1133 51.7559C64.8633 51.541 64.5469 51.4336 64.1641 51.4336C63.7695 51.4336 63.4609 51.5195 63.2383 51.6914C63.0156 51.8633 62.9043 52.0879 62.9043 52.3652C62.9043 52.627 63.0078 52.8242 63.2148 52.957C63.4219 53.0898 63.7949 53.2168 64.334 53.3379C64.877 53.459 65.3164 53.6035 65.6523 53.7715C65.9883 53.9395 66.2363 54.1426 66.3965 54.3809C66.5605 54.6152 66.6426 54.9023 66.6426 55.2422C66.6426 55.8086 66.416 56.2637 65.9629 56.6074C65.5098 56.9473 64.9219 57.1172 64.1992 57.1172C63.6914 57.1172 63.2422 57.0273 62.8516 56.8477C62.4609 56.668 62.1543 56.418 61.9316 56.0977C61.7129 55.7734 61.6035 55.4238 61.6035 55.0488H62.6875C62.707 55.4121 62.8516 55.7012 63.1211 55.916C63.3945 56.127 63.7539 56.2324 64.1992 56.2324C64.6094 56.2324 64.9375 56.1504 65.1836 55.9863C65.4336 55.8184 65.5586 55.5957 65.5586 55.3184ZM77.4766 54.293C77.3711 55.1953 77.0371 55.8926 76.4746 56.3848C75.916 56.873 75.1719 57.1172 74.2422 57.1172C73.2344 57.1172 72.4258 56.7559 71.8164 56.0332C71.2109 55.3105 70.9082 54.3438 70.9082 53.1328V52.3125C70.9082 51.5195 71.0488 50.8223 71.3301 50.2207C71.6152 49.6191 72.0176 49.1582 72.5371 48.8379C73.0566 48.5137 73.6582 48.3516 74.3418 48.3516C75.248 48.3516 75.9746 48.6055 76.5215 49.1133C77.0684 49.6172 77.3867 50.3164 77.4766 51.2109H76.3457C76.248 50.5312 76.0352 50.0391 75.707 49.7344C75.3828 49.4297 74.9277 49.2773 74.3418 49.2773C73.623 49.2773 73.0586 49.543 72.6484 50.0742C72.2422 50.6055 72.0391 51.3613 72.0391 52.3418V53.168C72.0391 54.0938 72.2324 54.8301 72.6191 55.377C73.0059 55.9238 73.5469 56.1973 74.2422 56.1973C74.8672 56.1973 75.3457 56.0566 75.6777 55.7754C76.0137 55.4902 76.2363 54.9961 76.3457 54.293H77.4766ZM82.7617 57C82.6992 56.875 82.6484 56.6523 82.6094 56.332C82.1055 56.8555 81.5039 57.1172 80.8047 57.1172C80.1797 57.1172 79.666 56.9414 79.2637 56.5898C78.8652 56.2344 78.666 55.7852 78.666 55.2422C78.666 54.582 78.916 54.0703 79.416 53.707C79.9199 53.3398 80.627 53.1562 81.5371 53.1562H82.5918V52.6582C82.5918 52.2793 82.4785 51.9785 82.252 51.7559C82.0254 51.5293 81.6914 51.416 81.25 51.416C80.8633 51.416 80.5391 51.5137 80.2773 51.709C80.0156 51.9043 79.8848 52.1406 79.8848 52.418H78.7949C78.7949 52.1016 78.9062 51.7969 79.1289 51.5039C79.3555 51.207 79.6602 50.9727 80.043 50.8008C80.4297 50.6289 80.8535 50.543 81.3145 50.543C82.0449 50.543 82.6172 50.7266 83.0312 51.0938C83.4453 51.457 83.6602 51.959 83.6758 52.5996V55.5176C83.6758 56.0996 83.75 56.5625 83.8984 56.9062V57H82.7617ZM80.9629 56.1738C81.3027 56.1738 81.625 56.0859 81.9297 55.9102C82.2344 55.7344 82.4551 55.5059 82.5918 55.2246V53.9238H81.7422C80.4141 53.9238 79.75 54.3125 79.75 55.0898C79.75 55.4297 79.8633 55.6953 80.0898 55.8867C80.3164 56.0781 80.6074 56.1738 80.9629 56.1738ZM86.5527 57H85.4688V48H86.5527V57ZM89.4707 57H88.3867V48H89.4707V57ZM93.8418 57.1172C92.9824 57.1172 92.2832 56.8359 91.7441 56.2734C91.2051 55.707 90.9355 54.9512 90.9355 54.0059V53.8066C90.9355 53.1777 91.0547 52.6172 91.293 52.125C91.5352 51.6289 91.8711 51.2422 92.3008 50.9648C92.7344 50.6836 93.2031 50.543 93.707 50.543C94.5312 50.543 95.1719 50.8145 95.6289 51.3574C96.0859 51.9004 96.3145 52.6777 96.3145 53.6895V54.1406H92.0195C92.0352 54.7656 92.2168 55.2715 92.5645 55.6582C92.916 56.041 93.3613 56.2324 93.9004 56.2324C94.2832 56.2324 94.6074 56.1543 94.873 55.998C95.1387 55.8418 95.3711 55.6348 95.5703 55.377L96.2324 55.8926C95.7012 56.709 94.9043 57.1172 93.8418 57.1172ZM93.707 51.4336C93.2695 51.4336 92.9023 51.5938 92.6055 51.9141C92.3086 52.2305 92.125 52.6758 92.0547 53.25H95.2305V53.168C95.1992 52.6172 95.0508 52.1914 94.7852 51.8906C94.5195 51.5859 94.1602 51.4336 93.707 51.4336ZM100.639 51.6328C100.475 51.6055 100.297 51.5918 100.105 51.5918C99.3945 51.5918 98.9121 51.8945 98.6582 52.5V57H97.5742V50.6602H98.6289L98.6465 51.3926C99.002 50.8262 99.5059 50.543 100.158 50.543C100.369 50.543 100.529 50.5703 100.639 50.625V51.6328Z" fill="#1E243C"/>
<g clip-path="url(#clip0)">
<path d="M65.402 36.1199C67.744 36.4162 69.8494 34.2234 70.1939 33.2612C70.3214 32.9056 70.2581 32.4562 70.0046 31.9306C69.6143 31.1221 68.792 30.2277 68.2795 30.0543C67.4445 29.7703 66.581 30.0279 66.095 30.3347C65.8857 30.4669 65.6959 30.6094 65.5123 30.7472C64.983 31.144 64.565 31.4576 64.0337 31.2773C62.8603 30.881 59.2651 26.4307 59.102 25.1725C58.9409 23.9312 59.4593 23.5985 59.9168 23.3052C60.7517 22.7708 61.2162 22.1772 61.3012 21.5304C61.3958 20.4828 60.1646 18.7078 59.1764 18.4672C58.2205 18.235 55.9463 19.1735 55.0075 21.796C54.958 21.9338 54.9139 22.0743 54.8755 22.2175C54.8132 22.4496 54.7655 22.688 54.7334 22.9299C54.4656 24.9096 56.4722 27.8715 57.6921 29.4608C60.0159 32.4882 63.6242 35.8949 65.402 36.1199Z" fill="#E6E7E8"/>
<path d="M70.9429 32.6371C70.6387 33.4863 68.5998 35.6472 66.3482 35.3608C63.6326 35.0154 55.3107 26.1592 55.8162 22.4056C55.8666 22.0252 55.9559 21.6585 56.0799 21.3132C56.9801 18.8014 59.1602 17.9042 60.0303 18.1159C60.9008 18.328 62.1073 19.9958 62.0194 20.9763C61.92 21.7421 61.2069 22.295 60.7205 22.6051C60.2128 22.9288 59.6507 23.3334 59.8229 24.6457C60.0023 26.0126 63.6748 30.4794 64.89 30.8896C65.7195 31.1704 66.2879 30.4509 67.1107 29.933C67.5039 29.6859 68.3199 29.3966 69.138 29.6745C69.7738 29.8894 71.295 31.6547 70.9429 32.6371Z" fill="#B9256A"/>
<path d="M66.3461 35.5765C68.6879 35.8742 70.7901 33.6931 71.1331 32.7355C71.2626 32.3768 71.1965 31.9335 70.9425 31.4099C70.5516 30.6044 69.7286 29.7127 69.2159 29.5395C68.3808 29.2559 67.5178 29.5114 67.0324 29.8162C66.8233 29.9477 66.6337 30.0893 66.4503 30.2263C65.9217 30.6211 65.5042 30.9328 64.9727 30.7528C63.7991 30.3568 60.2002 25.921 60.0356 24.6677C59.873 23.4307 60.3913 23.1006 60.8482 22.8092C61.682 22.2779 62.1459 21.687 62.2301 21.0433C62.3234 20.0004 61.0906 18.2315 60.1025 17.9905C59.1466 17.7582 56.8742 18.6904 55.9385 21.301C55.8892 21.4382 55.8455 21.5783 55.8072 21.7206C55.7452 21.9519 55.6978 22.1891 55.666 22.4297C55.3468 24.7996 58.281 28.83 60.8906 31.5616C60.9611 31.6356 61.0785 31.6385 61.1526 31.568C61.2267 31.498 61.2294 31.3809 61.1589 31.307C58.4042 28.4234 55.7511 24.5755 56.0334 22.4787C56.0815 22.1152 56.1674 21.7609 56.2875 21.4257C57.137 19.0555 59.1956 18.1503 60.0149 18.3495C60.8157 18.5446 61.9371 20.1611 61.8618 21.0032C61.7934 21.5258 61.3858 22.0279 60.6484 22.4982C60.1811 22.7961 59.4756 23.2464 59.6682 24.7158C59.8528 26.1216 63.5362 30.6584 64.8539 31.1029C65.5702 31.3453 66.1057 30.9455 66.6727 30.5221C66.8502 30.3897 67.0338 30.2525 67.2303 30.1288C67.6465 29.8674 68.3851 29.6477 69.0968 29.8895C69.4322 30.0029 70.2149 30.7587 70.6089 31.5708C70.8149 31.9959 70.8765 32.3529 70.7842 32.6112C70.5062 33.3872 68.5643 35.4865 66.3928 35.21C65.6942 35.1214 64.4921 34.3749 63.0946 33.1622C63.0174 33.0952 62.9004 33.1031 62.8333 33.1802C62.7659 33.2567 62.7742 33.374 62.8514 33.4407C64.3242 34.7187 65.5652 35.4774 66.3461 35.5765Z" fill="#1E243C" stroke="#1E243C" stroke-width="0.5"/>
<path d="M50.474 27.1619C50.3244 23.3391 52.0554 19.6721 54.3974 17.4782C56.782 15.2444 59.2773 14.1529 63.0713 13.6365" stroke="#1E243C"/>
<path d="M71.1049 15.9103C74.444 17.7858 76.6639 21.1787 77.3067 24.3193C77.9613 27.5171 77.5836 30.2105 76.0342 33.707" stroke="#1E243C"/>
<path d="M70.5027 38.8824C67.3139 41.0031 63.2767 41.4408 60.1795 40.59C57.0259 39.7237 54.7907 38.1677 52.3691 35.2056" stroke="#1E243C"/>
<circle cx="63.9957" cy="13.862" r="2.25862" fill="white" stroke="black"/>
<path d="M54.1208 33.1507C54.1208 34.3981 53.1095 35.4093 51.8621 35.4093C50.6147 35.4093 49.6035 34.3981 49.6035 33.1507C49.6035 31.9033 50.6147 30.8921 51.8621 30.8921C53.1095 30.8921 54.1208 31.9033 54.1208 33.1507Z" fill="white" stroke="#1E243C"/>
<path d="M77.7875 34.2542C77.7875 35.5016 76.7763 36.5128 75.5289 36.5128C74.2815 36.5128 73.2703 35.5016 73.2703 34.2542C73.2703 33.0068 74.2815 31.9956 75.5289 31.9956C76.7763 31.9956 77.7875 33.0068 77.7875 34.2542Z" fill="white" stroke="#1E243C"/>
</g>
<defs>
<clipPath id="clip0">
<rect width="32" height="32" fill="white" transform="translate(48 10)"/>
</clipPath>
</defs>
</svg>
