<svg width="125" height="68" viewBox="0 0 125 68" fill="none" xmlns="http://www.w3.org/2000/svg">
  <path d="M26.459 53.0098C26.459 53.8457 26.3184 54.5762 26.0371 55.2012C25.7559 55.8223 25.3574 56.2969 24.8418 56.625C24.3262 56.9531 23.7246 57.1172 23.0371 57.1172C22.3652 57.1172 21.7695 56.9531 21.25 56.625C20.7305 56.293 20.3262 55.8223 20.0371 55.2129C19.752 54.5996 19.6055 53.8906 19.5977 53.0859V52.4707C19.5977 51.6504 19.7402 50.9258 20.0254 50.2969C20.3105 49.668 20.7129 49.1875 21.2324 48.8555C21.7559 48.5195 22.3535 48.3516 23.0254 48.3516C23.709 48.3516 24.3105 48.5176 24.8301 48.8496C25.3535 49.1777 25.7559 49.6562 26.0371 50.2852C26.3184 50.9102 26.459 51.6387 26.459 52.4707V53.0098ZM25.3398 52.459C25.3398 51.4473 25.1367 50.6719 24.7305 50.1328C24.3242 49.5898 23.7559 49.3184 23.0254 49.3184C22.3145 49.3184 21.7539 49.5898 21.3438 50.1328C20.9375 50.6719 20.7285 51.4219 20.7168 52.3828V53.0098C20.7168 53.9902 20.9219 54.7617 21.332 55.3242C21.7461 55.8828 22.3145 56.1621 23.0371 56.1621C23.7637 56.1621 24.3262 55.8984 24.7246 55.3711C25.123 54.8398 25.3281 54.0801 25.3398 53.0918V52.459ZM29.002 50.6602L29.0371 51.457C29.5215 50.8477 30.1543 50.543 30.9355 50.543C32.2754 50.543 32.9512 51.2988 32.9629 52.8105V57H31.8789V52.8047C31.875 52.3477 31.7695 52.0098 31.5625 51.791C31.3594 51.5723 31.041 51.4629 30.6074 51.4629C30.2559 51.4629 29.9473 51.5566 29.6816 51.7441C29.416 51.9316 29.209 52.1777 29.0605 52.4824V57H27.9766V50.6602H29.002ZM38.2891 55.3184C38.2891 55.0254 38.1777 54.7988 37.9551 54.6387C37.7363 54.4746 37.3516 54.334 36.8008 54.2168C36.2539 54.0996 35.8184 53.959 35.4941 53.7949C35.1738 53.6309 34.9355 53.4355 34.7793 53.209C34.627 52.9824 34.5508 52.7129 34.5508 52.4004C34.5508 51.8809 34.7695 51.4414 35.207 51.082C35.6484 50.7227 36.2109 50.543 36.8945 50.543C37.6133 50.543 38.1953 50.7285 38.6406 51.0996C39.0898 51.4707 39.3145 51.9453 39.3145 52.5234H38.2246C38.2246 52.2266 38.0977 51.9707 37.8438 51.7559C37.5938 51.541 37.2773 51.4336 36.8945 51.4336C36.5 51.4336 36.1914 51.5195 35.9688 51.6914C35.7461 51.8633 35.6348 52.0879 35.6348 52.3652C35.6348 52.627 35.7383 52.8242 35.9453 52.957C36.1523 53.0898 36.5254 53.2168 37.0645 53.3379C37.6074 53.459 38.0469 53.6035 38.3828 53.7715C38.7188 53.9395 38.9668 54.1426 39.127 54.3809C39.291 54.6152 39.373 54.9023 39.373 55.2422C39.373 55.8086 39.1465 56.2637 38.6934 56.6074C38.2402 56.9473 37.6523 57.1172 36.9297 57.1172C36.4219 57.1172 35.9727 57.0273 35.582 56.8477C35.1914 56.668 34.8848 56.418 34.6621 56.0977C34.4434 55.7734 34.334 55.4238 34.334 55.0488H35.418C35.4375 55.4121 35.582 55.7012 35.8516 55.916C36.125 56.127 36.4844 56.2324 36.9297 56.2324C37.3398 56.2324 37.668 56.1504 37.9141 55.9863C38.1641 55.8184 38.2891 55.5957 38.2891 55.3184ZM41.8691 51.4277C42.3496 50.8379 42.9746 50.543 43.7441 50.543C45.084 50.543 45.7598 51.2988 45.7715 52.8105V57H44.6875V52.8047C44.6836 52.3477 44.5781 52.0098 44.3711 51.791C44.168 51.5723 43.8496 51.4629 43.416 51.4629C43.0645 51.4629 42.7559 51.5566 42.4902 51.7441C42.2246 51.9316 42.0176 52.1777 41.8691 52.4824V57H40.7852V48H41.8691V51.4277ZM47.1074 53.7715C47.1074 53.1504 47.2285 52.5918 47.4707 52.0957C47.7168 51.5996 48.0566 51.2168 48.4902 50.9473C48.9277 50.6777 49.4258 50.543 49.9844 50.543C50.8477 50.543 51.5449 50.8418 52.0762 51.4395C52.6113 52.0371 52.8789 52.832 52.8789 53.8242V53.9004C52.8789 54.5176 52.7598 55.0723 52.5215 55.5645C52.2871 56.0527 51.9492 56.4336 51.5078 56.707C51.0703 56.9805 50.5664 57.1172 49.9961 57.1172C49.1367 57.1172 48.4395 56.8184 47.9043 56.2207C47.373 55.623 47.1074 54.832 47.1074 53.8477V53.7715ZM48.1973 53.9004C48.1973 54.6035 48.3594 55.168 48.6836 55.5938C49.0117 56.0195 49.4492 56.2324 49.9961 56.2324C50.5469 56.2324 50.9844 56.0176 51.3086 55.5879C51.6328 55.1543 51.7949 54.5488 51.7949 53.7715C51.7949 53.0762 51.6289 52.5137 51.2969 52.084C50.9688 51.6504 50.5312 51.4336 49.9844 51.4336C49.4492 51.4336 49.0176 51.6465 48.6895 52.0723C48.3613 52.498 48.1973 53.1074 48.1973 53.9004ZM59.5938 53.9004C59.5938 54.8652 59.373 55.6426 58.9316 56.2324C58.4902 56.8223 57.8926 57.1172 57.1387 57.1172C56.3691 57.1172 55.7637 56.873 55.3223 56.3848V59.4375H54.2383V50.6602H55.2285L55.2812 51.3633C55.7227 50.8164 56.3359 50.543 57.1211 50.543C57.8828 50.543 58.4844 50.8301 58.9258 51.4043C59.3711 51.9785 59.5938 52.7773 59.5938 53.8008V53.9004ZM58.5098 53.7773C58.5098 53.0625 58.3574 52.498 58.0527 52.084C57.748 51.6699 57.3301 51.4629 56.7988 51.4629C56.1426 51.4629 55.6504 51.7539 55.3223 52.3359V55.3652C55.6465 55.9434 56.1426 56.2324 56.8105 56.2324C57.3301 56.2324 57.7422 56.0273 58.0469 55.6172C58.3555 55.2031 58.5098 54.5898 58.5098 53.7773ZM65.9629 54.3105L66.127 55.4355L66.3672 54.4219L68.0547 48.4688H69.0039L70.6504 54.4219L70.8848 55.4531L71.0664 54.3047L72.3906 48.4688H73.5215L71.4531 57H70.4277L68.6699 50.7832L68.5352 50.1328L68.4004 50.7832L66.5781 57H65.5527L63.4902 48.4688H64.6152L65.9629 54.3105ZM77.0488 57.1172C76.1895 57.1172 75.4902 56.8359 74.9512 56.2734C74.4121 55.707 74.1426 54.9512 74.1426 54.0059V53.8066C74.1426 53.1777 74.2617 52.6172 74.5 52.125C74.7422 51.6289 75.0781 51.2422 75.5078 50.9648C75.9414 50.6836 76.4102 50.543 76.9141 50.543C77.7383 50.543 78.3789 50.8145 78.8359 51.3574C79.293 51.9004 79.5215 52.6777 79.5215 53.6895V54.1406H75.2266C75.2422 54.7656 75.4238 55.2715 75.7715 55.6582C76.123 56.041 76.5684 56.2324 77.1074 56.2324C77.4902 56.2324 77.8145 56.1543 78.0801 55.998C78.3457 55.8418 78.5781 55.6348 78.7773 55.377L79.4395 55.8926C78.9082 56.709 78.1113 57.1172 77.0488 57.1172ZM76.9141 51.4336C76.4766 51.4336 76.1094 51.5938 75.8125 51.9141C75.5156 52.2305 75.332 52.6758 75.2617 53.25H78.4375V53.168C78.4062 52.6172 78.2578 52.1914 77.9922 51.8906C77.7266 51.5859 77.3672 51.4336 76.9141 51.4336ZM86.1484 53.9004C86.1484 54.8691 85.9258 55.6484 85.4805 56.2383C85.0352 56.8242 84.4375 57.1172 83.6875 57.1172C82.8867 57.1172 82.2676 56.834 81.8301 56.2676L81.7773 57H80.7812V48H81.8652V51.3574C82.3027 50.8145 82.9062 50.543 83.6758 50.543C84.4453 50.543 85.0488 50.834 85.4863 51.416C85.9277 51.998 86.1484 52.7949 86.1484 53.8066V53.9004ZM85.0645 53.7773C85.0645 53.0391 84.9219 52.4688 84.6367 52.0664C84.3516 51.6641 83.9414 51.4629 83.4062 51.4629C82.6914 51.4629 82.1777 51.7949 81.8652 52.459V55.2012C82.1973 55.8652 82.7148 56.1973 83.418 56.1973C83.9375 56.1973 84.3418 55.9961 84.6309 55.5938C84.9199 55.1914 85.0645 54.5859 85.0645 53.7773ZM91.2109 55.3184C91.2109 55.0254 91.0996 54.7988 90.877 54.6387C90.6582 54.4746 90.2734 54.334 89.7227 54.2168C89.1758 54.0996 88.7402 53.959 88.416 53.7949C88.0957 53.6309 87.8574 53.4355 87.7012 53.209C87.5488 52.9824 87.4727 52.7129 87.4727 52.4004C87.4727 51.8809 87.6914 51.4414 88.1289 51.082C88.5703 50.7227 89.1328 50.543 89.8164 50.543C90.5352 50.543 91.1172 50.7285 91.5625 51.0996C92.0117 51.4707 92.2363 51.9453 92.2363 52.5234H91.1465C91.1465 52.2266 91.0195 51.9707 90.7656 51.7559C90.5156 51.541 90.1992 51.4336 89.8164 51.4336C89.4219 51.4336 89.1133 51.5195 88.8906 51.6914C88.668 51.8633 88.5566 52.0879 88.5566 52.3652C88.5566 52.627 88.6602 52.8242 88.8672 52.957C89.0742 53.0898 89.4473 53.2168 89.9863 53.3379C90.5293 53.459 90.9688 53.6035 91.3047 53.7715C91.6406 53.9395 91.8887 54.1426 92.0488 54.3809C92.2129 54.6152 92.2949 54.9023 92.2949 55.2422C92.2949 55.8086 92.0684 56.2637 91.6152 56.6074C91.1621 56.9473 90.5742 57.1172 89.8516 57.1172C89.3438 57.1172 88.8945 57.0273 88.5039 56.8477C88.1133 56.668 87.8066 56.418 87.584 56.0977C87.3652 55.7734 87.2559 55.4238 87.2559 55.0488H88.3398C88.3594 55.4121 88.5039 55.7012 88.7734 55.916C89.0469 56.127 89.4062 56.2324 89.8516 56.2324C90.2617 56.2324 90.5898 56.1504 90.8359 55.9863C91.0859 55.8184 91.2109 55.5957 91.2109 55.3184ZM94.8848 57H93.8008V50.6602H94.8848V57ZM93.7129 48.9785C93.7129 48.8027 93.7656 48.6543 93.8711 48.5332C93.9805 48.4121 94.1406 48.3516 94.3516 48.3516C94.5625 48.3516 94.7227 48.4121 94.832 48.5332C94.9414 48.6543 94.9961 48.8027 94.9961 48.9785C94.9961 49.1543 94.9414 49.3008 94.832 49.418C94.7227 49.5352 94.5625 49.5938 94.3516 49.5938C94.1406 49.5938 93.9805 49.5352 93.8711 49.418C93.7656 49.3008 93.7129 49.1543 93.7129 48.9785ZM98.0957 49.125V50.6602H99.2793V51.498H98.0957V55.4297C98.0957 55.6836 98.1484 55.875 98.2539 56.0039C98.3594 56.1289 98.5391 56.1914 98.793 56.1914C98.918 56.1914 99.0898 56.168 99.3086 56.1211V57C99.0234 57.0781 98.7461 57.1172 98.4766 57.1172C97.9922 57.1172 97.627 56.9707 97.3809 56.6777C97.1348 56.3848 97.0117 55.9688 97.0117 55.4297V51.498H95.8574V50.6602H97.0117V49.125H98.0957ZM103.182 57.1172C102.322 57.1172 101.623 56.8359 101.084 56.2734C100.545 55.707 100.275 54.9512 100.275 54.0059V53.8066C100.275 53.1777 100.395 52.6172 100.633 52.125C100.875 51.6289 101.211 51.2422 101.641 50.9648C102.074 50.6836 102.543 50.543 103.047 50.543C103.871 50.543 104.512 50.8145 104.969 51.3574C105.426 51.9004 105.654 52.6777 105.654 53.6895V54.1406H101.359C101.375 54.7656 101.557 55.2715 101.904 55.6582C102.256 56.041 102.701 56.2324 103.24 56.2324C103.623 56.2324 103.947 56.1543 104.213 55.998C104.479 55.8418 104.711 55.6348 104.91 55.377L105.572 55.8926C105.041 56.709 104.244 57.1172 103.182 57.1172ZM103.047 51.4336C102.609 51.4336 102.242 51.5938 101.945 51.9141C101.648 52.2305 101.465 52.6758 101.395 53.25H104.57V53.168C104.539 52.6172 104.391 52.1914 104.125 51.8906C103.859 51.5859 103.5 51.4336 103.047 51.4336Z" fill="#1E243C"/>
  <path d="M58.4279 18.4261C58.9545 18.4261 59.3808 18.874 59.3808 19.4263C59.3808 19.9788 58.9545 20.4261 58.4279 20.4261C57.9015 20.4261 57.4746 19.9783 57.4746 19.4263C57.4746 18.8744 57.9015 18.4261 58.4279 18.4261Z" fill="#1E243C"/>
  <path d="M55.2414 18.4261C55.7679 18.4261 56.1948 18.874 56.1948 19.4263C56.1948 19.9788 55.7679 20.4261 55.2414 20.4261C54.715 20.4261 54.2881 19.9783 54.2881 19.4263C54.2881 18.8744 54.715 18.4261 55.2414 18.4261Z" fill="#1E243C"/>
  <path d="M52.055 18.4261C52.5814 18.4261 53.0083 18.874 53.0083 19.4263C53.0083 19.9788 52.5814 20.4261 52.055 20.4261C51.5284 20.4261 51.1021 19.9783 51.1021 19.4263C51.1021 18.8744 51.5284 18.4261 52.055 18.4261Z" fill="#1E243C"/>
  <path d="M75.5762 16.2733H51.4238C50.0875 16.2733 49 17.3754 49 18.7641V38.236C49 39.6246 50.0875 40.7267 51.4238 40.7267H75.5762C76.9125 40.7267 78 39.6246 78 38.236V18.7641C78 17.3754 76.9125 16.2733 75.5762 16.2733ZM51.4238 17.2564H75.5762C76.3706 17.2564 77.0169 17.9176 77.0169 18.7641V22.2331H49.9831V18.7641C49.9831 17.9176 50.6294 17.2564 51.4238 17.2564ZM75.5762 39.7437H51.4238C50.6294 39.7437 49.9831 39.0824 49.9831 38.236V23.2161H77.0169V38.236C77.0169 39.0824 76.3706 39.7437 75.5762 39.7437Z" fill="#1E243C"/>
  <path d="M51 27.6591V25.3409C51 25.1526 51.512 25 52.1441 25H73.8559C74.488 25 75 25.1526 75 25.3409V27.6591C75 27.8474 74.488 28 73.8559 28H52.1441C51.512 28 51 27.8474 51 27.6591Z" fill="#B9256A" stroke="#1E243C"/>
  <path d="M51 37.4451V30.5552C51 30.2485 51.2773 30 51.6197 30H63.3803C63.7227 30 64 30.2485 64 30.5552V37.4448C64 37.7515 63.7227 38 63.3803 38H51.6197C51.2773 38.0003 51 37.7515 51 37.4451Z" fill="#E38FB5"/>
  <path d="M64 37.2212V30.7788C64 30.3494 63.6019 30 63.1127 30H51.8873C51.3981 30 51 30.3494 51 30.7788V37.2212C51 37.6506 51.3981 38 51.8873 38H63.1127C63.6019 38 64 37.6506 64 37.2212ZM51.8873 30.5192H63.1127C63.276 30.5192 63.4085 30.6355 63.4085 30.7788V34.7576L61.8131 33.7543C61.7051 33.6863 61.5584 33.6902 61.4543 33.7636L59.8083 34.9349L55.6542 32.2419C55.5487 32.1736 55.4034 32.1744 55.2987 32.2447L51.5915 34.7374V30.7788C51.5915 30.6355 51.724 30.5192 51.8873 30.5192ZM63.1127 37.4808H51.8873C51.724 37.4808 51.5915 37.3645 51.5915 37.2212V35.3913L55.4818 32.7754L59.6409 35.472C59.7492 35.5419 59.8977 35.5393 60.003 35.4648L61.6516 34.2914L63.4082 35.3965V37.2212C63.4085 37.3645 63.2757 37.4808 63.1127 37.4808Z" fill="#1E243C" stroke="#1E243C" stroke-width="0.5"/>
  <path d="M59 33C59.5513 33 60 32.5513 60 32C60 31.4487 59.5513 31 59 31C58.4487 31 58 31.4487 58 32C58 32.5513 58.4487 33 59 33ZM59 31.4444C59.3064 31.4444 59.5556 31.6936 59.5556 32C59.5556 32.3064 59.3064 32.5556 59 32.5556C58.6936 32.5556 58.4444 32.3064 58.4444 32C58.4444 31.6936 58.6936 31.4444 59 31.4444Z" fill="#1E243C"/>
  <path d="M74.7782 30H66.2218C66.0991 30 66 30.2682 66 30.6C66 30.9318 66.0991 31.2 66.2218 31.2H74.7782C74.9009 31.2 75 30.9318 75 30.6C75 30.2682 74.9009 30 74.7782 30Z" fill="#1E243C"/>
  <path d="M72.8275 33H66.1725C66.0771 33 66 33.2682 66 33.6C66 33.9318 66.0771 34.2 66.1725 34.2H72.8275C72.9229 34.2 73 33.9318 73 33.6C73 33.2682 72.9229 33 72.8275 33Z" fill="#1E243C"/>
  <path d="M67.9507 36H66.0493C66.022 36 66 36.2682 66 36.6C66 36.9318 66.022 37.2 66.0493 37.2H67.9507C67.978 37.2 68 36.9318 68 36.6C68 36.2682 67.978 36 67.9507 36Z" fill="#1E243C"/>
</svg>
