<svg width="125" height="68" viewBox="0 0 125 68" fill="none" xmlns="http://www.w3.org/2000/svg">
  <path d="M36.4668 53.0098C36.4668 53.8457 36.3262 54.5762 36.0449 55.2012C35.7637 55.8223 35.3652 56.2969 34.8496 56.625C34.334 56.9531 33.7324 57.1172 33.0449 57.1172C32.373 57.1172 31.7773 56.9531 31.2578 56.625C30.7383 56.293 30.334 55.8223 30.0449 55.2129C29.7598 54.5996 29.6133 53.8906 29.6055 53.0859V52.4707C29.6055 51.6504 29.748 50.9258 30.0332 50.2969C30.3184 49.668 30.7207 49.1875 31.2402 48.8555C31.7637 48.5195 32.3613 48.3516 33.0332 48.3516C33.7168 48.3516 34.3184 48.5176 34.8379 48.8496C35.3613 49.1777 35.7637 49.6562 36.0449 50.2852C36.3262 50.9102 36.4668 51.6387 36.4668 52.4707V53.0098ZM35.3477 52.459C35.3477 51.4473 35.1445 50.6719 34.7383 50.1328C34.332 49.5898 33.7637 49.3184 33.0332 49.3184C32.3223 49.3184 31.7617 49.5898 31.3516 50.1328C30.9453 50.6719 30.7363 51.4219 30.7246 52.3828V53.0098C30.7246 53.9902 30.9297 54.7617 31.3398 55.3242C31.7539 55.8828 32.3223 56.1621 33.0449 56.1621C33.7715 56.1621 34.334 55.8984 34.7324 55.3711C35.1309 54.8398 35.3359 54.0801 35.3477 53.0918V52.459ZM39.0098 50.6602L39.0449 51.457C39.5293 50.8477 40.1621 50.543 40.9434 50.543C42.2832 50.543 42.959 51.2988 42.9707 52.8105V57H41.8867V52.8047C41.8828 52.3477 41.7773 52.0098 41.5703 51.791C41.3672 51.5723 41.0488 51.4629 40.6152 51.4629C40.2637 51.4629 39.9551 51.5566 39.6895 51.7441C39.4238 51.9316 39.2168 52.1777 39.0684 52.4824V57H37.9844V50.6602H39.0098ZM48.2969 55.3184C48.2969 55.0254 48.1855 54.7988 47.9629 54.6387C47.7441 54.4746 47.3594 54.334 46.8086 54.2168C46.2617 54.0996 45.8262 53.959 45.502 53.7949C45.1816 53.6309 44.9434 53.4355 44.7871 53.209C44.6348 52.9824 44.5586 52.7129 44.5586 52.4004C44.5586 51.8809 44.7773 51.4414 45.2148 51.082C45.6562 50.7227 46.2188 50.543 46.9023 50.543C47.6211 50.543 48.2031 50.7285 48.6484 51.0996C49.0977 51.4707 49.3223 51.9453 49.3223 52.5234H48.2324C48.2324 52.2266 48.1055 51.9707 47.8516 51.7559C47.6016 51.541 47.2852 51.4336 46.9023 51.4336C46.5078 51.4336 46.1992 51.5195 45.9766 51.6914C45.7539 51.8633 45.6426 52.0879 45.6426 52.3652C45.6426 52.627 45.7461 52.8242 45.9531 52.957C46.1602 53.0898 46.5332 53.2168 47.0723 53.3379C47.6152 53.459 48.0547 53.6035 48.3906 53.7715C48.7266 53.9395 48.9746 54.1426 49.1348 54.3809C49.2988 54.6152 49.3809 54.9023 49.3809 55.2422C49.3809 55.8086 49.1543 56.2637 48.7012 56.6074C48.248 56.9473 47.6602 57.1172 46.9375 57.1172C46.4297 57.1172 45.9805 57.0273 45.5898 56.8477C45.1992 56.668 44.8926 56.418 44.6699 56.0977C44.4512 55.7734 44.3418 55.4238 44.3418 55.0488H45.4258C45.4453 55.4121 45.5898 55.7012 45.8594 55.916C46.1328 56.127 46.4922 56.2324 46.9375 56.2324C47.3477 56.2324 47.6758 56.1504 47.9219 55.9863C48.1719 55.8184 48.2969 55.5957 48.2969 55.3184ZM51.877 51.4277C52.3574 50.8379 52.9824 50.543 53.752 50.543C55.0918 50.543 55.7676 51.2988 55.7793 52.8105V57H54.6953V52.8047C54.6914 52.3477 54.5859 52.0098 54.3789 51.791C54.1758 51.5723 53.8574 51.4629 53.4238 51.4629C53.0723 51.4629 52.7637 51.5566 52.498 51.7441C52.2324 51.9316 52.0254 52.1777 51.877 52.4824V57H50.793V48H51.877V51.4277ZM57.1152 53.7715C57.1152 53.1504 57.2363 52.5918 57.4785 52.0957C57.7246 51.5996 58.0645 51.2168 58.498 50.9473C58.9355 50.6777 59.4336 50.543 59.9922 50.543C60.8555 50.543 61.5527 50.8418 62.084 51.4395C62.6191 52.0371 62.8867 52.832 62.8867 53.8242V53.9004C62.8867 54.5176 62.7676 55.0723 62.5293 55.5645C62.2949 56.0527 61.957 56.4336 61.5156 56.707C61.0781 56.9805 60.5742 57.1172 60.0039 57.1172C59.1445 57.1172 58.4473 56.8184 57.9121 56.2207C57.3809 55.623 57.1152 54.832 57.1152 53.8477V53.7715ZM58.2051 53.9004C58.2051 54.6035 58.3672 55.168 58.6914 55.5938C59.0195 56.0195 59.457 56.2324 60.0039 56.2324C60.5547 56.2324 60.9922 56.0176 61.3164 55.5879C61.6406 55.1543 61.8027 54.5488 61.8027 53.7715C61.8027 53.0762 61.6367 52.5137 61.3047 52.084C60.9766 51.6504 60.5391 51.4336 59.9922 51.4336C59.457 51.4336 59.0254 51.6465 58.6973 52.0723C58.3691 52.498 58.2051 53.1074 58.2051 53.9004ZM69.6016 53.9004C69.6016 54.8652 69.3809 55.6426 68.9395 56.2324C68.498 56.8223 67.9004 57.1172 67.1465 57.1172C66.377 57.1172 65.7715 56.873 65.3301 56.3848V59.4375H64.2461V50.6602H65.2363L65.2891 51.3633C65.7305 50.8164 66.3438 50.543 67.1289 50.543C67.8906 50.543 68.4922 50.8301 68.9336 51.4043C69.3789 51.9785 69.6016 52.7773 69.6016 53.8008V53.9004ZM68.5176 53.7773C68.5176 53.0625 68.3652 52.498 68.0605 52.084C67.7559 51.6699 67.3379 51.4629 66.8066 51.4629C66.1504 51.4629 65.6582 51.7539 65.3301 52.3359V55.3652C65.6543 55.9434 66.1504 56.2324 66.8184 56.2324C67.3379 56.2324 67.75 56.0273 68.0547 55.6172C68.3633 55.2031 68.5176 54.5898 68.5176 53.7773ZM75.2559 53.6602V57H74.1309V48.4688H77.2773C78.2109 48.4688 78.9414 48.707 79.4688 49.1836C80 49.6602 80.2656 50.291 80.2656 51.0762C80.2656 51.9043 80.0059 52.543 79.4863 52.9922C78.9707 53.4375 78.2305 53.6602 77.2656 53.6602H75.2559ZM75.2559 52.7402H77.2773C77.8789 52.7402 78.3398 52.5996 78.6602 52.3184C78.9805 52.0332 79.1406 51.623 79.1406 51.0879C79.1406 50.5801 78.9805 50.1738 78.6602 49.8691C78.3398 49.5645 77.9004 49.4062 77.3418 49.3945H75.2559V52.7402ZM88.2637 53.0098C88.2637 53.8457 88.123 54.5762 87.8418 55.2012C87.5605 55.8223 87.1621 56.2969 86.6465 56.625C86.1309 56.9531 85.5293 57.1172 84.8418 57.1172C84.1699 57.1172 83.5742 56.9531 83.0547 56.625C82.5352 56.293 82.1309 55.8223 81.8418 55.2129C81.5566 54.5996 81.4102 53.8906 81.4023 53.0859V52.4707C81.4023 51.6504 81.5449 50.9258 81.8301 50.2969C82.1152 49.668 82.5176 49.1875 83.0371 48.8555C83.5605 48.5195 84.1582 48.3516 84.8301 48.3516C85.5137 48.3516 86.1152 48.5176 86.6348 48.8496C87.1582 49.1777 87.5605 49.6562 87.8418 50.2852C88.123 50.9102 88.2637 51.6387 88.2637 52.4707V53.0098ZM87.1445 52.459C87.1445 51.4473 86.9414 50.6719 86.5352 50.1328C86.1289 49.5898 85.5605 49.3184 84.8301 49.3184C84.1191 49.3184 83.5586 49.5898 83.1484 50.1328C82.7422 50.6719 82.5332 51.4219 82.5215 52.3828V53.0098C82.5215 53.9902 82.7266 54.7617 83.1367 55.3242C83.5508 55.8828 84.1191 56.1621 84.8418 56.1621C85.5684 56.1621 86.1309 55.8984 86.5293 55.3711C86.9277 54.8398 87.1328 54.0801 87.1445 53.0918V52.459ZM92.4648 53.1973C91.5 52.9199 90.7969 52.5801 90.3555 52.1777C89.918 51.7715 89.6992 51.2715 89.6992 50.6777C89.6992 50.0059 89.9668 49.4512 90.502 49.0137C91.041 48.5723 91.7402 48.3516 92.5996 48.3516C93.1855 48.3516 93.707 48.4648 94.1641 48.6914C94.625 48.918 94.9805 49.2305 95.2305 49.6289C95.4844 50.0273 95.6113 50.4629 95.6113 50.9355H94.4805C94.4805 50.4199 94.3164 50.0156 93.9883 49.7227C93.6602 49.4258 93.1973 49.2773 92.5996 49.2773C92.0449 49.2773 91.6113 49.4004 91.2988 49.6465C90.9902 49.8887 90.8359 50.2266 90.8359 50.6602C90.8359 51.0078 90.9824 51.3027 91.2754 51.5449C91.5723 51.7832 92.0742 52.002 92.7812 52.2012C93.4922 52.4004 94.0469 52.6211 94.4453 52.8633C94.8477 53.1016 95.1445 53.3809 95.3359 53.7012C95.5312 54.0215 95.6289 54.3984 95.6289 54.832C95.6289 55.5234 95.3594 56.0781 94.8203 56.4961C94.2812 56.9102 93.5605 57.1172 92.6582 57.1172C92.0723 57.1172 91.5254 57.0059 91.0176 56.7832C90.5098 56.5566 90.1172 56.248 89.8398 55.8574C89.5664 55.4668 89.4297 55.0234 89.4297 54.5273H90.5605C90.5605 55.043 90.75 55.4512 91.1289 55.752C91.5117 56.0488 92.0215 56.1973 92.6582 56.1973C93.252 56.1973 93.707 56.0762 94.0234 55.834C94.3398 55.5918 94.498 55.2617 94.498 54.8438C94.498 54.4258 94.3516 54.1035 94.0586 53.877C93.7656 53.6465 93.2344 53.4199 92.4648 53.1973Z" fill="#1E243C"/>
  <path d="M72.9829 15.8741H54.9913C53.8369 15.8741 52.9009 16.6307 52.9009 17.5637V22.4437H75.0731V17.5637C75.0733 16.6305 74.1373 15.8741 72.9829 15.8741Z" fill="white"/>
  <path d="M72.9589 15.1565H55.0452C53.8958 15.1565 52.9639 16.0884 52.9639 17.2379V22.5229H75.04V17.2379C75.0402 16.0882 74.1083 15.1565 72.9589 15.1565Z" fill="white"/>
  <path d="M52.976 22.5228L50.5234 27.0483C49.5888 28.7727 50.8372 30.8691 52.7982 30.8691C53.9188 30.8691 54.9128 30.1471 55.2591 29.0817L57.3918 22.5228H52.976Z" fill="#B9256A"/>
  <path d="M57.3916 22.5228L55.7796 27.4814C55.2359 29.1534 56.4824 30.8691 58.2402 30.8691H58.5808C59.9016 30.8691 61.0111 29.8735 61.153 28.5601L61.8079 22.5228H57.3916Z" fill="#E38FB5"/>
  <path d="M66.2242 22.5228H61.8084L61.2146 28.0021C61.0487 29.5329 62.2475 30.8691 63.7869 30.8691H64.2456C65.7849 30.8691 66.9837 29.5329 66.8178 28.0021L66.2242 22.5228Z" fill="#B9256A"/>
  <path d="M70.6397 22.5228H66.2236L66.8778 28.5601C67.0209 29.8735 68.1292 30.8691 69.451 30.8691H69.7915C71.5493 30.8691 72.7959 29.1532 72.2524 27.4814L70.6397 22.5228Z" fill="#E38FB5"/>
  <path d="M75.0547 22.5228H70.6392L72.7719 29.0817C73.1192 30.1471 74.1119 30.8691 75.2327 30.8691C77.1937 30.8691 78.4422 28.7727 77.5076 27.0483L75.0547 22.5228Z" fill="#B9256A"/>
  <path d="M50.3315 27.4976C49.8088 29.1151 51.005 30.8693 52.7981 30.8693C53.9187 30.8693 54.9127 30.1473 55.259 29.0819L55.7739 27.4978H50.3315V27.4976Z" fill="#B9256A"/>
  <path d="M61.2146 28.0023C61.0487 29.5331 62.2475 30.8693 63.7869 30.8693H64.2456C65.7849 30.8693 66.9837 29.5331 66.8178 28.0023L66.7636 27.4978H61.2691L61.2146 28.0023Z" fill="#B9256A"/>
  <path d="M66.8777 28.56C67.0209 29.8734 68.1291 30.8691 69.451 30.8691H69.7915C71.5435 30.8691 72.7874 29.1638 72.256 27.4976H66.7632L66.8777 28.56Z" fill="#E38FB5"/>
  <path d="M72.772 29.082C73.1193 30.1473 74.112 30.8693 75.2328 30.8693C77.027 30.8693 78.2229 29.1154 77.6993 27.4978H72.2568L72.772 29.082Z" fill="#B9256A"/>
  <path d="M54.8867 32.2655H63.9496V37.4159H54.8867V32.2655Z" fill="#E38FB5"/>
  <path d="M57.793 32.2655L55.3711 37.4161H56.9262L59.3481 32.2655H57.793Z" fill="white"/>
  <path d="M60.457 32.2655L58.0352 37.4161H60.8012L63.2231 32.2655H60.457Z" fill="white"/>
  <path d="M73.193 39.756H67.9966V34.4375C67.9966 32.9612 69.1593 31.7631 70.5948 31.7631C72.0292 31.7631 73.193 32.9609 73.193 34.4375V39.756Z" fill="#E38FB5"/>
  <path d="M71.7834 32.0614C71.4269 31.872 71.0234 31.7631 70.5948 31.7631C70.5887 31.7631 70.5827 31.764 70.5766 31.764L67.9966 38.9975V39.756H69.039L71.7834 32.0614Z" fill="white"/>
  <path d="M70.9765 39.7559L73.1094 33.7758C73.0186 33.4094 72.8554 33.0732 72.6345 32.7848L70.1479 39.7559H70.9765Z" fill="white"/>
  <path d="M76.9906 41.6014V40.5341C76.9906 40.104 76.6426 39.7557 76.2124 39.7557H51.564C51.1339 39.7557 50.7856 40.1038 50.7856 40.5341V41.6014H76.9906Z" fill="white"/>
  <path d="M55.775 27.4976C55.2446 29.1638 56.4875 30.8691 58.2404 30.8691H58.5809C59.9018 30.8691 61.0113 29.8734 61.1532 28.56L61.2685 27.4976H55.775Z" fill="#E38FB5"/>
  <path d="M58.0396 14.6721H60.7005C60.8342 14.6721 60.9427 14.5636 60.9427 14.4299C60.9427 14.2962 60.8342 14.1877 60.7005 14.1877H58.0396C57.9059 14.1877 57.7974 14.2962 57.7974 14.4299C57.7974 14.5636 57.9059 14.6721 58.0396 14.6721Z" fill="#1E243C" stroke="#1E243C" stroke-width="0.5"/>
  <path d="M77.844 29.3698C77.851 29.3526 77.8559 29.3349 77.8627 29.3174C77.9758 29.0334 78.0402 28.7374 78.0569 28.4388C78.0576 28.4245 78.0598 28.4104 78.0605 28.3964C78.0639 28.316 78.061 28.2358 78.0571 28.1554C78.0554 28.1184 78.0552 28.0816 78.0521 28.0445C78.0462 27.9774 78.0361 27.9111 78.0254 27.8445C78.0174 27.7941 78.0097 27.7437 77.9988 27.6936C77.9859 27.634 77.9697 27.5749 77.953 27.516C77.9443 27.4853 77.939 27.4538 77.929 27.423C77.9259 27.4136 77.9198 27.4059 77.9157 27.3969C77.8631 27.2392 77.8014 27.0833 77.72 26.9329L75.2819 22.434V16.5113C75.2819 15.2301 74.2395 14.1877 72.9584 14.1877H61.9413C61.8076 14.1877 61.6991 14.2962 61.6991 14.4299C61.6991 14.5636 61.8076 14.6721 61.9413 14.6721H72.9584C73.9727 14.6721 74.7975 15.4973 74.7975 16.5113V22.2807H70.6392H66.2236H61.8081H57.3918H53.206V16.5113C53.206 15.4973 54.0312 14.6721 55.0452 14.6721H56.7815C56.9151 14.6721 57.0236 14.5636 57.0236 14.4299C57.0236 14.2962 56.9151 14.1877 56.7815 14.1877H55.0452C53.764 14.1877 52.7217 15.2301 52.7217 16.5113V22.4836L50.3104 26.9331C50.2293 27.0828 50.1678 27.2383 50.1152 27.3954C50.1106 27.4049 50.1043 27.4131 50.101 27.4233C50.0905 27.4553 50.085 27.4884 50.076 27.5206C50.0598 27.5776 50.0443 27.6345 50.0319 27.6921C50.021 27.743 50.013 27.7941 50.0048 27.8454C49.9941 27.9123 49.984 27.9786 49.9784 28.0457C49.9755 28.0811 49.9753 28.1162 49.9736 28.1515C49.9697 28.2341 49.9668 28.3167 49.9704 28.3993C49.9709 28.4083 49.9721 28.4172 49.9726 28.4262C49.9927 28.8139 50.0954 29.1966 50.2773 29.555C50.3 29.6001 50.3209 29.6456 50.346 29.6897C50.3536 29.7028 50.3586 29.7166 50.3664 29.7296C50.3904 29.7701 50.4197 29.8059 50.4453 29.8449C50.4686 29.8803 50.4887 29.9173 50.5136 29.9515C50.5226 29.9641 50.5335 29.9745 50.5427 29.9868C50.58 30.0365 50.6197 30.0828 50.6597 30.1295C50.6967 30.1726 50.7338 30.2155 50.773 30.2562C50.8132 30.2978 50.8551 30.337 50.8975 30.376C50.9426 30.4172 50.9883 30.4572 51.0356 30.4952C51.0765 30.5279 51.1179 30.5594 51.1605 30.5899C51.2145 30.6286 51.27 30.6645 51.3267 30.6991C51.3671 30.7238 51.4073 30.748 51.449 30.7706C51.5119 30.8047 51.5764 30.835 51.6417 30.8643C51.6427 30.8648 51.6434 30.8653 51.6444 30.8655V39.5143H51.5633C51.0007 39.5143 50.5429 39.972 50.5429 40.5348V41.8443H77.2323V40.5348C77.2323 40.0318 76.8656 39.6153 76.3863 39.5319V30.8645C76.4534 30.8347 76.5197 30.8033 76.5842 30.7684C76.6229 30.7473 76.6607 30.7245 76.6985 30.7015C76.7583 30.6652 76.8171 30.6269 76.8743 30.586C76.9135 30.5579 76.9518 30.5289 76.9898 30.4986C77.0412 30.4577 77.0906 30.4145 77.1392 30.37C77.178 30.3344 77.2163 30.2985 77.2531 30.2605C77.2967 30.2155 77.3381 30.168 77.379 30.1198C77.4149 30.0777 77.4507 30.036 77.4844 29.9914C77.495 29.9774 77.5074 29.965 77.5178 29.9505C77.5464 29.9113 77.5694 29.8694 77.5955 29.8292C77.6176 29.7953 77.643 29.7645 77.6638 29.7294C77.6706 29.718 77.6752 29.7059 77.6818 29.6943C77.7125 29.6405 77.7387 29.5851 77.766 29.5298C77.7927 29.4766 77.8212 29.424 77.844 29.3698ZM77.5633 28.5342C77.557 28.5916 77.5488 28.6488 77.5381 28.7057C77.5323 28.7374 77.5248 28.7686 77.5175 28.8001C77.5047 28.8563 77.4914 28.9125 77.4744 28.9677C77.4628 29.005 77.4483 29.0418 77.4347 29.0786C77.4151 29.1326 77.3957 29.1867 77.3722 29.2392C77.3381 29.3148 77.3005 29.3894 77.2582 29.462C77.2405 29.4925 77.2194 29.5216 77.2003 29.5516C77.1681 29.6015 77.1354 29.6509 77.1 29.6979C77.0714 29.7357 77.0409 29.7713 77.0106 29.8069C76.9772 29.8461 76.9436 29.8849 76.9082 29.9215C76.8774 29.9532 76.8457 29.983 76.8135 30.0128C76.7733 30.0498 76.7321 30.0857 76.6895 30.1196C76.6585 30.1443 76.627 30.168 76.5948 30.1913C76.5469 30.2256 76.4977 30.2579 76.4473 30.2884C76.4168 30.307 76.3863 30.3254 76.3548 30.3424C76.2998 30.3722 76.2432 30.399 76.186 30.4245C76.1557 30.4378 76.1259 30.4518 76.0952 30.464C76.0341 30.4879 75.9717 30.5075 75.9085 30.5264C75.8787 30.5354 75.8494 30.5458 75.8188 30.5533C75.751 30.5705 75.6815 30.5826 75.6115 30.5938C75.5842 30.5981 75.5578 30.6047 75.5302 30.6081C75.4326 30.6202 75.3337 30.6272 75.2332 30.6272C74.9787 30.6272 74.7317 30.5865 74.4994 30.5102C73.8029 30.2816 73.2395 29.7338 73.0027 29.007L72.591 27.7401H77.5163C77.5202 27.7561 77.5217 27.7723 77.5251 27.7883C77.5406 27.8592 77.5539 27.9302 77.5626 28.0019C77.5684 28.0503 77.5701 28.099 77.573 28.1474C77.5754 28.1879 77.5781 28.2283 77.5783 28.269C77.5786 28.3242 77.5759 28.3794 77.572 28.4344C77.5696 28.4676 77.567 28.501 77.5633 28.5342ZM71.3066 30.0735C71.3023 30.0772 71.2974 30.0801 71.2931 30.0837C71.2275 30.1389 71.1594 30.191 71.0884 30.2382C71.088 30.2385 71.0872 30.239 71.0872 30.239C70.9366 30.3392 70.775 30.4213 70.605 30.4838C70.6012 30.4853 70.5973 30.486 70.5934 30.4874C70.5118 30.517 70.4287 30.5424 70.3437 30.5628C70.3168 30.5691 70.2887 30.5717 70.2616 30.5773C70.1986 30.5899 70.1362 30.6032 70.0717 30.6107C69.9795 30.6214 69.886 30.6269 69.7913 30.6269H69.451C69.2832 30.6269 69.1199 30.6076 68.9618 30.5742C68.6956 30.5177 68.4452 30.4179 68.22 30.2794C68.1044 30.2082 67.9959 30.1268 67.895 30.0372C67.8913 30.0341 67.8872 30.0312 67.8836 30.028C67.6348 29.8047 67.435 29.5274 67.2994 29.214C67.2931 29.1993 67.2854 29.1852 67.2791 29.1702C67.2398 29.0743 67.2093 28.9743 67.1827 28.8723C67.1541 28.7623 67.1308 28.65 67.1183 28.534L67.1151 28.5037L67.033 27.7396H72.07C72.0727 27.7502 72.0761 27.7611 72.0785 27.7718C72.0901 27.8236 72.0991 27.8755 72.1073 27.9275C72.1129 27.9631 72.1185 27.9987 72.1223 28.0346C72.1279 28.0854 72.1315 28.1365 72.1337 28.1874C72.1354 28.2242 72.1361 28.2608 72.1361 28.2976C72.1359 28.3475 72.1344 28.3971 72.1311 28.4468C72.1284 28.4843 72.1245 28.5219 72.1202 28.5592C72.1143 28.6076 72.108 28.6558 72.0993 28.7037C72.0923 28.742 72.0833 28.7798 72.0744 28.8176C72.0635 28.8638 72.0526 28.9101 72.0388 28.9559C72.0269 28.9948 72.0124 29.0334 71.9983 29.0719C71.9826 29.1152 71.9676 29.1588 71.9494 29.2014C71.9317 29.2421 71.9109 29.2818 71.8908 29.3218C71.8712 29.3608 71.8533 29.4003 71.8315 29.4385C71.8046 29.4855 71.7733 29.531 71.7428 29.5766C71.7232 29.6059 71.706 29.6364 71.6852 29.665C71.6789 29.6737 71.6711 29.6812 71.6646 29.6899C71.6145 29.7568 71.5624 29.8217 71.5065 29.8817C71.5002 29.8885 71.4931 29.8938 71.4871 29.9006C71.4292 29.9617 71.3696 30.02 71.3066 30.0735ZM65.9904 29.8483C65.5462 30.3433 64.9102 30.6272 64.2452 30.6272H63.7865C63.1214 30.6272 62.4852 30.3433 62.041 29.8483C61.5969 29.3533 61.383 28.6899 61.4549 28.0285L61.4862 27.7401H66.545L66.577 28.0355C66.6467 28.6945 66.4334 29.355 65.9904 29.8483ZM57.9599 30.6107C57.911 30.6049 57.8638 30.594 57.8158 30.5853C57.7732 30.5775 57.7296 30.5727 57.6877 30.5625C57.6347 30.5499 57.5836 30.5318 57.5317 30.5155C57.4966 30.5044 57.4605 30.4962 57.4259 30.4836C57.3743 30.4647 57.3252 30.4405 57.275 30.4179C57.2423 30.4032 57.2084 30.3911 57.1765 30.3748C57.1297 30.3511 57.0854 30.3223 57.0403 30.2954C57.0077 30.2758 56.9735 30.2586 56.9415 30.2375C56.8996 30.2094 56.8606 30.177 56.8204 30.146C56.7882 30.1213 56.7546 30.0987 56.7233 30.0723C56.6855 30.0401 56.6512 30.0033 56.6151 29.9687C56.5848 29.9391 56.5528 29.912 56.5238 29.8808C56.4901 29.8442 56.4598 29.8038 56.4281 29.7648C56.4005 29.7309 56.3712 29.6991 56.345 29.6633C56.3322 29.6456 56.322 29.627 56.3097 29.609C56.2704 29.5521 56.2322 29.495 56.1985 29.4356C56.1811 29.4049 56.1668 29.3729 56.1508 29.3417C56.1263 29.2939 56.1016 29.2465 56.0806 29.1976C56.0651 29.1615 56.0527 29.1247 56.0391 29.0878C56.0222 29.0423 56.0052 28.9968 55.9912 28.9503C55.9796 28.9113 55.9701 28.8716 55.9607 28.8321C55.9498 28.787 55.9391 28.7418 55.9309 28.6962C55.9234 28.6553 55.9181 28.6139 55.913 28.5725C55.9074 28.5274 55.9026 28.4824 55.8996 28.4368C55.897 28.3947 55.8955 28.3523 55.8953 28.3099C55.8948 28.2649 55.896 28.2196 55.8982 28.1743C55.9004 28.1314 55.9033 28.0888 55.9076 28.046C55.9125 28.0007 55.9193 27.9556 55.9265 27.9103C55.9336 27.8677 55.9406 27.8248 55.95 27.7825C55.9532 27.7682 55.9578 27.7539 55.9612 27.7396H60.9979L60.9117 28.534C60.7826 29.727 59.7805 30.6269 58.5802 30.6269H58.2397C58.1457 30.6272 58.052 30.6216 57.9599 30.6107ZM52.5015 30.6081C52.4732 30.6047 52.4456 30.5976 52.4175 30.5933C52.3489 30.5821 52.2804 30.5703 52.2138 30.5533C52.1818 30.5453 52.1508 30.5344 52.1196 30.525C52.0586 30.5068 51.9978 30.4877 51.9387 30.4647C51.9057 30.4518 51.8735 30.4366 51.8413 30.4223C51.7866 30.3981 51.7326 30.3724 51.68 30.3441C51.6461 30.3257 51.6132 30.3058 51.5802 30.2857C51.5328 30.2569 51.4863 30.2264 51.441 30.1942C51.4061 30.1692 51.372 30.1435 51.3385 30.1167C51.2991 30.0849 51.2608 30.0518 51.2232 30.0174C51.1884 29.9854 51.1537 29.9529 51.1203 29.9185C51.0879 29.8851 51.0573 29.8498 51.0268 29.8142C50.9934 29.7752 50.96 29.7362 50.9287 29.6945C50.8977 29.6534 50.8694 29.61 50.8411 29.5664C50.8176 29.5303 50.7922 29.495 50.7708 29.4579C50.743 29.41 50.72 29.3603 50.6958 29.3111C50.6536 29.2247 50.6161 29.1368 50.5848 29.0464C50.5764 29.022 50.5664 28.9978 50.5587 28.9733C50.5398 28.9123 50.5248 28.8503 50.511 28.7883C50.5054 28.7631 50.4993 28.7379 50.4945 28.7125C50.4829 28.6514 50.4742 28.5899 50.4674 28.5281C50.4642 28.4993 50.4621 28.4705 50.4601 28.4414C50.4558 28.3831 50.4528 28.3247 50.4531 28.2663C50.4533 28.2283 50.456 28.1903 50.4582 28.1523C50.4608 28.1021 50.4628 28.0518 50.4688 28.0016C50.479 27.9178 50.4933 27.8343 50.5129 27.7515C50.5139 27.7476 50.5141 27.7437 50.5151 27.7398H55.4407L55.0287 29.007C54.7139 29.9759 53.8178 30.6269 52.7984 30.6269C52.6979 30.6272 52.5991 30.6202 52.5015 30.6081ZM66.4927 27.2555H61.5387L62.0255 22.7651H66.0064L66.4927 27.2555ZM74.9106 22.7651L77.2947 27.1639C77.311 27.1939 77.3221 27.2252 77.3371 27.2555H72.4335L70.9732 22.7651H74.9106ZM70.4634 22.7651L71.9233 27.2555H66.9802L66.5072 22.8917L66.4934 22.7651H70.4634ZM61.051 27.2555H56.1077L57.5676 22.7651H61.538L61.051 27.2555ZM53.1201 22.7651H57.058L55.5979 27.2555H50.6941C50.7088 27.2252 50.7202 27.1937 50.7365 27.1639L53.1201 22.7651ZM52.1295 31.0336C52.1978 31.0498 52.2683 31.0592 52.338 31.0706C52.3724 31.0762 52.4058 31.0844 52.4405 31.0888C52.5579 31.1033 52.6771 31.1118 52.7982 31.1118C54.028 31.1118 55.1094 30.3261 55.4891 29.1571L55.5189 29.0656C55.5274 29.0951 55.5402 29.1237 55.5497 29.153C55.5729 29.2242 55.5955 29.2956 55.6245 29.3654C55.64 29.4027 55.6606 29.438 55.6778 29.4749C55.7076 29.5386 55.7359 29.6025 55.7708 29.6645C55.7941 29.7059 55.8229 29.7449 55.8483 29.7853C55.8822 29.8389 55.9132 29.8936 55.951 29.9454L55.9546 29.9498C55.9553 29.9508 55.9558 29.952 55.9566 29.9529C55.9854 29.9922 56.0181 30.0268 56.0483 30.0643C56.0886 30.114 56.1268 30.1653 56.1699 30.2118C56.2021 30.2465 56.2377 30.2767 56.2712 30.3097C56.3172 30.3547 56.3617 30.4017 56.4104 30.4434C56.4429 30.471 56.478 30.494 56.5117 30.5201C56.5652 30.5618 56.6177 30.6052 56.6737 30.6427C56.7054 30.6638 56.7396 30.6807 56.772 30.7003C56.833 30.7376 56.8933 30.7761 56.957 30.8083C56.989 30.8246 57.0232 30.8364 57.0558 30.8515C57.1225 30.8822 57.1888 30.9139 57.2578 30.9394C57.2959 30.9534 57.3358 30.9624 57.3746 30.9747C57.4404 30.9958 57.5058 31.0186 57.5736 31.0345C57.6216 31.0459 57.6715 31.0515 57.7202 31.0605C57.7807 31.0716 57.8403 31.0854 57.9018 31.0927C58.0132 31.1058 58.1261 31.1123 58.2404 31.1123H58.5809C59.7441 31.1123 60.7521 30.4109 61.1847 29.3894C61.3053 29.6732 61.4709 29.9389 61.6809 30.1728C62.2169 30.7701 62.9844 31.1125 63.7867 31.1125H64.2454C65.0476 31.1125 65.8153 30.7701 66.3512 30.1728C66.4852 30.0234 66.6019 29.8614 66.7 29.6899C66.7555 29.593 66.8034 29.4923 66.847 29.3899C67.2805 30.4114 68.2885 31.1123 69.4513 31.1123H69.7915C69.9058 31.1123 70.0187 31.1058 70.1301 31.0927C70.2088 31.0835 70.2853 31.0672 70.3621 31.0517C70.3938 31.0454 70.4268 31.0423 70.458 31.0348C70.5561 31.0115 70.6515 30.9815 70.7457 30.9481C70.7547 30.9449 70.7644 30.943 70.7734 30.9399C70.8746 30.9028 70.9734 30.8594 71.0695 30.8108C71.071 30.81 71.0725 30.8096 71.0737 30.8088C71.1701 30.7599 71.2635 30.7052 71.3539 30.6451C71.3548 30.6446 71.3558 30.6441 71.3565 30.6434C71.6324 30.4596 71.8777 30.2252 72.0807 29.9457C72.1451 29.857 72.203 29.7655 72.256 29.672C72.2568 29.6705 72.258 29.6693 72.2587 29.6679C72.3674 29.4758 72.4515 29.2746 72.5118 29.0675L72.5413 29.1581C72.9223 30.3271 74.0039 31.1125 75.2325 31.1125C75.3536 31.1125 75.4728 31.1041 75.5905 31.0895C75.6241 31.0854 75.6568 31.0772 75.6902 31.0718C75.7612 31.0605 75.8326 31.0508 75.9022 31.0343V39.5147H73.4347V34.4385C73.4347 32.8304 72.1606 31.5221 70.5944 31.5221C69.0281 31.5221 67.754 32.8304 67.754 34.4385V39.5147H52.1295V31.0336ZM72.9506 39.5138H68.2389V34.4375C68.2389 33.0963 69.2955 32.0055 70.5949 32.0055C71.8942 32.0055 72.9509 33.0965 72.9509 34.4375L72.9506 39.5138ZM76.7484 40.5341V41.3592H51.0278V40.5341C51.0278 40.2384 51.2683 39.9979 51.5638 39.9979H76.2122C76.5079 39.9981 76.7484 40.2386 76.7484 40.5341Z" fill="#1E243C" stroke="#1E243C" stroke-width="0.5"/>
  <path d="M63.9499 32.0234H54.8872C54.7535 32.0234 54.645 32.1319 54.645 32.2656V37.416C54.645 37.5497 54.7535 37.6582 54.8872 37.6582H63.9499C64.0836 37.6582 64.1921 37.5497 64.1921 37.416V32.2656C64.1921 32.1319 64.0836 32.0234 63.9499 32.0234ZM63.7077 37.1738H55.1294V32.5078H63.7077V37.1738Z" fill="#1E243C" stroke="#1E243C" stroke-width="0.5"/>
  <path d="M68.9396 35.9091C68.6802 35.9091 68.4692 36.1188 68.4692 36.3794C68.4692 36.6388 68.6799 36.8497 68.9396 36.8497C69.1999 36.8497 69.4106 36.639 69.4106 36.3794C69.4109 36.1188 69.1999 35.9091 68.9396 35.9091Z" fill="#3A2C60"/>
</svg>
