<svg width="125" height="68" viewBox="0 0 125 68" fill="none" xmlns="http://www.w3.org/2000/svg">
<path d="M37.8027 53.0098C37.8027 53.8457 37.6621 54.5762 37.3809 55.2012C37.0996 55.8223 36.7012 56.2969 36.1855 56.625C35.6699 56.9531 35.0684 57.1172 34.3809 57.1172C33.709 57.1172 33.1133 56.9531 32.5938 56.625C32.0742 56.293 31.6699 55.8223 31.3809 55.2129C31.0957 54.5996 30.9492 53.8906 30.9414 53.0859V52.4707C30.9414 51.6504 31.084 50.9258 31.3691 50.2969C31.6543 49.668 32.0566 49.1875 32.5762 48.8555C33.0996 48.5195 33.6973 48.3516 34.3691 48.3516C35.0527 48.3516 35.6543 48.5176 36.1738 48.8496C36.6973 49.1777 37.0996 49.6562 37.3809 50.2852C37.6621 50.9102 37.8027 51.6387 37.8027 52.4707V53.0098ZM36.6836 52.459C36.6836 51.4473 36.4805 50.6719 36.0742 50.1328C35.668 49.5898 35.0996 49.3184 34.3691 49.3184C33.6582 49.3184 33.0977 49.5898 32.6875 50.1328C32.2812 50.6719 32.0723 51.4219 32.0605 52.3828V53.0098C32.0605 53.9902 32.2656 54.7617 32.6758 55.3242C33.0898 55.8828 33.6582 56.1621 34.3809 56.1621C35.1074 56.1621 35.6699 55.8984 36.0684 55.3711C36.4668 54.8398 36.6719 54.0801 36.6836 53.0918V52.459ZM40.3457 50.6602L40.3809 51.457C40.8652 50.8477 41.498 50.543 42.2793 50.543C43.6191 50.543 44.2949 51.2988 44.3066 52.8105V57H43.2227V52.8047C43.2188 52.3477 43.1133 52.0098 42.9062 51.791C42.7031 51.5723 42.3848 51.4629 41.9512 51.4629C41.5996 51.4629 41.291 51.5566 41.0254 51.7441C40.7598 51.9316 40.5527 52.1777 40.4043 52.4824V57H39.3203V50.6602H40.3457ZM49.6328 55.3184C49.6328 55.0254 49.5215 54.7988 49.2988 54.6387C49.0801 54.4746 48.6953 54.334 48.1445 54.2168C47.5977 54.0996 47.1621 53.959 46.8379 53.7949C46.5176 53.6309 46.2793 53.4355 46.123 53.209C45.9707 52.9824 45.8945 52.7129 45.8945 52.4004C45.8945 51.8809 46.1133 51.4414 46.5508 51.082C46.9922 50.7227 47.5547 50.543 48.2383 50.543C48.957 50.543 49.5391 50.7285 49.9844 51.0996C50.4336 51.4707 50.6582 51.9453 50.6582 52.5234H49.5684C49.5684 52.2266 49.4414 51.9707 49.1875 51.7559C48.9375 51.541 48.6211 51.4336 48.2383 51.4336C47.8438 51.4336 47.5352 51.5195 47.3125 51.6914C47.0898 51.8633 46.9785 52.0879 46.9785 52.3652C46.9785 52.627 47.082 52.8242 47.2891 52.957C47.4961 53.0898 47.8691 53.2168 48.4082 53.3379C48.9512 53.459 49.3906 53.6035 49.7266 53.7715C50.0625 53.9395 50.3105 54.1426 50.4707 54.3809C50.6348 54.6152 50.7168 54.9023 50.7168 55.2422C50.7168 55.8086 50.4902 56.2637 50.0371 56.6074C49.584 56.9473 48.9961 57.1172 48.2734 57.1172C47.7656 57.1172 47.3164 57.0273 46.9258 56.8477C46.5352 56.668 46.2285 56.418 46.0059 56.0977C45.7871 55.7734 45.6777 55.4238 45.6777 55.0488H46.7617C46.7812 55.4121 46.9258 55.7012 47.1953 55.916C47.4688 56.127 47.8281 56.2324 48.2734 56.2324C48.6836 56.2324 49.0117 56.1504 49.2578 55.9863C49.5078 55.8184 49.6328 55.5957 49.6328 55.3184ZM53.2129 51.4277C53.6934 50.8379 54.3184 50.543 55.0879 50.543C56.4277 50.543 57.1035 51.2988 57.1152 52.8105V57H56.0312V52.8047C56.0273 52.3477 55.9219 52.0098 55.7148 51.791C55.5117 51.5723 55.1934 51.4629 54.7598 51.4629C54.4082 51.4629 54.0996 51.5566 53.834 51.7441C53.5684 51.9316 53.3613 52.1777 53.2129 52.4824V57H52.1289V48H53.2129V51.4277ZM58.4512 53.7715C58.4512 53.1504 58.5723 52.5918 58.8145 52.0957C59.0605 51.5996 59.4004 51.2168 59.834 50.9473C60.2715 50.6777 60.7695 50.543 61.3281 50.543C62.1914 50.543 62.8887 50.8418 63.4199 51.4395C63.9551 52.0371 64.2227 52.832 64.2227 53.8242V53.9004C64.2227 54.5176 64.1035 55.0723 63.8652 55.5645C63.6309 56.0527 63.293 56.4336 62.8516 56.707C62.4141 56.9805 61.9102 57.1172 61.3398 57.1172C60.4805 57.1172 59.7832 56.8184 59.248 56.2207C58.7168 55.623 58.4512 54.832 58.4512 53.8477V53.7715ZM59.541 53.9004C59.541 54.6035 59.7031 55.168 60.0273 55.5938C60.3555 56.0195 60.793 56.2324 61.3398 56.2324C61.8906 56.2324 62.3281 56.0176 62.6523 55.5879C62.9766 55.1543 63.1387 54.5488 63.1387 53.7715C63.1387 53.0762 62.9727 52.5137 62.6406 52.084C62.3125 51.6504 61.875 51.4336 61.3281 51.4336C60.793 51.4336 60.3613 51.6465 60.0332 52.0723C59.7051 52.498 59.541 53.1074 59.541 53.9004ZM70.9375 53.9004C70.9375 54.8652 70.7168 55.6426 70.2754 56.2324C69.834 56.8223 69.2363 57.1172 68.4824 57.1172C67.7129 57.1172 67.1074 56.873 66.666 56.3848V59.4375H65.582V50.6602H66.5723L66.625 51.3633C67.0664 50.8164 67.6797 50.543 68.4648 50.543C69.2266 50.543 69.8281 50.8301 70.2695 51.4043C70.7148 51.9785 70.9375 52.7773 70.9375 53.8008V53.9004ZM69.8535 53.7773C69.8535 53.0625 69.7012 52.498 69.3965 52.084C69.0918 51.6699 68.6738 51.4629 68.1426 51.4629C67.4863 51.4629 66.9941 51.7539 66.666 52.3359V55.3652C66.9902 55.9434 67.4863 56.2324 68.1543 56.2324C68.6738 56.2324 69.0859 56.0273 69.3906 55.6172C69.6992 55.2031 69.8535 54.5898 69.8535 53.7773ZM77.9805 53.1973C77.0156 52.9199 76.3125 52.5801 75.8711 52.1777C75.4336 51.7715 75.2148 51.2715 75.2148 50.6777C75.2148 50.0059 75.4824 49.4512 76.0176 49.0137C76.5566 48.5723 77.2559 48.3516 78.1152 48.3516C78.7012 48.3516 79.2227 48.4648 79.6797 48.6914C80.1406 48.918 80.4961 49.2305 80.7461 49.6289C81 50.0273 81.127 50.4629 81.127 50.9355H79.9961C79.9961 50.4199 79.832 50.0156 79.5039 49.7227C79.1758 49.4258 78.7129 49.2773 78.1152 49.2773C77.5605 49.2773 77.127 49.4004 76.8145 49.6465C76.5059 49.8887 76.3516 50.2266 76.3516 50.6602C76.3516 51.0078 76.498 51.3027 76.791 51.5449C77.0879 51.7832 77.5898 52.002 78.2969 52.2012C79.0078 52.4004 79.5625 52.6211 79.9609 52.8633C80.3633 53.1016 80.6602 53.3809 80.8516 53.7012C81.0469 54.0215 81.1445 54.3984 81.1445 54.832C81.1445 55.5234 80.875 56.0781 80.3359 56.4961C79.7969 56.9102 79.0762 57.1172 78.1738 57.1172C77.5879 57.1172 77.041 57.0059 76.5332 56.7832C76.0254 56.5566 75.6328 56.248 75.3555 55.8574C75.082 55.4668 74.9453 55.0234 74.9453 54.5273H76.0762C76.0762 55.043 76.2656 55.4512 76.6445 55.752C77.0273 56.0488 77.5371 56.1973 78.1738 56.1973C78.7676 56.1973 79.2227 56.0762 79.5391 55.834C79.8555 55.5918 80.0137 55.2617 80.0137 54.8438C80.0137 54.4258 79.8672 54.1035 79.5742 53.877C79.2812 53.6465 78.75 53.4199 77.9805 53.1973ZM86.3359 57C86.2734 56.875 86.2227 56.6523 86.1836 56.332C85.6797 56.8555 85.0781 57.1172 84.3789 57.1172C83.7539 57.1172 83.2402 56.9414 82.8379 56.5898C82.4395 56.2344 82.2402 55.7852 82.2402 55.2422C82.2402 54.582 82.4902 54.0703 82.9902 53.707C83.4941 53.3398 84.2012 53.1562 85.1113 53.1562H86.166V52.6582C86.166 52.2793 86.0527 51.9785 85.8262 51.7559C85.5996 51.5293 85.2656 51.416 84.8242 51.416C84.4375 51.416 84.1133 51.5137 83.8516 51.709C83.5898 51.9043 83.459 52.1406 83.459 52.418H82.3691C82.3691 52.1016 82.4805 51.7969 82.7031 51.5039C82.9297 51.207 83.2344 50.9727 83.6172 50.8008C84.0039 50.6289 84.4277 50.543 84.8887 50.543C85.6191 50.543 86.1914 50.7266 86.6055 51.0938C87.0195 51.457 87.2344 51.959 87.25 52.5996V55.5176C87.25 56.0996 87.3242 56.5625 87.4727 56.9062V57H86.3359ZM84.5371 56.1738C84.877 56.1738 85.1992 56.0859 85.5039 55.9102C85.8086 55.7344 86.0293 55.5059 86.166 55.2246V53.9238H85.3164C83.9883 53.9238 83.3242 54.3125 83.3242 55.0898C83.3242 55.4297 83.4375 55.6953 83.6641 55.8867C83.8906 56.0781 84.1816 56.1738 84.5371 56.1738ZM85.627 49.7227H84.6953L83.1836 48H84.4902L85.627 49.7227ZM89.9746 50.6602L90.0098 51.457C90.4941 50.8477 91.127 50.543 91.9082 50.543C93.248 50.543 93.9238 51.2988 93.9355 52.8105V57H92.8516V52.8047C92.8477 52.3477 92.7422 52.0098 92.5352 51.791C92.332 51.5723 92.0137 51.4629 91.5801 51.4629C91.2285 51.4629 90.9199 51.5566 90.6543 51.7441C90.3887 51.9316 90.1816 52.1777 90.0332 52.4824V57H88.9492V50.6602H89.9746Z" fill="#1E243C"/>
<path d="M58.197 16.7314C58.7494 16.7314 59.1968 17.2014 59.1968 17.7808C59.1968 18.3605 58.7494 18.8298 58.197 18.8298C57.6447 18.8298 57.1968 18.3599 57.1968 17.7808C57.1968 17.2017 57.6447 16.7314 58.197 16.7314Z" fill="#1E243C"/>
<path d="M54.7213 16.7314C55.2736 16.7314 55.7214 17.2012 55.7214 17.7805C55.7214 18.36 55.2736 18.8292 54.7213 18.8292C54.1692 18.8292 53.7214 18.3595 53.7214 17.7805C53.7214 17.2016 54.1692 16.7314 54.7213 16.7314Z" fill="#1E243C"/>
<path d="M51.2466 16.7314C51.7989 16.7314 52.2468 17.2014 52.2468 17.7808C52.2468 18.3605 51.7989 18.8298 51.2466 18.8298C50.6942 18.8298 50.2468 18.3599 50.2468 17.7808C50.2468 17.2017 50.6942 16.7314 51.2466 16.7314Z" fill="#1E243C"/>
<path d="M76.4091 14.4301H50.5909C49.1624 14.4301 48 15.6082 48 17.0926V37.9074C48 39.3918 49.1624 40.5699 50.5909 40.5699H76.4091C77.8375 40.5699 79 39.3918 79 37.9074V17.0926C79 15.6082 77.8375 14.4301 76.4091 14.4301ZM50.5909 15.4809H76.4091C77.2582 15.4809 77.9492 16.1877 77.9492 17.0926V20.8008H49.0508V17.0926C49.0508 16.1877 49.7417 15.4809 50.5909 15.4809ZM76.4091 39.519H50.5909C49.7417 39.519 49.0508 38.8122 49.0508 37.9074V21.8517H77.9492V37.9074C77.9492 38.8122 77.2582 39.519 76.4091 39.519Z" fill="#1E243C"/>
<g clip-path="url(#clip0)">
<path d="M56.5781 25.5835C56.5781 26.6049 55.5533 27.4327 54.2891 27.4327C53.0248 27.4327 52 26.6049 52 25.5835H56.5781Z" fill="#E38FB5" stroke="#1E243C" stroke-width="0.5"/>
<path d="M61.1943 25.5835C61.1943 26.6049 60.1315 27.4327 58.8671 27.4327C57.6028 27.4327 56.5781 26.6049 56.5781 25.5835H61.1943Z" fill="#B9256A" stroke="#1E243C" stroke-width="0.5"/>
<path d="M74.9999 25.5835H70.4218L68.6646 21.3334H72.0036C72.437 21.3334 72.8334 21.5312 73.0272 21.8444L74.9999 25.5835Z" fill="#E38FB5" stroke="#1E243C" stroke-width="0.5"/>
<path d="M65.8106 25.5835H61.1943V21.3334H64.6279L65.8106 25.5835Z" fill="#E38FB5" stroke="#1E243C" stroke-width="0.5"/>
<path d="M61.1943 21.3334V25.5835H56.5781L57.7226 21.3334H61.1943Z" fill="#B9256A" stroke="#1E243C" stroke-width="0.5"/>
<path d="M57.7226 21.3334L56.5781 25.5835H52L53.9727 21.8444C54.1665 21.5313 54.5629 21.3334 54.9963 21.3334H57.7226V21.3334Z" fill="#E38FB5" stroke="#1E243C" stroke-width="0.5"/>
<path d="M65.8106 25.5835C65.8106 26.6049 64.7858 27.4327 63.5215 27.4327C62.2572 27.4327 61.1943 26.6049 61.1943 25.5835H65.8106Z" fill="#C71E6B" fill-opacity="0.5" stroke="#1E243C" stroke-width="0.5"/>
<path d="M70.4076 25.5835H65.7914L64.6421 21.3334H68.6646L70.4076 25.5835Z" fill="#B9256A" stroke="#1E243C" stroke-width="0.5"/>
<path d="M70.408 25.5835C70.408 26.6049 69.3832 27.4327 68.1189 27.4327C66.8547 27.4327 65.7917 26.6049 65.7917 25.5835H70.408Z" fill="#B9256A" stroke="#1E243C" stroke-width="0.5"/>
<path d="M74.9999 25.5835C74.9999 26.6049 73.9752 27.4327 72.7109 27.4327C71.4466 27.4327 70.4219 26.6049 70.4219 25.5835H74.9999Z" fill="#E38FB5" stroke="#1E243C" stroke-width="0.5"/>
</g>
<path d="M63.6443 29.7504V30.5255C63.6443 30.5653 63.6285 30.6035 63.6003 30.6316C63.5722 30.6598 63.534 30.6756 63.4942 30.6756C63.4544 30.6756 63.4162 30.6598 63.3881 30.6316C63.3599 30.6035 63.3441 30.5653 63.3441 30.5255V29.7504C63.3441 29.7106 63.3599 29.6725 63.3881 29.6443C63.4162 29.6162 63.4544 29.6003 63.4942 29.6003C63.534 29.6003 63.5722 29.6162 63.6003 29.6443C63.6285 29.6725 63.6443 29.7106 63.6443 29.7504Z" fill="#E6E7E8"/>
<path d="M62.1436 29.7504V30.8257C62.1436 30.8655 62.1277 30.9037 62.0996 30.9318C62.0714 30.96 62.0333 30.9758 61.9935 30.9758C61.9537 30.9758 61.9155 30.96 61.8873 30.9318C61.8592 30.9037 61.8434 30.8655 61.8434 30.8257V29.7504C61.8434 29.7106 61.8592 29.6725 61.8873 29.6443C61.9155 29.6162 61.9537 29.6003 61.9935 29.6003C62.0333 29.6003 62.0714 29.6162 62.0996 29.6443C62.1277 29.6725 62.1436 29.7106 62.1436 29.7504Z" fill="#E6E7E8"/>
<path d="M60.6428 29.7504V30.5255C60.6428 30.5653 60.627 30.6035 60.5989 30.6316C60.5707 30.6598 60.5325 30.6756 60.4927 30.6756C60.4529 30.6756 60.4147 30.6598 60.3866 30.6316C60.3585 30.6035 60.3426 30.5653 60.3426 30.5255V29.7504C60.3426 29.7106 60.3585 29.6725 60.3866 29.6443C60.4147 29.6162 60.4529 29.6003 60.4927 29.6003C60.5325 29.6003 60.5707 29.6162 60.5989 29.6443C60.627 29.6725 60.6428 29.7106 60.6428 29.7504Z" fill="#E6E7E8"/>
<path d="M58.7113 35.0616L58.0269 31.2993C58.0155 31.2369 58.0179 31.1728 58.0341 31.1115C58.0502 31.0501 58.0796 30.9931 58.1202 30.9444C58.1608 30.8957 58.2116 30.8566 58.2691 30.8297C58.3265 30.8028 58.3891 30.7889 58.4525 30.7889H67.1689L66.3271 35.4164H59.1365C59.0353 35.4163 58.9374 35.3808 58.8597 35.316C58.782 35.2511 58.7295 35.1611 58.7113 35.0616Z" fill="#E38FB5"/>
<path d="M58.4521 31.2395C58.3697 31.2396 58.2892 31.2633 58.2199 31.3078C58.1506 31.3522 58.0955 31.4156 58.0611 31.4905L58.0264 31.2993C58.015 31.2369 58.0175 31.1728 58.0336 31.1115C58.0497 31.0501 58.0792 30.9931 58.1198 30.9444C58.1604 30.8957 58.2112 30.8566 58.2686 30.8297C58.3261 30.8028 58.3887 30.7889 58.4521 30.7889H67.1689L67.087 31.2392L58.4521 31.2395Z" fill="white"/>
<path d="M64.4012 38.8514C63.9876 38.7844 63.7066 38.3947 63.7737 37.981C63.8407 37.5674 64.2304 37.2864 64.6441 37.3534C65.0577 37.4205 65.3387 37.8102 65.2716 38.2239C65.2046 38.6375 64.8149 38.9185 64.4012 38.8514Z" fill="#B9256A"/>
<path d="M59.9605 38.3971C59.8 38.0098 59.9838 37.5658 60.3711 37.4052C60.7583 37.2447 61.2024 37.4285 61.3629 37.8158C61.5234 38.203 61.3396 38.6471 60.9524 38.8076C60.5651 38.9681 60.1211 38.7843 59.9605 38.3971Z" fill="#B9256A"/>
<path d="M64.2449 29.1501V29.9252C64.2449 29.965 64.2291 30.0031 64.2009 30.0313C64.1728 30.0594 64.1346 30.0753 64.0948 30.0753C64.055 30.0753 64.0168 30.0594 63.9887 30.0313C63.9605 30.0031 63.9447 29.965 63.9447 29.9252V29.1501C63.9447 29.1103 63.9605 29.0721 63.9887 29.044C64.0168 29.0158 64.055 29 64.0948 29C64.1346 29 64.1728 29.0158 64.2009 29.044C64.2291 29.0721 64.2449 29.1103 64.2449 29.1501Z" fill="#1E243C"/>
<path d="M62.7446 29.1501V30.2253C62.7446 30.2652 62.7288 30.3033 62.7007 30.3315C62.6725 30.3596 62.6343 30.3754 62.5945 30.3754C62.5547 30.3754 62.5166 30.3596 62.4884 30.3315C62.4603 30.3033 62.4444 30.2652 62.4444 30.2253V29.1501C62.4444 29.1103 62.4603 29.0721 62.4884 29.044C62.5166 29.0158 62.5547 29 62.5945 29C62.6343 29 62.6725 29.0158 62.7007 29.044C62.7288 29.0721 62.7446 29.1103 62.7446 29.1501Z" fill="#1E243C"/>
<path d="M61.2434 29.1501V29.9252C61.2434 29.965 61.2276 30.0031 61.1994 30.0313C61.1713 30.0594 61.1331 30.0753 61.0933 30.0753C61.0535 30.0753 61.0153 30.0594 60.9872 30.0313C60.959 30.0031 60.9432 29.965 60.9432 29.9252V29.1501C60.9432 29.1103 60.959 29.0721 60.9872 29.044C61.0153 29.0158 61.0535 29 61.0933 29C61.1331 29 61.1713 29.0158 61.1994 29.044C61.2276 29.0721 61.2434 29.1103 61.2434 29.1501Z" fill="#1E243C"/>
<path d="M62.2321 35.2664C62.2463 35.2664 62.2598 35.2822 62.2698 35.3103C62.2798 35.3385 62.2854 35.3766 62.2854 35.4164C62.2854 35.4563 62.2798 35.4944 62.2698 35.5226C62.2598 35.5507 62.2463 35.5665 62.2321 35.5665H61.7867C61.7725 35.5665 61.759 35.5507 61.749 35.5226C61.739 35.4944 61.7334 35.4563 61.7334 35.4164C61.7334 35.3766 61.739 35.3385 61.749 35.3103C61.759 35.2822 61.7725 35.2664 61.7867 35.2664H62.2321Z" fill="#1E243C" stroke="#1E243C" stroke-width="0.5"/>
<path d="M58.0047 30.8484C58.0594 30.7828 58.1278 30.7301 58.2051 30.6939C58.2825 30.6578 58.3668 30.6391 58.4522 30.6391H67.0438L67.2832 29.3227C67.2895 29.2881 67.3078 29.2568 67.3347 29.2343C67.3617 29.2118 67.3958 29.1995 67.4309 29.1995H69.1292C69.169 29.1995 69.2072 29.2153 69.2353 29.2434C69.2635 29.2716 69.2793 29.3097 69.2793 29.3496C69.2793 29.3894 69.2635 29.4275 69.2353 29.4557C69.2072 29.4838 69.169 29.4996 69.1292 29.4996H67.5561L66.212 36.8871C66.2057 36.9217 66.1875 36.953 66.1606 36.9755C66.1336 36.998 66.0996 37.0103 66.0645 37.0104H59.062C59.0222 37.0104 58.984 36.9946 58.9558 36.9664C58.9277 36.9383 58.9119 36.9001 58.9119 36.8603C58.9119 36.8205 58.9277 36.7823 58.9558 36.7542C58.984 36.726 59.0222 36.7102 59.062 36.7102H65.9392L66.1472 35.5665H63.159C63.1192 35.5665 63.081 35.5507 63.0529 35.5225C63.0247 35.4944 63.0089 35.4562 63.0089 35.4164C63.0089 35.3766 63.0247 35.3384 63.0529 35.3103C63.081 35.2821 63.1192 35.2663 63.159 35.2663H66.2018L66.9891 30.9393H58.4522C58.4108 30.9394 58.3699 30.9485 58.3324 30.966C58.2949 30.9836 58.2618 31.0092 58.2352 31.0409C58.2087 31.0727 58.1895 31.1099 58.1789 31.1499C58.1683 31.19 58.1667 31.2318 58.174 31.2725L58.8584 35.0349C58.8704 35.0999 58.9048 35.1586 58.9556 35.2009C59.0064 35.2432 59.0705 35.2663 59.1366 35.2663H60.7889C60.8287 35.2663 60.8669 35.2821 60.8951 35.3103C60.9232 35.3384 60.939 35.3766 60.939 35.4164C60.939 35.4562 60.9232 35.4944 60.8951 35.5225C60.8669 35.5507 60.8287 35.5665 60.7889 35.5665H59.1366C59.0001 35.5666 58.8679 35.5187 58.7631 35.4312C58.6583 35.3438 58.5876 35.2223 58.5632 35.088L57.8787 31.3257C57.8634 31.2417 57.8668 31.1555 57.8886 31.073C57.9104 30.9905 57.95 30.9138 58.0047 30.8484Z" fill="#1E243C" stroke="#1E243C" stroke-width="0.5"/>
<path d="M64.5188 37.1936C64.6986 37.1936 64.8743 37.2469 65.0238 37.3468C65.1733 37.4467 65.2898 37.5887 65.3586 37.7548C65.4274 37.9208 65.4453 38.1036 65.4103 38.2799C65.3752 38.4563 65.2886 38.6182 65.1615 38.7453C65.0343 38.8725 64.8723 38.959 64.696 38.9941C64.5197 39.0291 64.3369 39.0111 64.1708 38.9423C64.0047 38.8735 63.8628 38.7569 63.7629 38.6074C63.6631 38.4579 63.6098 38.2822 63.6098 38.1024C63.6101 37.8615 63.706 37.6305 63.8764 37.4601C64.0468 37.2897 64.2778 37.1939 64.5188 37.1936ZM64.5188 38.7112C64.6392 38.7112 64.7569 38.6755 64.857 38.6086C64.9571 38.5417 65.0351 38.4466 65.0812 38.3354C65.1273 38.2241 65.1393 38.1017 65.1159 37.9836C65.0924 37.8656 65.0344 37.7571 64.9492 37.6719C64.8641 37.5868 64.7556 37.5288 64.6375 37.5053C64.5195 37.4818 64.3971 37.4939 64.2858 37.54C64.1746 37.5861 64.0795 37.6641 64.0126 37.7642C63.9457 37.8643 63.91 37.982 63.91 38.1024C63.9102 38.2638 63.9744 38.4185 64.0885 38.5327C64.2027 38.6468 64.3574 38.711 64.5188 38.7112Z" fill="#1E243C"/>
<path d="M60.6681 37.1936C60.8479 37.1936 61.0236 37.247 61.1731 37.3469C61.3225 37.4468 61.439 37.5888 61.5078 37.7549C61.5765 37.921 61.5945 38.1037 61.5594 38.28C61.5243 38.4563 61.4377 38.6183 61.3106 38.7454C61.1834 38.8725 61.0215 38.959 60.8451 38.9941C60.6688 39.0291 60.486 39.0111 60.32 38.9423C60.1539 38.8734 60.0119 38.7569 59.9121 38.6074C59.8122 38.4579 59.759 38.2822 59.759 38.1024C59.7593 37.8614 59.8552 37.6304 60.0256 37.46C60.1961 37.2897 60.4271 37.1938 60.6681 37.1936ZM60.6681 38.7112C60.7885 38.7112 60.9062 38.6754 61.0063 38.6085C61.1064 38.5416 61.1844 38.4465 61.2304 38.3353C61.2765 38.224 61.2885 38.1016 61.265 37.9836C61.2415 37.8655 61.1835 37.757 61.0984 37.6719C61.0132 37.5868 60.9047 37.5288 60.7867 37.5053C60.6686 37.4818 60.5462 37.4939 60.4349 37.54C60.3237 37.5861 60.2286 37.6641 60.1618 37.7642C60.0949 37.8643 60.0592 37.982 60.0592 38.1024C60.0594 38.2638 60.1236 38.4186 60.2378 38.5327C60.3519 38.6468 60.5067 38.711 60.6681 38.7112Z" fill="#1E243C"/>
<defs>
<clipPath id="clip0">
<rect width="23" height="8" fill="white" transform="translate(52 20)"/>
</clipPath>
</defs>
</svg>
