<svg width="211" height="15" viewBox="0 0 211 15" fill="none" xmlns="http://www.w3.org/2000/svg">
<path d="M51.0312 4.66406H48.3711V12H46.9004V4.66406H44.2637V3.46875H51.0312V4.66406ZM58.9297 12H57.4531V8.20898H53.6387V12H52.1562V3.46875H53.6387V7.01953H57.4531V3.46875H58.9297V12ZM66.9277 3.46875V4.75781C67.3535 4.71875 67.6582 4.57227 67.8418 4.31836C68.0254 4.06445 68.1172 3.62305 68.1172 2.99414H69.1777C69.1777 3.88477 68.9941 4.53906 68.627 4.95703C68.2637 5.375 67.6973 5.60156 66.9277 5.63672V9.16992C66.9277 10.0762 66.6367 10.7949 66.0547 11.3262C65.4766 11.8535 64.7051 12.1172 63.7402 12.1172C62.7637 12.1172 61.9883 11.8574 61.4141 11.3379C60.8398 10.8145 60.5527 10.0898 60.5527 9.16406V3.46875H62.0293V9.17578C62.0293 9.74609 62.1738 10.1816 62.4629 10.4824C62.752 10.7832 63.1777 10.9336 63.7402 10.9336C64.8809 10.9336 65.4512 10.332 65.4512 9.12891V3.46875H66.9277ZM75.875 7.95703C75.875 8.79297 75.7305 9.52734 75.4414 10.1602C75.1523 10.7891 74.7383 11.2734 74.1992 11.6133C73.6641 11.9492 73.0449 12.1172 72.3418 12.1172C71.6543 12.1172 71.0391 11.9492 70.4961 11.6133C69.957 11.2734 69.5391 10.791 69.2422 10.166C68.9492 9.54102 68.8008 8.82031 68.7969 8.00391V7.52344C68.7969 6.69141 68.9434 5.95703 69.2363 5.32031C69.5332 4.68359 69.9492 4.19727 70.4844 3.86133C71.0234 3.52148 71.6387 3.35156 72.3301 3.35156C73.3262 3.35156 74.1406 3.67969 74.7734 4.33594C75.082 4.28516 75.3105 4.13281 75.459 3.87891C75.6074 3.62109 75.6816 3.23828 75.6816 2.73047H76.7773C76.7773 3.37109 76.6582 3.89648 76.4199 4.30664C76.1855 4.71289 75.8262 4.98438 75.3418 5.12109C75.6816 5.77344 75.8594 6.53516 75.875 7.40625V7.95703ZM74.3926 7.51172C74.3926 6.55078 74.2129 5.82227 73.8535 5.32617C73.4941 4.83008 72.9863 4.58203 72.3301 4.58203C71.6895 4.58203 71.1875 4.83398 70.8242 5.33789C70.4648 5.83789 70.2812 6.54688 70.2734 7.46484V7.95703C70.2734 8.87891 70.4531 9.59961 70.8125 10.1191C71.1758 10.6387 71.6855 10.8984 72.3418 10.8984C73.002 10.8984 73.5078 10.6484 73.8594 10.1484C74.2148 9.64844 74.3926 8.91797 74.3926 7.95703V7.51172ZM84.2246 12H82.7422L78.9395 5.94727V12H77.457V3.46875H78.9395L82.7539 9.54492V3.46875H84.2246V12ZM92.5156 10.8926C92.207 11.2949 91.7793 11.5996 91.2324 11.8066C90.6855 12.0137 90.0645 12.1172 89.3691 12.1172C88.6543 12.1172 88.0215 11.9551 87.4707 11.6309C86.9199 11.3066 86.4941 10.8438 86.1934 10.2422C85.8965 9.63672 85.7422 8.93164 85.7305 8.12695V7.45898C85.7305 6.16992 86.0391 5.16406 86.6562 4.44141C87.2734 3.71484 88.1348 3.35156 89.2402 3.35156C90.1895 3.35156 90.9434 3.58594 91.502 4.05469C92.0605 4.52344 92.3965 5.19922 92.5098 6.08203H91.0566C90.8926 5.05469 90.2969 4.54102 89.2695 4.54102C88.6055 4.54102 88.0996 4.78125 87.752 5.26172C87.4082 5.73828 87.2305 6.43945 87.2188 7.36523V8.02148C87.2188 8.94336 87.4121 9.66016 87.7988 10.1719C88.1895 10.6797 88.7305 10.9336 89.4219 10.9336C90.1797 10.9336 90.7188 10.7617 91.0391 10.418V8.74805H89.2812V7.62305H92.5156V10.8926ZM99.0547 3.46875L101.516 10.0078L103.971 3.46875H105.887V12H104.41V9.1875L104.557 5.42578L102.037 12H100.977L98.4629 5.43164L98.6094 9.1875V12H97.1328V3.46875H99.0547ZM112.525 10.0137H109.221L108.529 12H106.988L110.211 3.46875H111.541L114.77 12H113.223L112.525 10.0137ZM109.637 8.81836H112.109L110.873 5.2793L109.637 8.81836ZM110.123 13.3945C110.123 13.1875 110.191 13.0137 110.328 12.873C110.469 12.7363 110.668 12.668 110.926 12.668C111.184 12.668 111.383 12.7363 111.523 12.873C111.664 13.0137 111.734 13.1875 111.734 13.3945C111.734 13.6016 111.664 13.7734 111.523 13.9102C111.383 14.0469 111.184 14.1152 110.926 14.1152C110.668 14.1152 110.469 14.0469 110.328 13.9102C110.191 13.7734 110.123 13.6016 110.123 13.3945ZM117.307 12H115.83V3.46875H117.307V12ZM122.293 12V8.17969H121.197V7.18359H122.293V3.46875H124.812C125.566 3.46875 126.234 3.63672 126.816 3.97266C127.402 4.30859 127.855 4.78516 128.176 5.40234C128.496 6.01953 128.656 6.72656 128.656 7.52344V7.95117C128.656 8.75977 128.494 9.4707 128.17 10.084C127.85 10.6973 127.391 11.1699 126.793 11.502C126.199 11.834 125.518 12 124.748 12H122.293ZM125.117 8.17969H123.775V10.8164H124.73C125.523 10.8164 126.127 10.5703 126.541 10.0781C126.959 9.58203 127.168 8.86523 127.168 7.92773V7.51758C127.168 6.5918 126.967 5.88477 126.564 5.39648C126.162 4.9082 125.578 4.66406 124.812 4.66406H123.775V7.18359H125.117V8.17969ZM131.697 12H130.221V3.46875H131.697V12ZM138.506 8.19141H135.002V10.8164H139.098V12H133.52V3.46875H139.057V4.66406H135.002V7.01953H138.506V8.19141ZM138.342 2.76562V2.83008H137.199L136.32 1.91602L135.447 2.83008H134.316V2.75391L135.904 1.13672H136.742L138.342 2.76562ZM135.506 13.3535C135.506 13.1465 135.574 12.9727 135.711 12.832C135.852 12.6953 136.051 12.627 136.309 12.627C136.566 12.627 136.766 12.6953 136.906 12.832C137.047 12.9727 137.117 13.1465 137.117 13.3535C137.117 13.5605 137.047 13.7324 136.906 13.8691C136.766 14.0059 136.566 14.0742 136.309 14.0742C136.051 14.0742 135.852 14.0059 135.711 13.8691C135.574 13.7324 135.506 13.5605 135.506 13.3535ZM147.072 12H145.59L141.787 5.94727V12H140.305V3.46875H141.787L145.602 9.54492V3.46875H147.072V12ZM157.625 4.66406H154.965V12H153.494V4.66406H150.857V3.46875H157.625V4.66406ZM164.99 3.46875V4.75781C165.416 4.71875 165.721 4.57227 165.904 4.31836C166.088 4.06445 166.18 3.62305 166.18 2.99414H167.24C167.24 3.88477 167.057 4.53906 166.689 4.95703C166.326 5.375 165.76 5.60156 164.99 5.63672V9.16992C164.99 10.0762 164.699 10.7949 164.117 11.3262C163.539 11.8535 162.768 12.1172 161.803 12.1172C160.826 12.1172 160.051 11.8574 159.477 11.3379C158.902 10.8145 158.615 10.0898 158.615 9.16406V3.46875H160.092V9.17578C160.092 9.74609 160.236 10.1816 160.525 10.4824C160.814 10.7832 161.24 10.9336 161.803 10.9336C162.943 10.9336 163.514 10.332 163.514 9.12891V3.46875H164.99ZM161.51 2.73047L161.469 1.875C161.754 1.85547 161.959 1.81836 162.084 1.76367C162.213 1.70898 162.277 1.61328 162.277 1.47656C162.277 1.19531 161.984 1.05469 161.398 1.05469L161.439 0.333984C162.1 0.333984 162.596 0.435547 162.928 0.638672C163.264 0.841797 163.432 1.11523 163.432 1.45898C163.432 1.69336 163.355 1.88672 163.203 2.03906C163.051 2.19141 162.834 2.28711 162.553 2.32617V2.73047H161.51Z" fill="#1E243C"/>
<rect y="9" width="33" height="1" rx="0.5" fill="#E6E7E8"/>
<rect x="178" y="9" width="33" height="1" rx="0.5" fill="#E6E7E8"/>
</svg>
