<svg xmlns="http://www.w3.org/2000/svg" width="22" height="16" viewBox="0 0 22 16"><g transform="translate(-2 -8)"><g transform="translate(2 8)"><path d="M2.5,22h21a.5.5,0,0,1,.5.5v1a.5.5,0,0,1-.5.5H2.5a.5.5,0,0,1-.5-.5v-1a.5.5,0,0,1,.5-.5Z" transform="translate(-2 -15)"/><path d="M2.5,22h21a.5.5,0,0,1,.5.5v1a.5.5,0,0,1-.5.5H2.5a.5.5,0,0,1-.5-.5v-1a.5.5,0,0,1,.5-.5Z" transform="translate(-2 -8)"/><path d="M2.5,8h21a.5.5,0,0,1,.5.5v1a.5.5,0,0,1-.5.5H2.5A.5.5,0,0,1,2,9.5v-1A.5.5,0,0,1,2.5,8Z" transform="translate(-2 -8)"/></g></g></svg>