<svg id="Layer_1" data-name="Layer 1" xmlns="https://www.w3.org/2000/svg" viewBox="0 0 19.4 25.49">
  <defs>
    <style>.cls-1{fill:#007bff;}.cls-2{fill:none;stroke:#007bff;stroke-miterlimit:10;}</style>
  </defs>
  <title>iconthay</title>
  <path class="cls-1" d="M5,1.52A4,4,0,0,1,5.61.46a1.52,1.52,0,0,1,1-.43C8,0,9.45,0,10.89,0A1.38,1.38,0,0,1,12.32,1.3c0,.27.16.33.4.33.86,0,1.71,0,2.57,0a2.39,2.39,0,0,1,2.17,2.26c0,.61,0,1.22,0,1.86H16V4.3c0-.82-.38-1.2-1.19-1.2s-1.44,0-2.16,0c-.22,0-.31.06-.35.28A1.32,1.32,0,0,1,11,4.51c-1.54,0-3.07,0-4.61,0-.5,0-1.13-.36-1.25-1.39H3.47c-.3,0-.6,0-.9,0a1,1,0,0,0-1.1,1.13V20.49c0,.9.35,1.25,1.26,1.25.2,0,.4,0,.62,0,0,.16,0,.27,0,.38,0,.35,0,.7,0,1A2.59,2.59,0,0,1,0,20.65C0,15.19,0,9.73,0,4.27A2.58,2.58,0,0,1,2.63,1.62H5.11Zm1.62,0V3h4.21V1.5Z"/>
  <path class="cls-1" d="M11.48,11.28H7.64c-.53,0-.78-.21-.79-.64s.26-.66.8-.66h7.74q.82,0,.81.66c0,.43-.26.64-.82.64Z"/>
  <path class="cls-1" d="M11.48,14.82H7.64c-.53,0-.78-.21-.79-.64s.26-.66.8-.66h7.74q.82,0,.81.66c0,.43-.26.64-.82.64Z"/>
  <path class="cls-1" d="M11.48,18.36H7.64c-.53,0-.78-.21-.79-.64s.26-.66.8-.66h7.74q.82,0,.81.66c0,.43-.26.64-.82.64Z"/>
  <path class="cls-1" d="M11.48,21.9H7.64c-.53,0-.78-.21-.79-.63s.26-.67.8-.67h7.74q.82,0,.81.66c0,.43-.26.64-.82.64Z"/>
  <rect class="cls-2" x="4.35" y="6.87" width="14.36" height="18.13" rx="1.34"/>
</svg>