<svg width="21" height="21" viewBox="0 0 21 21" fill="none" xmlns="http://www.w3.org/2000/svg">
<path d="M2.42 15.7143C1.08567 15.7143 0 16.8 0 18.1343C0 19.4686 1.08567 20.5543 2.42 20.5543C3.75433 20.5543 4.84 19.4686 4.84 18.1343C4.84 16.8 3.75433 15.7143 2.42 15.7143Z" fill="#576578"/>
<path d="M10.2771 15.7143C8.94279 15.7143 7.85712 16.8 7.85712 18.1343C7.85712 19.4686 8.94279 20.5543 10.2771 20.5543C11.6114 20.5543 12.6971 19.4686 12.6971 18.1343C12.6971 16.8 11.6114 15.7143 10.2771 15.7143Z" fill="#576578"/>
<path d="M18.1343 15.7143C16.8 15.7143 15.7143 16.8 15.7143 18.1343C15.7143 19.4686 16.8 20.5543 18.1343 20.5543C19.4686 20.5543 20.5543 19.4686 20.5543 18.1343C20.5543 16.8 19.4686 15.7143 18.1343 15.7143Z" fill="#576578"/>
<path d="M2.42 7.8571C1.08567 7.8571 0 8.94277 0 10.2771C0 11.6114 1.08567 12.6971 2.42 12.6971C3.75433 12.6971 4.84 11.6114 4.84 10.2771C4.84 8.94277 3.75433 7.8571 2.42 7.8571Z" fill="#576578"/>
<path d="M10.2771 7.8571C8.94279 7.8571 7.85712 8.94277 7.85712 10.2771C7.85712 11.6114 8.94279 12.6971 10.2771 12.6971C11.6114 12.6971 12.6971 11.6114 12.6971 10.2771C12.6971 8.94277 11.6114 7.8571 10.2771 7.8571Z" fill="#576578"/>
<path d="M18.1343 7.8571C16.8 7.8571 15.7143 8.94277 15.7143 10.2771C15.7143 11.6114 16.8 12.6971 18.1343 12.6971C19.4686 12.6971 20.5543 11.6114 20.5543 10.2771C20.5543 8.94277 19.4686 7.8571 18.1343 7.8571Z" fill="#576578"/>
<path d="M2.42 0C1.08567 0 0 1.08567 0 2.42C0 3.75433 1.08567 4.84 2.42 4.84C3.75433 4.84 4.84 3.75433 4.84 2.42C4.84 1.08567 3.75433 0 2.42 0Z" fill="#576578"/>
<path d="M10.2771 0C8.94279 0 7.85712 1.08567 7.85712 2.42C7.85712 3.75433 8.94279 4.84 10.2771 4.84C11.6114 4.84 12.6971 3.75433 12.6971 2.42C12.6971 1.08567 11.6114 0 10.2771 0Z" fill="#576578"/>
<path d="M18.1343 4.84C19.4686 4.84 20.5543 3.75433 20.5543 2.42C20.5543 1.08567 19.4686 0 18.1343 0C16.8 0 15.7143 1.08567 15.7143 2.42C15.7143 3.75433 16.8 4.84 18.1343 4.84Z" fill="#576578"/>
</svg>
