<svg xmlns="http://www.w3.org/2000/svg" width="30.611" height="24" viewBox="0 0 30.611 24"><defs><style>.a{fill:#2ca01c;}</style></defs><g transform="translate(-2 -8.479)"><g transform="translate(2 8.479)"><path class="a" d="M13.99,30.825c-2.842,2.643-7.682,1.944-9.948-.854C1.359,26.666.823,20.4,5.5,14.8a22.632,22.632,0,0,1,8.377-6.321L15.38,10.9c-4.646,2.251-8.118,5.3-8.611,10.421a16.261,16.261,0,0,1,5.384.479,5.045,5.045,0,0,1,3.274,3.144,5.3,5.3,0,0,1-1.438,5.877Zm16.845,0c-2.842,2.643-7.682,1.944-9.948-.854C18.2,26.666,17.668,20.4,22.341,14.8a22.628,22.628,0,0,1,8.377-6.321L32.224,10.9c-4.646,2.251-8.118,5.3-8.61,10.421A16.261,16.261,0,0,1,29,21.8a5.045,5.045,0,0,1,3.274,3.144A5.3,5.3,0,0,1,30.835,30.825Z" transform="translate(-2 -8.479)"/></g></g></svg>