<svg xmlns="http://www.w3.org/2000/svg" width="30.611" height="24" viewBox="0 0 30.611 24"><defs><style>.a{fill:#2ca01c;}</style></defs><g transform="translate(0 0)"><path class="a" d="M20.62,10.133c2.842-2.643,7.682-1.944,9.948.854,2.683,3.3,3.218,9.568-1.455,15.171a22.632,22.632,0,0,1-8.377,6.321L19.23,30.053c4.646-2.251,8.118-5.3,8.611-10.421a16.261,16.261,0,0,1-5.384-.479,5.045,5.045,0,0,1-3.274-3.144,5.3,5.3,0,0,1,1.438-5.877Zm-16.845,0c2.842-2.643,7.682-1.944,9.948.854,2.683,3.3,3.218,9.568-1.455,15.171a22.628,22.628,0,0,1-8.377,6.321L2.386,30.053C7.032,27.8,10.5,24.75,11,19.632a16.261,16.261,0,0,1-5.384-.479A5.045,5.045,0,0,1,2.338,16.01,5.3,5.3,0,0,1,3.775,10.133Z" transform="translate(-2 -8.479)"/></g></svg>